<svg width="100" height="200" viewBox="0 0 100 200" fill="none" xmlns="http://www.w3.org/2000/svg">
<g clip-path="url(#clip0_46_3262)">
<path d="M98.387 198.38V155.234C68.5547 154.586 44.5676 130.111 44.5676 99.9995C44.5676 69.8881 68.5547 45.4193 98.387 44.765V1.61914C44.8321 2.27346 1.61279 46.0672 1.61279 99.9995C1.61279 153.932 44.8321 197.726 98.387 198.38Z" fill="#F9AB00"/>
<path d="M98.3871 199.999H98.3677C72.0194 199.675 47.3032 189.135 28.7677 170.309C10.2194 151.463 0 126.496 0 99.9992C0 73.5027 10.2194 48.5286 28.7677 29.6895C47.3032 10.8634 72.0194 0.323122 98.3677 -0.00079636C98.7871 -0.00727472 99.2129 0.161163 99.5226 0.465646C99.8323 0.770129 100 1.18474 100 1.61879V44.7647C100 45.6457 99.2968 46.3648 98.4194 46.3843C84.4 46.6888 71.2645 52.4027 61.4387 62.4701C51.5935 72.5504 46.1742 85.8829 46.1742 99.9992C46.1742 114.116 51.5935 127.448 61.4387 137.528C71.2645 147.596 84.4 153.303 98.4194 153.614C99.2968 153.634 100 154.353 100 155.234V198.38C100 198.814 99.8258 199.228 99.5226 199.533C99.2193 199.831 98.8129 199.999 98.3871 199.999ZM96.7742 3.27078C71.8968 3.98988 48.6129 14.1415 31.0645 31.9634C13.1097 50.2 3.22581 74.3578 3.22581 99.9992C3.22581 125.641 13.1097 149.798 31.0645 168.028C48.6194 185.857 71.8968 196.009 96.7742 196.721V156.795C82.5032 156.089 69.1871 150.09 59.1355 139.796C48.6968 129.106 42.9484 114.971 42.9484 99.9992C42.9484 85.0277 48.6968 70.8919 59.1355 60.2026C69.1871 49.9085 82.4968 43.9095 96.7742 43.2034V3.27078Z" fill="#1E1E1E"/>
</g>
<defs>
<clipPath id="clip0_46_3262">
<rect width="100" height="200" fill="white"/>
</clipPath>
</defs>
</svg>
