<svg width="24" height="25" viewBox="0 0 24 25" fill="none" xmlns="http://www.w3.org/2000/svg">
<path d="M16.356 9.528C13.8253 7.77467 12.4107 5.61067 12.3693 3.43333L11.7027 3.44533C11.7467 5.84267 13.264 8.19867 15.976 10.076C17.2253 10.9413 18.6547 11.6333 20.0973 12.1H0V12.7667H20.0973C18.6533 13.2333 17.2213 13.9267 15.9707 14.7933C13.2573 16.6747 11.7427 19.032 11.7027 21.432L12.3693 21.4427C12.4053 19.2627 13.8187 17.096 16.3507 15.3413C18.6413 13.7533 21.56 12.7667 23.968 12.7667V12.1C21.5627 12.1 18.6453 11.1147 16.3547 9.528H16.356Z" fill="white"/>
</svg>
