<svg width="24" height="18" viewBox="0 0 24 18" fill="none" xmlns="http://www.w3.org/2000/svg">
<path d="M16.356 6.09467C13.8253 4.34133 12.4107 2.17733 12.3693 0L11.7027 0.012C11.7467 2.40933 13.264 4.76533 15.976 6.64267C17.2253 7.508 18.6547 8.2 20.0973 8.66667H0V9.33333H20.0973C18.6533 9.8 17.2213 10.4933 15.9707 11.36C13.2573 13.2413 11.7427 15.5987 11.7027 17.9987L12.3693 18.0093C12.4053 15.8293 13.8187 13.6627 16.3507 11.908C18.6413 10.32 21.56 9.33333 23.968 9.33333V8.66667C21.5627 8.66667 18.6453 7.68133 16.3547 6.09467H16.356Z" fill="#1E1E1E"/>
</svg>
