<svg width="65" height="60" viewBox="0 0 65 60" fill="none" xmlns="http://www.w3.org/2000/svg">
<g clip-path="url(#clip0_67_413)">
<path d="M62.0267 19.269H43.5035V2.24458C43.5035 1.48141 42.8814 0.863281 42.1134 0.863281H22.1688C21.4007 0.863281 20.7787 1.48141 20.7787 2.24458V19.269H2.25889C1.49085 19.269 0.868774 19.8872 0.868774 20.6503V39.6984C0.868774 40.4616 1.49085 41.0797 2.25889 41.0797H20.7821V57.7588C20.7821 58.522 21.4042 59.1401 22.1722 59.1401H42.1169C42.8849 59.1401 43.507 58.522 43.507 57.7588V41.0797H62.0302C62.7983 41.0797 63.4203 40.4616 63.4203 39.6984V20.6503C63.4203 19.8872 62.7983 19.269 62.0302 19.269H62.0267Z" fill="#4285F4"/>
<path d="M42.1169 60H22.1723C20.9281 60 19.9133 58.9916 19.9133 57.7554V41.9396H2.25893C1.01478 41.9396 0 40.9312 0 39.695V20.6469C0 19.4106 1.01478 18.4023 2.25893 18.4023H19.9133V2.2446C19.9133 1.00835 20.9281 0 22.1723 0H42.1169C43.3611 0 44.3758 1.00835 44.3758 2.2446V18.4058H62.0303C63.2744 18.4058 64.2892 19.4141 64.2892 20.6504V39.6984C64.2892 40.9347 63.2744 41.943 62.0303 41.943H44.3758V57.7588C44.3758 58.9951 43.3611 60.0034 42.1169 60.0034V60ZM2.25893 20.1324C1.97048 20.1324 1.73764 20.3637 1.73764 20.6504V39.6984C1.73764 39.985 1.97048 40.2164 2.25893 40.2164H20.7822C21.2618 40.2164 21.651 40.6032 21.651 41.0797V57.7588C21.651 58.0455 21.8838 58.2768 22.1723 58.2768H42.1169C42.4054 58.2768 42.6382 58.0455 42.6382 57.7588V41.0797C42.6382 40.6032 43.0274 40.2164 43.507 40.2164H62.0303C62.3187 40.2164 62.5516 39.985 62.5516 39.6984V20.6504C62.5516 20.3637 62.3187 20.1324 62.0303 20.1324H43.507C43.0274 20.1324 42.6382 19.7456 42.6382 19.2691V2.2446C42.6382 1.95799 42.4054 1.72662 42.1169 1.72662H22.1723C21.8838 1.72662 21.651 1.95799 21.651 2.2446V19.2691C21.651 19.7456 21.2618 20.1324 20.7822 20.1324H2.25893Z" fill="#1E1E1E"/>
</g>
<defs>
<clipPath id="clip0_67_413">
<rect width="64.2857" height="60" fill="white"/>
</clipPath>
</defs>
</svg>
