<svg width="114" height="100" viewBox="0 0 114 100" fill="none" xmlns="http://www.w3.org/2000/svg">
<g clip-path="url(#clip0_207_1954)">
<path d="M6.63476 41.9108L18.8976 49.6385L6.63476 57.3661C1.1719 60.8102 -0.0745456 67.4861 3.85293 72.2765C7.78041 77.0669 15.3935 78.1599 20.8563 74.7188L46.8838 58.3148C46.9208 58.2912 46.9544 58.2677 46.9914 58.2441C47.0787 58.1881 47.1627 58.1321 47.2467 58.0762C47.3307 58.0202 47.4113 57.9613 47.4919 57.9053C47.5591 57.8581 47.623 57.8081 47.6868 57.7609C47.7876 57.6873 47.885 57.6107 47.9825 57.5341C48.0228 57.5017 48.0597 57.4722 48.0967 57.4398C48.2176 57.3396 48.3386 57.2365 48.4562 57.1334C48.4663 57.1246 48.4763 57.1157 48.4864 57.1069C49.3566 56.3262 50.0688 55.4482 50.6165 54.5084C50.6265 54.4907 50.6366 54.476 50.6467 54.4583C50.7173 54.3316 50.7878 54.205 50.855 54.0783C50.8785 54.0341 50.902 53.9869 50.9256 53.9428C50.9726 53.8455 51.0196 53.7483 51.0667 53.6481C51.1003 53.5745 51.1339 53.4979 51.1674 53.4242C51.1977 53.3535 51.2246 53.2828 51.2548 53.2121C51.2951 53.1119 51.3354 53.0088 51.3724 52.9087C51.3892 52.8615 51.406 52.8144 51.4228 52.7673C51.4665 52.6435 51.5068 52.5198 51.5471 52.396C51.5572 52.3666 51.5639 52.3371 51.574 52.3077C51.6143 52.1692 51.6546 52.0278 51.6882 51.8864C51.6916 51.8657 51.6983 51.8451 51.7016 51.8245C51.7352 51.6772 51.7688 51.5299 51.7957 51.3826C51.7991 51.359 51.8024 51.3384 51.8058 51.3148C51.8327 51.1705 51.8562 51.0261 51.8763 50.8817C51.8797 50.8493 51.8831 50.814 51.8898 50.7816C51.9066 50.649 51.92 50.5164 51.9301 50.3838C51.9335 50.3279 51.9368 50.2719 51.9402 50.2159C51.9469 50.1069 51.9536 49.9949 51.957 49.8859C51.957 49.8035 51.957 49.721 51.957 49.6385C51.957 49.556 51.957 49.4735 51.957 49.391C51.957 49.282 51.9469 49.17 51.9402 49.061C51.9368 49.0051 51.9335 48.9491 51.9301 48.8931C51.92 48.7605 51.9066 48.628 51.8898 48.4954C51.8864 48.463 51.8831 48.4276 51.8763 48.3952C51.8562 48.2508 51.8327 48.1065 51.8058 47.9621C51.8024 47.9386 51.7991 47.9179 51.7957 47.8944C51.7688 47.7471 51.7352 47.5998 51.7016 47.4524C51.6983 47.4318 51.6916 47.4112 51.6882 47.3906C51.6546 47.2492 51.6143 47.1107 51.574 46.9693C51.5639 46.9398 51.5572 46.9104 51.5471 46.8809C51.5101 46.7572 51.4665 46.6334 51.4228 46.5097C51.406 46.4626 51.3892 46.4154 51.3724 46.3683C51.3354 46.2652 51.2951 46.165 51.2548 46.0648C51.2279 45.9941 51.1977 45.9234 51.1674 45.8527C51.1339 45.7791 51.1003 45.7025 51.0667 45.6288C51.023 45.5316 50.9759 45.4314 50.9256 45.3342C50.902 45.287 50.8785 45.2429 50.855 45.1987C50.7878 45.072 50.7206 44.9453 50.6467 44.8186C50.6366 44.8009 50.6265 44.7862 50.6165 44.7685C50.0688 43.8287 49.3566 42.9508 48.4864 42.1701C48.4763 42.1612 48.4663 42.1524 48.4562 42.1435C48.3386 42.0404 48.221 41.9373 48.0967 41.8371C48.0597 41.8047 48.0194 41.7753 47.9825 41.7429C47.885 41.6663 47.7876 41.5897 47.6868 41.516C47.623 41.4659 47.5558 41.4188 47.4919 41.3717C47.4113 41.3127 47.3273 41.2568 47.2467 41.2008C47.1627 41.1419 47.0787 41.0859 46.9914 41.0299C46.9544 41.0063 46.9208 40.9828 46.8838 40.9592L20.8563 24.5581C15.3901 21.1141 7.77705 22.2071 3.84957 27.0005C-0.0779054 31.7909 1.16854 38.4668 6.63476 41.9108Z" fill="#FF7DAF"/>
<path d="M13.7738 77.4675C13.0649 77.4675 12.3526 77.4174 11.6404 77.3143C8.20678 76.8223 5.19985 75.1872 3.16724 72.7095C-1.0223 67.595 0.311501 60.4448 6.14392 56.771L17.4594 49.6414L6.14392 42.5117C0.311501 38.835 -1.0223 31.6848 3.16724 26.5703C7.36013 21.4558 15.5141 20.2862 21.3465 23.96L47.4883 40.4406C47.579 40.4995 47.6697 40.5585 47.7604 40.6203C47.8478 40.6793 47.9351 40.7411 48.0225 40.803C48.093 40.8531 48.1636 40.9061 48.2341 40.9591C48.3383 41.0387 48.4458 41.1182 48.5499 41.2007L48.6709 41.3009C48.8019 41.4069 48.9296 41.516 49.0539 41.6279L49.0875 41.6574C50.0047 42.4793 50.7707 43.4133 51.3687 44.4385L51.4023 44.4945C51.4796 44.6271 51.5535 44.7626 51.6241 44.8981L51.698 45.0425C51.7517 45.1485 51.7988 45.2516 51.8492 45.3577C51.8861 45.4343 51.9231 45.5138 51.9567 45.5963C51.9903 45.6729 52.0205 45.7466 52.0507 45.8202C52.0944 45.9292 52.1381 46.0383 52.1784 46.1443L52.2322 46.2975C52.2792 46.4271 52.3229 46.5597 52.3632 46.6952L52.3901 46.7866C52.4337 46.9368 52.4741 47.0871 52.511 47.2373L52.5211 47.2845C52.5648 47.4612 52.5984 47.6203 52.6286 47.7765L52.6387 47.8265C52.6689 48.0033 52.6958 48.1565 52.716 48.3127L52.7294 48.4217C52.7462 48.5631 52.763 48.7045 52.7731 48.8459C52.7731 48.8871 52.7798 48.9284 52.7798 48.9696V49.0227C52.7899 49.1405 52.7966 49.2584 52.8 49.3762C52.8 49.444 52.8 49.5147 52.8 49.5824V49.6414V49.7003C52.8 49.768 52.8 49.8387 52.8 49.9065C52.8 50.0244 52.7899 50.1422 52.7832 50.26V50.3131C52.7764 50.3543 52.7764 50.3956 52.7731 50.4398C52.763 50.5782 52.7462 50.7196 52.7294 50.8611L52.716 50.973C52.6958 51.1262 52.6689 51.2794 52.642 51.4355L52.6286 51.5092C52.5984 51.6653 52.5648 51.8244 52.5278 51.9806L52.5144 52.0454C52.4774 52.1956 52.4371 52.3459 52.3934 52.4961L52.3666 52.5904C52.3262 52.723 52.2826 52.8556 52.2355 52.9882L52.1851 53.1355C52.1448 53.2474 52.1011 53.3564 52.0575 53.4625C52.0272 53.5391 51.997 53.6127 51.9667 53.6864C51.9298 53.7689 51.8928 53.8484 51.8559 53.928C51.8088 54.0311 51.7584 54.1342 51.7081 54.2403L51.6409 54.3728C51.5636 54.5231 51.4897 54.6586 51.4124 54.7941L51.3889 54.8354C50.7875 55.8695 50.0181 56.8063 49.1009 57.6253L49.0673 57.6548C48.943 57.7668 48.8154 57.8758 48.6843 57.9818L48.5634 58.082C48.4592 58.1645 48.3517 58.247 48.2442 58.3265C48.177 58.3766 48.1065 58.4296 48.0359 58.4797C47.9486 58.5416 47.8612 58.6035 47.7705 58.6624C47.6798 58.7242 47.5891 58.7832 47.4984 58.8421L47.3875 58.9157L21.3566 75.3197C19.1191 76.7309 16.4884 77.4675 13.7839 77.4704L13.7738 77.4675ZM7.12495 41.3127L20.3386 49.6384L7.12495 57.9641C2.0451 61.1666 0.882649 67.3947 4.53463 71.8463C6.30183 74.0028 8.92239 75.4287 11.9159 75.8589C14.906 76.289 17.9096 75.6703 20.3689 74.1207L46.4938 57.6519C46.5744 57.5988 46.6551 57.5458 46.7323 57.4928C46.8096 57.4397 46.8869 57.3867 46.9608 57.3337C47.0213 57.2895 47.0818 57.2453 47.1422 57.2011C47.2363 57.1304 47.3304 57.0597 47.4211 56.989L47.5286 56.9006C47.6428 56.8063 47.7537 56.712 47.8646 56.6148L48.4928 57.1039L47.8914 56.5883C48.691 55.8724 49.3563 55.0593 49.8737 54.1695L49.9005 54.1254C49.9677 54.0075 50.0316 53.8897 50.0954 53.7689L50.1626 53.6392C50.2063 53.5509 50.2499 53.4595 50.2936 53.3682C50.3272 53.2975 50.3575 53.2268 50.3877 53.159C50.4146 53.0972 50.4414 53.0323 50.4683 52.9646C50.5086 52.8674 50.5456 52.7731 50.5792 52.6759L50.6229 52.5462C50.6632 52.4313 50.7035 52.3164 50.7371 52.1986L50.7606 52.1161C50.7976 51.9865 50.8345 51.8568 50.8681 51.7272L50.8816 51.6683C50.9152 51.5328 50.9454 51.3972 50.9689 51.2588L50.979 51.194C51.0025 51.0614 51.026 50.9259 51.0428 50.7933L51.0529 50.699C51.0664 50.5753 51.0831 50.4545 51.0899 50.3307L51.0999 50.1746C51.1067 50.0715 51.1134 49.9684 51.1167 49.8682C51.1167 49.8122 51.1167 49.7563 51.1167 49.6973V49.6355V49.5765C51.1167 49.5206 51.1167 49.4646 51.1167 49.4057C51.1167 49.3026 51.1067 49.1994 51.0999 49.0963L51.0899 48.9431C51.0798 48.8194 51.0664 48.6957 51.0529 48.5719L51.0428 48.4776C51.026 48.3392 51.0025 48.2066 50.979 48.0711L50.9723 48.0298C50.942 47.8707 50.9118 47.7323 50.8816 47.5967L50.8715 47.5585C50.8345 47.4082 50.7976 47.2786 50.7606 47.1489L50.7371 47.0664C50.7035 46.9515 50.6632 46.8337 50.6229 46.7188L50.5758 46.5862C50.5422 46.4949 50.5053 46.4006 50.465 46.3063C50.4381 46.2356 50.4112 46.1708 50.3843 46.109C50.3541 46.0412 50.3239 45.9705 50.2903 45.9027C50.2466 45.8085 50.2029 45.7171 50.1592 45.6258L50.1021 45.5168C50.0316 45.3783 49.9677 45.2605 49.9005 45.1456L49.8804 45.1102C49.3563 44.2087 48.6877 43.3926 47.8881 42.6797L48.4592 42.1376L47.8612 42.6532C47.7537 42.5559 47.6395 42.4617 47.5286 42.3674L47.4211 42.279C47.3304 42.2083 47.2397 42.1376 47.1456 42.0669C47.0818 42.0197 47.0213 41.9756 46.9608 41.9314C46.8869 41.8783 46.8096 41.8253 46.7323 41.7723C46.6517 41.7163 46.5744 41.6662 46.4938 41.6132L46.393 41.5454L20.3655 25.1561C15.2856 21.9567 8.18326 22.976 4.53127 27.4306C0.882649 31.8851 2.0451 38.1132 7.12495 41.3127Z" fill="#1E1E1E"/>
<path d="M107.354 41.9107L95.0915 49.6384L107.354 57.366C112.817 60.8101 114.064 67.486 110.136 72.2764C106.209 77.0667 98.5957 78.1598 93.1328 74.7187L67.1053 58.3147C67.0683 58.2911 67.0347 58.2676 66.9978 58.244C66.9104 58.188 66.8264 58.132 66.7425 58.0761C66.6585 58.0201 66.5778 57.9612 66.4972 57.9052C66.43 57.858 66.3662 57.808 66.3023 57.7608C66.2015 57.6872 66.1041 57.6106 66.0067 57.534C65.9664 57.5016 65.9294 57.4721 65.8925 57.4397C65.7715 57.3395 65.6506 57.2364 65.533 57.1333C65.5229 57.1245 65.5128 57.1156 65.5027 57.1068C64.6326 56.3261 63.9203 55.4481 63.3727 54.5083C63.3626 54.4906 63.3525 54.4759 63.3424 54.4582C63.2719 54.3315 63.2013 54.2049 63.1341 54.0782C63.1106 54.034 63.0871 53.9868 63.0636 53.9426C63.0166 53.8454 62.9695 53.7482 62.9225 53.648C62.8889 53.5744 62.8553 53.4978 62.8217 53.4241C62.7915 53.3534 62.7646 53.2827 62.7343 53.212C62.694 53.1118 62.6537 53.0087 62.6168 52.9086C62.6 52.8614 62.5832 52.8143 62.5664 52.7671C62.5227 52.6434 62.4824 52.5197 62.442 52.3959C62.432 52.3665 62.4252 52.337 62.4152 52.3075C62.3749 52.1691 62.3345 52.0277 62.3009 51.8863C62.2976 51.8656 62.2909 51.845 62.2875 51.8244C62.2539 51.6771 62.2203 51.5298 62.1934 51.3825C62.1901 51.3589 62.1867 51.3383 62.1834 51.3147C62.1565 51.1703 62.133 51.026 62.1128 50.8816C62.1094 50.8492 62.1061 50.8139 62.0994 50.7815C62.0826 50.6489 62.0691 50.5163 62.059 50.3837C62.0557 50.3278 62.0523 50.2718 62.049 50.2158C62.0422 50.1068 62.0355 49.9948 62.0322 49.8858C62.0322 49.8033 62.0322 49.7209 62.0322 49.6384C62.0322 49.5559 62.0322 49.4734 62.0322 49.3909C62.0322 49.2819 62.0422 49.1699 62.049 49.0609C62.0523 49.0049 62.0557 48.949 62.059 48.893C62.0691 48.7604 62.0826 48.6278 62.0994 48.4953C62.1027 48.4629 62.1061 48.4275 62.1128 48.3951C62.133 48.2507 62.1565 48.1064 62.1834 47.962C62.1867 47.9385 62.1901 47.9178 62.1934 47.8943C62.2203 47.747 62.2539 47.5996 62.2875 47.4523C62.2909 47.4317 62.2976 47.4111 62.3009 47.3905C62.3345 47.2491 62.3749 47.1106 62.4152 46.9692C62.4252 46.9397 62.432 46.9103 62.442 46.8808C62.479 46.7571 62.5227 46.6333 62.5664 46.5096C62.5832 46.4624 62.6 46.4153 62.6168 46.3682C62.6537 46.2651 62.694 46.1649 62.7343 46.0647C62.7612 45.994 62.7915 45.9233 62.8217 45.8526C62.8553 45.7789 62.8889 45.7023 62.9225 45.6287C62.9662 45.5315 63.0132 45.4313 63.0636 45.3341C63.0871 45.2869 63.1106 45.2428 63.1341 45.1986C63.2013 45.0719 63.2685 44.9452 63.3424 44.8185C63.3525 44.8008 63.3626 44.7861 63.3727 44.7684C63.9203 43.8286 64.6326 42.9507 65.5027 42.1699C65.5128 42.1611 65.5229 42.1523 65.533 42.1434C65.6506 42.0403 65.7681 41.9372 65.8925 41.837C65.9294 41.8046 65.9697 41.7752 66.0067 41.7428C66.1041 41.6662 66.2015 41.5896 66.3023 41.5159C66.3662 41.4658 66.4334 41.4187 66.4972 41.3716C66.5778 41.3126 66.6618 41.2567 66.7425 41.2007C66.8264 41.1418 66.9104 41.0858 66.9978 41.0298C67.0347 41.0062 67.0683 40.9827 67.1053 40.9591L93.1328 24.5551C98.5957 21.1111 106.212 22.2041 110.136 26.9974C114.064 31.7878 112.817 38.4667 107.354 41.9077V41.9107Z" fill="#FF7DAF"/>
<path d="M100.215 77.4675C97.5106 77.4675 94.8799 76.728 92.6424 75.3168L66.5006 58.8391C66.4099 58.7802 66.3192 58.7213 66.2285 58.6594C66.1411 58.5976 66.0504 58.5386 65.9664 58.4768C65.8959 58.4267 65.8253 58.3737 65.7548 58.3206C65.6506 58.2411 65.5431 58.1615 65.4423 58.079L65.318 57.9789C65.187 57.8728 65.0593 57.7638 64.935 57.6519L64.9014 57.6224C63.9842 56.8004 63.2182 55.8665 62.6235 54.8442L62.5933 54.7912C62.516 54.6557 62.4421 54.5201 62.3716 54.3846L62.2977 54.2403C62.2439 54.1342 62.1969 54.0311 62.1465 53.925C62.1095 53.8484 62.0726 53.7689 62.039 53.6864C62.0054 53.6098 61.9751 53.5361 61.9449 53.4625C61.9012 53.3535 61.8575 53.2445 61.8172 53.1355L61.7635 52.9852C61.7164 52.8526 61.6728 52.7201 61.6324 52.5875L61.6056 52.4961C61.5619 52.3459 61.5216 52.1956 61.4846 52.0454L61.4745 52.0012C61.4309 51.8215 61.3973 51.6653 61.367 51.5063L61.3569 51.4532C61.3267 51.2794 61.2998 51.1233 61.2797 50.9701L61.2662 50.864C61.2494 50.7226 61.2326 50.5812 61.2226 50.4398L61.2125 50.263C61.2058 50.1451 61.199 50.0273 61.1957 49.9124C61.1957 49.8446 61.1957 49.7769 61.1957 49.7091V49.6502V49.5883C61.1957 49.5206 61.1957 49.4528 61.1957 49.385C61.1957 49.2672 61.2058 49.1494 61.2125 49.0315L61.2226 48.8518C61.2326 48.7104 61.2494 48.569 61.2662 48.4276L61.2797 48.3186C61.2998 48.1654 61.3267 48.0092 61.3536 47.856L61.367 47.7853C61.3973 47.6262 61.4309 47.4701 61.4678 47.311L61.4812 47.2462C61.5182 47.0959 61.5585 46.9457 61.6022 46.7954L61.6291 46.7011C61.6694 46.5686 61.7131 46.436 61.7601 46.3034L61.8139 46.1532C61.8542 46.0441 61.8979 45.9351 61.9415 45.8261C61.9718 45.7495 62.002 45.6759 62.0356 45.6022C62.0692 45.5227 62.1062 45.4402 62.1431 45.3606C62.1901 45.2575 62.2405 45.1515 62.2909 45.0484L62.3682 44.9011C62.4388 44.7655 62.5127 44.63 62.5899 44.4945L62.6235 44.4356C63.2149 43.4192 63.9842 42.4823 64.8981 41.6603L65.5297 42.1494L64.9317 41.6338C65.056 41.5219 65.1836 41.4128 65.3147 41.3068L65.4356 41.2066C65.5398 41.1241 65.6439 41.0416 65.7514 40.9621C65.8186 40.912 65.8892 40.859 65.9597 40.8089C66.0471 40.747 66.1344 40.6852 66.2251 40.6233C66.3158 40.5614 66.4066 40.5025 66.4973 40.4436L66.6081 40.3699L92.6424 23.96C98.4748 20.2862 106.629 21.4558 110.818 26.5703C115.008 31.6848 113.674 38.835 107.842 42.5088L96.5262 49.6384L107.842 56.768C113.674 60.4448 115.008 67.595 110.818 72.7065C108.789 75.1842 105.779 76.8193 102.345 77.3113C101.633 77.4144 100.921 77.4645 100.215 77.4645V77.4675ZM66.1277 56.6178C66.2352 56.715 66.3494 56.8093 66.4637 56.9035L66.5712 56.9919C66.6585 57.0626 66.7526 57.1333 66.8433 57.2011C66.9072 57.2482 66.9676 57.2924 67.0281 57.3366C67.102 57.3897 67.1793 57.4427 67.2566 57.4957C67.3338 57.5487 67.4145 57.6018 67.4917 57.6519L67.5925 57.7196L93.62 74.1207C96.0793 75.6703 99.0829 76.289 102.073 75.8589C105.063 75.4288 107.684 74.0058 109.454 71.8463C113.106 67.3917 111.944 61.1636 106.864 57.9642L93.6503 49.6384L106.864 41.3127C111.944 38.1102 113.106 31.8821 109.454 27.4306C105.802 22.976 98.6999 21.9567 93.62 25.1591L67.4951 41.6279C67.4145 41.6809 67.3338 41.734 67.2566 41.787C67.1793 41.84 67.102 41.8931 67.0247 41.9461C66.9643 41.9903 66.9038 42.0345 66.8433 42.0787C66.7492 42.1494 66.6552 42.2201 66.5678 42.2908L66.4838 42.3585C66.3461 42.4705 66.2352 42.5677 66.1243 42.662L65.4961 42.1729L66.0975 42.6885C65.2979 43.4044 64.6326 44.2176 64.1152 45.1073L64.0884 45.1544C64.0212 45.2723 63.9573 45.3901 63.8969 45.508L63.8297 45.6376C63.786 45.726 63.7423 45.8173 63.6986 45.9086C63.6651 45.9793 63.6348 46.05 63.6046 46.1178C63.5777 46.1826 63.5508 46.2474 63.5239 46.3122C63.4836 46.4095 63.4467 46.5037 63.4131 46.601L63.3694 46.7306C63.3291 46.8484 63.2888 46.9633 63.2552 47.0782L63.2317 47.1607C63.1947 47.2904 63.1577 47.42 63.1241 47.5526L63.1107 47.6115C63.0771 47.747 63.0469 47.8855 63.0233 48.021L63.0133 48.0829C62.9897 48.2184 62.9662 48.3539 62.9494 48.4865L62.9394 48.5837C62.9259 48.7045 62.9125 48.8282 62.9024 48.952L62.8923 49.1081C62.8856 49.2112 62.8789 49.3143 62.8755 49.4175C62.8755 49.4734 62.8755 49.5294 62.8755 49.5854V49.6502V49.7121C62.8755 49.768 62.8755 49.824 62.8755 49.88C62.8755 49.9831 62.8856 50.0862 62.8923 50.1893L62.9024 50.3425C62.9125 50.4663 62.9259 50.59 62.9394 50.7137L62.9494 50.8051C62.9662 50.9435 62.9897 51.0761 63.0133 51.2116L63.02 51.2529C63.0502 51.412 63.0805 51.5504 63.1107 51.686L63.1208 51.7243C63.1577 51.8745 63.1947 52.0041 63.2317 52.1338L63.2552 52.2163C63.2921 52.3312 63.3291 52.449 63.3694 52.5639L63.4164 52.6965C63.45 52.7908 63.487 52.885 63.5273 52.9793C63.5542 53.0471 63.5811 53.1119 63.6079 53.1767C63.6382 53.2445 63.6684 53.3152 63.702 53.3829C63.7457 53.4772 63.7894 53.5685 63.833 53.6569L63.8969 53.7836C63.9607 53.9044 64.0245 54.0222 64.0917 54.1371L64.1152 54.1784C64.636 55.0711 65.3046 55.8871 66.1008 56.6001L65.5297 57.1422L66.1277 56.6237V56.6178Z" fill="#1E1E1E"/>
</g>
<defs>
<clipPath id="clip0_207_1954">
<rect width="113.99" height="100" fill="white" transform="translate(0.010376)"/>
</clipPath>
</defs>
</svg>
