<svg width="114" height="101" viewBox="0 0 114 101" fill="none" xmlns="http://www.w3.org/2000/svg">
<g clip-path="url(#clip0_67_1665)">
<path d="M56.551 45.1651C70.2312 45.1651 81.3211 35.4362 81.3211 23.4349C81.3211 11.4337 70.2312 1.70482 56.551 1.70482C42.8709 1.70482 31.7809 11.4337 31.7809 23.4349C31.7809 35.4362 42.8709 45.1651 56.551 45.1651Z" fill="#4285F4"/>
<path d="M56.551 46.3651C42.1362 46.3651 30.4076 36.0807 30.4076 23.4349C30.4076 10.7892 42.1362 0.5 56.551 0.5C70.9659 0.5 82.6945 10.7892 82.6945 23.4349C82.6945 36.0807 70.9659 46.3699 56.551 46.3699V46.3651ZM56.551 2.90964C43.6469 2.90964 33.1543 12.1145 33.1543 23.4349C33.1543 34.7554 43.6469 43.9602 56.551 43.9602C69.4552 43.9602 79.9478 34.7554 79.9478 23.4349C79.9478 12.1145 69.4497 2.90964 56.551 2.90964Z" fill="#1E1E1E"/>
<path d="M56.551 99.2951C70.2312 99.2951 81.3211 89.5662 81.3211 77.565C81.3211 65.5638 70.2312 55.8349 56.551 55.8349C42.8709 55.8349 31.7809 65.5638 31.7809 77.565C31.7809 89.5662 42.8709 99.2951 56.551 99.2951Z" fill="#4285F4"/>
<path d="M56.551 100.5C42.1362 100.5 30.4076 90.2108 30.4076 77.565C30.4076 64.9192 42.1362 54.6301 56.551 54.6301C70.9659 54.6301 82.6945 64.9192 82.6945 77.565C82.6945 90.2108 70.9659 100.5 56.551 100.5ZM56.551 57.0445C43.6524 57.0445 33.1543 66.2493 33.1543 77.5698C33.1543 88.8903 43.6469 98.0951 56.551 98.0951C69.4552 98.0951 79.9478 88.8903 79.9478 77.5698C79.9478 66.2493 69.4552 57.0445 56.551 57.0445Z" fill="#1E1E1E"/>
</g>
<defs>
<clipPath id="clip0_67_1665">
<rect width="113.99" height="100" fill="white" transform="translate(0.010376 0.5)"/>
</clipPath>
</defs>
</svg>
