<svg width="100" height="100" viewBox="0 0 100 100" fill="none" xmlns="http://www.w3.org/2000/svg">
<path d="M85.4187 63.881C93.0843 63.881 99.2984 57.6669 99.2984 50.0014C99.2984 42.3358 93.0843 36.1217 85.4187 36.1217C77.7532 36.1217 71.5391 42.3358 71.5391 50.0014C71.5391 57.6669 77.7532 63.881 85.4187 63.881Z" fill="#F9AB00"/>
<path d="M85.418 64.5631C77.3866 64.5631 70.8535 58.03 70.8535 49.9986C70.8535 41.9672 77.3893 35.4369 85.418 35.4369C93.4467 35.4369 99.9825 41.9699 99.9825 50.0014C99.9825 58.0328 93.4494 64.5658 85.418 64.5658V64.5631ZM85.418 36.8065C78.1426 36.8065 72.2231 42.726 72.2231 50.0014C72.2231 57.2768 78.1426 63.1962 85.418 63.1962C92.6934 63.1962 98.6129 57.2768 98.6129 50.0014C98.6129 42.726 92.6934 36.8065 85.418 36.8065Z" fill="#1E1E1E"/>
<path d="M49.991 63.881C57.6565 63.881 63.8707 57.6669 63.8707 50.0014C63.8707 42.3358 57.6565 36.1217 49.991 36.1217C42.3255 36.1217 36.1113 42.3358 36.1113 50.0014C36.1113 57.6669 42.3255 63.881 49.991 63.881Z" fill="#F9AB00"/>
<path d="M49.9903 64.5631C41.9588 64.5631 35.4258 58.03 35.4258 49.9986C35.4258 41.9672 41.9588 35.4369 49.9903 35.4369C58.0217 35.4369 64.5547 41.9699 64.5547 50.0014C64.5547 58.0328 58.0217 64.5658 49.9903 64.5658V64.5631ZM49.9903 36.8065C42.7149 36.8065 36.7954 42.726 36.7954 50.0014C36.7954 57.2768 42.7149 63.1962 49.9903 63.1962C57.2656 63.1962 63.1851 57.2768 63.1851 50.0014C63.1851 42.726 57.2656 36.8065 49.9903 36.8065Z" fill="#1E1E1E"/>
<path d="M14.5652 63.881C22.2307 63.881 28.4449 57.6669 28.4449 50.0014C28.4449 42.3358 22.2307 36.1217 14.5652 36.1217C6.89969 36.1217 0.685547 42.3358 0.685547 50.0014C0.685547 57.6669 6.89969 63.881 14.5652 63.881Z" fill="#F9AB00"/>
<path d="M14.5645 64.5631C6.53306 64.5631 0 58.03 0 50.0014C0 41.9727 6.53306 35.4369 14.5645 35.4369C22.5959 35.4369 29.129 41.9699 29.129 50.0014C29.129 58.0328 22.5959 64.5658 14.5645 64.5658V64.5631ZM14.5645 36.8065C7.28909 36.8065 1.36961 42.726 1.36961 50.0014C1.36961 57.2768 7.28909 63.1962 14.5645 63.1962C21.8399 63.1962 27.7593 57.2768 27.7593 50.0014C27.7593 42.726 21.8371 36.8065 14.5645 36.8065Z" fill="#1E1E1E"/>
</svg>
