<svg width="100" height="100" viewBox="0 0 100 100" fill="none" xmlns="http://www.w3.org/2000/svg">
<path d="M98.016 41.688V17.904C98.016 17.02 97.3 16.304 96.416 16.304H83.756V4.40005C83.756 3.51605 83.04 2.80005 82.156 2.80005H58.372C57.488 2.80005 56.772 3.51605 56.772 4.40005V16.304H43.244V4.40005C43.244 3.51605 42.528 2.80005 41.644 2.80005H17.86C16.976 2.80005 16.26 3.51605 16.26 4.40005V16.304H3.6C2.716 16.304 2 17.02 2 17.904V41.688C2 42.572 2.716 43.288 3.6 43.288H16.26V56.816H3.6C2.716 56.816 2 57.532 2 58.416V82.2001C2 83.0841 2.716 83.8001 3.6 83.8001H16.26V95.7001C16.26 96.5841 16.976 97.3001 17.86 97.3001H41.644C42.528 97.3001 43.244 96.5841 43.244 95.7001V83.8001H56.772V95.7001C56.772 96.5841 57.488 97.3001 58.372 97.3001H82.156C83.04 97.3001 83.756 96.5841 83.756 95.7001V83.8001H96.416C97.3 83.8001 98.016 83.0841 98.016 82.2001V58.416C98.016 57.532 97.3 56.816 96.416 56.816H83.756V43.288H96.416C97.3 43.288 98.016 42.572 98.016 41.688ZM56.772 56.816H43.244V43.288H56.772V56.816Z" fill="#34A853"/>
<path d="M81.9598 98.104H58.1758C56.7438 98.104 55.5758 96.936 55.5758 95.504V84.604H44.0478V95.504C44.0478 96.936 42.8798 98.104 41.4478 98.104H17.6638C16.2318 98.104 15.0638 96.936 15.0638 95.504V84.604H3.3998C1.9678 84.604 0.799805 83.436 0.799805 82.004V58.22C0.799805 56.788 1.9678 55.62 3.3998 55.62H15.0598V44.092H3.3998C1.9678 44.092 0.799805 42.924 0.799805 41.492V17.708C0.799805 16.276 1.9678 15.108 3.3998 15.108H15.0598V4.19998C15.0598 2.76798 16.2278 1.59998 17.6598 1.59998H41.4438C42.8758 1.59998 44.0438 2.76798 44.0438 4.19998V15.104H55.5718V4.19998C55.5718 2.76798 56.7398 1.59998 58.1718 1.59998H81.9558C83.3878 1.59998 84.5558 2.76798 84.5558 4.19998V15.104H96.2158C97.6478 15.104 98.8158 16.272 98.8158 17.704V41.488C98.8158 42.92 97.6478 44.088 96.2158 44.088H84.5558V55.616H96.2158C97.6478 55.616 98.8158 56.784 98.8158 58.216V82C98.8158 83.432 97.6478 84.6 96.2158 84.6H84.5558V95.5C84.5558 96.932 83.3878 98.1 81.9558 98.1L81.9598 98.104ZM43.0438 82.604H56.5718C57.1238 82.604 57.5718 83.052 57.5718 83.604V95.504C57.5718 95.836 57.8398 96.104 58.1718 96.104H81.9558C82.2878 96.104 82.5558 95.836 82.5558 95.504V83.604C82.5558 83.052 83.0038 82.604 83.5558 82.604H96.2158C96.5478 82.604 96.8158 82.336 96.8158 82.004V58.22C96.8158 57.888 96.5478 57.62 96.2158 57.62H83.5558C83.0038 57.62 82.5558 57.172 82.5558 56.62V43.092C82.5558 42.54 83.0038 42.092 83.5558 42.092H96.2158C96.5478 42.092 96.8158 41.824 96.8158 41.492V17.708C96.8158 17.376 96.5478 17.108 96.2158 17.108H83.5558C83.0038 17.108 82.5558 16.66 82.5558 16.108V4.19998C82.5558 3.86798 82.2878 3.59998 81.9558 3.59998H58.1718C57.8398 3.59998 57.5718 3.86798 57.5718 4.19998V16.104C57.5718 16.656 57.1238 17.104 56.5718 17.104H43.0438C42.4918 17.104 42.0438 16.656 42.0438 16.104V4.19998C42.0438 3.86798 41.7758 3.59998 41.4438 3.59998H17.6598C17.3278 3.59998 17.0598 3.86798 17.0598 4.19998V16.104C17.0598 16.656 16.6118 17.104 16.0598 17.104H3.3998C3.0678 17.104 2.7998 17.372 2.7998 17.704V41.488C2.7998 41.82 3.0678 42.088 3.3998 42.088H16.0598C16.6118 42.088 17.0598 42.536 17.0598 43.088V56.616C17.0598 57.168 16.6118 57.616 16.0598 57.616H3.3998C3.0678 57.616 2.7998 57.884 2.7998 58.216V82C2.7998 82.332 3.0678 82.6 3.3998 82.6H16.0598C16.6118 82.6 17.0598 83.048 17.0598 83.6V95.5C17.0598 95.832 17.3278 96.1 17.6598 96.1H41.4438C41.7758 96.1 42.0438 95.832 42.0438 95.5V83.6C42.0438 83.048 42.4918 82.6 43.0438 82.6V82.604ZM56.5718 57.616H43.0438C42.4918 57.616 42.0438 57.168 42.0438 56.616V43.088C42.0438 42.536 42.4918 42.088 43.0438 42.088H56.5718C57.1238 42.088 57.5718 42.536 57.5718 43.088V56.616C57.5718 57.168 57.1238 57.616 56.5718 57.616ZM44.0438 55.616H55.5718V44.088H44.0438V55.616Z" fill="#1E1E1E"/>
</svg>
