<svg width="61" height="60" viewBox="0 0 61 60" fill="none" xmlns="http://www.w3.org/2000/svg">
<path fill-rule="evenodd" clip-rule="evenodd" d="M40.5 27.5C44.65 27.5 47.975 24.15 47.975 20C47.975 15.85 44.65 12.5 40.5 12.5C36.35 12.5 33 15.85 33 20C33 24.15 36.35 27.5 40.5 27.5ZM20.5 27.5C24.65 27.5 27.975 24.15 27.975 20C27.975 15.85 24.65 12.5 20.5 12.5C16.35 12.5 13 15.85 13 20C13 24.15 16.35 27.5 20.5 27.5ZM20.5 32.5C14.675 32.5 3 35.425 3 41.25V47.5H38V41.25C38 35.425 26.325 32.5 20.5 32.5ZM40.5 32.5C39.775 32.5 38.95 32.55 38.075 32.625C40.975 34.725 43 37.55 43 41.25V47.5H58V41.25C58 35.425 46.325 32.5 40.5 32.5Z" fill="#4285F4"/>
</svg>
