<svg width="88" height="81" viewBox="0 0 88 81" fill="none" xmlns="http://www.w3.org/2000/svg">
<g clip-path="url(#clip0_63_1910)">
<path d="M84.9078 54.9867H59.5515V77.9697C59.5515 79 58.7 79.8345 57.6486 79.8345H30.3466C29.2953 79.8345 28.4437 79 28.4437 77.9697V54.9867H3.09224C2.04088 54.9867 1.18933 54.1522 1.18933 53.122V27.4071C1.18933 26.3768 2.04088 25.5423 3.09224 25.5423H28.4485V3.02549C28.4485 1.99522 29.3 1.16074 30.3514 1.16074H57.6534C58.7047 1.16074 59.5563 1.99522 59.5563 3.02549V25.5423H84.9126C85.9639 25.5423 86.8155 26.3768 86.8155 27.4071V53.122C86.8155 54.1522 85.9639 54.9867 84.9126 54.9867H84.9078Z" fill="#4285F4"/>
<path d="M57.6534 0H30.3514C28.6483 0 27.2592 1.36127 27.2592 3.03022V24.3816H3.09223C1.38912 24.3816 0 25.7429 0 27.4118V53.1267C0 54.7956 1.38912 56.1569 3.09223 56.1569H27.2592V77.9698C27.2592 79.6387 28.6483 81 30.3514 81H57.6534C59.3565 81 60.7456 79.6387 60.7456 77.9698V56.1522H84.9125C86.6156 56.1522 88.0048 54.791 88.0048 53.122V27.4071C88.0048 25.7382 86.6156 24.3769 84.9125 24.3769H60.7456V3.02556C60.7456 1.35661 59.3565 -0.00465393 57.6534 -0.00465393V0ZM3.09223 53.8213C2.69737 53.8213 2.37864 53.509 2.37864 53.122V27.4071C2.37864 27.0202 2.69737 26.7079 3.09223 26.7079H28.4485C29.105 26.7079 29.6378 26.1857 29.6378 25.5424V3.02556C29.6378 2.63863 29.9565 2.32628 30.3514 2.32628H57.6534C58.0482 2.32628 58.367 2.63863 58.367 3.02556V25.5424C58.367 26.1857 58.8998 26.7079 59.5563 26.7079H84.9125C85.3074 26.7079 85.6261 27.0202 85.6261 27.4071V53.122C85.6261 53.509 85.3074 53.8213 84.9125 53.8213H59.5563C58.8998 53.8213 58.367 54.3434 58.367 54.9868V77.9698C58.367 78.3567 58.0482 78.6691 57.6534 78.6691H30.3514C29.9565 78.6691 29.6378 78.3567 29.6378 77.9698V54.9868C29.6378 54.3434 29.105 53.8213 28.4485 53.8213H3.09223Z" fill="#1E1E1E"/>
</g>
<defs>
<clipPath id="clip0_63_1910">
<rect width="88" height="81" fill="white" transform="matrix(1 0 0 -1 0 81)"/>
</clipPath>
</defs>
</svg>
