<svg width="100" height="100" viewBox="0 0 100 100" fill="none" xmlns="http://www.w3.org/2000/svg">
<path d="M50.1094 32.6399C58.8716 32.6399 65.9747 25.5367 65.9747 16.7746C65.9747 8.01243 58.8716 0.909302 50.1094 0.909302C41.3473 0.909302 34.2441 8.01243 34.2441 16.7746C34.2441 25.5367 41.3473 32.6399 50.1094 32.6399Z" fill="#FFD427"/>
<path d="M50.1086 33.5455C40.8593 33.5455 33.334 26.0202 33.334 16.7746C33.334 7.52891 40.8593 0 50.1086 0C59.3578 0 66.8831 7.52528 66.8831 16.7746C66.8831 26.0239 59.3578 33.5491 50.1086 33.5491V33.5455ZM50.1086 1.81858C41.8595 1.81858 35.1526 8.5255 35.1526 16.7746C35.1526 25.0236 41.8595 31.7306 50.1086 31.7306C58.3576 31.7306 65.0645 25.0236 65.0645 16.7746C65.0645 8.5255 58.354 1.81858 50.1086 1.81858Z" fill="#1E1E1E"/>
<path d="M65.9711 55.143C65.9711 46.3811 58.8677 39.2777 50.1058 39.2777C41.3439 39.2777 34.2441 46.3811 34.2441 55.143C34.2441 61.7081 38.2305 67.3384 43.9153 69.7534C45.0029 70.2663 45.5957 71.3102 44.621 72.845L34.5824 91.0054C34.2587 91.5146 34.4005 92.1911 34.9061 92.5221L44.0717 98.9053C44.5809 99.2399 45.2647 99.1017 45.603 98.5925C45.603 98.5925 62.8358 66.1381 64.0397 63.4684C64.618 62.1809 65.0581 60.8642 65.36 59.5185C65.7601 58.1291 65.9747 56.6597 65.9747 55.143H65.9711Z" fill="#FFD427"/>
<path d="M44.671 100C44.2927 100 43.9072 99.8946 43.5653 99.6691L34.3815 93.2713C33.494 92.6894 33.2285 91.4673 33.7923 90.5471L43.849 72.354C44.0563 72.0303 44.2782 71.5647 44.1727 71.201C44.0854 70.8955 43.769 70.6918 43.5217 70.5754C37.3458 67.953 33.334 61.8899 33.334 55.143C33.334 45.8937 40.8593 38.3684 50.1086 38.3684C59.3578 38.3684 66.8831 45.8937 66.8831 55.143C66.8831 56.696 66.6649 58.2418 66.2393 59.744C65.9265 61.1406 65.4646 62.5191 64.8645 63.8431C63.6606 66.5091 47.1043 97.6941 46.4023 99.0216L46.3586 99.0944C45.9731 99.68 45.3293 99.9964 44.6746 99.9964L44.671 100ZM45.4021 73.3069L35.3453 91.4964C35.2871 91.5873 35.3126 91.7073 35.4035 91.7655L44.5873 98.1633C44.6528 98.2069 44.7583 98.1887 44.8238 98.116C45.6203 96.6175 62.0493 65.658 63.206 63.0974C63.7552 61.8754 64.1807 60.606 64.468 59.3221L64.4826 59.2712C64.8681 57.9254 65.0645 56.536 65.0645 55.1466C65.0645 46.9012 58.3576 40.1906 50.1086 40.1906C41.8595 40.1906 35.1526 46.8975 35.1526 55.143C35.1526 61.1588 38.7315 66.5637 44.2673 68.9133C45.1402 69.3243 45.704 69.9353 45.9222 70.6918C46.0822 71.2483 46.1222 72.154 45.4021 73.3033V73.3069Z" fill="#1E1E1E"/>
</svg>
