<svg width="114" height="100" viewBox="0 0 114 100" fill="none" xmlns="http://www.w3.org/2000/svg">
<g clip-path="url(#clip0_148_2825)">
<path d="M111.942 6.79688H65.2649C64.3394 6.79688 63.5889 7.45521 63.5889 8.26716V30.0032C63.5889 30.8152 64.3394 31.4735 65.2649 31.4735H86.9358C87.8613 31.4735 88.6118 32.1318 88.6118 32.9438V67.0419C88.6118 67.8539 87.8613 68.5122 86.9358 68.5122H65.2649C64.3394 68.5122 63.5889 69.1705 63.5889 69.9825V91.7405C63.5889 92.5524 64.3394 93.2108 65.2649 93.2108H111.942C112.867 93.2108 113.618 92.5524 113.618 91.7405V8.26716C113.618 7.45521 112.867 6.79688 111.942 6.79688Z" fill="#FFE7A5"/>
<path d="M111.942 94.1176H65.2649C63.7682 94.1176 62.5466 93.0497 62.5466 91.733V69.975C62.5466 68.662 63.764 67.5903 65.2649 67.5903H86.9358C87.286 67.5903 87.5695 67.3416 87.5695 67.0344V32.9363C87.5695 32.629 87.286 32.3803 86.9358 32.3803H65.2649C63.7682 32.3803 62.5466 31.3124 62.5466 29.9957V8.26696C62.5466 6.95395 63.764 5.88232 65.2649 5.88232H111.942C113.439 5.88232 114.66 6.95029 114.66 8.26696V91.7366C114.66 93.0497 113.443 94.1213 111.942 94.1213V94.1176ZM65.269 69.4191C64.9188 69.4191 64.6353 69.6678 64.6353 69.975V91.733C64.6353 92.0402 64.9188 92.2889 65.269 92.2889H111.946C112.296 92.2889 112.58 92.0402 112.58 91.733V8.26696C112.58 7.95974 112.296 7.71104 111.946 7.71104H65.269C64.9188 7.71104 64.6353 7.95974 64.6353 8.26696V30.003C64.6353 30.3102 64.9188 30.5589 65.269 30.5589H86.9399C88.4366 30.5589 89.6582 31.6269 89.6582 32.9436V67.0417C89.6582 68.3547 88.4408 69.4264 86.9399 69.4264H65.269V69.4191Z" fill="#1E1E1E"/>
<path d="M2.72864 6.79688H49.4057C50.3312 6.79688 51.0817 7.45521 51.0817 8.26716V30.0032C51.0817 30.8152 50.3312 31.4735 49.4057 31.4735H27.7348C26.8093 31.4735 26.0588 32.1318 26.0588 32.9438V67.0419C26.0588 67.8539 26.8093 68.5122 27.7348 68.5122H49.4057C50.3312 68.5122 51.0817 69.1705 51.0817 69.9825V91.7405C51.0817 92.5524 50.3312 93.2108 49.4057 93.2108H2.72864C1.80311 93.2108 1.05267 92.5524 1.05267 91.7405V8.26716C1.05267 7.45521 1.80311 6.79688 2.72864 6.79688Z" fill="#FFE7A5"/>
<path d="M49.4015 94.1176H2.72862C1.23192 94.1176 0.010376 93.0497 0.010376 91.733V8.26696C0.010376 6.95029 1.22775 5.88232 2.72862 5.88232H49.4057C50.9024 5.88232 52.1239 6.95029 52.1239 8.26696V30.003C52.1239 31.316 50.9065 32.3877 49.4057 32.3877H27.7348C27.3846 32.3877 27.1011 32.6364 27.1011 32.9436V67.0417C27.1011 67.3489 27.3846 67.5977 27.7348 67.5977H49.4057C50.9024 67.5977 52.1239 68.6656 52.1239 69.9823V91.7403C52.1239 93.0533 50.9065 94.1249 49.4057 94.1249L49.4015 94.1176ZM2.72862 7.71104C2.37841 7.71104 2.09492 7.95974 2.09492 8.26696V91.7366C2.09492 92.0439 2.37841 92.2926 2.72862 92.2926H49.4057C49.7559 92.2926 50.0394 92.0439 50.0394 91.7366V69.9786C50.0394 69.6714 49.7559 69.4227 49.4057 69.4227H27.7348C26.2381 69.4227 25.0165 68.3547 25.0165 67.0381V32.9399C25.0165 31.6269 26.2339 30.5553 27.7348 30.5553H49.4057C49.7559 30.5553 50.0394 30.3066 50.0394 29.9994V8.26696C50.0394 7.95974 49.7559 7.71104 49.4057 7.71104H2.72862Z" fill="#1E1E1E"/>
</g>
<defs>
<clipPath id="clip0_148_2825">
<rect width="113.99" height="100" fill="white" transform="translate(0.010376)"/>
</clipPath>
</defs>
</svg>
