<svg width="100" height="100" viewBox="0 0 100 100" fill="none" xmlns="http://www.w3.org/2000/svg">
<g clip-path="url(#clip0_123_2879)">
<path d="M50.0003 97.3684C76.1611 97.3684 97.3687 76.1609 97.3687 50C97.3687 23.8392 76.1611 2.63159 50.0003 2.63159C23.8394 2.63159 2.63184 23.8392 2.63184 50C2.63184 76.1609 23.8394 97.3684 50.0003 97.3684Z" fill="#EA4335"/>
<path d="M50 100C22.4316 100 0 77.5684 0 50C0 22.4316 22.4316 0 50 0C77.5684 0 100 22.4316 100 50C100 77.5684 77.5684 100 50 100ZM50 5.26316C25.3368 5.26316 5.26316 25.3368 5.26316 50C5.26316 74.6632 25.3368 94.7368 50 94.7368C74.6632 94.7368 94.7368 74.6632 94.7368 50C94.7368 25.3368 74.6737 5.26316 50 5.26316Z" fill="#1E1E1E"/>
</g>
<defs>
<clipPath id="clip0_123_2879">
<rect width="100" height="100" fill="white"/>
</clipPath>
</defs>
</svg>
