<svg width="60" height="38" viewBox="0 0 60 38" fill="none" xmlns="http://www.w3.org/2000/svg">
<path d="M59.0127 17.4485L42.3422 0.778505C42.0791 0.515238 41.6513 0.515238 41.3882 0.778505L34.7014 7.46941C34.4383 7.73268 34.4383 8.16071 34.7014 8.42398L39.5125 13.238H0.447449V24.0498H39.5178L34.6137 28.957C34.3506 29.2202 34.3506 29.6483 34.6137 29.9115L41.6191 36.6024C41.8822 36.8657 42.31 36.8657 42.5731 36.6024L59.0092 19.8411C59.0933 19.757 59.1649 19.6674 59.2275 19.5725C59.6607 18.917 59.5891 18.0269 59.0127 17.4503V17.4485Z" fill="#F9AB00"/>
<path d="M42.0952 37.2472C41.8088 37.2472 41.5207 37.1379 41.3023 36.9195L34.304 30.2357C33.8602 29.7916 33.8602 29.0788 34.2969 28.6418L38.4368 24.4994H0.44746C0.200462 24.4994 0 24.2988 0 24.0516V13.2398C0 12.9927 0.200462 12.7921 0.44746 12.7921H38.4332L34.3846 8.74099C33.9479 8.304 33.9479 7.59121 34.3846 7.15423L41.0714 0.461529C41.5081 0.0245424 42.2205 0.0245424 42.6572 0.461529L59.3278 17.1315C60.0419 17.8461 60.1565 18.9761 59.598 19.8179C59.5193 19.9379 59.4262 20.0525 59.3224 20.1564L42.8899 36.9159C42.6697 37.1362 42.3816 37.2472 42.0934 37.2472H42.0952ZM0.894919 23.6039H39.5178C39.6986 23.6039 39.8615 23.7131 39.9313 23.8797C40.0011 24.0463 39.9617 24.2397 39.8346 24.3668L34.9305 29.274C34.8428 29.3617 34.8428 29.5068 34.9305 29.5946L41.9287 36.2783C42.0254 36.3732 42.1686 36.3732 42.2563 36.2855L58.6888 19.526C58.7514 19.4633 58.8051 19.397 58.8535 19.3254C59.1774 18.8347 59.1112 18.1792 58.6977 17.7637L42.0254 1.09552C41.9377 1.00776 41.7927 1.00597 41.705 1.09552L35.0182 7.78642C34.9305 7.87418 34.9305 8.01925 35.0182 8.107L39.8293 12.921C39.9563 13.0482 39.9957 13.2416 39.9259 13.4081C39.8561 13.5747 39.6932 13.684 39.5125 13.684H0.894919V23.6003V23.6039Z" fill="#1E1E1E"/>
</svg>
