<svg
     width="40"
    height="40"
    viewBox="0 0 60 60"
    style="fill: currentcolor"
    xmlns="http://www.w3.org/2000/svg"
>
    <path
    fill="currentcolor" fill-rule="evenodd" clip-rule="evenodd" d="M30 37.5C34.15 37.5 37.475 34.15 37.475 30L37.5 15C37.5 10.85 34.15 7.5 30 7.5C25.85 7.5 22.5 10.85 22.5 15V30C22.5 34.15 25.85 37.5 30 37.5V37.5ZM43.25 30C43.25 37.5 36.9 42.75 30 42.75C23.1 42.75 16.75 37.5 16.75 30H12.5C12.5 38.55 19.3 45.575 27.5 46.8V55H32.5V46.8C40.7 45.6 47.5 38.55 47.5 30H43.25V30Z"/>
</svg>