<svg
     width="40"
    height="40"
    viewBox="0 0 60 60"
    style="fill: currentcolor"
    xmlns="http://www.w3.org/2000/svg"
>
    <path
    fill="currentcolor" fill-rule="evenodd" clip-rule="evenodd" d="M21.25 10.0005C21.25 12.7605 19.01 15.0005 16.25 15.0005C13.49 15.0005 11.25 12.7605 11.25 10.0005C11.25 7.238 13.49 5.0005 16.25 5.0005C19.01 5.0005 21.25 7.238 21.25 10.0005M38.75 17.5005V22.5005H23.75V55.0005H18.75V40.0005H13.75V55.0005H8.75V35.0005H5V22.5005C5 19.738 7.24 17.5005 10 17.5005H38.75M51.25 42.5005C54.01 42.5005 56.25 40.2605 56.25 37.5005V10.0005C56.25 7.238 54.01 5.0005 51.25 5.0005H24.9C25.775 6.5255 26.25 8.2505 26.25 10.0005H51.25V37.5005H28.75V42.5005"/>
</svg>