<?xml version="1.0" standalone="no"?>
<!DOCTYPE svg PUBLIC "-//W3C//DTD SVG 1.1//EN" "http://www.w3.org/Graphics/SVG/1.1/DTD/svg11.dtd">
<svg xmlns="http://www.w3.org/2000/svg" xmlns:xlink="http://www.w3.org/1999/xlink" width="900" zoomAndPan="magnify" viewBox="0 0 900 809.999994" height="810" preserveAspectRatio="xMidYMid meet" version="1.0"><defs><clipPath id="d1956676e7"><path d="M 293.199219 141.574219 L 606.800781 141.574219 L 606.800781 759 L 293.199219 759 Z M 293.199219 141.574219 " clip-rule="nonzero"/></clipPath><clipPath id="d47f239370"><path d="M 303.992188 141.878906 L 596.007812 141.878906 C 601.796875 141.878906 606.492188 146.574219 606.492188 152.367188 L 606.492188 307.382812 C 606.492188 313.175781 601.796875 317.871094 596.007812 317.871094 L 460.445312 317.871094 C 454.65625 317.871094 449.960938 322.566406 449.960938 328.355469 L 449.960938 571.539062 C 449.960938 577.332031 454.65625 582.023438 460.445312 582.023438 L 596.03125 582.023438 C 601.824219 582.023438 606.519531 586.71875 606.519531 592.511719 L 606.519531 747.6875 C 606.519531 753.476562 601.824219 758.171875 596.03125 758.171875 L 303.992188 758.171875 C 298.203125 758.171875 293.507812 753.476562 293.507812 747.6875 L 293.507812 152.367188 C 293.507812 146.574219 298.203125 141.878906 303.992188 141.878906 " clip-rule="nonzero"/></clipPath><clipPath id="24f61f2062"><path d="M 0.28125 0.839844 L 313.71875 0.839844 L 313.71875 617.398438 L 0.28125 617.398438 Z M 0.28125 0.839844 " clip-rule="nonzero"/></clipPath><clipPath id="445d1c45b7"><path d="M 10.992188 0.878906 L 303.007812 0.878906 C 308.796875 0.878906 313.492188 5.574219 313.492188 11.367188 L 313.492188 166.382812 C 313.492188 172.175781 308.796875 176.871094 303.007812 176.871094 L 167.445312 176.871094 C 161.65625 176.871094 156.960938 181.566406 156.960938 187.355469 L 156.960938 430.539062 C 156.960938 436.332031 161.65625 441.023438 167.445312 441.023438 L 303.03125 441.023438 C 308.824219 441.023438 313.519531 445.71875 313.519531 451.511719 L 313.519531 606.6875 C 313.519531 612.476562 308.824219 617.171875 303.03125 617.171875 L 10.992188 617.171875 C 5.203125 617.171875 0.507812 612.476562 0.507812 606.6875 L 0.507812 11.367188 C 0.507812 5.574219 5.203125 0.878906 10.992188 0.878906 " clip-rule="nonzero"/></clipPath><clipPath id="4337597619"><rect x="0" width="314" y="0" height="618"/></clipPath><clipPath id="7b0db45b60"><path d="M 286.324219 135 L 613.675781 135 L 613.675781 765 L 286.324219 765 Z M 286.324219 135 " clip-rule="nonzero"/></clipPath><clipPath id="0b5cbfb5b6"><path d="M 303.992188 135.359375 L 596.007812 135.359375 L 596.007812 141.878906 L 596.007812 135.359375 C 605.398438 135.359375 613.011719 142.976562 613.011719 152.367188 L 606.492188 152.367188 L 613.011719 152.367188 L 613.011719 307.382812 L 606.492188 307.382812 L 613.011719 307.382812 C 613.011719 316.773438 605.398438 324.390625 596.007812 324.390625 L 596.007812 317.871094 L 596.007812 324.390625 L 460.445312 324.390625 L 460.445312 317.871094 L 460.445312 324.390625 C 458.253906 324.390625 456.480469 326.164062 456.480469 328.355469 L 449.960938 328.355469 L 456.480469 328.355469 L 456.480469 571.539062 L 449.960938 571.539062 L 456.480469 571.539062 C 456.480469 573.730469 458.253906 575.503906 460.445312 575.503906 L 460.445312 582.023438 L 460.445312 575.503906 L 596.03125 575.503906 L 596.03125 582.023438 L 596.03125 575.503906 C 605.421875 575.503906 613.039062 583.121094 613.039062 592.511719 L 606.519531 592.511719 L 613.039062 592.511719 L 613.039062 747.6875 L 606.519531 747.6875 L 613.039062 747.6875 C 613.039062 757.078125 605.421875 764.691406 596.03125 764.691406 L 596.03125 758.171875 L 596.03125 764.691406 L 303.992188 764.691406 L 303.992188 758.171875 L 303.992188 764.691406 C 294.601562 764.691406 286.988281 757.078125 286.988281 747.6875 L 293.507812 747.6875 L 286.988281 747.6875 L 286.988281 152.367188 L 293.507812 152.367188 L 286.988281 152.367188 C 286.988281 142.976562 294.601562 135.359375 303.992188 135.359375 L 303.992188 141.878906 L 303.992188 135.359375 M 303.992188 148.402344 C 301.800781 148.402344 300.027344 150.175781 300.027344 152.367188 L 300.027344 747.632812 C 300.027344 749.824219 301.800781 751.597656 303.992188 751.597656 L 596.007812 751.597656 C 598.199219 751.597656 599.972656 749.824219 599.972656 747.632812 L 599.972656 592.457031 C 599.972656 590.269531 598.199219 588.496094 596.007812 588.496094 L 460.445312 588.496094 C 451.054688 588.496094 443.441406 580.878906 443.441406 571.488281 L 443.441406 328.332031 C 443.441406 318.941406 451.054688 311.324219 460.445312 311.324219 L 596.03125 311.324219 C 598.222656 311.324219 599.996094 309.550781 599.996094 307.359375 L 599.996094 152.367188 C 599.996094 150.175781 598.222656 148.402344 596.03125 148.402344 Z M 303.992188 148.402344 " clip-rule="nonzero"/></clipPath><clipPath id="537d43dd35"><path d="M 0.800781 0.121094 L 327.199219 0.121094 L 327.199219 629.878906 L 0.800781 629.878906 Z M 0.800781 0.121094 " clip-rule="nonzero"/></clipPath><clipPath id="528f7885af"><path d="M 17.992188 0.359375 L 310.007812 0.359375 L 310.007812 6.878906 L 310.007812 0.359375 C 319.398438 0.359375 327.011719 7.976562 327.011719 17.367188 L 320.492188 17.367188 L 327.011719 17.367188 L 327.011719 172.382812 L 320.492188 172.382812 L 327.011719 172.382812 C 327.011719 181.773438 319.398438 189.390625 310.007812 189.390625 L 310.007812 182.871094 L 310.007812 189.390625 L 174.445312 189.390625 L 174.445312 182.871094 L 174.445312 189.390625 C 172.253906 189.390625 170.480469 191.164062 170.480469 193.355469 L 163.960938 193.355469 L 170.480469 193.355469 L 170.480469 436.539062 L 163.960938 436.539062 L 170.480469 436.539062 C 170.480469 438.730469 172.253906 440.503906 174.445312 440.503906 L 174.445312 447.023438 L 174.445312 440.503906 L 310.03125 440.503906 L 310.03125 447.023438 L 310.03125 440.503906 C 319.421875 440.503906 327.039062 448.121094 327.039062 457.511719 L 320.519531 457.511719 L 327.039062 457.511719 L 327.039062 612.6875 L 320.519531 612.6875 L 327.039062 612.6875 C 327.039062 622.078125 319.421875 629.691406 310.03125 629.691406 L 310.03125 623.171875 L 310.03125 629.691406 L 17.992188 629.691406 L 17.992188 623.171875 L 17.992188 629.691406 C 8.601562 629.691406 0.988281 622.078125 0.988281 612.6875 L 7.507812 612.6875 L 0.988281 612.6875 L 0.988281 17.367188 L 7.507812 17.367188 L 0.988281 17.367188 C 0.988281 7.976562 8.601562 0.359375 17.992188 0.359375 L 17.992188 6.878906 L 17.992188 0.359375 M 17.992188 13.402344 C 15.800781 13.402344 14.027344 15.175781 14.027344 17.367188 L 14.027344 612.632812 C 14.027344 614.824219 15.800781 616.597656 17.992188 616.597656 L 310.007812 616.597656 C 312.199219 616.597656 313.972656 614.824219 313.972656 612.632812 L 313.972656 457.457031 C 313.972656 455.269531 312.199219 453.496094 310.007812 453.496094 L 174.445312 453.496094 C 165.054688 453.496094 157.441406 445.878906 157.441406 436.488281 L 157.441406 193.332031 C 157.441406 183.941406 165.054688 176.324219 174.445312 176.324219 L 310.03125 176.324219 C 312.222656 176.324219 313.996094 174.550781 313.996094 172.359375 L 313.996094 17.367188 C 313.996094 15.175781 312.222656 13.402344 310.03125 13.402344 Z M 17.992188 13.402344 " clip-rule="nonzero"/></clipPath><clipPath id="5b26f7d5c3"><rect x="0" width="328" y="0" height="630"/></clipPath></defs><g clip-path="url(#d1956676e7)"><g clip-path="url(#d47f239370)"><g transform="matrix(1, 0, 0, 1, 293, 141)"><g clip-path="url(#4337597619)"><g clip-path="url(#24f61f2062)"><g clip-path="url(#445d1c45b7)"><rect x="-491" width="1296" fill="#ffe7a5" height="1166.399991" y="-319.199999" fill-opacity="1"/></g></g></g></g></g></g><g clip-path="url(#7b0db45b60)"><g clip-path="url(#0b5cbfb5b6)"><g transform="matrix(1, 0, 0, 1, 286, 135)"><g clip-path="url(#5b26f7d5c3)"><g clip-path="url(#537d43dd35)"><g clip-path="url(#528f7885af)"><rect x="-484" width="1296" fill="#1e1e1e" height="1166.399991" y="-313.199999" fill-opacity="1"/></g></g></g></g></g></g></svg>