<?xml version="1.0" standalone="no"?>
<!DOCTYPE svg PUBLIC "-//W3C//DTD SVG 1.1//EN" "http://www.w3.org/Graphics/SVG/1.1/DTD/svg11.dtd">
<svg xmlns="http://www.w3.org/2000/svg" xmlns:xlink="http://www.w3.org/1999/xlink" width="900" zoomAndPan="magnify" viewBox="0 0 900 809.999994" height="810" preserveAspectRatio="xMidYMid meet" version="1.0"><defs><clipPath id="d09ab1006f"><path d="M 14.414062 14.144531 L 347.867188 14.144531 L 347.867188 139.414062 L 14.414062 139.414062 Z M 14.414062 14.144531 " clip-rule="nonzero"/></clipPath><clipPath id="11d63d2ba5"><path d="M 21.980469 14.308594 L 340.023438 14.308594 C 344.113281 14.308594 347.425781 17.808594 347.425781 22.101562 L 347.425781 131.460938 C 347.425781 135.773438 344.113281 139.25 340.023438 139.25 L 21.980469 139.25 C 17.890625 139.25 14.574219 135.753906 14.574219 131.460938 L 14.574219 22.101562 C 14.574219 17.789062 17.890625 14.308594 21.980469 14.308594 " clip-rule="nonzero"/></clipPath><clipPath id="b688ea67c6"><path d="M 0.441406 0.160156 L 333.558594 0.160156 L 333.558594 125.414062 L 0.441406 125.414062 Z M 0.441406 0.160156 " clip-rule="nonzero"/></clipPath><clipPath id="1240af8f40"><path d="M 7.980469 0.308594 L 326.023438 0.308594 C 330.113281 0.308594 333.425781 3.808594 333.425781 8.101562 L 333.425781 117.460938 C 333.425781 121.773438 330.113281 125.25 326.023438 125.25 L 7.980469 125.25 C 3.890625 125.25 0.574219 121.753906 0.574219 117.460938 L 0.574219 8.101562 C 0.574219 3.789062 3.890625 0.308594 7.980469 0.308594 " clip-rule="nonzero"/></clipPath><clipPath id="c47db1fb41"><rect x="0" width="334" y="0" height="126"/></clipPath><clipPath id="32de965afa"><path d="M 9.640625 9.375 L 352.640625 9.375 L 352.640625 144 L 9.640625 144 Z M 9.640625 9.375 " clip-rule="nonzero"/></clipPath><clipPath id="80bca26a18"><path d="M 21.980469 9.679688 L 340.023438 9.679688 L 340.023438 14.308594 L 340.023438 9.679688 C 346.890625 9.679688 352.054688 15.472656 352.054688 22.101562 L 347.425781 22.101562 L 352.054688 22.101562 L 352.054688 131.460938 L 347.425781 131.460938 L 352.054688 131.460938 C 352.054688 138.085938 346.890625 143.878906 340.023438 143.878906 L 340.023438 139.25 L 340.023438 143.878906 L 21.980469 143.878906 L 21.980469 139.25 L 21.980469 143.878906 C 15.113281 143.878906 9.949219 138.085938 9.949219 131.460938 L 14.574219 131.460938 L 9.949219 131.460938 L 9.949219 22.101562 L 14.574219 22.101562 L 9.949219 22.101562 C 9.949219 15.472656 15.113281 9.679688 21.980469 9.679688 L 21.980469 14.308594 L 21.980469 9.679688 M 21.980469 18.9375 C 20.664062 18.9375 19.203125 20.121094 19.203125 22.101562 L 19.203125 131.460938 C 19.203125 133.441406 20.664062 134.625 21.980469 134.625 L 340.023438 134.625 C 341.335938 134.625 342.796875 133.441406 342.796875 131.460938 L 342.796875 22.101562 C 342.796875 20.121094 341.335938 18.9375 340.023438 18.9375 Z M 21.980469 18.9375 " clip-rule="nonzero"/></clipPath><clipPath id="78d5a67b68"><path d="M 0.878906 0.601562 L 343.121094 0.601562 L 343.121094 135 L 0.878906 135 Z M 0.878906 0.601562 " clip-rule="nonzero"/></clipPath><clipPath id="c2aa512df3"><path d="M 12.980469 0.679688 L 331.023438 0.679688 L 331.023438 5.308594 L 331.023438 0.679688 C 337.890625 0.679688 343.054688 6.472656 343.054688 13.101562 L 338.425781 13.101562 L 343.054688 13.101562 L 343.054688 122.460938 L 338.425781 122.460938 L 343.054688 122.460938 C 343.054688 129.085938 337.890625 134.878906 331.023438 134.878906 L 331.023438 130.25 L 331.023438 134.878906 L 12.980469 134.878906 L 12.980469 130.25 L 12.980469 134.878906 C 6.113281 134.878906 0.949219 129.085938 0.949219 122.460938 L 5.574219 122.460938 L 0.949219 122.460938 L 0.949219 13.101562 L 5.574219 13.101562 L 0.949219 13.101562 C 0.949219 6.472656 6.113281 0.679688 12.980469 0.679688 L 12.980469 5.308594 L 12.980469 0.679688 M 12.980469 9.9375 C 11.664062 9.9375 10.203125 11.121094 10.203125 13.101562 L 10.203125 122.460938 C 10.203125 124.441406 11.664062 125.625 12.980469 125.625 L 331.023438 125.625 C 332.335938 125.625 333.796875 124.441406 333.796875 122.460938 L 333.796875 13.101562 C 333.796875 11.121094 332.335938 9.9375 331.023438 9.9375 Z M 12.980469 9.9375 " clip-rule="nonzero"/></clipPath><clipPath id="a93afeba43"><rect x="0" width="344" y="0" height="135"/></clipPath><clipPath id="58abdfe1d8"><path d="M 14.414062 201.5625 L 347.867188 201.5625 L 347.867188 326.828125 L 14.414062 326.828125 Z M 14.414062 201.5625 " clip-rule="nonzero"/></clipPath><clipPath id="6121403436"><path d="M 21.980469 201.722656 L 340.023438 201.722656 C 344.113281 201.722656 347.425781 205.222656 347.425781 209.515625 L 347.425781 318.875 C 347.425781 323.1875 344.113281 326.667969 340.023438 326.667969 L 21.980469 326.667969 C 17.890625 326.667969 14.574219 323.167969 14.574219 318.875 L 14.574219 209.515625 C 14.574219 205.203125 17.890625 201.722656 21.980469 201.722656 " clip-rule="nonzero"/></clipPath><clipPath id="445398d07a"><path d="M 0.441406 0.601562 L 333.558594 0.601562 L 333.558594 125.828125 L 0.441406 125.828125 Z M 0.441406 0.601562 " clip-rule="nonzero"/></clipPath><clipPath id="a5fbd88e6a"><path d="M 7.980469 0.722656 L 326.023438 0.722656 C 330.113281 0.722656 333.425781 4.222656 333.425781 8.515625 L 333.425781 117.875 C 333.425781 122.1875 330.113281 125.667969 326.023438 125.667969 L 7.980469 125.667969 C 3.890625 125.667969 0.574219 122.167969 0.574219 117.875 L 0.574219 8.515625 C 0.574219 4.203125 3.890625 0.722656 7.980469 0.722656 " clip-rule="nonzero"/></clipPath><clipPath id="e9c42fb8b1"><rect x="0" width="334" y="0" height="126"/></clipPath><clipPath id="e6661ee565"><path d="M 9.640625 197 L 352.640625 197 L 352.640625 331.601562 L 9.640625 331.601562 Z M 9.640625 197 " clip-rule="nonzero"/></clipPath><clipPath id="bff58bd91a"><path d="M 21.980469 197.097656 L 340.023438 197.097656 L 340.023438 201.722656 L 340.023438 197.097656 C 346.890625 197.097656 352.054688 202.890625 352.054688 209.515625 L 347.425781 209.515625 L 352.054688 209.515625 L 352.054688 318.875 L 347.425781 318.875 L 352.054688 318.875 C 352.054688 325.5 346.890625 331.292969 340.023438 331.292969 L 340.023438 326.667969 L 340.023438 331.292969 L 21.980469 331.292969 L 21.980469 326.667969 L 21.980469 331.292969 C 15.113281 331.292969 9.949219 325.5 9.949219 318.875 L 14.574219 318.875 L 9.949219 318.875 L 9.949219 209.515625 L 14.574219 209.515625 L 9.949219 209.515625 C 9.949219 202.890625 15.113281 197.097656 21.980469 197.097656 L 21.980469 201.722656 L 21.980469 197.097656 M 21.980469 206.351562 C 20.664062 206.351562 19.203125 207.535156 19.203125 209.515625 L 19.203125 318.875 C 19.203125 320.855469 20.664062 322.039062 21.980469 322.039062 L 340.023438 322.039062 C 341.335938 322.039062 342.796875 320.855469 342.796875 318.875 L 342.796875 209.515625 C 342.796875 207.535156 341.335938 206.351562 340.023438 206.351562 Z M 21.980469 206.351562 " clip-rule="nonzero"/></clipPath><clipPath id="05cc7dfa04"><path d="M 0.878906 0.0390625 L 343.121094 0.0390625 L 343.121094 134.441406 L 0.878906 134.441406 Z M 0.878906 0.0390625 " clip-rule="nonzero"/></clipPath><clipPath id="74bb2812c1"><path d="M 12.980469 0.0976562 L 331.023438 0.0976562 L 331.023438 4.722656 L 331.023438 0.0976562 C 337.890625 0.0976562 343.054688 5.890625 343.054688 12.515625 L 338.425781 12.515625 L 343.054688 12.515625 L 343.054688 121.875 L 338.425781 121.875 L 343.054688 121.875 C 343.054688 128.5 337.890625 134.292969 331.023438 134.292969 L 331.023438 129.667969 L 331.023438 134.292969 L 12.980469 134.292969 L 12.980469 129.667969 L 12.980469 134.292969 C 6.113281 134.292969 0.949219 128.5 0.949219 121.875 L 5.574219 121.875 L 0.949219 121.875 L 0.949219 12.515625 L 5.574219 12.515625 L 0.949219 12.515625 C 0.949219 5.890625 6.113281 0.0976562 12.980469 0.0976562 L 12.980469 4.722656 L 12.980469 0.0976562 M 12.980469 9.351562 C 11.664062 9.351562 10.203125 10.535156 10.203125 12.515625 L 10.203125 121.875 C 10.203125 123.855469 11.664062 125.039062 12.980469 125.039062 L 331.023438 125.039062 C 332.335938 125.039062 333.796875 123.855469 333.796875 121.875 L 333.796875 12.515625 C 333.796875 10.535156 332.335938 9.351562 331.023438 9.351562 Z M 12.980469 9.351562 " clip-rule="nonzero"/></clipPath><clipPath id="ae03b633fe"><rect x="0" width="344" y="0" height="135"/></clipPath><clipPath id="c4370f09b5"><rect x="0" width="362" y="0" height="341"/></clipPath></defs><g transform="matrix(1, 0, 0, 1, 269, 258)"><g clip-path="url(#c4370f09b5)"><g clip-path="url(#d09ab1006f)"><g clip-path="url(#11d63d2ba5)"><g transform="matrix(1, 0, 0, 1, 14, 14)"><g clip-path="url(#c47db1fb41)"><g clip-path="url(#b688ea67c6)"><g clip-path="url(#1240af8f40)"><rect x="-610.6" width="1555.2" fill="#57caff" y="-566.839998" height="1399.67999" fill-opacity="1"/></g></g></g></g></g></g><g clip-path="url(#32de965afa)"><g clip-path="url(#80bca26a18)"><g transform="matrix(1, 0, 0, 1, 9, 9)"><g clip-path="url(#a93afeba43)"><g clip-path="url(#78d5a67b68)"><g clip-path="url(#c2aa512df3)"><rect x="-605.6" width="1555.2" fill="#1e1e1e" y="-561.839998" height="1399.67999" fill-opacity="1"/></g></g></g></g></g></g><g clip-path="url(#58abdfe1d8)"><g clip-path="url(#6121403436)"><g transform="matrix(1, 0, 0, 1, 14, 201)"><g clip-path="url(#e9c42fb8b1)"><g clip-path="url(#445398d07a)"><g clip-path="url(#a5fbd88e6a)"><rect x="-610.6" width="1555.2" fill="#57caff" y="-753.839998" height="1399.67999" fill-opacity="1"/></g></g></g></g></g></g><g clip-path="url(#e6661ee565)"><g clip-path="url(#bff58bd91a)"><g transform="matrix(1, 0, 0, 1, 9, 197)"><g clip-path="url(#ae03b633fe)"><g clip-path="url(#05cc7dfa04)"><g clip-path="url(#74bb2812c1)"><rect x="-605.6" width="1555.2" fill="#1e1e1e" y="-749.839998" height="1399.67999" fill-opacity="1"/></g></g></g></g></g></g></g></g></svg>