<?xml version="1.0" standalone="no"?>
<!DOCTYPE svg PUBLIC "-//W3C//DTD SVG 1.1//EN" "http://www.w3.org/Graphics/SVG/1.1/DTD/svg11.dtd">
<svg xmlns="http://www.w3.org/2000/svg" xmlns:xlink="http://www.w3.org/1999/xlink" width="900" zoomAndPan="magnify" viewBox="0 0 900 809.999994" height="810" preserveAspectRatio="xMidYMid meet" version="1.0"><defs><clipPath id="6fc9d93a66"><path d="M 242 167 L 793 167 L 793 710 L 242 710 Z M 242 167 " clip-rule="nonzero"/></clipPath><clipPath id="825ff50125"><path d="M 783.605469 369.527344 L 586.257812 369.527344 L 586.257812 176.492188 C 586.257812 171.421875 582.148438 167.316406 577.078125 167.316406 L 457.75 167.316406 C 452.679688 167.316406 448.570312 171.421875 448.570312 176.492188 L 448.570312 369.527344 L 251.226562 369.527344 C 246.152344 369.527344 242.046875 373.632812 242.046875 378.707031 L 242.046875 498.054688 C 242.046875 503.125 246.152344 507.234375 251.226562 507.234375 L 448.570312 507.234375 L 448.570312 700.265625 C 448.570312 705.339844 452.679688 709.445312 457.75 709.445312 L 577.101562 709.445312 C 582.171875 709.445312 586.277344 705.339844 586.277344 700.265625 L 586.277344 507.210938 L 783.625 507.210938 C 788.699219 507.210938 792.804688 503.101562 792.804688 498.03125 L 792.804688 378.707031 C 792.804688 373.632812 788.699219 369.527344 783.625 369.527344 " clip-rule="nonzero"/></clipPath><clipPath id="ca81f16076"><path d="M 0 0.28125 L 550.960938 0.28125 L 550.960938 542.679688 L 0 542.679688 Z M 0 0.28125 " clip-rule="nonzero"/></clipPath><clipPath id="cf5869f4b0"><path d="M 541.605469 202.527344 L 344.257812 202.527344 L 344.257812 9.492188 C 344.257812 4.421875 340.148438 0.316406 335.078125 0.316406 L 215.75 0.316406 C 210.679688 0.316406 206.570312 4.421875 206.570312 9.492188 L 206.570312 202.527344 L 9.226562 202.527344 C 4.152344 202.527344 0.046875 206.632812 0.046875 211.707031 L 0.046875 331.054688 C 0.046875 336.125 4.152344 340.234375 9.226562 340.234375 L 206.570312 340.234375 L 206.570312 533.265625 C 206.570312 538.339844 210.679688 542.445312 215.75 542.445312 L 335.101562 542.445312 C 340.171875 542.445312 344.277344 538.339844 344.277344 533.265625 L 344.277344 340.210938 L 541.625 340.210938 C 546.699219 340.210938 550.804688 336.101562 550.804688 331.03125 L 550.804688 211.707031 C 550.804688 206.632812 546.699219 202.527344 541.625 202.527344 " clip-rule="nonzero"/></clipPath><clipPath id="b61be589bb"><rect x="0" width="551" y="0" height="543"/></clipPath><clipPath id="854f2970b9"><path d="M 236.09375 161.363281 L 799 161.363281 L 799 715.378906 L 236.09375 715.378906 Z M 236.09375 161.363281 " clip-rule="nonzero"/></clipPath><clipPath id="a6eee73817"><path d="M 783.605469 375.261719 L 586.257812 375.261719 C 583.089844 375.261719 580.519531 372.695312 580.519531 369.527344 L 580.519531 176.492188 L 586.257812 176.492188 L 580.519531 176.492188 C 580.519531 174.589844 578.980469 173.050781 577.078125 173.050781 L 577.078125 167.316406 L 577.078125 173.050781 L 457.75 173.050781 L 457.75 167.316406 L 457.75 173.050781 C 455.847656 173.050781 454.308594 174.589844 454.308594 176.492188 L 448.570312 176.492188 L 454.308594 176.492188 L 454.308594 369.527344 C 454.308594 372.695312 451.738281 375.261719 448.570312 375.261719 L 251.226562 375.261719 L 251.226562 369.527344 L 251.226562 375.261719 C 249.320312 375.261719 247.78125 376.800781 247.78125 378.707031 L 242.046875 378.707031 L 247.78125 378.707031 L 247.78125 498.054688 L 242.046875 498.054688 L 247.78125 498.054688 C 247.78125 499.960938 249.320312 501.496094 251.226562 501.496094 L 251.226562 507.234375 L 251.226562 501.496094 L 448.570312 501.496094 C 451.738281 501.496094 454.308594 504.066406 454.308594 507.234375 L 454.308594 700.265625 L 448.570312 700.265625 L 454.308594 700.265625 C 454.308594 702.171875 455.847656 703.710938 457.75 703.710938 L 457.75 709.445312 L 457.75 703.710938 L 577.101562 703.710938 L 577.101562 709.445312 L 577.101562 703.710938 C 579.003906 703.710938 580.542969 702.171875 580.542969 700.265625 L 586.277344 700.265625 L 580.542969 700.265625 L 580.542969 507.210938 C 580.542969 504.042969 583.113281 501.472656 586.277344 501.472656 L 783.625 501.472656 L 783.625 507.210938 L 783.625 501.472656 C 785.53125 501.472656 787.070312 499.9375 787.070312 498.03125 L 792.804688 498.03125 L 787.046875 498.03125 L 787.046875 378.707031 L 792.78125 378.707031 L 787.046875 378.707031 C 787.046875 376.800781 785.507812 375.261719 783.605469 375.261719 L 783.605469 369.527344 L 783.605469 375.261719 M 783.605469 363.789062 C 791.839844 363.789062 798.519531 370.46875 798.519531 378.707031 L 798.519531 498.054688 C 798.519531 506.292969 791.839844 512.972656 783.605469 512.972656 L 586.257812 512.972656 L 586.257812 507.234375 L 591.992188 507.234375 L 591.992188 700.265625 C 591.992188 708.503906 585.316406 715.183594 577.078125 715.183594 L 457.75 715.183594 C 449.511719 715.183594 442.835938 708.503906 442.835938 700.265625 L 442.835938 507.210938 L 448.570312 507.210938 L 448.570312 512.949219 L 251.226562 512.949219 C 242.988281 512.949219 236.308594 506.269531 236.308594 498.03125 L 236.308594 378.707031 C 236.308594 370.46875 242.988281 363.789062 251.226562 363.789062 L 448.570312 363.789062 L 448.570312 369.527344 L 442.835938 369.527344 L 442.835938 176.492188 C 442.835938 168.253906 449.511719 161.578125 457.75 161.578125 L 577.101562 161.578125 C 585.339844 161.578125 592.015625 168.253906 592.015625 176.492188 L 592.015625 369.527344 L 586.277344 369.527344 L 586.277344 363.789062 L 783.625 363.789062 Z M 783.605469 363.789062 " clip-rule="nonzero"/></clipPath><clipPath id="74e5196a37"><path d="M 0.160156 0.519531 L 562.71875 0.519531 L 562.71875 554.199219 L 0.160156 554.199219 Z M 0.160156 0.519531 " clip-rule="nonzero"/></clipPath><clipPath id="eba64a0f46"><path d="M 547.605469 214.261719 L 350.257812 214.261719 C 347.089844 214.261719 344.519531 211.695312 344.519531 208.527344 L 344.519531 15.492188 L 350.257812 15.492188 L 344.519531 15.492188 C 344.519531 13.589844 342.980469 12.050781 341.078125 12.050781 L 341.078125 6.316406 L 341.078125 12.050781 L 221.75 12.050781 L 221.75 6.316406 L 221.75 12.050781 C 219.847656 12.050781 218.308594 13.589844 218.308594 15.492188 L 212.570312 15.492188 L 218.308594 15.492188 L 218.308594 208.527344 C 218.308594 211.695312 215.738281 214.261719 212.570312 214.261719 L 15.226562 214.261719 L 15.226562 208.527344 L 15.226562 214.261719 C 13.320312 214.261719 11.78125 215.800781 11.78125 217.707031 L 6.046875 217.707031 L 11.78125 217.707031 L 11.78125 337.054688 L 6.046875 337.054688 L 11.78125 337.054688 C 11.78125 338.960938 13.320312 340.496094 15.226562 340.496094 L 15.226562 346.234375 L 15.226562 340.496094 L 212.570312 340.496094 C 215.738281 340.496094 218.308594 343.066406 218.308594 346.234375 L 218.308594 539.265625 L 212.570312 539.265625 L 218.308594 539.265625 C 218.308594 541.171875 219.847656 542.710938 221.75 542.710938 L 221.75 548.445312 L 221.75 542.710938 L 341.101562 542.710938 L 341.101562 548.445312 L 341.101562 542.710938 C 343.003906 542.710938 344.542969 541.171875 344.542969 539.265625 L 350.277344 539.265625 L 344.542969 539.265625 L 344.542969 346.210938 C 344.542969 343.042969 347.113281 340.472656 350.277344 340.472656 L 547.625 340.472656 L 547.625 346.210938 L 547.625 340.472656 C 549.53125 340.472656 551.070312 338.9375 551.070312 337.03125 L 556.804688 337.03125 L 551.046875 337.03125 L 551.046875 217.707031 L 556.78125 217.707031 L 551.046875 217.707031 C 551.046875 215.800781 549.507812 214.261719 547.605469 214.261719 L 547.605469 208.527344 L 547.605469 214.261719 M 547.605469 202.789062 C 555.839844 202.789062 562.519531 209.46875 562.519531 217.707031 L 562.519531 337.054688 C 562.519531 345.292969 555.839844 351.972656 547.605469 351.972656 L 350.257812 351.972656 L 350.257812 346.234375 L 355.992188 346.234375 L 355.992188 539.265625 C 355.992188 547.503906 349.316406 554.183594 341.078125 554.183594 L 221.75 554.183594 C 213.511719 554.183594 206.835938 547.503906 206.835938 539.265625 L 206.835938 346.210938 L 212.570312 346.210938 L 212.570312 351.949219 L 15.226562 351.949219 C 6.988281 351.949219 0.308594 345.269531 0.308594 337.03125 L 0.308594 217.707031 C 0.308594 209.46875 6.988281 202.789062 15.226562 202.789062 L 212.570312 202.789062 L 212.570312 208.527344 L 206.835938 208.527344 L 206.835938 15.492188 C 206.835938 7.253906 213.511719 0.578125 221.75 0.578125 L 341.101562 0.578125 C 349.339844 0.578125 356.015625 7.253906 356.015625 15.492188 L 356.015625 208.527344 L 350.277344 208.527344 L 350.277344 202.789062 L 547.625 202.789062 Z M 547.605469 202.789062 " clip-rule="nonzero"/></clipPath><clipPath id="2d049ce89d"><rect x="0" width="563" y="0" height="555"/></clipPath></defs><g clip-path="url(#6fc9d93a66)"><g clip-path="url(#825ff50125)"><g transform="matrix(1, 0, 0, 1, 242, 167)"><g clip-path="url(#b61be589bb)"><g clip-path="url(#ca81f16076)"><g clip-path="url(#cf5869f4b0)"><rect x="-440" width="1296" fill="#ea4335" height="1166.399991" y="-345.199999" fill-opacity="1"/></g></g></g></g></g></g><g clip-path="url(#854f2970b9)"><g clip-path="url(#a6eee73817)"><g transform="matrix(1, 0, 0, 1, 236, 161)"><g clip-path="url(#2d049ce89d)"><g clip-path="url(#74e5196a37)"><g clip-path="url(#eba64a0f46)"><rect x="-434" width="1296" fill="#1e1e1e" height="1166.399991" y="-339.199999" fill-opacity="1"/></g></g></g></g></g></g></svg>