<?xml version="1.0" standalone="no"?>
<!DOCTYPE svg PUBLIC "-//W3C//DTD SVG 1.1//EN" "http://www.w3.org/Graphics/SVG/1.1/DTD/svg11.dtd">
<svg xmlns="http://www.w3.org/2000/svg" xmlns:xlink="http://www.w3.org/1999/xlink" width="900" zoomAndPan="magnify" viewBox="0 0 900 809.999994" height="810" preserveAspectRatio="xMidYMid meet" version="1.0"><defs><clipPath id="2114e00715"><path d="M 324 433.050781 L 431 433.050781 L 431 540.996094 L 324 540.996094 Z M 324 433.050781 " clip-rule="nonzero"/></clipPath><clipPath id="1db005336f"><path d="M 430.824219 487.046875 C 430.824219 516.4375 407 540.273438 377.597656 540.273438 C 348.191406 540.273438 324.367188 516.449219 324.367188 487.046875 C 324.367188 457.644531 348.191406 433.820312 377.597656 433.820312 C 407 433.820312 430.824219 457.644531 430.824219 487.046875 " clip-rule="nonzero"/></clipPath><clipPath id="1289db6c50"><path d="M 0.28125 0.640625 L 106.839844 0.640625 L 106.839844 107.441406 L 0.28125 107.441406 Z M 0.28125 0.640625 " clip-rule="nonzero"/></clipPath><clipPath id="b984751406"><path d="M 106.824219 54.046875 C 106.824219 83.4375 83 107.273438 53.597656 107.273438 C 24.191406 107.273438 0.367188 83.449219 0.367188 54.046875 C 0.367188 24.644531 24.191406 0.820312 53.597656 0.820312 C 83 0.820312 106.824219 24.644531 106.824219 54.046875 " clip-rule="nonzero"/></clipPath><clipPath id="53a27aee2b"><rect x="0" width="107" y="0" height="108"/></clipPath><clipPath id="fcdb820682"><path d="M 321.328125 431 L 433.464844 431 L 433.464844 543 L 321.328125 543 Z M 321.328125 431 " clip-rule="nonzero"/></clipPath><clipPath id="0ff8b2f9fa"><path d="M 433.449219 487.046875 C 433.449219 517.890625 408.449219 542.898438 377.597656 542.898438 L 377.597656 540.273438 L 377.597656 542.898438 C 346.753906 542.898438 321.742188 517.898438 321.742188 487.046875 L 324.367188 487.046875 L 321.742188 487.046875 C 321.742188 456.207031 346.742188 431.195312 377.597656 431.195312 L 377.597656 433.820312 L 377.597656 431.195312 C 408.4375 431.195312 433.449219 456.195312 433.449219 487.046875 L 430.824219 487.046875 L 433.449219 487.046875 M 428.195312 487.046875 C 428.195312 459.105469 405.546875 436.445312 377.597656 436.445312 C 349.644531 436.445312 326.996094 459.09375 326.996094 487.046875 C 326.996094 515 349.644531 537.648438 377.597656 537.648438 C 405.546875 537.648438 428.195312 515 428.195312 487.046875 Z M 428.195312 487.046875 " clip-rule="nonzero"/></clipPath><clipPath id="80096bc700"><path d="M 0.640625 0 L 112.464844 0 L 112.464844 112 L 0.640625 112 Z M 0.640625 0 " clip-rule="nonzero"/></clipPath><clipPath id="f1309347c3"><path d="M 112.449219 56.046875 C 112.449219 86.890625 87.449219 111.898438 56.597656 111.898438 L 56.597656 109.273438 L 56.597656 111.898438 C 25.753906 111.898438 0.742188 86.898438 0.742188 56.046875 L 3.367188 56.046875 L 0.742188 56.046875 C 0.742188 25.207031 25.742188 0.195312 56.597656 0.195312 L 56.597656 2.820312 L 56.597656 0.195312 C 87.4375 0.195312 112.449219 25.195312 112.449219 56.046875 L 109.824219 56.046875 L 112.449219 56.046875 M 107.195312 56.046875 C 107.195312 28.105469 84.546875 5.445312 56.597656 5.445312 C 28.644531 5.445312 5.996094 28.09375 5.996094 56.046875 C 5.996094 84 28.644531 106.648438 56.597656 106.648438 C 84.546875 106.648438 107.195312 84 107.195312 56.046875 Z M 107.195312 56.046875 " clip-rule="nonzero"/></clipPath><clipPath id="09c59e9230"><rect x="0" width="113" y="0" height="112"/></clipPath><clipPath id="0cc40f7f63"><path d="M 261 8 L 419 8 L 419 327.199219 L 261 327.199219 Z M 261 8 " clip-rule="nonzero"/></clipPath><clipPath id="dcd2354c81"><path d="M 418.921875 327.144531 L 418.921875 257.183594 C 370.347656 256.132812 331.28125 216.445312 331.28125 167.621094 C 331.28125 118.796875 370.335938 79.121094 418.921875 78.058594 L 418.921875 8.109375 C 331.722656 9.167969 261.351562 80.179688 261.351562 167.632812 C 261.351562 255.082031 331.722656 326.09375 418.921875 327.15625 " clip-rule="nonzero"/></clipPath><clipPath id="9433496fff"><path d="M 0.160156 0 L 158 0 L 158 319.199219 L 0.160156 319.199219 Z M 0.160156 0 " clip-rule="nonzero"/></clipPath><clipPath id="a4485fa4b5"><path d="M 157.921875 319.144531 L 157.921875 249.183594 C 109.347656 248.132812 70.28125 208.445312 70.28125 159.621094 C 70.28125 110.796875 109.335938 71.121094 157.921875 70.058594 L 157.921875 0.109375 C 70.722656 1.167969 0.351562 72.179688 0.351562 159.632812 C 0.351562 247.082031 70.722656 318.09375 157.921875 319.15625 " clip-rule="nonzero"/></clipPath><clipPath id="6f8da7c51b"><rect x="0" width="158" y="0" height="320"/></clipPath><clipPath id="f60d075003"><path d="M 258.449219 5.460938 L 421.9375 5.460938 L 421.9375 330 L 258.449219 330 Z M 258.449219 5.460938 " clip-rule="nonzero"/></clipPath><clipPath id="ed852ebc42"><path d="M 416.292969 327.144531 L 416.292969 257.183594 L 418.921875 257.183594 L 418.867188 259.808594 C 368.867188 258.726562 328.664062 217.886719 328.664062 167.621094 L 331.292969 167.621094 L 328.664062 167.621094 C 328.664062 117.355469 368.867188 76.523438 418.867188 75.433594 L 418.921875 78.058594 L 416.292969 78.058594 L 416.292969 8.109375 L 418.921875 8.109375 L 418.953125 10.734375 C 333.191406 11.773438 263.976562 81.609375 263.976562 167.632812 L 261.351562 167.632812 L 263.976562 167.632812 C 263.976562 253.644531 333.183594 323.488281 418.953125 324.53125 L 418.921875 327.15625 L 416.292969 327.15625 M 421.546875 327.15625 C 421.546875 327.859375 421.261719 328.53125 420.769531 329.027344 C 420.277344 329.519531 419.59375 329.792969 418.890625 329.78125 C 330.25 328.699219 258.726562 256.53125 258.726562 167.632812 C 258.726562 78.730469 330.25 6.554688 418.890625 5.480469 C 419.59375 5.472656 420.265625 5.746094 420.769531 6.238281 C 421.273438 6.730469 421.546875 7.40625 421.546875 8.109375 L 421.546875 78.070312 C 421.546875 79.496094 420.402344 80.664062 418.972656 80.695312 C 371.816406 81.714844 333.90625 120.234375 333.90625 167.632812 C 333.90625 215.027344 371.816406 253.550781 418.972656 254.570312 C 420.402344 254.601562 421.546875 255.765625 421.546875 257.195312 Z M 421.546875 327.15625 " clip-rule="nonzero"/></clipPath><clipPath id="38b0dc6ba5"><path d="M 0.519531 0.460938 L 163.71875 0.460938 L 163.71875 324.960938 L 0.519531 324.960938 Z M 0.519531 0.460938 " clip-rule="nonzero"/></clipPath><clipPath id="d4829da5ee"><path d="M 158.292969 322.144531 L 158.292969 252.183594 L 160.921875 252.183594 L 160.867188 254.808594 C 110.867188 253.726562 70.664062 212.886719 70.664062 162.621094 L 73.292969 162.621094 L 70.664062 162.621094 C 70.664062 112.355469 110.867188 71.523438 160.867188 70.433594 L 160.921875 73.058594 L 158.292969 73.058594 L 158.292969 3.109375 L 160.921875 3.109375 L 160.953125 5.734375 C 75.191406 6.773438 5.976562 76.609375 5.976562 162.632812 L 3.351562 162.632812 L 5.976562 162.632812 C 5.976562 248.644531 75.183594 318.488281 160.953125 319.53125 L 160.921875 322.15625 L 158.292969 322.15625 M 163.546875 322.15625 C 163.546875 322.859375 163.261719 323.53125 162.769531 324.027344 C 162.277344 324.519531 161.59375 324.792969 160.890625 324.78125 C 72.25 323.699219 0.726562 251.53125 0.726562 162.632812 C 0.726562 73.730469 72.25 1.554688 160.890625 0.480469 C 161.59375 0.472656 162.265625 0.746094 162.769531 1.238281 C 163.273438 1.730469 163.546875 2.40625 163.546875 3.109375 L 163.546875 73.070312 C 163.546875 74.496094 162.402344 75.664062 160.972656 75.695312 C 113.816406 76.714844 75.90625 115.234375 75.90625 162.632812 C 75.90625 210.027344 113.816406 248.550781 160.972656 249.570312 C 162.402344 249.601562 163.546875 250.765625 163.546875 252.195312 Z M 163.546875 322.15625 " clip-rule="nonzero"/></clipPath><clipPath id="2ecc1fd931"><rect x="0" width="164" y="0" height="325"/></clipPath><clipPath id="7d3e48a1a1"><path d="M 9.019531 292 L 258.449219 292 L 258.449219 542 L 9.019531 542 Z M 9.019531 292 " clip-rule="nonzero"/></clipPath><clipPath id="c8d389f171"><path d="M 256.992188 337.839844 L 212.578125 293.4375 C 210.699219 291.542969 207.640625 291.542969 205.75 293.4375 L 133.824219 365.359375 L 61.898438 293.425781 C 60.019531 291.535156 56.953125 291.535156 55.070312 293.425781 L 10.65625 337.839844 C 8.777344 339.730469 8.777344 342.777344 10.65625 344.667969 L 82.582031 416.601562 L 10.65625 488.527344 C 8.777344 490.410156 8.777344 493.476562 10.65625 495.355469 L 55.070312 539.757812 C 56.953125 541.640625 60.019531 541.640625 61.898438 539.757812 L 133.824219 467.835938 L 205.75 539.757812 C 207.640625 541.640625 210.699219 541.640625 212.578125 539.757812 L 256.992188 495.355469 C 258.882812 493.476562 258.882812 490.410156 256.992188 488.527344 L 185.066406 416.601562 L 256.992188 344.667969 C 258.882812 342.777344 258.882812 339.730469 256.992188 337.839844 " clip-rule="nonzero"/></clipPath><clipPath id="4c9b74f65a"><path d="M 0.0195312 0 L 249.449219 0 L 249.449219 249.640625 L 0.0195312 249.640625 Z M 0.0195312 0 " clip-rule="nonzero"/></clipPath><clipPath id="84f80b765c"><path d="M 247.992188 45.839844 L 203.578125 1.4375 C 201.699219 -0.457031 198.640625 -0.457031 196.75 1.4375 L 124.824219 73.359375 L 52.898438 1.425781 C 51.019531 -0.464844 47.953125 -0.464844 46.070312 1.425781 L 1.65625 45.839844 C -0.222656 47.730469 -0.222656 50.777344 1.65625 52.667969 L 73.582031 124.601562 L 1.65625 196.527344 C -0.222656 198.410156 -0.222656 201.476562 1.65625 203.355469 L 46.070312 247.757812 C 47.953125 249.640625 51.019531 249.640625 52.898438 247.757812 L 124.824219 175.835938 L 196.75 247.757812 C 198.640625 249.640625 201.699219 249.640625 203.578125 247.757812 L 247.992188 203.355469 C 249.882812 201.476562 249.882812 198.410156 247.992188 196.527344 L 176.066406 124.601562 L 247.992188 52.667969 C 249.882812 50.777344 249.882812 47.730469 247.992188 45.839844 " clip-rule="nonzero"/></clipPath><clipPath id="c0b94bd8fe"><rect x="0" width="250" y="0" height="250"/></clipPath><clipPath id="60216206cc"><path d="M 6 289 L 261.59375 289 L 261.59375 544 L 6 544 Z M 6 289 " clip-rule="nonzero"/></clipPath><clipPath id="ba0ca4269b"><path d="M 255.132812 339.6875 L 210.730469 295.285156 C 209.867188 294.421875 208.472656 294.421875 207.621094 295.285156 L 205.761719 293.425781 L 207.621094 295.285156 L 133.835938 369.070312 L 60.050781 295.285156 C 59.1875 294.421875 57.792969 294.421875 56.929688 295.285156 L 12.515625 339.6875 L 10.65625 337.828125 L 12.515625 339.6875 C 11.65625 340.550781 11.65625 341.945312 12.515625 342.796875 L 10.65625 344.667969 L 12.515625 342.808594 L 86.300781 416.59375 L 12.515625 490.378906 L 10.65625 488.519531 L 12.515625 490.378906 C 11.65625 491.238281 11.65625 492.636719 12.515625 493.496094 L 10.65625 495.355469 L 12.515625 493.496094 L 56.929688 537.898438 C 57.792969 538.761719 59.1875 538.761719 60.050781 537.898438 L 131.976562 465.976562 L 133.835938 464.117188 L 135.695312 465.976562 L 207.621094 537.898438 L 205.761719 539.757812 L 207.621094 537.898438 C 208.480469 538.761719 209.878906 538.761719 210.730469 537.898438 L 255.144531 493.496094 C 256.003906 492.636719 256.003906 491.238281 255.144531 490.378906 L 181.359375 416.59375 L 183.21875 414.734375 L 255.144531 342.796875 C 256.003906 341.9375 256.003906 340.539062 255.144531 339.6875 M 258.863281 335.96875 L 257.003906 337.828125 L 258.863281 335.96875 C 261.769531 338.878906 261.769531 343.59375 258.863281 346.515625 L 257.003906 344.65625 L 258.863281 346.515625 L 186.9375 418.453125 L 185.078125 416.59375 L 186.9375 414.734375 L 258.863281 486.660156 L 257.003906 488.519531 L 258.863281 486.660156 C 261.769531 489.566406 261.769531 494.296875 258.863281 497.207031 L 257.003906 495.347656 L 258.863281 497.207031 L 214.449219 541.609375 L 212.589844 539.75 L 214.449219 541.609375 C 211.539062 544.519531 206.820312 544.519531 203.902344 541.609375 L 131.976562 469.683594 L 133.835938 467.824219 L 135.695312 469.683594 L 63.769531 541.609375 L 61.910156 539.75 L 63.769531 541.609375 C 60.859375 544.519531 56.132812 544.519531 53.222656 541.609375 L 55.082031 539.75 L 53.222656 541.609375 L 8.796875 497.207031 C 5.886719 494.296875 5.886719 489.566406 8.796875 486.660156 L 80.734375 414.734375 L 82.59375 416.59375 L 80.734375 418.453125 L 8.796875 346.515625 C 5.886719 343.605469 5.886719 338.890625 8.796875 335.980469 L 53.210938 291.578125 L 55.070312 293.4375 L 53.210938 291.578125 C 56.121094 288.667969 60.847656 288.667969 63.757812 291.578125 L 61.898438 293.4375 L 63.757812 291.578125 L 135.683594 363.5 L 133.824219 365.359375 L 131.964844 363.5 L 203.890625 291.578125 C 206.800781 288.667969 211.515625 288.667969 214.4375 291.578125 L 212.578125 293.4375 L 214.4375 291.578125 L 258.851562 335.980469 Z M 258.863281 335.96875 " clip-rule="nonzero"/></clipPath><clipPath id="51fb528510"><path d="M 0 0 L 255.59375 0 L 255.59375 255 L 0 255 Z M 0 0 " clip-rule="nonzero"/></clipPath><clipPath id="a3235b6e41"><path d="M 249.132812 50.6875 L 204.730469 6.285156 C 203.867188 5.421875 202.472656 5.421875 201.621094 6.285156 L 199.761719 4.425781 L 201.621094 6.285156 L 127.835938 80.070312 L 54.050781 6.285156 C 53.1875 5.421875 51.792969 5.421875 50.929688 6.285156 L 6.515625 50.6875 L 4.65625 48.828125 L 6.515625 50.6875 C 5.65625 51.550781 5.65625 52.945312 6.515625 53.796875 L 4.65625 55.667969 L 6.515625 53.808594 L 80.300781 127.59375 L 6.515625 201.378906 L 4.65625 199.519531 L 6.515625 201.378906 C 5.65625 202.238281 5.65625 203.636719 6.515625 204.496094 L 4.65625 206.355469 L 6.515625 204.496094 L 50.929688 248.898438 C 51.792969 249.761719 53.1875 249.761719 54.050781 248.898438 L 125.976562 176.976562 L 127.835938 175.117188 L 129.695312 176.976562 L 201.621094 248.898438 L 199.761719 250.757812 L 201.621094 248.898438 C 202.480469 249.761719 203.878906 249.761719 204.730469 248.898438 L 249.144531 204.496094 C 250.003906 203.636719 250.003906 202.238281 249.144531 201.378906 L 175.359375 127.59375 L 177.21875 125.734375 L 249.144531 53.796875 C 250.003906 52.9375 250.003906 51.539062 249.144531 50.6875 M 252.863281 46.96875 L 251.003906 48.828125 L 252.863281 46.96875 C 255.769531 49.878906 255.769531 54.59375 252.863281 57.515625 L 251.003906 55.65625 L 252.863281 57.515625 L 180.9375 129.453125 L 179.078125 127.59375 L 180.9375 125.734375 L 252.863281 197.660156 L 251.003906 199.519531 L 252.863281 197.660156 C 255.769531 200.566406 255.769531 205.296875 252.863281 208.207031 L 251.003906 206.347656 L 252.863281 208.207031 L 208.449219 252.609375 L 206.589844 250.75 L 208.449219 252.609375 C 205.539062 255.519531 200.820312 255.519531 197.902344 252.609375 L 125.976562 180.683594 L 127.835938 178.824219 L 129.695312 180.683594 L 57.769531 252.609375 L 55.910156 250.75 L 57.769531 252.609375 C 54.859375 255.519531 50.132812 255.519531 47.222656 252.609375 L 49.082031 250.75 L 47.222656 252.609375 L 2.796875 208.207031 C -0.113281 205.296875 -0.113281 200.566406 2.796875 197.660156 L 74.734375 125.734375 L 76.59375 127.59375 L 74.734375 129.453125 L 2.796875 57.515625 C -0.113281 54.605469 -0.113281 49.890625 2.796875 46.980469 L 47.210938 2.578125 L 49.070312 4.4375 L 47.210938 2.578125 C 50.121094 -0.332031 54.847656 -0.332031 57.757812 2.578125 L 55.898438 4.4375 L 57.757812 2.578125 L 129.683594 74.5 L 127.824219 76.359375 L 125.964844 74.5 L 197.890625 2.578125 C 200.800781 -0.332031 205.515625 -0.332031 208.4375 2.578125 L 206.578125 4.4375 L 208.4375 2.578125 L 252.851562 46.980469 Z M 252.863281 46.96875 " clip-rule="nonzero"/></clipPath><clipPath id="e0f2596abd"><rect x="0" width="256" y="0" height="255"/></clipPath><clipPath id="a6112be56d"><path d="M 460 434.550781 L 566.929688 434.550781 L 566.929688 541.476562 L 460 541.476562 Z M 460 434.550781 " clip-rule="nonzero"/></clipPath><clipPath id="4201e466e3"><path d="M 566.683594 488.019531 C 566.683594 517.410156 542.859375 541.246094 513.457031 541.246094 C 484.054688 541.246094 460.242188 517.410156 460.242188 488.019531 C 460.242188 458.625 484.066406 434.792969 513.46875 434.792969 C 542.871094 434.792969 566.695312 458.617188 566.695312 488.019531 " clip-rule="nonzero"/></clipPath><clipPath id="34afb1c087"><path d="M 0.121094 0.601562 L 106.921875 0.601562 L 106.921875 107.398438 L 0.121094 107.398438 Z M 0.121094 0.601562 " clip-rule="nonzero"/></clipPath><clipPath id="043bf1ab5b"><path d="M 106.683594 54.019531 C 106.683594 83.410156 82.859375 107.246094 53.457031 107.246094 C 24.054688 107.246094 0.242188 83.410156 0.242188 54.019531 C 0.242188 24.625 24.066406 0.792969 53.46875 0.792969 C 82.871094 0.792969 106.695312 24.617188 106.695312 54.019531 " clip-rule="nonzero"/></clipPath><clipPath id="b1dfb8fe63"><rect x="0" width="107" y="0" height="108"/></clipPath><clipPath id="793fff5120"><path d="M 457.613281 432.164062 L 569.792969 432.164062 L 569.792969 544 L 457.613281 544 Z M 457.613281 432.164062 " clip-rule="nonzero"/></clipPath><clipPath id="76354f68a7"><path d="M 569.3125 488.019531 C 569.3125 518.859375 544.308594 543.871094 513.457031 543.871094 L 513.457031 541.246094 L 513.457031 543.871094 C 482.617188 543.863281 457.613281 518.859375 457.613281 488.019531 L 460.242188 488.019531 L 457.613281 488.019531 C 457.613281 457.167969 482.617188 432.164062 513.46875 432.164062 L 513.46875 434.792969 L 513.46875 432.164062 C 544.308594 432.164062 569.320312 457.167969 569.320312 488.019531 L 566.695312 488.019531 L 569.320312 488.019531 M 564.070312 488.019531 C 564.058594 460.066406 541.410156 437.417969 513.46875 437.417969 C 485.527344 437.417969 462.867188 460.066406 462.867188 488.019531 C 462.867188 515.972656 485.515625 538.621094 513.46875 538.621094 C 541.421875 538.621094 564.070312 515.972656 564.070312 488.019531 Z M 564.070312 488.019531 " clip-rule="nonzero"/></clipPath><clipPath id="1e40d41c28"><path d="M 0.613281 0.164062 L 112.558594 0.164062 L 112.558594 112 L 0.613281 112 Z M 0.613281 0.164062 " clip-rule="nonzero"/></clipPath><clipPath id="8be7fc7ebb"><path d="M 112.3125 56.019531 C 112.3125 86.859375 87.308594 111.871094 56.457031 111.871094 L 56.457031 109.246094 L 56.457031 111.871094 C 25.617188 111.863281 0.613281 86.859375 0.613281 56.019531 L 3.242188 56.019531 L 0.613281 56.019531 C 0.613281 25.167969 25.617188 0.164062 56.46875 0.164062 L 56.46875 2.792969 L 56.46875 0.164062 C 87.308594 0.164062 112.320312 25.167969 112.320312 56.019531 L 109.695312 56.019531 L 112.320312 56.019531 M 107.070312 56.019531 C 107.058594 28.066406 84.410156 5.417969 56.46875 5.417969 C 28.527344 5.417969 5.867188 28.066406 5.867188 56.019531 C 5.867188 83.972656 28.515625 106.621094 56.46875 106.621094 C 84.421875 106.621094 107.070312 83.972656 107.070312 56.019531 Z M 107.070312 56.019531 " clip-rule="nonzero"/></clipPath><clipPath id="dc8ed4facd"><rect x="0" width="113" y="0" height="112"/></clipPath><clipPath id="f5dc58b74b"><path d="M 596 434.550781 L 702.789062 434.550781 L 702.789062 541.476562 L 596 541.476562 Z M 596 434.550781 " clip-rule="nonzero"/></clipPath><clipPath id="1e4a6d48f9"><path d="M 702.546875 488.019531 C 702.546875 517.410156 678.722656 541.246094 649.320312 541.246094 C 619.917969 541.246094 596.101562 517.410156 596.101562 488.019531 C 596.101562 458.625 619.925781 434.792969 649.328125 434.792969 C 678.730469 434.792969 702.554688 458.617188 702.554688 488.019531 " clip-rule="nonzero"/></clipPath><clipPath id="28aa467488"><path d="M 0 0.601562 L 106.761719 0.601562 L 106.761719 107.398438 L 0 107.398438 Z M 0 0.601562 " clip-rule="nonzero"/></clipPath><clipPath id="d85872f8cb"><path d="M 106.546875 54.019531 C 106.546875 83.410156 82.722656 107.246094 53.320312 107.246094 C 23.917969 107.246094 0.101562 83.410156 0.101562 54.019531 C 0.101562 24.625 23.925781 0.792969 53.328125 0.792969 C 82.730469 0.792969 106.554688 24.617188 106.554688 54.019531 " clip-rule="nonzero"/></clipPath><clipPath id="79a0d533c5"><rect x="0" width="107" y="0" height="108"/></clipPath><clipPath id="d415550244"><path d="M 593.472656 432.164062 L 705.652344 432.164062 L 705.652344 544 L 593.472656 544 Z M 593.472656 432.164062 " clip-rule="nonzero"/></clipPath><clipPath id="35a487e569"><path d="M 705.171875 488.019531 C 705.171875 518.859375 680.171875 543.871094 649.320312 543.871094 L 649.320312 541.246094 L 649.320312 543.871094 C 618.476562 543.863281 593.476562 518.859375 593.476562 488.019531 L 596.101562 488.019531 L 593.476562 488.019531 C 593.476562 457.167969 618.476562 432.164062 649.328125 432.164062 L 649.328125 434.792969 L 649.328125 432.164062 C 680.171875 432.164062 705.183594 457.167969 705.183594 488.019531 L 702.554688 488.019531 L 705.183594 488.019531 M 699.929688 488.019531 C 699.917969 460.066406 677.273438 437.417969 649.328125 437.417969 C 621.386719 437.417969 598.726562 460.066406 598.726562 488.019531 C 598.726562 515.972656 621.375 538.621094 649.328125 538.621094 C 677.28125 538.621094 699.929688 515.972656 699.929688 488.019531 Z M 699.929688 488.019531 " clip-rule="nonzero"/></clipPath><clipPath id="4ec7719005"><path d="M 0.472656 0.164062 L 112.398438 0.164062 L 112.398438 112 L 0.472656 112 Z M 0.472656 0.164062 " clip-rule="nonzero"/></clipPath><clipPath id="c42d1548f1"><path d="M 112.171875 56.019531 C 112.171875 86.859375 87.171875 111.871094 56.320312 111.871094 L 56.320312 109.246094 L 56.320312 111.871094 C 25.476562 111.863281 0.476562 86.859375 0.476562 56.019531 L 3.101562 56.019531 L 0.476562 56.019531 C 0.476562 25.167969 25.476562 0.164062 56.328125 0.164062 L 56.328125 2.792969 L 56.328125 0.164062 C 87.171875 0.164062 112.183594 25.167969 112.183594 56.019531 L 109.554688 56.019531 L 112.183594 56.019531 M 106.929688 56.019531 C 106.917969 28.066406 84.273438 5.417969 56.328125 5.417969 C 28.386719 5.417969 5.726562 28.066406 5.726562 56.019531 C 5.726562 83.972656 28.375 106.621094 56.328125 106.621094 C 84.28125 106.621094 106.929688 83.972656 106.929688 56.019531 Z M 106.929688 56.019531 " clip-rule="nonzero"/></clipPath><clipPath id="396c7af103"><rect x="0" width="113" y="0" height="112"/></clipPath><clipPath id="4a7d64e571"><rect x="0" width="711" y="0" height="551"/></clipPath></defs><g transform="matrix(1, 0, 0, 1, 137, 175)"><g clip-path="url(#4a7d64e571)"><g clip-path="url(#2114e00715)"><g clip-path="url(#1db005336f)"><g transform="matrix(1, 0, 0, 1, 324, 433)"><g clip-path="url(#53a27aee2b)"><g clip-path="url(#1289db6c50)"><g clip-path="url(#b984751406)"><rect x="-788.6" width="1555.2" fill="#5cdb6d" y="-902.839998" height="1399.67999" fill-opacity="1"/></g></g></g></g></g></g><g clip-path="url(#fcdb820682)"><g clip-path="url(#0ff8b2f9fa)"><g transform="matrix(1, 0, 0, 1, 321, 431)"><g clip-path="url(#09c59e9230)"><g clip-path="url(#80096bc700)"><g clip-path="url(#f1309347c3)"><rect x="-785.6" width="1555.2" fill="#1e1e1e" y="-900.839998" height="1399.67999" fill-opacity="1"/></g></g></g></g></g></g><g clip-path="url(#0cc40f7f63)"><g clip-path="url(#dcd2354c81)"><g transform="matrix(1, 0, 0, 1, 261, 8)"><g clip-path="url(#6f8da7c51b)"><g clip-path="url(#9433496fff)"><g clip-path="url(#a4485fa4b5)"><rect x="-725.6" width="1555.2" fill="#f9ab00" y="-477.839998" height="1399.67999" fill-opacity="1"/></g></g></g></g></g></g><g clip-path="url(#f60d075003)"><g clip-path="url(#ed852ebc42)"><g transform="matrix(1, 0, 0, 1, 258, 5)"><g clip-path="url(#2ecc1fd931)"><g clip-path="url(#38b0dc6ba5)"><g clip-path="url(#d4829da5ee)"><rect x="-722.6" width="1555.2" fill="#1e1e1e" y="-474.839998" height="1399.67999" fill-opacity="1"/></g></g></g></g></g></g><g clip-path="url(#7d3e48a1a1)"><g clip-path="url(#c8d389f171)"><g transform="matrix(1, 0, 0, 1, 9, 292)"><g clip-path="url(#c0b94bd8fe)"><g clip-path="url(#4c9b74f65a)"><g clip-path="url(#84f80b765c)"><rect x="-473.6" width="1555.2" fill="#ff7daf" y="-761.839998" height="1399.67999" fill-opacity="1"/></g></g></g></g></g></g><g clip-path="url(#60216206cc)"><g clip-path="url(#ba0ca4269b)"><g transform="matrix(1, 0, 0, 1, 6, 289)"><g clip-path="url(#e0f2596abd)"><g clip-path="url(#51fb528510)"><g clip-path="url(#a3235b6e41)"><rect x="-470.6" width="1555.2" fill="#1e1e1e" y="-758.839998" height="1399.67999" fill-opacity="1"/></g></g></g></g></g></g><g clip-path="url(#a6112be56d)"><g clip-path="url(#4201e466e3)"><g transform="matrix(1, 0, 0, 1, 460, 434)"><g clip-path="url(#b1dfb8fe63)"><g clip-path="url(#34afb1c087)"><g clip-path="url(#043bf1ab5b)"><rect x="-924.6" width="1555.2" fill="#5cdb6d" y="-903.839998" height="1399.67999" fill-opacity="1"/></g></g></g></g></g></g><g clip-path="url(#793fff5120)"><g clip-path="url(#76354f68a7)"><g transform="matrix(1, 0, 0, 1, 457, 432)"><g clip-path="url(#dc8ed4facd)"><g clip-path="url(#1e40d41c28)"><g clip-path="url(#8be7fc7ebb)"><rect x="-921.6" width="1555.2" fill="#1e1e1e" y="-901.839998" height="1399.67999" fill-opacity="1"/></g></g></g></g></g></g><g clip-path="url(#f5dc58b74b)"><g clip-path="url(#1e4a6d48f9)"><g transform="matrix(1, 0, 0, 1, 596, 434)"><g clip-path="url(#79a0d533c5)"><g clip-path="url(#28aa467488)"><g clip-path="url(#d85872f8cb)"><rect x="-1060.6" width="1555.2" fill="#5cdb6d" y="-903.839998" height="1399.67999" fill-opacity="1"/></g></g></g></g></g></g><g clip-path="url(#d415550244)"><g clip-path="url(#35a487e569)"><g transform="matrix(1, 0, 0, 1, 593, 432)"><g clip-path="url(#396c7af103)"><g clip-path="url(#4ec7719005)"><g clip-path="url(#c42d1548f1)"><rect x="-1057.6" width="1555.2" fill="#1e1e1e" y="-901.839998" height="1399.67999" fill-opacity="1"/></g></g></g></g></g></g></g></g></svg>