<?xml version="1.0" standalone="no"?>
<!DOCTYPE svg PUBLIC "-//W3C//DTD SVG 1.1//EN" "http://www.w3.org/Graphics/SVG/1.1/DTD/svg11.dtd">
<svg xmlns="http://www.w3.org/2000/svg" xmlns:xlink="http://www.w3.org/1999/xlink" width="900" zoomAndPan="magnify" viewBox="0 0 900 809.999994" height="810" preserveAspectRatio="xMidYMid meet" version="1.0"><defs><clipPath id="3775083bd3"><path d="M 51.617188 438.753906 L 848.375 438.753906 L 848.375 460.917969 L 51.617188 460.917969 Z M 51.617188 438.753906 " clip-rule="nonzero"/></clipPath><clipPath id="239979eb53"><path d="M 0.617188 0.753906 L 797.375 0.753906 L 797.375 22.917969 L 0.617188 22.917969 Z M 0.617188 0.753906 " clip-rule="nonzero"/></clipPath><clipPath id="2f56b03285"><rect x="0" width="798" y="0" height="23"/></clipPath><clipPath id="fa84dd71fd"><path d="M 440 150 L 849 150 L 849 461 L 440 461 Z M 440 150 " clip-rule="nonzero"/></clipPath><clipPath id="d04565dffb"><path d="M 848.375 460.917969 C 680.300781 460.917969 443.878906 325.730469 440.644531 151.050781 L 462.804688 150.652344 C 465.6875 306.847656 684.777344 438.753906 848.375 438.753906 Z M 848.375 460.917969 " clip-rule="nonzero"/></clipPath><clipPath id="2692c9ba1b"><path d="M 0.640625 0.480469 L 408.398438 0.480469 L 408.398438 311 L 0.640625 311 Z M 0.640625 0.480469 " clip-rule="nonzero"/></clipPath><clipPath id="d74b8bbf52"><path d="M 408.375 310.917969 C 240.300781 310.917969 3.878906 175.730469 0.644531 1.050781 L 22.804688 0.652344 C 25.6875 156.847656 244.777344 288.753906 408.375 288.753906 Z M 408.375 310.917969 " clip-rule="nonzero"/></clipPath><clipPath id="0e633fcbf0"><rect x="0" width="409" y="0" height="311"/></clipPath><clipPath id="8e5f2ff05e"><path d="M 440 438 L 849 438 L 849 750 L 440 750 Z M 440 438 " clip-rule="nonzero"/></clipPath><clipPath id="4517e85ed2"><path d="M 848.375 460.917969 C 684.601562 460.917969 465.375 593.046875 462.804688 749.375 L 440.644531 749.019531 C 443.523438 574.121094 680.210938 438.753906 848.375 438.753906 Z M 848.375 460.917969 " clip-rule="nonzero"/></clipPath><clipPath id="323089fc32"><path d="M 0.640625 0.71875 L 408.398438 0.71875 L 408.398438 311.519531 L 0.640625 311.519531 Z M 0.640625 0.71875 " clip-rule="nonzero"/></clipPath><clipPath id="65894d9197"><path d="M 408.375 22.917969 C 244.601562 22.917969 25.375 155.046875 22.804688 311.375 L 0.644531 311.019531 C 3.523438 136.121094 240.210938 0.753906 408.375 0.753906 Z M 408.375 22.917969 " clip-rule="nonzero"/></clipPath><clipPath id="fc0e25f306"><rect x="0" width="409" y="0" height="312"/></clipPath></defs><g clip-path="url(#3775083bd3)"><g transform="matrix(1, 0, 0, 1, 51, 438)"><g clip-path="url(#2f56b03285)"><g clip-path="url(#239979eb53)"><rect x="-249" width="1296" fill="#1e1e1e" height="1166.399991" y="-616.199999" fill-opacity="1"/></g></g></g></g><g clip-path="url(#fa84dd71fd)"><g clip-path="url(#d04565dffb)"><g transform="matrix(1, 0, 0, 1, 440, 150)"><g clip-path="url(#0e633fcbf0)"><g clip-path="url(#2692c9ba1b)"><g clip-path="url(#d74b8bbf52)"><rect x="-638" width="1296" fill="#1e1e1e" height="1166.399991" y="-328.199999" fill-opacity="1"/></g></g></g></g></g></g><g clip-path="url(#8e5f2ff05e)"><g clip-path="url(#4517e85ed2)"><g transform="matrix(1, 0, 0, 1, 440, 438)"><g clip-path="url(#fc0e25f306)"><g clip-path="url(#323089fc32)"><g clip-path="url(#65894d9197)"><rect x="-638" width="1296" fill="#1e1e1e" height="1166.399991" y="-616.199999" fill-opacity="1"/></g></g></g></g></g></g></svg>