<?xml version="1.0" standalone="no"?>
<!DOCTYPE svg PUBLIC "-//W3C//DTD SVG 1.1//EN" "http://www.w3.org/Graphics/SVG/1.1/DTD/svg11.dtd">
<svg xmlns="http://www.w3.org/2000/svg" xmlns:xlink="http://www.w3.org/1999/xlink" width="900" zoomAndPan="magnify" viewBox="0 0 900 809.999994" height="810" preserveAspectRatio="xMidYMid meet" version="1.0"><defs><clipPath id="8aa0798c25"><path d="M 0.769531 0.527344 L 497.234375 0.527344 L 497.234375 28.097656 L 0.769531 28.097656 Z M 0.769531 0.527344 " clip-rule="nonzero"/></clipPath><clipPath id="de7269ff31"><path d="M 0.769531 0.527344 L 497.234375 0.527344 L 497.234375 28.097656 L 0.769531 28.097656 Z M 0.769531 0.527344 " clip-rule="nonzero"/></clipPath><clipPath id="2e5863158d"><rect x="0" width="498" y="0" height="29"/></clipPath><clipPath id="a4cc66670a"><path d="M 0.769531 187.207031 L 497.234375 187.207031 L 497.234375 214.777344 L 0.769531 214.777344 Z M 0.769531 187.207031 " clip-rule="nonzero"/></clipPath><clipPath id="d78506d063"><path d="M 0.769531 0.207031 L 497.234375 0.207031 L 497.234375 27.777344 L 0.769531 27.777344 Z M 0.769531 0.207031 " clip-rule="nonzero"/></clipPath><clipPath id="df6c0ac953"><rect x="0" width="498" y="0" height="28"/></clipPath><clipPath id="85eb013b32"><rect x="0" width="498" y="0" height="215"/></clipPath></defs><g transform="matrix(1, 0, 0, 1, 201, 320)"><g clip-path="url(#85eb013b32)"><g clip-path="url(#8aa0798c25)"><g transform="matrix(1, 0, 0, 1, 0, 0.000000000000113687)"><g clip-path="url(#2e5863158d)"><g clip-path="url(#de7269ff31)"><path fill="#1e1e1e" d="M 0.769531 0.527344 L 497.230469 0.527344 L 497.230469 28.097656 L 0.769531 28.097656 Z M 0.769531 0.527344 " fill-opacity="1" fill-rule="nonzero"/></g></g></g></g><g clip-path="url(#a4cc66670a)"><g transform="matrix(1, 0, 0, 1, 0, 187)"><g clip-path="url(#df6c0ac953)"><g clip-path="url(#d78506d063)"><path fill="#1e1e1e" d="M 0.769531 0.207031 L 497.230469 0.207031 L 497.230469 27.777344 L 0.769531 27.777344 Z M 0.769531 0.207031 " fill-opacity="1" fill-rule="nonzero"/></g></g></g></g></g></g></svg>