<?xml version="1.0" standalone="no"?>
<!DOCTYPE svg PUBLIC "-//W3C//DTD SVG 1.1//EN" "http://www.w3.org/Graphics/SVG/1.1/DTD/svg11.dtd">
<svg xmlns="http://www.w3.org/2000/svg" xmlns:xlink="http://www.w3.org/1999/xlink" width="900" zoomAndPan="magnify" viewBox="0 0 900 809.999994" height="810" preserveAspectRatio="xMidYMid meet" version="1.0"><defs><clipPath id="958bd35c1e"><path d="M 608 526.339844 L 726.769531 526.339844 L 726.769531 721.910156 L 608 721.910156 Z M 608 526.339844 " clip-rule="nonzero"/></clipPath><clipPath id="67e481dae0"><path d="M 608.042969 526.652344 C 672.351562 526.652344 726.308594 569.421875 726.308594 624.21875 L 721.207031 624.21875 L 726.308594 624.21875 C 726.308594 679.011719 672.351562 721.785156 608.042969 721.785156 L 608.042969 711.574219 C 668.738281 711.574219 716.101562 671.542969 716.101562 624.21875 C 716.101562 576.894531 668.738281 536.859375 608.042969 536.859375 Z M 608.042969 526.652344 " clip-rule="nonzero"/></clipPath><clipPath id="b54a729651"><path d="M 0 0.558594 L 118.480469 0.558594 L 118.480469 195.910156 L 0 195.910156 Z M 0 0.558594 " clip-rule="nonzero"/></clipPath><clipPath id="9011400e18"><path d="M 0.0429688 0.652344 C 64.351562 0.652344 118.308594 43.421875 118.308594 98.21875 L 113.207031 98.21875 L 118.308594 98.21875 C 118.308594 153.011719 64.351562 195.785156 0.0429688 195.785156 L 0.0429688 185.574219 C 60.738281 185.574219 108.101562 145.542969 108.101562 98.21875 C 108.101562 50.894531 60.738281 10.859375 0.0429688 10.859375 Z M 0.0429688 0.652344 " clip-rule="nonzero"/></clipPath><clipPath id="132cd0a180"><rect x="0" width="119" y="0" height="196"/></clipPath><clipPath id="2ff335974e"><path d="M 608 341.605469 L 726.769531 341.605469 L 726.769531 537 L 608 537 Z M 608 341.605469 " clip-rule="nonzero"/></clipPath><clipPath id="833eee85b4"><path d="M 608.042969 341.707031 C 672.351562 341.707031 726.308594 384.480469 726.308594 439.273438 L 721.207031 439.273438 L 726.308594 439.273438 C 726.308594 494.070312 672.351562 536.839844 608.042969 536.839844 L 608.042969 526.632812 C 668.738281 526.632812 716.101562 486.597656 716.101562 439.273438 C 716.101562 391.949219 668.738281 351.914062 608.042969 351.914062 Z M 608.042969 341.707031 " clip-rule="nonzero"/></clipPath><clipPath id="46110081dc"><path d="M 0 0.605469 L 118.480469 0.605469 L 118.480469 195.878906 L 0 195.878906 Z M 0 0.605469 " clip-rule="nonzero"/></clipPath><clipPath id="459532a81e"><path d="M 0.0429688 0.707031 C 64.351562 0.707031 118.308594 43.480469 118.308594 98.273438 L 113.207031 98.273438 L 118.308594 98.273438 C 118.308594 153.070312 64.351562 195.839844 0.0429688 195.839844 L 0.0429688 185.632812 C 60.738281 185.632812 108.101562 145.597656 108.101562 98.273438 C 108.101562 50.949219 60.738281 10.914062 0.0429688 10.914062 Z M 0.0429688 0.707031 " clip-rule="nonzero"/></clipPath><clipPath id="5367583cf8"><rect x="0" width="119" y="0" height="196"/></clipPath><clipPath id="16c36c1ade"><path d="M 608 156.328125 L 726.769531 156.328125 L 726.769531 352 L 608 352 Z M 608 156.328125 " clip-rule="nonzero"/></clipPath><clipPath id="875c26de78"><path d="M 608.042969 156.785156 C 672.351562 156.785156 726.308594 199.554688 726.308594 254.351562 L 721.207031 254.351562 L 726.308594 254.351562 C 726.308594 309.144531 672.351562 351.914062 608.042969 351.914062 L 608.042969 341.707031 C 668.738281 341.707031 716.101562 301.671875 716.101562 254.351562 C 716.101562 207.027344 668.738281 166.992188 608.042969 166.992188 Z M 608.042969 156.785156 " clip-rule="nonzero"/></clipPath><clipPath id="dcbe42fdaf"><path d="M 0 0.71875 L 118.480469 0.71875 L 118.480469 196 L 0 196 Z M 0 0.71875 " clip-rule="nonzero"/></clipPath><clipPath id="89ab529078"><path d="M 0.0429688 0.785156 C 64.351562 0.785156 118.308594 43.554688 118.308594 98.351562 L 113.207031 98.351562 L 118.308594 98.351562 C 118.308594 153.144531 64.351562 195.914062 0.0429688 195.914062 L 0.0429688 185.707031 C 60.738281 185.707031 108.101562 145.671875 108.101562 98.351562 C 108.101562 51.027344 60.738281 10.992188 0.0429688 10.992188 Z M 0.0429688 0.785156 " clip-rule="nonzero"/></clipPath><clipPath id="0d60979939"><rect x="0" width="119" y="0" height="196"/></clipPath></defs><g clip-path="url(#958bd35c1e)"><g clip-path="url(#67e481dae0)"><g transform="matrix(1, 0, 0, 1, 608, 526)"><g clip-path="url(#132cd0a180)"><g clip-path="url(#b54a729651)"><g clip-path="url(#9011400e18)"><rect x="-806" width="1296" fill="#1e1e1e" height="1166.399991" y="-704.199999" fill-opacity="1"/></g></g></g></g></g></g><g clip-path="url(#2ff335974e)"><g clip-path="url(#833eee85b4)"><g transform="matrix(1, 0, 0, 1, 608, 341)"><g clip-path="url(#5367583cf8)"><g clip-path="url(#46110081dc)"><g clip-path="url(#459532a81e)"><rect x="-806" width="1296" fill="#1e1e1e" height="1166.399991" y="-519.199999" fill-opacity="1"/></g></g></g></g></g></g><g clip-path="url(#16c36c1ade)"><g clip-path="url(#875c26de78)"><g transform="matrix(1, 0, 0, 1, 608, 156)"><g clip-path="url(#0d60979939)"><g clip-path="url(#dcbe42fdaf)"><g clip-path="url(#89ab529078)"><rect x="-806" width="1296" fill="#1e1e1e" height="1166.399991" y="-334.199999" fill-opacity="1"/></g></g></g></g></g></g></svg>