<?xml version="1.0" standalone="no"?>
<!DOCTYPE svg PUBLIC "-//W3C//DTD SVG 1.1//EN" "http://www.w3.org/Graphics/SVG/1.1/DTD/svg11.dtd">
<svg xmlns="http://www.w3.org/2000/svg" xmlns:xlink="http://www.w3.org/1999/xlink" width="900" zoomAndPan="magnify" viewBox="0 0 900 809.999994" height="810" preserveAspectRatio="xMidYMid meet" version="1.0"><defs><clipPath id="c82bd20783"><path d="M 226 341.609375 L 344.863281 341.609375 L 344.863281 537 L 226 537 Z M 226 341.609375 " clip-rule="nonzero"/></clipPath><clipPath id="16f3fdab5c"><path d="M 344.398438 536.859375 C 280.089844 536.859375 226.132812 494.089844 226.132812 439.292969 L 231.238281 439.292969 L 226.132812 439.292969 C 226.132812 384.5 280.089844 341.730469 344.398438 341.730469 L 344.398438 351.9375 C 283.703125 351.917969 236.339844 391.949219 236.339844 439.292969 C 236.339844 486.636719 283.703125 526.652344 344.398438 526.652344 Z M 344.398438 536.859375 " clip-rule="nonzero"/></clipPath><clipPath id="5eddc81ea8"><path d="M 0.078125 0.609375 L 118.398438 0.609375 L 118.398438 195.878906 L 0.078125 195.878906 Z M 0.078125 0.609375 " clip-rule="nonzero"/></clipPath><clipPath id="c45d219155"><path d="M 118.398438 195.859375 C 54.089844 195.859375 0.132812 153.089844 0.132812 98.292969 L 5.238281 98.292969 L 0.132812 98.292969 C 0.132812 43.5 54.089844 0.730469 118.398438 0.730469 L 118.398438 10.9375 C 57.703125 10.917969 10.339844 50.949219 10.339844 98.292969 C 10.339844 145.636719 57.703125 185.652344 118.398438 185.652344 Z M 118.398438 195.859375 " clip-rule="nonzero"/></clipPath><clipPath id="9f8e83e097"><rect x="0" width="119" y="0" height="196"/></clipPath><clipPath id="7acfb76d41"><path d="M 226 156.328125 L 344.863281 156.328125 L 344.863281 352 L 226 352 Z M 226 156.328125 " clip-rule="nonzero"/></clipPath><clipPath id="ffa7c60352"><path d="M 344.398438 351.9375 C 280.089844 351.9375 226.132812 309.164062 226.132812 254.351562 L 231.238281 254.351562 L 226.132812 254.351562 C 226.132812 199.554688 280.089844 156.785156 344.398438 156.785156 L 344.398438 166.992188 C 283.703125 166.992188 236.339844 207.027344 236.339844 254.351562 C 236.339844 301.671875 283.703125 341.707031 344.398438 341.707031 Z M 344.398438 351.9375 " clip-rule="nonzero"/></clipPath><clipPath id="70694caddf"><path d="M 0.078125 0.71875 L 118.398438 0.71875 L 118.398438 196 L 0.078125 196 Z M 0.078125 0.71875 " clip-rule="nonzero"/></clipPath><clipPath id="69a88bf288"><path d="M 118.398438 195.9375 C 54.089844 195.9375 0.132812 153.164062 0.132812 98.351562 L 5.238281 98.351562 L 0.132812 98.351562 C 0.132812 43.554688 54.089844 0.785156 118.398438 0.785156 L 118.398438 10.992188 C 57.703125 10.992188 10.339844 51.027344 10.339844 98.351562 C 10.339844 145.671875 57.703125 185.707031 118.398438 185.707031 Z M 118.398438 195.9375 " clip-rule="nonzero"/></clipPath><clipPath id="634765445e"><rect x="0" width="119" y="0" height="196"/></clipPath><clipPath id="02c7dc2d2a"><path d="M 226 526.34375 L 344.863281 526.34375 L 344.863281 721.917969 L 226 721.917969 Z M 226 526.34375 " clip-rule="nonzero"/></clipPath><clipPath id="b7d46f62a3"><path d="M 344.398438 721.785156 C 280.089844 721.785156 226.132812 679.035156 226.132812 624.21875 L 231.238281 624.21875 L 226.132812 624.21875 C 226.132812 569.421875 280.089844 526.652344 344.398438 526.652344 L 344.398438 536.859375 C 283.703125 536.859375 236.339844 576.894531 236.339844 624.21875 C 236.339844 671.542969 283.703125 711.578125 344.398438 711.578125 Z M 344.398438 721.785156 " clip-rule="nonzero"/></clipPath><clipPath id="b31e6a5a00"><path d="M 0.078125 0.558594 L 118.398438 0.558594 L 118.398438 195.917969 L 0.078125 195.917969 Z M 0.078125 0.558594 " clip-rule="nonzero"/></clipPath><clipPath id="8c41a03ab6"><path d="M 118.398438 195.785156 C 54.089844 195.785156 0.132812 153.035156 0.132812 98.21875 L 5.238281 98.21875 L 0.132812 98.21875 C 0.132812 43.421875 54.089844 0.652344 118.398438 0.652344 L 118.398438 10.859375 C 57.703125 10.859375 10.339844 50.894531 10.339844 98.21875 C 10.339844 145.542969 57.703125 185.578125 118.398438 185.578125 Z M 118.398438 195.785156 " clip-rule="nonzero"/></clipPath><clipPath id="ca8ce7475f"><rect x="0" width="119" y="0" height="196"/></clipPath></defs><g clip-path="url(#c82bd20783)"><g clip-path="url(#16f3fdab5c)"><g transform="matrix(1, 0, 0, 1, 226, 341)"><g clip-path="url(#9f8e83e097)"><g clip-path="url(#5eddc81ea8)"><g clip-path="url(#c45d219155)"><rect x="-424" width="1296" fill="#1e1e1e" height="1166.399991" y="-519.199999" fill-opacity="1"/></g></g></g></g></g></g><g clip-path="url(#7acfb76d41)"><g clip-path="url(#ffa7c60352)"><g transform="matrix(1, 0, 0, 1, 226, 156)"><g clip-path="url(#634765445e)"><g clip-path="url(#70694caddf)"><g clip-path="url(#69a88bf288)"><rect x="-424" width="1296" fill="#1e1e1e" height="1166.399991" y="-334.199999" fill-opacity="1"/></g></g></g></g></g></g><g clip-path="url(#02c7dc2d2a)"><g clip-path="url(#b7d46f62a3)"><g transform="matrix(1, 0, 0, 1, 226, 526)"><g clip-path="url(#ca8ce7475f)"><g clip-path="url(#b31e6a5a00)"><g clip-path="url(#8c41a03ab6)"><rect x="-424" width="1296" fill="#1e1e1e" height="1166.399991" y="-704.199999" fill-opacity="1"/></g></g></g></g></g></g></svg>