<?xml version="1.0" standalone="no"?>
<!DOCTYPE svg PUBLIC "-//W3C//DTD SVG 1.1//EN" "http://www.w3.org/Graphics/SVG/1.1/DTD/svg11.dtd">
<svg xmlns="http://www.w3.org/2000/svg" xmlns:xlink="http://www.w3.org/1999/xlink" width="900" zoomAndPan="magnify" viewBox="0 0 900 809.999994" height="810" preserveAspectRatio="xMidYMid meet" version="1.0"><defs><clipPath id="3ff69cdbb0"><path d="M 90 244.144531 L 341 244.144531 L 341 656 L 90 656 Z M 90 244.144531 " clip-rule="nonzero"/></clipPath><clipPath id="9e4c996b3e"><path d="M 340.535156 259.117188 L 106.113281 457.082031 L 99.800781 449.597656 L 106.152344 442.109375 L 340.574219 640.898438 L 327.910156 655.832031 L 93.449219 457.082031 C 91.253906 455.203125 90 452.457031 90 449.597656 C 90 446.734375 91.292969 443.992188 93.488281 442.109375 L 327.871094 244.144531 Z M 340.535156 259.117188 " clip-rule="nonzero"/></clipPath><clipPath id="7f9d57dcff"><path d="M 0 0.144531 L 250.558594 0.144531 L 250.558594 411.921875 L 0 411.921875 Z M 0 0.144531 " clip-rule="nonzero"/></clipPath><clipPath id="117d230e08"><path d="M 250.535156 15.117188 L 16.113281 213.082031 L 9.800781 205.597656 L 16.152344 198.109375 L 250.574219 396.898438 L 237.910156 411.832031 L 3.449219 213.082031 C 1.253906 211.203125 0 208.457031 0 205.597656 C 0 202.734375 1.292969 199.992188 3.488281 198.109375 L 237.871094 0.144531 Z M 250.535156 15.117188 " clip-rule="nonzero"/></clipPath><clipPath id="b6e7366f96"><rect x="0" width="251" y="0" height="412"/></clipPath></defs><g clip-path="url(#3ff69cdbb0)"><g clip-path="url(#9e4c996b3e)"><g transform="matrix(1, 0, 0, 1, 90, 244)"><g clip-path="url(#b6e7366f96)"><g clip-path="url(#7f9d57dcff)"><g clip-path="url(#117d230e08)"><path fill="#1e1e1e" d="M 0 0.144531 L 250.546875 0.144531 L 250.546875 412.171875 L 0 412.171875 Z M 0 0.144531 " fill-opacity="1" fill-rule="nonzero"/></g></g></g></g></g></g></svg>