<?xml version="1.0" standalone="no"?>
<!DOCTYPE svg PUBLIC "-//W3C//DTD SVG 1.1//EN" "http://www.w3.org/Graphics/SVG/1.1/DTD/svg11.dtd">
<svg xmlns="http://www.w3.org/2000/svg" xmlns:xlink="http://www.w3.org/1999/xlink" width="900" zoomAndPan="magnify" viewBox="0 0 900 809.999994" height="810" preserveAspectRatio="xMidYMid meet" version="1.0"><defs><clipPath id="6dacde94e3"><path d="M 202.515625 171.980469 L 330 171.980469 L 330 728.417969 L 202.515625 728.417969 Z M 202.515625 171.980469 " clip-rule="nonzero"/></clipPath><clipPath id="a17ba876c4"><path d="M 325.679688 728.015625 L 207.605469 728.015625 C 204.796875 728.015625 202.515625 725.738281 202.515625 722.929688 L 202.515625 177.066406 C 202.515625 174.257812 204.796875 171.980469 207.605469 171.980469 L 329.707031 171.980469 L 329.707031 182.15625 L 207.605469 182.15625 L 207.605469 177.066406 L 212.691406 177.066406 L 212.691406 722.929688 L 207.605469 722.929688 L 207.605469 717.84375 L 325.679688 717.84375 Z M 325.679688 728.015625 " clip-rule="nonzero"/></clipPath><clipPath id="11d6102493"><path d="M 0.515625 0.980469 L 127.761719 0.980469 L 127.761719 557 L 0.515625 557 Z M 0.515625 0.980469 " clip-rule="nonzero"/></clipPath><clipPath id="8dd64c364f"><path d="M 123.679688 557.015625 L 5.605469 557.015625 C 2.796875 557.015625 0.515625 554.738281 0.515625 551.929688 L 0.515625 6.066406 C 0.515625 3.257812 2.796875 0.980469 5.605469 0.980469 L 127.707031 0.980469 L 127.707031 11.15625 L 5.605469 11.15625 L 5.605469 6.066406 L 10.691406 6.066406 L 10.691406 551.929688 L 5.605469 551.929688 L 5.605469 546.84375 L 123.679688 546.84375 Z M 123.679688 557.015625 " clip-rule="nonzero"/></clipPath><clipPath id="7a4cce5f13"><rect x="0" width="128" y="0" height="558"/></clipPath></defs><g clip-path="url(#6dacde94e3)"><g clip-path="url(#a17ba876c4)"><g transform="matrix(1, 0, 0, 1, 202, 171)"><g clip-path="url(#7a4cce5f13)"><g clip-path="url(#11d6102493)"><g clip-path="url(#8dd64c364f)"><path fill="#1e1e1e" d="M 0.515625 0.980469 L 127.703125 0.980469 L 127.703125 556.921875 L 0.515625 556.921875 Z M 0.515625 0.980469 " fill-opacity="1" fill-rule="nonzero"/></g></g></g></g></g></g></svg>