<?xml version="1.0" standalone="no"?>
<!DOCTYPE svg PUBLIC "-//W3C//DTD SVG 1.1//EN" "http://www.w3.org/Graphics/SVG/1.1/DTD/svg11.dtd">
<svg xmlns="http://www.w3.org/2000/svg" xmlns:xlink="http://www.w3.org/1999/xlink" width="900" zoomAndPan="magnify" viewBox="0 0 900 809.999994" height="810" preserveAspectRatio="xMidYMid meet" version="1.0"><defs><clipPath id="f2bd63e5d3"><path d="M 459 181.347656 L 544 181.347656 L 544 719 L 459 719 Z M 459 181.347656 " clip-rule="nonzero"/></clipPath><clipPath id="e5cd7d1fb4"><path d="M 543.652344 183.097656 L 472.503906 718.660156 L 459.371094 716.910156 L 530.546875 181.351562 Z M 543.652344 183.097656 " clip-rule="nonzero"/></clipPath><clipPath id="47d84a17a0"><path d="M 0.359375 0.347656 L 84.839844 0.347656 L 84.839844 537.800781 L 0.359375 537.800781 Z M 0.359375 0.347656 " clip-rule="nonzero"/></clipPath><clipPath id="1f7189fa87"><path d="M 84.652344 2.097656 L 13.503906 537.660156 L 0.371094 535.910156 L 71.546875 0.351562 Z M 84.652344 2.097656 " clip-rule="nonzero"/></clipPath><clipPath id="f9688d6db5"><rect x="0" width="85" y="0" height="538"/></clipPath><clipPath id="fabdeecaf6"><path d="M 308 181.347656 L 393 181.347656 L 393 719 L 308 719 Z M 308 181.347656 " clip-rule="nonzero"/></clipPath><clipPath id="d6cf1f93e7"><path d="M 392.328125 183.097656 L 321.179688 718.660156 L 308.046875 716.910156 L 379.195312 181.351562 Z M 392.328125 183.097656 " clip-rule="nonzero"/></clipPath><clipPath id="fcebca3934"><path d="M 0 0.347656 L 84.398438 0.347656 L 84.398438 537.800781 L 0 537.800781 Z M 0 0.347656 " clip-rule="nonzero"/></clipPath><clipPath id="de540cecbb"><path d="M 84.328125 2.097656 L 13.179688 537.660156 L 0.046875 535.910156 L 71.195312 0.351562 Z M 84.328125 2.097656 " clip-rule="nonzero"/></clipPath><clipPath id="7fcf6d8772"><rect x="0" width="85" y="0" height="538"/></clipPath><clipPath id="6b7d8b317f"><path d="M 250.773438 354.125 L 623.882812 354.125 L 623.882812 367.363281 L 250.773438 367.363281 Z M 250.773438 354.125 " clip-rule="nonzero"/></clipPath><clipPath id="d346047a65"><path d="M 0.773438 0.125 L 373.882812 0.125 L 373.882812 13.363281 L 0.773438 13.363281 Z M 0.773438 0.125 " clip-rule="nonzero"/></clipPath><clipPath id="14d5763e57"><rect x="0" width="374" y="0" height="14"/></clipPath><clipPath id="a53c9f36c7"><path d="M 226.78125 533.015625 L 599.894531 533.015625 L 599.894531 546.253906 L 226.78125 546.253906 Z M 226.78125 533.015625 " clip-rule="nonzero"/></clipPath><clipPath id="97304f8df0"><path d="M 0.78125 0.015625 L 373.894531 0.015625 L 373.894531 13.253906 L 0.78125 13.253906 Z M 0.78125 0.015625 " clip-rule="nonzero"/></clipPath><clipPath id="3992df703c"><rect x="0" width="374" y="0" height="14"/></clipPath></defs><g clip-path="url(#f2bd63e5d3)"><g clip-path="url(#e5cd7d1fb4)"><g transform="matrix(1, 0, 0, 1, 459, 181)"><g clip-path="url(#f9688d6db5)"><g clip-path="url(#47d84a17a0)"><g clip-path="url(#1f7189fa87)"><rect x="-657" width="1296" fill="#1e1e1e" height="1166.399991" y="-359.199999" fill-opacity="1"/></g></g></g></g></g></g><g clip-path="url(#fabdeecaf6)"><g clip-path="url(#d6cf1f93e7)"><g transform="matrix(1, 0, 0, 1, 308, 181)"><g clip-path="url(#7fcf6d8772)"><g clip-path="url(#fcebca3934)"><g clip-path="url(#de540cecbb)"><rect x="-506" width="1296" fill="#1e1e1e" height="1166.399991" y="-359.199999" fill-opacity="1"/></g></g></g></g></g></g><g clip-path="url(#6b7d8b317f)"><g transform="matrix(1, 0, 0, 1, 250, 354)"><g clip-path="url(#14d5763e57)"><g clip-path="url(#d346047a65)"><rect x="-448" width="1296" fill="#1e1e1e" height="1166.399991" y="-532.199999" fill-opacity="1"/></g></g></g></g><g clip-path="url(#a53c9f36c7)"><g transform="matrix(1, 0, 0, 1, 226, 533)"><g clip-path="url(#3992df703c)"><g clip-path="url(#97304f8df0)"><rect x="-424" width="1296" fill="#1e1e1e" height="1166.399991" y="-711.199999" fill-opacity="1"/></g></g></g></g></svg>