<?xml version="1.0" standalone="no"?>
<!DOCTYPE svg PUBLIC "-//W3C//DTD SVG 1.1//EN" "http://www.w3.org/Graphics/SVG/1.1/DTD/svg11.dtd">
<svg xmlns="http://www.w3.org/2000/svg" xmlns:xlink="http://www.w3.org/1999/xlink" width="900" zoomAndPan="magnify" viewBox="0 0 900 809.999994" height="810" preserveAspectRatio="xMidYMid meet" version="1.0"><defs><clipPath id="5e7858c88e"><path d="M 217.917969 404.691406 L 354.472656 404.691406 L 354.472656 720 L 217.917969 720 Z M 217.917969 404.691406 " clip-rule="nonzero"/></clipPath><clipPath id="b6cd561c0c"><path d="M 352.210938 719.605469 C 324.183594 714.339844 281.605469 696.03125 282.078125 635.996094 L 287.699219 636.042969 L 282.078125 635.996094 C 282.75 550.929688 280.140625 487.519531 280.140625 487.566406 L 285.765625 487.339844 L 280.140625 487.609375 C 280.097656 486.621094 276.339844 420.355469 217.972656 416.039062 L 218.804688 404.8125 C 288.058594 409.941406 291.410156 488.0625 291.367188 487.070312 L 291.367188 487.117188 C 291.367188 487.160156 293.996094 550.769531 293.300781 636.085938 C 292.875 688.070312 328.546875 703.703125 354.257812 708.539062 Z M 352.210938 719.605469 " clip-rule="nonzero"/></clipPath><clipPath id="fea439ab25"><path d="M 0.921875 0.691406 L 137.472656 0.691406 L 137.472656 315.761719 L 0.921875 315.761719 Z M 0.921875 0.691406 " clip-rule="nonzero"/></clipPath><clipPath id="055c43bf2b"><path d="M 135.210938 315.605469 C 107.183594 310.339844 64.605469 292.03125 65.078125 231.996094 L 70.699219 232.042969 L 65.078125 231.996094 C 65.75 146.929688 63.140625 83.519531 63.140625 83.566406 L 68.765625 83.339844 L 63.140625 83.609375 C 63.097656 82.621094 59.339844 16.355469 0.972656 12.039062 L 1.804688 0.8125 C 71.058594 5.941406 74.410156 84.0625 74.367188 83.070312 L 74.367188 83.117188 C 74.367188 83.160156 76.996094 146.769531 76.300781 232.085938 C 75.875 284.070312 111.546875 299.703125 137.257812 304.539062 Z M 135.210938 315.605469 " clip-rule="nonzero"/></clipPath><clipPath id="4fc91a9600"><rect x="0" width="138" y="0" height="316"/></clipPath><clipPath id="72a531c241"><path d="M 217.917969 101.171875 L 354.472656 101.171875 L 354.472656 416.484375 L 217.917969 416.484375 Z M 217.917969 101.171875 " clip-rule="nonzero"/></clipPath><clipPath id="52dd7da994"><path d="M 354.390625 112.289062 C 328.683594 117.105469 292.894531 132.714844 293.324219 184.761719 C 294.019531 270.078125 291.390625 333.691406 291.390625 333.734375 L 291.390625 333.78125 C 291.433594 332.789062 288.082031 410.886719 218.824219 416.039062 L 217.992188 404.835938 C 276.363281 400.496094 280.121094 334.253906 280.164062 333.242188 L 285.789062 333.511719 L 280.164062 333.285156 C 280.164062 333.332031 282.773438 269.945312 282.097656 184.851562 L 287.722656 184.808594 L 282.097656 184.851562 C 281.605469 124.75 324.296875 106.488281 352.324219 101.246094 Z M 354.390625 112.289062 " clip-rule="nonzero"/></clipPath><clipPath id="428d1813df"><path d="M 0.921875 0.171875 L 137.472656 0.171875 L 137.472656 315.160156 L 0.921875 315.160156 Z M 0.921875 0.171875 " clip-rule="nonzero"/></clipPath><clipPath id="2313eca45c"><path d="M 137.390625 11.289062 C 111.683594 16.105469 75.894531 31.714844 76.324219 83.761719 C 77.019531 169.078125 74.390625 232.691406 74.390625 232.734375 L 74.390625 232.78125 C 74.433594 231.789062 71.082031 309.886719 1.824219 315.039062 L 0.992188 303.835938 C 59.363281 299.496094 63.121094 233.253906 63.164062 232.242188 L 68.789062 232.511719 L 63.164062 232.285156 C 63.164062 232.332031 65.773438 168.945312 65.097656 83.851562 L 70.722656 83.808594 L 65.097656 83.851562 C 64.605469 23.75 107.296875 5.488281 135.324219 0.246094 Z M 137.390625 11.289062 " clip-rule="nonzero"/></clipPath><clipPath id="378fa0081c"><rect x="0" width="138" y="0" height="316"/></clipPath></defs><g clip-path="url(#5e7858c88e)"><g clip-path="url(#b6cd561c0c)"><g transform="matrix(1, 0, 0, 1, 217, 404)"><g clip-path="url(#4fc91a9600)"><g clip-path="url(#fea439ab25)"><g clip-path="url(#055c43bf2b)"><rect x="-415" width="1296" fill="#1e1e1e" height="1166.399991" y="-582.199999" fill-opacity="1"/></g></g></g></g></g></g><g clip-path="url(#72a531c241)"><g clip-path="url(#52dd7da994)"><g transform="matrix(1, 0, 0, 1, 217, 101)"><g clip-path="url(#378fa0081c)"><g clip-path="url(#428d1813df)"><g clip-path="url(#2313eca45c)"><rect x="-415" width="1296" fill="#1e1e1e" height="1166.399991" y="-279.199999" fill-opacity="1"/></g></g></g></g></g></g></svg>