<?xml version="1.0" standalone="no"?>
<!DOCTYPE svg PUBLIC "-//W3C//DTD SVG 1.1//EN" "http://www.w3.org/Graphics/SVG/1.1/DTD/svg11.dtd">
<svg xmlns="http://www.w3.org/2000/svg" xmlns:xlink="http://www.w3.org/1999/xlink" width="900" zoomAndPan="magnify" viewBox="0 0 900 809.999994" height="810" preserveAspectRatio="xMidYMid meet" version="1.0"><defs><clipPath id="9a700106c3"><path d="M 623 101.175781 L 759.507812 101.175781 L 759.507812 416.488281 L 623 416.488281 Z M 623 101.175781 " clip-rule="nonzero"/></clipPath><clipPath id="75486c2699"><path d="M 625.210938 101.25 C 653.234375 106.511719 695.816406 124.820312 695.34375 184.855469 L 689.71875 184.8125 L 695.34375 184.855469 C 694.667969 269.925781 697.277344 333.332031 697.277344 333.289062 L 691.652344 333.511719 L 697.277344 333.242188 C 697.320312 334.230469 701.078125 400.496094 759.449219 404.816406 L 758.617188 416.039062 C 689.359375 410.910156 686.007812 332.792969 686.054688 333.78125 L 686.054688 333.738281 C 686.054688 333.691406 683.421875 270.082031 684.117188 184.765625 C 684.546875 132.785156 648.871094 117.152344 623.164062 112.316406 Z M 625.210938 101.25 " clip-rule="nonzero"/></clipPath><clipPath id="1a3cc468a2"><path d="M 0.0390625 0.175781 L 136.507812 0.175781 L 136.507812 315.160156 L 0.0390625 315.160156 Z M 0.0390625 0.175781 " clip-rule="nonzero"/></clipPath><clipPath id="18a44ca42e"><path d="M 2.210938 0.25 C 30.234375 5.511719 72.816406 23.820312 72.34375 83.855469 L 66.71875 83.8125 L 72.34375 83.855469 C 71.667969 168.925781 74.277344 232.332031 74.277344 232.289062 L 68.652344 232.511719 L 74.277344 232.242188 C 74.320312 233.230469 78.078125 299.496094 136.449219 303.816406 L 135.617188 315.039062 C 66.359375 309.910156 63.007812 231.792969 63.054688 232.78125 L 63.054688 232.738281 C 63.054688 232.691406 60.421875 169.082031 61.117188 83.765625 C 61.546875 31.785156 25.871094 16.152344 0.164062 11.316406 Z M 2.210938 0.25 " clip-rule="nonzero"/></clipPath><clipPath id="eaae3b2c9c"><rect x="0" width="137" y="0" height="316"/></clipPath><clipPath id="d89c9d91f7"><path d="M 623 404.695312 L 759.507812 404.695312 L 759.507812 720 L 623 720 Z M 623 404.695312 " clip-rule="nonzero"/></clipPath><clipPath id="25182346ac"><path d="M 623.027344 708.5625 C 648.738281 703.75 684.523438 688.140625 684.097656 636.089844 C 683.398438 550.773438 686.03125 487.164062 686.03125 487.117188 L 686.03125 487.074219 C 685.984375 488.0625 689.335938 409.964844 758.59375 404.816406 L 759.425781 416.039062 C 701.054688 420.382812 697.300781 486.625 697.253906 487.636719 L 691.632812 487.367188 L 697.253906 487.589844 C 697.253906 487.546875 694.644531 550.929688 695.320312 636.023438 L 689.695312 636.066406 L 695.320312 636.023438 C 695.816406 696.125 653.101562 714.410156 625.074219 719.652344 Z M 623.027344 708.5625 " clip-rule="nonzero"/></clipPath><clipPath id="af008b6967"><path d="M 0 0.695312 L 136.507812 0.695312 L 136.507812 315.761719 L 0 315.761719 Z M 0 0.695312 " clip-rule="nonzero"/></clipPath><clipPath id="1348e9d187"><path d="M 0.0273438 304.5625 C 25.738281 299.75 61.523438 284.140625 61.097656 232.089844 C 60.398438 146.773438 63.03125 83.164062 63.03125 83.117188 L 63.03125 83.074219 C 62.984375 84.0625 66.335938 5.964844 135.59375 0.816406 L 136.425781 12.039062 C 78.054688 16.382812 74.300781 82.625 74.253906 83.636719 L 68.632812 83.367188 L 74.253906 83.589844 C 74.253906 83.546875 71.644531 146.929688 72.320312 232.023438 L 66.695312 232.066406 L 72.320312 232.023438 C 72.816406 292.125 30.101562 310.410156 2.074219 315.652344 Z M 0.0273438 304.5625 " clip-rule="nonzero"/></clipPath><clipPath id="aea8a94fce"><rect x="0" width="137" y="0" height="316"/></clipPath></defs><g clip-path="url(#9a700106c3)"><g clip-path="url(#75486c2699)"><g transform="matrix(1, 0, 0, 1, 623, 101)"><g clip-path="url(#eaae3b2c9c)"><g clip-path="url(#1a3cc468a2)"><g clip-path="url(#18a44ca42e)"><rect x="-821" width="1296" fill="#1e1e1e" height="1166.399991" y="-279.199999" fill-opacity="1"/></g></g></g></g></g></g><g clip-path="url(#d89c9d91f7)"><g clip-path="url(#25182346ac)"><g transform="matrix(1, 0, 0, 1, 623, 404)"><g clip-path="url(#aea8a94fce)"><g clip-path="url(#af008b6967)"><g clip-path="url(#1348e9d187)"><rect x="-821" width="1296" fill="#1e1e1e" height="1166.399991" y="-582.199999" fill-opacity="1"/></g></g></g></g></g></g></svg>