<?xml version="1.0" standalone="no"?>
<!DOCTYPE svg PUBLIC "-//W3C//DTD SVG 1.1//EN" "http://www.w3.org/Graphics/SVG/1.1/DTD/svg11.dtd">
<svg xmlns="http://www.w3.org/2000/svg" xmlns:xlink="http://www.w3.org/1999/xlink" width="900" zoomAndPan="magnify" viewBox="0 0 900 809.999994" height="810" preserveAspectRatio="xMidYMid meet" version="1.0"><defs><clipPath id="4d1ff17aa9"><path d="M 414.425781 80.003906 L 592 80.003906 L 592 810 L 414.425781 810 Z M 414.425781 80.003906 " clip-rule="nonzero"/></clipPath><clipPath id="9427391cfb"><path d="M 591.664062 83.65625 L 428.25 819.289062 L 414.953125 816.347656 L 578.367188 80.710938 Z M 591.664062 83.65625 " clip-rule="nonzero"/></clipPath><clipPath id="5f7b1fc878"><path d="M 0.71875 0.640625 L 177.839844 0.640625 L 177.839844 730 L 0.71875 730 Z M 0.71875 0.640625 " clip-rule="nonzero"/></clipPath><clipPath id="d1b6103660"><path d="M 177.664062 3.65625 L 14.25 739.289062 L 0.953125 736.347656 L 164.367188 0.710938 Z M 177.664062 3.65625 " clip-rule="nonzero"/></clipPath><clipPath id="e7353735b8"><rect x="0" width="178" y="0" height="730"/></clipPath><clipPath id="7ad05b5c03"><path d="M 251 80.003906 L 428.777344 80.003906 L 428.777344 810 L 251 810 Z M 251 80.003906 " clip-rule="nonzero"/></clipPath><clipPath id="e3ab7cb246"><path d="M 428.25 83.65625 L 264.835938 819.289062 L 251.539062 816.347656 L 414.953125 80.710938 Z M 428.25 83.65625 " clip-rule="nonzero"/></clipPath><clipPath id="23468b0c82"><path d="M 0.519531 0.640625 L 177.398438 0.640625 L 177.398438 730 L 0.519531 730 Z M 0.519531 0.640625 " clip-rule="nonzero"/></clipPath><clipPath id="57dd14af0e"><path d="M 177.25 3.65625 L 13.835938 739.289062 L 0.539062 736.347656 L 163.953125 0.710938 Z M 177.25 3.65625 " clip-rule="nonzero"/></clipPath><clipPath id="fbf956327f"><rect x="0" width="178" y="0" height="730"/></clipPath></defs><g clip-path="url(#4d1ff17aa9)"><g clip-path="url(#9427391cfb)"><g transform="matrix(1, 0, 0, 1, 414, 80)"><g clip-path="url(#e7353735b8)"><g clip-path="url(#5f7b1fc878)"><g clip-path="url(#d1b6103660)"><rect x="-612" width="1296" fill="#1e1e1e" height="1166.399991" y="-258.199999" fill-opacity="1"/></g></g></g></g></g></g><g clip-path="url(#7ad05b5c03)"><g clip-path="url(#e3ab7cb246)"><g transform="matrix(1, 0, 0, 1, 251, 80)"><g clip-path="url(#fbf956327f)"><g clip-path="url(#23468b0c82)"><g clip-path="url(#57dd14af0e)"><rect x="-449" width="1296" fill="#1e1e1e" height="1166.399991" y="-258.199999" fill-opacity="1"/></g></g></g></g></g></g></svg>