<?xml version="1.0" standalone="no"?>
<!DOCTYPE svg PUBLIC "-//W3C//DTD SVG 1.1//EN" "http://www.w3.org/Graphics/SVG/1.1/DTD/svg11.dtd">
<svg xmlns="http://www.w3.org/2000/svg" xmlns:xlink="http://www.w3.org/1999/xlink" width="900" zoomAndPan="magnify" viewBox="0 0 900 809.999994" height="810" preserveAspectRatio="xMidYMid meet" version="1.0"><defs><clipPath id="05f84c2a2b"><path d="M 1.683594 51.972656 L 239.453125 51.972656 L 239.453125 507.933594 L 1.683594 507.933594 Z M 1.683594 51.972656 " clip-rule="nonzero"/></clipPath><clipPath id="e1e94f946e"><path d="M 225.070312 507.074219 L 4.730469 286.695312 C 0.75 282.714844 0.75 276.292969 4.730469 272.3125 L 225.070312 51.972656 L 239.453125 66.355469 L 19.074219 286.695312 L 11.882812 279.503906 L 19.074219 272.3125 L 239.453125 492.691406 Z M 225.070312 507.074219 " clip-rule="nonzero"/></clipPath><clipPath id="3f2c6e3fb4"><path d="M 0.683594 0.972656 L 238.453125 0.972656 L 238.453125 456.078125 L 0.683594 456.078125 Z M 0.683594 0.972656 " clip-rule="nonzero"/></clipPath><clipPath id="bac61ea32c"><path d="M 224.070312 456.074219 L 3.730469 235.695312 C -0.25 231.714844 -0.25 225.292969 3.730469 221.3125 L 224.070312 0.972656 L 238.453125 15.355469 L 18.074219 235.695312 L 10.882812 228.503906 L 18.074219 221.3125 L 238.453125 441.691406 Z M 224.070312 456.074219 " clip-rule="nonzero"/></clipPath><clipPath id="a6807d0473"><rect x="0" width="239" y="0" height="457"/></clipPath><clipPath id="33a9c7ead3"><path d="M 342 268.429688 L 505 268.429688 L 505 537.234375 L 342 537.234375 Z M 342 268.429688 " clip-rule="nonzero"/></clipPath><clipPath id="6645ab4593"><path d="M 342.304688 268.988281 C 429.699219 268.664062 504.378906 326.601562 504.664062 402.5 C 504.945312 478.398438 430.675781 536.90625 343.277344 537.230469 L 343.195312 516.914062 C 423.402344 516.632812 484.550781 463.609375 484.347656 402.582031 L 494.503906 402.539062 L 484.347656 402.582031 C 484.105469 341.554688 422.546875 288.976562 342.34375 289.304688 Z M 342.304688 268.988281 " clip-rule="nonzero"/></clipPath><clipPath id="0cec95918b"><path d="M 0.199219 0.519531 L 163 0.519531 L 163 269.234375 L 0.199219 269.234375 Z M 0.199219 0.519531 " clip-rule="nonzero"/></clipPath><clipPath id="81b99c3178"><path d="M 0.304688 0.988281 C 87.699219 0.664062 162.378906 58.601562 162.664062 134.5 C 162.945312 210.398438 88.675781 268.90625 1.277344 269.230469 L 1.195312 248.914062 C 81.402344 248.632812 142.550781 195.609375 142.347656 134.582031 L 152.503906 134.539062 L 142.347656 134.582031 C 142.105469 73.554688 80.546875 20.976562 0.34375 21.304688 Z M 0.304688 0.988281 " clip-rule="nonzero"/></clipPath><clipPath id="2d3dd737b7"><rect x="0" width="163" y="0" height="270"/></clipPath><clipPath id="e14824aacd"><path d="M 341 21 L 504 21 L 504 289.964844 L 341 289.964844 Z M 341 21 " clip-rule="nonzero"/></clipPath><clipPath id="122f87832e"><path d="M 341.367188 21.058594 C 428.765625 20.734375 503.445312 78.675781 503.726562 154.570312 C 504.011719 230.46875 429.738281 288.976562 342.34375 289.304688 L 342.261719 268.988281 C 422.46875 268.703125 483.617188 215.679688 483.414062 154.652344 L 493.570312 154.613281 L 483.414062 154.652344 C 483.210938 93.625 421.65625 41.089844 341.449219 41.375 Z M 341.367188 21.058594 " clip-rule="nonzero"/></clipPath><clipPath id="1c6cc249a3"><path d="M 0.238281 0 L 163 0 L 163 268.398438 L 0.238281 268.398438 Z M 0.238281 0 " clip-rule="nonzero"/></clipPath><clipPath id="390448b6ca"><path d="M 0.367188 0.0585938 C 87.765625 -0.265625 162.445312 57.675781 162.726562 133.570312 C 163.011719 209.46875 88.738281 267.976562 1.34375 268.304688 L 1.261719 247.988281 C 81.46875 247.703125 142.617188 194.679688 142.414062 133.652344 L 152.570312 133.613281 L 142.414062 133.652344 C 142.210938 72.625 80.65625 20.089844 0.449219 20.375 Z M 0.367188 0.0585938 " clip-rule="nonzero"/></clipPath><clipPath id="bf3fbe35ab"><rect x="0" width="163" y="0" height="269"/></clipPath><clipPath id="8912489fe9"><rect x="0" width="526" y="0" height="559"/></clipPath></defs><g transform="matrix(1, 0, 0, 1, 187, 133)"><g clip-path="url(#8912489fe9)"><g clip-path="url(#05f84c2a2b)"><g clip-path="url(#e1e94f946e)"><g transform="matrix(1, 0, 0, 1, 1, 51)"><g clip-path="url(#a6807d0473)"><g clip-path="url(#3f2c6e3fb4)"><g clip-path="url(#bac61ea32c)"><path fill="#1e1e1e" d="M -0.25 0.972656 L 238.453125 0.972656 L 238.453125 456.003906 L -0.25 456.003906 Z M -0.25 0.972656 " fill-opacity="1" fill-rule="nonzero"/></g></g></g></g></g></g><g clip-path="url(#33a9c7ead3)"><g clip-path="url(#6645ab4593)"><g transform="matrix(1, 0, 0, 1, 342, 268)"><g clip-path="url(#2d3dd737b7)"><g clip-path="url(#0cec95918b)"><g clip-path="url(#81b99c3178)"><rect x="-856.6" width="1555.2" fill="#1e1e1e" y="-695.839998" height="1399.67999" fill-opacity="1"/></g></g></g></g></g></g><g clip-path="url(#e14824aacd)"><g clip-path="url(#122f87832e)"><g transform="matrix(1, 0, 0, 1, 341, 21)"><g clip-path="url(#bf3fbe35ab)"><g clip-path="url(#1c6cc249a3)"><g clip-path="url(#390448b6ca)"><rect x="-855.6" width="1555.2" fill="#1e1e1e" y="-448.839998" height="1399.67999" fill-opacity="1"/></g></g></g></g></g></g></g></g></svg>