<?xml version="1.0" standalone="no"?>
<!DOCTYPE svg PUBLIC "-//W3C//DTD SVG 1.1//EN" "http://www.w3.org/Graphics/SVG/1.1/DTD/svg11.dtd">
<svg xmlns="http://www.w3.org/2000/svg" xmlns:xlink="http://www.w3.org/1999/xlink" width="900" zoomAndPan="magnify" viewBox="0 0 900 809.999994" height="810" preserveAspectRatio="xMidYMid meet" version="1.0"><defs><clipPath id="320430de7f"><path d="M 529 401.429688 L 692 401.429688 L 692 670.234375 L 529 670.234375 Z M 529 401.429688 " clip-rule="nonzero"/></clipPath><clipPath id="5fea33cfc1"><path d="M 529.304688 401.988281 C 616.699219 401.664062 691.378906 459.601562 691.664062 535.5 C 691.945312 611.398438 617.675781 669.90625 530.277344 670.230469 L 530.195312 649.914062 C 610.402344 649.632812 671.550781 596.609375 671.347656 535.582031 L 681.503906 535.539062 L 671.347656 535.582031 C 671.105469 474.554688 609.546875 421.976562 529.34375 422.304688 Z M 529.304688 401.988281 " clip-rule="nonzero"/></clipPath><clipPath id="42dc562447"><path d="M 0.199219 0.519531 L 163 0.519531 L 163 269.234375 L 0.199219 269.234375 Z M 0.199219 0.519531 " clip-rule="nonzero"/></clipPath><clipPath id="0011b5be9e"><path d="M 0.304688 0.988281 C 87.699219 0.664062 162.378906 58.601562 162.664062 134.5 C 162.945312 210.398438 88.675781 268.90625 1.277344 269.230469 L 1.195312 248.914062 C 81.402344 248.632812 142.550781 195.609375 142.347656 134.582031 L 152.503906 134.539062 L 142.347656 134.582031 C 142.105469 73.554688 80.546875 20.976562 0.34375 21.304688 Z M 0.304688 0.988281 " clip-rule="nonzero"/></clipPath><clipPath id="b68f83c954"><rect x="0" width="163" y="0" height="270"/></clipPath><clipPath id="b529e1c7cb"><path d="M 528 154 L 691 154 L 691 422.964844 L 528 422.964844 Z M 528 154 " clip-rule="nonzero"/></clipPath><clipPath id="268b62d0a0"><path d="M 528.367188 154.058594 C 615.765625 153.734375 690.445312 211.675781 690.726562 287.570312 C 691.011719 363.46875 616.738281 421.976562 529.34375 422.304688 L 529.261719 401.988281 C 609.46875 401.703125 670.617188 348.679688 670.414062 287.652344 L 680.570312 287.613281 L 670.414062 287.652344 C 670.210938 226.625 608.65625 174.089844 528.449219 174.375 Z M 528.367188 154.058594 " clip-rule="nonzero"/></clipPath><clipPath id="c0d9319a64"><path d="M 0.238281 0 L 163 0 L 163 268.398438 L 0.238281 268.398438 Z M 0.238281 0 " clip-rule="nonzero"/></clipPath><clipPath id="56ff0f4136"><path d="M 0.367188 0.0585938 C 87.765625 -0.265625 162.445312 57.675781 162.726562 133.570312 C 163.011719 209.46875 88.738281 267.976562 1.34375 268.304688 L 1.261719 247.988281 C 81.46875 247.703125 142.617188 194.679688 142.414062 133.652344 L 152.570312 133.613281 L 142.414062 133.652344 C 142.210938 72.625 80.65625 20.089844 0.449219 20.375 Z M 0.367188 0.0585938 " clip-rule="nonzero"/></clipPath><clipPath id="96506b0174"><rect x="0" width="163" y="0" height="269"/></clipPath></defs><g clip-path="url(#320430de7f)"><g clip-path="url(#5fea33cfc1)"><g transform="matrix(1, 0, 0, 1, 529, 401)"><g clip-path="url(#b68f83c954)"><g clip-path="url(#42dc562447)"><g clip-path="url(#0011b5be9e)"><rect x="-727" width="1296" fill="#1e1e1e" height="1166.399991" y="-579.199999" fill-opacity="1"/></g></g></g></g></g></g><g clip-path="url(#b529e1c7cb)"><g clip-path="url(#268b62d0a0)"><g transform="matrix(1, 0, 0, 1, 528, 154)"><g clip-path="url(#96506b0174)"><g clip-path="url(#c0d9319a64)"><g clip-path="url(#56ff0f4136)"><rect x="-726" width="1296" fill="#1e1e1e" height="1166.399991" y="-332.199999" fill-opacity="1"/></g></g></g></g></g></g></svg>