<?xml version="1.0" standalone="no"?>
<!DOCTYPE svg PUBLIC "-//W3C//DTD SVG 1.1//EN" "http://www.w3.org/Graphics/SVG/1.1/DTD/svg11.dtd">
<svg xmlns="http://www.w3.org/2000/svg" xmlns:xlink="http://www.w3.org/1999/xlink" width="900" zoomAndPan="magnify" viewBox="0 0 900 809.999994" height="810" preserveAspectRatio="xMidYMid meet" version="1.0"><defs><clipPath id="4e24c598cc"><path d="M 188.683594 184.972656 L 426.453125 184.972656 L 426.453125 640.933594 L 188.683594 640.933594 Z M 188.683594 184.972656 " clip-rule="nonzero"/></clipPath><clipPath id="faeda0bfae"><path d="M 412.070312 640.074219 L 191.730469 419.695312 C 187.75 415.714844 187.75 409.292969 191.730469 405.3125 L 412.070312 184.972656 L 426.453125 199.355469 L 206.074219 419.695312 L 198.882812 412.503906 L 206.074219 405.3125 L 426.453125 625.691406 Z M 412.070312 640.074219 " clip-rule="nonzero"/></clipPath><clipPath id="2f7f5ef0d4"><path d="M 0.683594 0.972656 L 238.453125 0.972656 L 238.453125 456.078125 L 0.683594 456.078125 Z M 0.683594 0.972656 " clip-rule="nonzero"/></clipPath><clipPath id="ee3ef4d2d3"><path d="M 224.070312 456.074219 L 3.730469 235.695312 C -0.25 231.714844 -0.25 225.292969 3.730469 221.3125 L 224.070312 0.972656 L 238.453125 15.355469 L 18.074219 235.695312 L 10.882812 228.503906 L 18.074219 221.3125 L 238.453125 441.691406 Z M 224.070312 456.074219 " clip-rule="nonzero"/></clipPath><clipPath id="7d29b057dd"><rect x="0" width="239" y="0" height="457"/></clipPath></defs><g clip-path="url(#4e24c598cc)"><g clip-path="url(#faeda0bfae)"><g transform="matrix(1, 0, 0, 1, 188, 184)"><g clip-path="url(#7d29b057dd)"><g clip-path="url(#2f7f5ef0d4)"><g clip-path="url(#ee3ef4d2d3)"><path fill="#1e1e1e" d="M -0.25 0.972656 L 238.453125 0.972656 L 238.453125 456.003906 L -0.25 456.003906 Z M -0.25 0.972656 " fill-opacity="1" fill-rule="nonzero"/></g></g></g></g></g></g></svg>