<?xml version="1.0" standalone="no"?>
<!DOCTYPE svg PUBLIC "-//W3C//DTD SVG 1.1//EN" "http://www.w3.org/Graphics/SVG/1.1/DTD/svg11.dtd">
<svg xmlns="http://www.w3.org/2000/svg" xmlns:xlink="http://www.w3.org/1999/xlink" width="900" zoomAndPan="magnify" viewBox="0 0 900 809.999994" height="810" preserveAspectRatio="xMidYMid meet" version="1.0"><defs><clipPath id="fddd554682"><path d="M 143.554688 145.246094 L 365 145.246094 L 365 722 L 143.554688 722 Z M 143.554688 145.246094 " clip-rule="nonzero"/></clipPath><clipPath id="bc9d83feb6"><path d="M 359.175781 158.507812 C 242.300781 194.871094 157.453125 303.90625 157.453125 432.734375 L 150.503906 432.734375 L 150.503906 425.785156 C 154.339844 425.785156 157.453125 428.898438 157.453125 432.734375 L 157.453125 432.761719 L 150.503906 432.761719 L 157.453125 432.761719 C 157.453125 563.5625 244.941406 673.933594 364.597656 708.542969 L 360.730469 721.886719 C 235.296875 685.609375 143.582031 569.902344 143.554688 432.761719 L 143.554688 432.734375 L 150.503906 432.734375 L 150.503906 439.683594 C 146.667969 439.683594 143.554688 436.570312 143.554688 432.734375 C 143.554688 297.648438 232.542969 183.363281 355.0625 145.246094 Z M 359.175781 158.507812 " clip-rule="nonzero"/></clipPath><clipPath id="d7f5302c28"><path d="M 0.554688 0.246094 L 221.800781 0.246094 L 221.800781 576.921875 L 0.554688 576.921875 Z M 0.554688 0.246094 " clip-rule="nonzero"/></clipPath><clipPath id="16b6d30c4c"><path d="M 216.175781 13.507812 C 99.300781 49.871094 14.453125 158.90625 14.453125 287.734375 L 7.503906 287.734375 L 7.503906 280.785156 C 11.339844 280.785156 14.453125 283.898438 14.453125 287.734375 L 14.453125 287.761719 L 7.503906 287.761719 L 14.453125 287.761719 C 14.453125 418.5625 101.941406 528.933594 221.597656 563.542969 L 217.730469 576.886719 C 92.296875 540.609375 0.582031 424.902344 0.554688 287.761719 L 0.554688 287.734375 L 7.503906 287.734375 L 7.503906 294.683594 C 3.667969 294.683594 0.554688 291.570312 0.554688 287.734375 C 0.554688 152.648438 89.542969 38.363281 212.0625 0.246094 Z M 216.175781 13.507812 " clip-rule="nonzero"/></clipPath><clipPath id="5f2fe5fdb6"><rect x="0" width="222" y="0" height="577"/></clipPath></defs><g clip-path="url(#fddd554682)"><g clip-path="url(#bc9d83feb6)"><g transform="matrix(1, 0, 0, 1, 143, 145)"><g clip-path="url(#5f2fe5fdb6)"><g clip-path="url(#d7f5302c28)"><g clip-path="url(#16b6d30c4c)"><path fill="#1e1e1e" d="M 0.554688 0.246094 L 221.585938 0.246094 L 221.585938 577.003906 L 0.554688 577.003906 Z M 0.554688 0.246094 " fill-opacity="1" fill-rule="nonzero"/></g></g></g></g></g></g></svg>