<?xml version="1.0" standalone="no"?>
<!DOCTYPE svg PUBLIC "-//W3C//DTD SVG 1.1//EN" "http://www.w3.org/Graphics/SVG/1.1/DTD/svg11.dtd">
<svg xmlns="http://www.w3.org/2000/svg" xmlns:xlink="http://www.w3.org/1999/xlink" width="900" zoomAndPan="magnify" viewBox="0 0 900 809.999994" height="810" preserveAspectRatio="xMidYMid meet" version="1.0"><defs><clipPath id="a3a664a5bf"><path d="M 290 64 L 672 64 L 672 810 L 290 810 Z M 290 64 " clip-rule="nonzero"/></clipPath><clipPath id="f21992d83e"><path d="M 290.039062 64.132812 L 290.039062 233.363281 C 407.53125 235.902344 502.03125 331.898438 502.03125 450.003906 C 502.03125 568.109375 407.53125 664.078125 290.039062 666.644531 L 290.039062 835.875 C 500.960938 833.308594 671.179688 661.539062 671.179688 450.003906 C 671.179688 238.46875 500.960938 66.699219 290.039062 64.132812 " clip-rule="nonzero"/></clipPath><clipPath id="1bf9122a88"><path d="M 0 0.078125 L 381.28125 0.078125 L 381.28125 746 L 0 746 Z M 0 0.078125 " clip-rule="nonzero"/></clipPath><clipPath id="412f3c5b4b"><path d="M 0.0390625 0.132812 L 0.0390625 169.363281 C 117.53125 171.902344 212.03125 267.898438 212.03125 386.003906 C 212.03125 504.109375 117.53125 600.078125 0.0390625 602.644531 L 0.0390625 771.875 C 210.960938 769.308594 381.179688 597.539062 381.179688 386.003906 C 381.179688 174.46875 210.960938 2.699219 0.0390625 0.132812 " clip-rule="nonzero"/></clipPath><clipPath id="46e063d6fa"><rect x="0" width="382" y="0" height="746"/></clipPath><clipPath id="c51db0a697"><path d="M 283 57 L 678 57 L 678 810 L 283 810 Z M 283 57 " clip-rule="nonzero"/></clipPath><clipPath id="bd636277f3"><path d="M 296.390625 64.132812 L 296.390625 233.363281 L 290.039062 233.363281 L 290.164062 227.007812 C 411.113281 229.625 508.355469 328.417969 508.355469 450.003906 L 502.003906 450.003906 L 508.355469 450.003906 C 508.355469 571.589844 411.113281 670.355469 290.164062 673 L 290.039062 666.644531 L 296.390625 666.644531 L 296.390625 835.875 L 290.039062 835.875 L 289.960938 829.523438 C 497.429688 826.980469 664.828125 658.058594 664.828125 450.003906 L 671.179688 450.003906 L 664.828125 450.003906 C 664.828125 241.949219 497.429688 73 289.960938 70.484375 L 290.039062 64.132812 L 296.390625 64.132812 M 283.683594 64.132812 L 283.683594 57.703125 L 290.113281 57.78125 C 504.519531 60.398438 677.535156 234.960938 677.535156 450.003906 C 677.535156 665.046875 504.519531 839.609375 290.113281 842.226562 L 283.683594 842.304688 L 283.683594 660.421875 L 289.910156 660.292969 C 403.972656 657.828125 495.675781 564.652344 495.675781 450.003906 C 495.675781 335.355469 403.949219 242.179688 289.910156 239.714844 L 283.683594 239.585938 Z M 283.683594 64.132812 " clip-rule="nonzero"/></clipPath><clipPath id="c28afa7738"><path d="M 0.679688 0.601562 L 394.761719 0.601562 L 394.761719 753 L 0.679688 753 Z M 0.679688 0.601562 " clip-rule="nonzero"/></clipPath><clipPath id="9403c1008a"><path d="M 13.390625 7.132812 L 13.390625 176.363281 L 7.039062 176.363281 L 7.164062 170.007812 C 128.113281 172.625 225.355469 271.417969 225.355469 393.003906 L 219.003906 393.003906 L 225.355469 393.003906 C 225.355469 514.589844 128.113281 613.355469 7.164062 616 L 7.039062 609.644531 L 13.390625 609.644531 L 13.390625 778.875 L 7.039062 778.875 L 6.960938 772.523438 C 214.429688 769.980469 381.828125 601.058594 381.828125 393.003906 L 388.179688 393.003906 L 381.828125 393.003906 C 381.828125 184.949219 214.429688 16 6.960938 13.484375 L 7.039062 7.132812 L 13.390625 7.132812 M 0.683594 7.132812 L 0.683594 0.703125 L 7.113281 0.78125 C 221.519531 3.398438 394.535156 177.960938 394.535156 393.003906 C 394.535156 608.046875 221.519531 782.609375 7.113281 785.226562 L 0.683594 785.304688 L 0.683594 603.421875 L 6.910156 603.292969 C 120.972656 600.828125 212.675781 507.652344 212.675781 393.003906 C 212.675781 278.355469 120.949219 185.179688 6.910156 182.714844 L 0.683594 182.585938 Z M 0.683594 7.132812 " clip-rule="nonzero"/></clipPath><clipPath id="a6b8461316"><rect x="0" width="395" y="0" height="753"/></clipPath></defs><g clip-path="url(#a3a664a5bf)"><g clip-path="url(#f21992d83e)"><g transform="matrix(1, 0, 0, 1, 290, 64)"><g clip-path="url(#46e063d6fa)"><g clip-path="url(#1bf9122a88)"><g clip-path="url(#412f3c5b4b)"><rect x="-488" width="1296" fill="#ff7daf" height="1166.399991" y="-242.199999" fill-opacity="1"/></g></g></g></g></g></g><g clip-path="url(#c51db0a697)"><g clip-path="url(#bd636277f3)"><g transform="matrix(1, 0, 0, 1, 283, 57)"><g clip-path="url(#a6b8461316)"><g clip-path="url(#c28afa7738)"><g clip-path="url(#9403c1008a)"><rect x="-481" width="1296" fill="#1e1e1e" height="1166.399991" y="-235.199999" fill-opacity="1"/></g></g></g></g></g></g></svg>