<?xml version="1.0" standalone="no"?>
<!DOCTYPE svg PUBLIC "-//W3C//DTD SVG 1.1//EN" "http://www.w3.org/Graphics/SVG/1.1/DTD/svg11.dtd">
<svg xmlns="http://www.w3.org/2000/svg" xmlns:xlink="http://www.w3.org/1999/xlink" width="900" zoomAndPan="magnify" viewBox="0 0 900 809.999994" height="810" preserveAspectRatio="xMidYMid meet" version="1.0"><defs><clipPath id="540748664a"><path d="M 595 642 L 731 642 L 731 779 L 595 779 Z M 595 642 " clip-rule="nonzero"/></clipPath><clipPath id="829b554eb9"><path d="M 730.824219 710.300781 C 730.824219 747.75 700.46875 778.121094 663.003906 778.121094 C 625.542969 778.121094 595.183594 747.761719 595.183594 710.300781 C 595.183594 672.835938 625.542969 642.480469 663.003906 642.480469 C 700.46875 642.480469 730.824219 672.835938 730.824219 710.300781 " clip-rule="nonzero"/></clipPath><clipPath id="0dfd13bb16"><path d="M 0 0.238281 L 136 0.238281 L 136 136.320312 L 0 136.320312 Z M 0 0.238281 " clip-rule="nonzero"/></clipPath><clipPath id="3074e3f7eb"><path d="M 135.824219 68.300781 C 135.824219 105.75 105.46875 136.121094 68.003906 136.121094 C 30.542969 136.121094 0.183594 105.761719 0.183594 68.300781 C 0.183594 30.835938 30.542969 0.480469 68.003906 0.480469 C 105.46875 0.480469 135.824219 30.835938 135.824219 68.300781 " clip-rule="nonzero"/></clipPath><clipPath id="fbf872b720"><rect x="0" width="136" y="0" height="137"/></clipPath><clipPath id="e116366a95"><path d="M 591.3125 639 L 734.195312 639 L 734.195312 781.710938 L 591.3125 781.710938 Z M 591.3125 639 " clip-rule="nonzero"/></clipPath><clipPath id="38d9ba5517"><path d="M 734.171875 710.300781 C 734.171875 749.597656 702.316406 781.464844 663.003906 781.464844 L 663.003906 778.121094 L 663.003906 781.464844 C 623.707031 781.464844 591.839844 749.609375 591.839844 710.300781 L 595.183594 710.300781 L 591.839844 710.300781 C 591.839844 671.003906 623.695312 639.132812 663.003906 639.132812 L 663.003906 642.480469 L 663.003906 639.132812 C 702.300781 639.132812 734.171875 670.988281 734.171875 710.300781 L 730.824219 710.300781 L 734.171875 710.300781 M 727.480469 710.300781 C 727.480469 674.695312 698.621094 645.824219 663.003906 645.824219 C 627.386719 645.824219 598.53125 674.683594 598.53125 710.300781 C 598.53125 745.917969 627.386719 774.773438 663.003906 774.773438 C 698.621094 774.773438 727.480469 745.917969 727.480469 710.300781 Z M 727.480469 710.300781 " clip-rule="nonzero"/></clipPath><clipPath id="a50d642499"><path d="M 0.601562 0.121094 L 143.195312 0.121094 L 143.195312 142.679688 L 0.601562 142.679688 Z M 0.601562 0.121094 " clip-rule="nonzero"/></clipPath><clipPath id="9957156afd"><path d="M 143.171875 71.300781 C 143.171875 110.597656 111.316406 142.464844 72.003906 142.464844 L 72.003906 139.121094 L 72.003906 142.464844 C 32.707031 142.464844 0.839844 110.609375 0.839844 71.300781 L 4.183594 71.300781 L 0.839844 71.300781 C 0.839844 32.003906 32.695312 0.132812 72.003906 0.132812 L 72.003906 3.480469 L 72.003906 0.132812 C 111.300781 0.132812 143.171875 31.988281 143.171875 71.300781 L 139.824219 71.300781 L 143.171875 71.300781 M 136.480469 71.300781 C 136.480469 35.695312 107.621094 6.824219 72.003906 6.824219 C 36.386719 6.824219 7.53125 35.683594 7.53125 71.300781 C 7.53125 106.917969 36.386719 135.773438 72.003906 135.773438 C 107.621094 135.773438 136.480469 106.917969 136.480469 71.300781 Z M 136.480469 71.300781 " clip-rule="nonzero"/></clipPath><clipPath id="ed15e9633c"><rect x="0" width="144" y="0" height="143"/></clipPath><clipPath id="f481a0d49c"><path d="M 514 100 L 716 100 L 716 506.628906 L 514 506.628906 Z M 514 100 " clip-rule="nonzero"/></clipPath><clipPath id="1dddc55e3d"><path d="M 715.660156 506.558594 L 715.660156 417.417969 C 653.769531 416.078125 603.992188 365.511719 603.992188 303.296875 C 603.992188 241.085938 653.757812 190.53125 715.660156 189.179688 L 715.660156 100.050781 C 604.554688 101.402344 514.890625 191.882812 514.890625 303.3125 C 514.890625 414.738281 604.554688 505.21875 715.660156 506.570312 " clip-rule="nonzero"/></clipPath><clipPath id="48b873ddbf"><path d="M 0.800781 0 L 201.679688 0 L 201.679688 406.628906 L 0.800781 406.628906 Z M 0.800781 0 " clip-rule="nonzero"/></clipPath><clipPath id="0bd087db3b"><path d="M 201.660156 406.558594 L 201.660156 317.417969 C 139.769531 316.078125 89.992188 265.511719 89.992188 203.296875 C 89.992188 141.085938 139.757812 90.53125 201.660156 89.179688 L 201.660156 0.0507812 C 90.554688 1.402344 0.890625 91.882812 0.890625 203.3125 C 0.890625 314.738281 90.554688 405.21875 201.660156 406.570312 " clip-rule="nonzero"/></clipPath><clipPath id="ffc74814e8"><rect x="0" width="202" y="0" height="407"/></clipPath><clipPath id="0e92df3f23"><path d="M 511.191406 96.675781 L 719.503906 96.675781 L 719.503906 510 L 511.191406 510 Z M 511.191406 96.675781 " clip-rule="nonzero"/></clipPath><clipPath id="473f61e68b"><path d="M 712.3125 506.558594 L 712.3125 417.417969 L 715.660156 417.417969 L 715.59375 420.761719 C 651.882812 419.382812 600.660156 367.34375 600.660156 303.296875 L 604.003906 303.296875 L 600.660156 303.296875 C 600.660156 239.253906 651.882812 187.226562 715.59375 185.835938 L 715.660156 189.179688 L 712.3125 189.179688 L 712.3125 100.050781 L 715.660156 100.050781 L 715.699219 103.398438 C 606.429688 104.722656 518.238281 193.703125 518.238281 303.3125 L 514.890625 303.3125 L 518.238281 303.3125 C 518.238281 412.90625 606.414062 501.898438 715.699219 503.226562 L 715.660156 506.570312 L 712.3125 506.570312 M 719.007812 506.570312 C 719.007812 507.46875 718.644531 508.324219 718.015625 508.953125 C 717.386719 509.582031 716.515625 509.929688 715.621094 509.917969 C 602.679688 508.539062 511.542969 416.585938 511.542969 303.3125 C 511.542969 190.039062 602.679688 98.070312 715.621094 96.707031 C 716.515625 96.691406 717.375 97.039062 718.015625 97.667969 C 718.660156 98.296875 719.007812 99.15625 719.007812 100.050781 L 719.007812 189.195312 C 719.007812 191.015625 717.546875 192.5 715.726562 192.539062 C 655.644531 193.839844 607.339844 242.921875 607.339844 303.3125 C 607.339844 363.703125 655.644531 412.785156 715.726562 414.082031 C 717.546875 414.125 719.007812 415.609375 719.007812 417.429688 Z M 719.007812 506.570312 " clip-rule="nonzero"/></clipPath><clipPath id="2610ca61f6"><path d="M 0.441406 0.675781 L 208.039062 0.675781 L 208.039062 414 L 0.441406 414 Z M 0.441406 0.675781 " clip-rule="nonzero"/></clipPath><clipPath id="eff788354e"><path d="M 201.3125 410.558594 L 201.3125 321.417969 L 204.660156 321.417969 L 204.59375 324.761719 C 140.882812 323.382812 89.660156 271.34375 89.660156 207.296875 L 93.003906 207.296875 L 89.660156 207.296875 C 89.660156 143.253906 140.882812 91.226562 204.59375 89.835938 L 204.660156 93.179688 L 201.3125 93.179688 L 201.3125 4.050781 L 204.660156 4.050781 L 204.699219 7.398438 C 95.429688 8.722656 7.238281 97.703125 7.238281 207.3125 L 3.890625 207.3125 L 7.238281 207.3125 C 7.238281 316.90625 95.414062 405.898438 204.699219 407.226562 L 204.660156 410.570312 L 201.3125 410.570312 M 208.007812 410.570312 C 208.007812 411.46875 207.644531 412.324219 207.015625 412.953125 C 206.386719 413.582031 205.515625 413.929688 204.621094 413.917969 C 91.679688 412.539062 0.542969 320.585938 0.542969 207.3125 C 0.542969 94.039062 91.679688 2.070312 204.621094 0.707031 C 205.515625 0.691406 206.375 1.039062 207.015625 1.667969 C 207.660156 2.296875 208.007812 3.15625 208.007812 4.050781 L 208.007812 93.195312 C 208.007812 95.015625 206.546875 96.5 204.726562 96.539062 C 144.644531 97.839844 96.339844 146.921875 96.339844 207.3125 C 96.339844 267.703125 144.644531 316.785156 204.726562 318.082031 C 206.546875 318.125 208.007812 319.609375 208.007812 321.429688 Z M 208.007812 410.570312 " clip-rule="nonzero"/></clipPath><clipPath id="f662270952"><rect x="0" width="209" y="0" height="414"/></clipPath><clipPath id="03e902d79a"><path d="M 193.378906 461.226562 L 511.191406 461.226562 L 511.191406 780 L 193.378906 780 Z M 193.378906 461.226562 " clip-rule="nonzero"/></clipPath><clipPath id="b82e3aaa09"><path d="M 509.335938 520.183594 L 452.746094 463.605469 C 450.347656 461.199219 446.453125 461.199219 444.046875 463.605469 L 352.398438 555.25 L 260.753906 463.59375 C 258.359375 461.183594 254.449219 461.183594 252.054688 463.59375 L 195.464844 520.183594 C 193.070312 522.59375 193.070312 526.476562 195.464844 528.882812 L 287.109375 620.542969 L 195.464844 712.1875 C 193.070312 714.582031 193.070312 718.492188 195.464844 720.886719 L 252.054688 777.464844 C 254.449219 779.859375 258.359375 779.859375 260.753906 777.464844 L 352.398438 685.820312 L 444.046875 777.464844 C 446.453125 779.859375 450.347656 779.859375 452.746094 777.464844 L 509.335938 720.886719 C 511.746094 718.492188 511.746094 714.582031 509.335938 712.1875 L 417.691406 620.542969 L 509.335938 528.882812 C 511.746094 526.476562 511.746094 522.59375 509.335938 520.183594 " clip-rule="nonzero"/></clipPath><clipPath id="0ec4c544ba"><path d="M 0.378906 0.226562 L 318.191406 0.226562 L 318.191406 319 L 0.378906 319 Z M 0.378906 0.226562 " clip-rule="nonzero"/></clipPath><clipPath id="ea4492275d"><path d="M 316.335938 59.183594 L 259.746094 2.605469 C 257.347656 0.199219 253.453125 0.199219 251.046875 2.605469 L 159.398438 94.25 L 67.753906 2.59375 C 65.359375 0.183594 61.449219 0.183594 59.054688 2.59375 L 2.464844 59.183594 C 0.0703125 61.59375 0.0703125 65.476562 2.464844 67.882812 L 94.109375 159.542969 L 2.464844 251.1875 C 0.0703125 253.582031 0.0703125 257.492188 2.464844 259.886719 L 59.054688 316.464844 C 61.449219 318.859375 65.359375 318.859375 67.753906 316.464844 L 159.398438 224.820312 L 251.046875 316.464844 C 253.453125 318.859375 257.347656 318.859375 259.746094 316.464844 L 316.335938 259.886719 C 318.746094 257.492188 318.746094 253.582031 316.335938 251.1875 L 224.691406 159.542969 L 316.335938 67.882812 C 318.746094 65.476562 318.746094 61.59375 316.335938 59.183594 " clip-rule="nonzero"/></clipPath><clipPath id="20b2ff4146"><rect x="0" width="319" y="0" height="319"/></clipPath><clipPath id="728b459843"><path d="M 190 458 L 515 458 L 515 783 L 190 783 Z M 190 458 " clip-rule="nonzero"/></clipPath><clipPath id="e9a630cd03"><path d="M 506.964844 522.539062 L 450.390625 465.960938 C 449.292969 464.863281 447.511719 464.863281 446.425781 465.960938 L 444.058594 463.59375 L 446.425781 465.960938 L 354.78125 557.609375 L 352.414062 559.976562 L 350.042969 557.609375 L 258.398438 465.960938 C 257.300781 464.863281 255.523438 464.863281 254.425781 465.960938 L 197.832031 522.539062 L 195.464844 520.171875 L 197.832031 522.539062 C 196.734375 523.636719 196.734375 525.417969 197.832031 526.5 L 195.464844 528.882812 L 197.832031 526.515625 L 289.480469 618.160156 L 291.847656 620.527344 L 289.480469 622.898438 L 197.832031 714.542969 L 195.464844 712.171875 L 197.832031 714.542969 C 196.734375 715.640625 196.734375 717.421875 197.832031 718.519531 L 195.464844 720.886719 L 197.832031 718.519531 L 254.425781 775.09375 C 255.523438 776.191406 257.300781 776.191406 258.398438 775.09375 L 350.042969 683.449219 L 352.414062 681.082031 L 446.425781 775.09375 L 444.058594 777.464844 L 446.425781 775.09375 C 447.523438 776.191406 449.304688 776.191406 450.390625 775.09375 L 506.980469 718.519531 C 508.078125 717.421875 508.078125 715.640625 506.980469 714.542969 L 412.964844 620.527344 L 415.335938 618.160156 L 506.980469 526.5 C 508.078125 525.402344 508.078125 523.625 506.980469 522.539062 M 511.71875 517.800781 L 509.347656 520.171875 L 511.71875 517.800781 C 515.425781 521.507812 515.425781 527.519531 511.71875 531.238281 L 509.347656 528.871094 L 511.71875 531.238281 L 420.074219 622.898438 L 417.703125 620.527344 L 420.074219 618.160156 L 511.71875 709.804688 L 509.347656 712.171875 L 511.71875 709.804688 C 515.425781 713.511719 515.425781 719.535156 511.71875 723.242188 L 509.347656 720.875 L 511.71875 723.242188 L 455.128906 779.820312 L 452.757812 777.449219 L 455.128906 779.820312 C 451.421875 783.527344 445.410156 783.527344 441.6875 779.820312 L 350.042969 688.175781 L 352.414062 685.804688 L 354.78125 688.175781 L 263.136719 779.820312 L 260.769531 777.449219 L 263.136719 779.820312 C 259.429688 783.527344 253.40625 783.527344 249.699219 779.820312 L 252.070312 777.449219 L 249.699219 779.820312 L 193.09375 723.242188 C 189.386719 719.535156 189.386719 713.511719 193.09375 709.804688 L 284.753906 618.160156 L 287.125 620.527344 L 284.753906 622.898438 L 193.09375 531.238281 C 189.386719 527.53125 189.386719 521.523438 193.09375 517.816406 L 249.6875 461.238281 L 252.054688 463.605469 L 249.6875 461.238281 C 253.394531 457.53125 259.417969 457.53125 263.125 461.238281 L 260.753906 463.605469 L 263.125 461.238281 L 354.769531 552.882812 L 352.398438 555.25 L 350.03125 552.882812 L 441.675781 461.238281 C 445.382812 457.53125 451.394531 457.53125 455.113281 461.238281 L 452.746094 463.605469 L 455.113281 461.238281 L 511.703125 517.816406 Z M 511.71875 517.800781 " clip-rule="nonzero"/></clipPath><clipPath id="d0a7ac59d1"><path d="M 0 0 L 325 0 L 325 325 L 0 325 Z M 0 0 " clip-rule="nonzero"/></clipPath><clipPath id="007d7eed6c"><path d="M 316.964844 64.539062 L 260.390625 7.960938 C 259.292969 6.863281 257.511719 6.863281 256.425781 7.960938 L 254.058594 5.59375 L 256.425781 7.960938 L 164.78125 99.609375 L 162.414062 101.976562 L 160.042969 99.609375 L 68.398438 7.960938 C 67.300781 6.863281 65.523438 6.863281 64.425781 7.960938 L 7.832031 64.539062 L 5.464844 62.171875 L 7.832031 64.539062 C 6.734375 65.636719 6.734375 67.417969 7.832031 68.5 L 5.464844 70.882812 L 7.832031 68.515625 L 99.480469 160.160156 L 101.847656 162.527344 L 99.480469 164.898438 L 7.832031 256.542969 L 5.464844 254.171875 L 7.832031 256.542969 C 6.734375 257.640625 6.734375 259.421875 7.832031 260.519531 L 5.464844 262.886719 L 7.832031 260.519531 L 64.425781 317.09375 C 65.523438 318.191406 67.300781 318.191406 68.398438 317.09375 L 160.042969 225.449219 L 162.414062 223.082031 L 256.425781 317.09375 L 254.058594 319.464844 L 256.425781 317.09375 C 257.523438 318.191406 259.304688 318.191406 260.390625 317.09375 L 316.980469 260.519531 C 318.078125 259.421875 318.078125 257.640625 316.980469 256.542969 L 222.964844 162.527344 L 225.335938 160.160156 L 316.980469 68.5 C 318.078125 67.402344 318.078125 65.625 316.980469 64.539062 M 321.71875 59.800781 L 319.347656 62.171875 L 321.71875 59.800781 C 325.425781 63.507812 325.425781 69.519531 321.71875 73.238281 L 319.347656 70.871094 L 321.71875 73.238281 L 230.074219 164.898438 L 227.703125 162.527344 L 230.074219 160.160156 L 321.71875 251.804688 L 319.347656 254.171875 L 321.71875 251.804688 C 325.425781 255.511719 325.425781 261.535156 321.71875 265.242188 L 319.347656 262.875 L 321.71875 265.242188 L 265.128906 321.820312 L 262.757812 319.449219 L 265.128906 321.820312 C 261.421875 325.527344 255.410156 325.527344 251.6875 321.820312 L 160.042969 230.175781 L 162.414062 227.804688 L 164.78125 230.175781 L 73.136719 321.820312 L 70.769531 319.449219 L 73.136719 321.820312 C 69.429688 325.527344 63.40625 325.527344 59.699219 321.820312 L 62.070312 319.449219 L 59.699219 321.820312 L 3.09375 265.242188 C -0.613281 261.535156 -0.613281 255.511719 3.09375 251.804688 L 94.753906 160.160156 L 97.125 162.527344 L 94.753906 164.898438 L 3.09375 73.238281 C -0.613281 69.53125 -0.613281 63.523438 3.09375 59.816406 L 59.6875 3.238281 L 62.054688 5.605469 L 59.6875 3.238281 C 63.394531 -0.46875 69.417969 -0.46875 73.125 3.238281 L 70.753906 5.605469 L 73.125 3.238281 L 164.769531 94.882812 L 162.398438 97.25 L 160.03125 94.882812 L 251.675781 3.238281 C 255.382812 -0.46875 261.394531 -0.46875 265.113281 3.238281 L 262.746094 5.605469 L 265.113281 3.238281 L 321.703125 59.816406 Z M 321.71875 59.800781 " clip-rule="nonzero"/></clipPath><clipPath id="cb741d29f9"><rect x="0" width="325" y="0" height="325"/></clipPath></defs><g clip-path="url(#540748664a)"><g clip-path="url(#829b554eb9)"><g transform="matrix(1, 0, 0, 1, 595, 642)"><g clip-path="url(#fbf872b720)"><g clip-path="url(#0dfd13bb16)"><g clip-path="url(#3074e3f7eb)"><rect x="-793" width="1296" fill="#5cdb6d" height="1166.399991" y="-820.199999" fill-opacity="1"/></g></g></g></g></g></g><g clip-path="url(#e116366a95)"><g clip-path="url(#38d9ba5517)"><g transform="matrix(1, 0, 0, 1, 591, 639)"><g clip-path="url(#ed15e9633c)"><g clip-path="url(#a50d642499)"><g clip-path="url(#9957156afd)"><rect x="-789" width="1296" fill="#1e1e1e" height="1166.399991" y="-817.199999" fill-opacity="1"/></g></g></g></g></g></g><g clip-path="url(#f481a0d49c)"><g clip-path="url(#1dddc55e3d)"><g transform="matrix(1, 0, 0, 1, 514, 100)"><g clip-path="url(#ffc74814e8)"><g clip-path="url(#48b873ddbf)"><g clip-path="url(#0bd087db3b)"><rect x="-712" width="1296" fill="#fbbc04" height="1166.399991" y="-278.199999" fill-opacity="1"/></g></g></g></g></g></g><g clip-path="url(#0e92df3f23)"><g clip-path="url(#473f61e68b)"><g transform="matrix(1, 0, 0, 1, 511, 96)"><g clip-path="url(#f662270952)"><g clip-path="url(#2610ca61f6)"><g clip-path="url(#eff788354e)"><rect x="-709" width="1296" fill="#1e1e1e" height="1166.399991" y="-274.199999" fill-opacity="1"/></g></g></g></g></g></g><g clip-path="url(#03e902d79a)"><g clip-path="url(#b82e3aaa09)"><g transform="matrix(1, 0, 0, 1, 193, 461)"><g clip-path="url(#20b2ff4146)"><g clip-path="url(#0ec4c544ba)"><g clip-path="url(#ea4492275d)"><rect x="-391" width="1296" fill="#ff7daf" height="1166.399991" y="-639.199999" fill-opacity="1"/></g></g></g></g></g></g><g clip-path="url(#728b459843)"><g clip-path="url(#e9a630cd03)"><g transform="matrix(1, 0, 0, 1, 190, 458)"><g clip-path="url(#cb741d29f9)"><g clip-path="url(#d0a7ac59d1)"><g clip-path="url(#007d7eed6c)"><rect x="-388" width="1296" fill="#1e1e1e" height="1166.399991" y="-636.199999" fill-opacity="1"/></g></g></g></g></g></g></svg>