<?xml version="1.0" standalone="no"?>
<!DOCTYPE svg PUBLIC "-//W3C//DTD SVG 1.1//EN" "http://www.w3.org/Graphics/SVG/1.1/DTD/svg11.dtd">
<svg xmlns="http://www.w3.org/2000/svg" xmlns:xlink="http://www.w3.org/1999/xlink" width="900" zoomAndPan="magnify" viewBox="0 0 900 809.999994" height="810" preserveAspectRatio="xMidYMid meet" version="1.0"><defs><clipPath id="65fb1958b7"><path d="M 253.101562 297 L 432 297 L 432 575.96875 L 253.101562 575.96875 Z M 253.101562 297 " clip-rule="nonzero"/></clipPath><clipPath id="867e614294"><path d="M 409.382812 342.515625 L 367.835938 407.511719 C 384.53125 410.273438 399.410156 419.09375 412.390625 433.972656 C 425.375 448.851562 431.886719 466.902344 431.886719 488.253906 C 431.886719 512.363281 423.3125 533.011719 406.125 550.199219 C 388.941406 567.386719 367.835938 575.960938 342.820312 575.960938 C 317.800781 575.960938 296.660156 567.386719 279.511719 550.199219 C 259.03125 529.714844 250.746094 504.367188 254.660156 474.035156 C 256.0625 463.113281 259.113281 452.519531 263.6875 442.546875 C 270.199219 428.246094 279.84375 411.964844 292.703125 393.582031 L 351.269531 304.847656 C 356.050781 297.59375 365.777344 295.574219 373.070312 300.3125 L 404.644531 320.796875 C 411.9375 325.535156 414.039062 335.261719 409.382812 342.558594 " clip-rule="nonzero"/></clipPath><clipPath id="5811e8b77e"><path d="M 0.101562 0 L 179 0 L 179 278.96875 L 0.101562 278.96875 Z M 0.101562 0 " clip-rule="nonzero"/></clipPath><clipPath id="c97a795e6a"><path d="M 156.382812 45.515625 L 114.835938 110.511719 C 131.53125 113.273438 146.410156 122.09375 159.390625 136.972656 C 172.375 151.851562 178.886719 169.902344 178.886719 191.253906 C 178.886719 215.363281 170.3125 236.011719 153.125 253.199219 C 135.941406 270.386719 114.835938 278.960938 89.820312 278.960938 C 64.800781 278.960938 43.660156 270.386719 26.511719 253.199219 C 6.03125 232.714844 -2.253906 207.367188 1.660156 177.035156 C 3.0625 166.113281 6.113281 155.519531 10.6875 145.546875 C 17.199219 131.246094 26.84375 114.964844 39.703125 96.582031 L 98.269531 7.847656 C 103.050781 0.59375 112.777344 -1.425781 120.070312 3.3125 L 151.644531 23.796875 C 158.9375 28.535156 161.039062 38.261719 156.382812 45.558594 " clip-rule="nonzero"/></clipPath><clipPath id="11778a20b6"><rect x="0" width="179" y="0" height="279"/></clipPath><clipPath id="d33993afca"><path d="M 243 287.378906 L 442.363281 287.378906 L 442.363281 586.707031 L 243 586.707031 Z M 243 287.378906 " clip-rule="nonzero"/></clipPath><clipPath id="fa829929cc"><path d="M 418.039062 348.039062 L 376.535156 413.078125 L 367.835938 407.511719 L 369.527344 397.332031 C 388.941406 400.546875 405.839844 410.808594 420.140625 427.171875 L 412.390625 433.972656 L 420.140625 427.171875 C 434.9375 444.03125 442.191406 464.636719 442.191406 488.253906 L 431.886719 488.253906 L 442.191406 488.253906 C 442.191406 515.125 432.503906 538.371094 413.421875 557.453125 L 406.125 550.160156 L 413.421875 557.453125 C 394.257812 576.617188 370.515625 586.222656 342.820312 586.222656 L 342.820312 575.917969 L 342.820312 586.222656 C 315.125 586.222656 291.382812 576.617188 272.21875 557.453125 C 249.34375 534.578125 240.152344 506.015625 244.4375 472.757812 C 245.964844 460.804688 249.300781 449.222656 254.289062 438.300781 L 263.6875 442.585938 L 254.289062 438.300781 C 261.132812 423.257812 271.1875 406.359375 284.253906 387.730469 L 292.703125 393.625 L 284.089844 387.9375 L 342.695312 299.160156 C 350.609375 287.207031 366.640625 283.828125 378.675781 291.617188 L 373.070312 300.269531 L 378.675781 291.617188 L 410.246094 312.101562 C 422.28125 319.890625 425.785156 335.964844 418.039062 348.039062 L 409.339844 342.476562 L 418.039062 348.039062 M 400.6875 336.953125 C 402.292969 334.398438 401.59375 331.019531 399.039062 329.371094 L 404.644531 320.714844 L 399.039062 329.371094 L 367.464844 308.886719 C 364.953125 307.238281 361.53125 307.9375 359.882812 310.453125 L 351.269531 304.847656 L 359.882812 310.535156 L 301.273438 399.269531 L 301.191406 399.394531 L 301.109375 399.515625 C 288.5 417.570312 279.183594 433.3125 273.042969 446.832031 C 268.921875 455.898438 266.160156 465.542969 264.882812 475.394531 L 254.660156 474.074219 L 264.882812 475.394531 C 261.335938 502.71875 268.714844 524.851562 286.765625 542.90625 L 279.472656 550.199219 L 286.765625 542.90625 C 301.933594 558.070312 320.398438 565.65625 342.820312 565.65625 C 365.242188 565.65625 383.707031 558.070312 398.871094 542.90625 C 414.121094 527.65625 421.625 509.644531 421.625 488.253906 C 421.625 469.171875 415.894531 453.550781 404.683594 440.773438 C 393.019531 427.421875 380.203125 420.042969 366.230469 417.734375 L 350.816406 415.179688 L 359.222656 402.03125 Z M 400.6875 336.953125 " clip-rule="nonzero"/></clipPath><clipPath id="9294aa579f"><path d="M 0 0.378906 L 199.320312 0.378906 L 199.320312 299.320312 L 0 299.320312 Z M 0 0.378906 " clip-rule="nonzero"/></clipPath><clipPath id="ed9609f08e"><path d="M 175.039062 61.039062 L 133.535156 126.078125 L 124.835938 120.511719 L 126.527344 110.332031 C 145.941406 113.546875 162.839844 123.808594 177.140625 140.171875 L 169.390625 146.972656 L 177.140625 140.171875 C 191.9375 157.03125 199.191406 177.636719 199.191406 201.253906 L 188.886719 201.253906 L 199.191406 201.253906 C 199.191406 228.125 189.503906 251.371094 170.421875 270.453125 L 163.125 263.160156 L 170.421875 270.453125 C 151.257812 289.617188 127.515625 299.222656 99.820312 299.222656 L 99.820312 288.917969 L 99.820312 299.222656 C 72.125 299.222656 48.382812 289.617188 29.21875 270.453125 C 6.34375 247.578125 -2.847656 219.015625 1.4375 185.757812 C 2.964844 173.804688 6.300781 162.222656 11.289062 151.300781 L 20.6875 155.585938 L 11.289062 151.300781 C 18.132812 136.257812 28.1875 119.359375 41.253906 100.730469 L 49.703125 106.625 L 41.089844 100.9375 L 99.695312 12.160156 C 107.609375 0.207031 123.640625 -3.171875 135.675781 4.617188 L 130.070312 13.269531 L 135.675781 4.617188 L 167.246094 25.101562 C 179.28125 32.890625 182.785156 48.964844 175.039062 61.039062 L 166.339844 55.476562 L 175.039062 61.039062 M 157.6875 49.953125 C 159.292969 47.398438 158.59375 44.019531 156.039062 42.371094 L 161.644531 33.714844 L 156.039062 42.371094 L 124.464844 21.886719 C 121.953125 20.238281 118.53125 20.9375 116.882812 23.453125 L 108.269531 17.847656 L 116.882812 23.535156 L 58.273438 112.269531 L 58.191406 112.394531 L 58.109375 112.515625 C 45.5 130.570312 36.183594 146.3125 30.042969 159.832031 C 25.921875 168.898438 23.160156 178.542969 21.882812 188.394531 L 11.660156 187.074219 L 21.882812 188.394531 C 18.335938 215.71875 25.714844 237.851562 43.765625 255.90625 L 36.472656 263.199219 L 43.765625 255.90625 C 58.933594 271.070312 77.398438 278.65625 99.820312 278.65625 C 122.242188 278.65625 140.707031 271.070312 155.871094 255.90625 C 171.121094 240.65625 178.625 222.644531 178.625 201.253906 C 178.625 182.171875 172.894531 166.550781 161.683594 153.773438 C 150.019531 140.421875 137.203125 133.042969 123.230469 130.734375 L 107.816406 128.179688 L 116.222656 115.03125 Z M 157.6875 49.953125 " clip-rule="nonzero"/></clipPath><clipPath id="42670fe605"><rect x="0" width="200" y="0" height="300"/></clipPath><clipPath id="fb8ee2af22"><path d="M 471 297 L 650 297 L 650 575.96875 L 471 575.96875 Z M 471 297 " clip-rule="nonzero"/></clipPath><clipPath id="ba74cdc4df"><path d="M 627.039062 342.515625 L 585.535156 407.511719 C 602.226562 410.273438 617.105469 419.09375 630.089844 433.972656 C 643.074219 448.851562 649.585938 466.902344 649.585938 488.253906 C 649.585938 512.363281 641.011719 533.011719 623.824219 550.199219 C 606.636719 567.386719 585.535156 575.960938 560.519531 575.960938 C 535.5 575.960938 514.359375 567.386719 497.210938 550.199219 C 476.769531 529.757812 468.484375 504.367188 472.402344 474.074219 C 473.800781 463.152344 476.851562 452.5625 481.425781 442.585938 C 487.9375 428.285156 497.582031 412.003906 510.441406 393.625 L 568.96875 304.847656 C 573.75 297.59375 583.476562 295.574219 590.769531 300.3125 L 622.339844 320.796875 C 629.636719 325.535156 631.738281 335.261719 627.082031 342.558594 " clip-rule="nonzero"/></clipPath><clipPath id="3c64ab35f5"><path d="M 0 0 L 178.679688 0 L 178.679688 278.96875 L 0 278.96875 Z M 0 0 " clip-rule="nonzero"/></clipPath><clipPath id="8b24f4af87"><path d="M 156.039062 45.515625 L 114.535156 110.511719 C 131.226562 113.273438 146.105469 122.09375 159.089844 136.972656 C 172.074219 151.851562 178.585938 169.902344 178.585938 191.253906 C 178.585938 215.363281 170.011719 236.011719 152.824219 253.199219 C 135.636719 270.386719 114.535156 278.960938 89.519531 278.960938 C 64.5 278.960938 43.359375 270.386719 26.210938 253.199219 C 5.769531 232.757812 -2.515625 207.367188 1.402344 177.074219 C 2.800781 166.152344 5.851562 155.5625 10.425781 145.585938 C 16.9375 131.285156 26.582031 115.003906 39.441406 96.625 L 97.96875 7.847656 C 102.75 0.59375 112.476562 -1.425781 119.769531 3.3125 L 151.339844 23.796875 C 158.636719 28.535156 160.738281 38.261719 156.082031 45.558594 " clip-rule="nonzero"/></clipPath><clipPath id="ecdf33aaba"><rect x="0" width="179" y="0" height="279"/></clipPath><clipPath id="821f5f4388"><path d="M 461 287.378906 L 660 287.378906 L 660 586.707031 L 461 586.707031 Z M 461 287.378906 " clip-rule="nonzero"/></clipPath><clipPath id="3ad35f0db4"><path d="M 635.695312 348.039062 L 594.191406 413.078125 L 585.535156 407.511719 L 587.226562 397.332031 C 606.636719 400.546875 623.535156 410.808594 637.839844 427.171875 L 630.046875 433.972656 L 637.796875 427.171875 C 652.59375 444.03125 659.847656 464.636719 659.847656 488.253906 L 649.542969 488.253906 L 659.847656 488.253906 C 659.847656 515.125 650.160156 538.371094 631.078125 557.453125 L 623.785156 550.160156 L 631.078125 557.453125 C 611.914062 576.617188 588.175781 586.222656 560.476562 586.222656 L 560.476562 575.917969 L 560.476562 586.222656 C 532.78125 586.222656 509.039062 576.617188 489.875 557.453125 C 467.042969 534.578125 457.851562 505.976562 462.136719 472.714844 C 463.664062 460.761719 467 449.183594 471.988281 438.257812 L 481.386719 442.546875 L 471.988281 438.257812 C 478.828125 423.214844 488.886719 406.316406 501.953125 387.6875 L 510.402344 393.582031 L 501.785156 387.894531 L 560.355469 299.160156 C 568.265625 287.207031 584.300781 283.828125 596.335938 291.617188 L 590.730469 300.269531 L 596.335938 291.617188 L 627.90625 312.101562 C 639.941406 319.890625 643.445312 335.964844 635.695312 348.039062 L 627 342.476562 L 635.695312 348.039062 M 618.34375 336.953125 C 619.949219 334.398438 619.25 331.019531 616.695312 329.371094 L 622.300781 320.714844 L 616.695312 329.371094 L 585.125 308.886719 C 582.609375 307.238281 579.1875 307.9375 577.539062 310.453125 L 568.96875 304.847656 L 577.582031 310.535156 L 518.972656 399.269531 L 518.890625 399.394531 L 518.808594 399.515625 C 506.195312 417.570312 496.882812 433.3125 490.742188 446.832031 C 486.621094 455.898438 483.859375 465.542969 482.582031 475.394531 L 472.359375 474.074219 L 482.582031 475.394531 C 479.035156 502.71875 486.414062 524.851562 504.464844 542.90625 L 497.171875 550.199219 L 504.464844 542.90625 C 519.632812 558.070312 538.097656 565.65625 560.519531 565.65625 C 582.941406 565.65625 601.402344 558.070312 616.570312 542.90625 C 631.820312 527.65625 639.320312 509.644531 639.320312 488.253906 C 639.320312 469.171875 633.59375 453.550781 622.382812 440.773438 C 610.71875 427.421875 597.902344 420.042969 583.929688 417.734375 L 568.515625 415.179688 L 576.921875 402.03125 Z M 618.34375 336.953125 " clip-rule="nonzero"/></clipPath><clipPath id="fec85af3ee"><path d="M 0 0.378906 L 199 0.378906 L 199 299.320312 L 0 299.320312 Z M 0 0.378906 " clip-rule="nonzero"/></clipPath><clipPath id="4f9e4120f4"><path d="M 174.695312 61.039062 L 133.191406 126.078125 L 124.535156 120.511719 L 126.226562 110.332031 C 145.636719 113.546875 162.535156 123.808594 176.839844 140.171875 L 169.046875 146.972656 L 176.796875 140.171875 C 191.59375 157.03125 198.847656 177.636719 198.847656 201.253906 L 188.542969 201.253906 L 198.847656 201.253906 C 198.847656 228.125 189.160156 251.371094 170.078125 270.453125 L 162.785156 263.160156 L 170.078125 270.453125 C 150.914062 289.617188 127.175781 299.222656 99.476562 299.222656 L 99.476562 288.917969 L 99.476562 299.222656 C 71.78125 299.222656 48.039062 289.617188 28.875 270.453125 C 6.042969 247.578125 -3.148438 218.976562 1.136719 185.714844 C 2.664062 173.761719 6 162.183594 10.988281 151.257812 L 20.386719 155.546875 L 10.988281 151.257812 C 17.828125 136.214844 27.886719 119.316406 40.953125 100.6875 L 49.402344 106.582031 L 40.785156 100.894531 L 99.355469 12.160156 C 107.265625 0.207031 123.300781 -3.171875 135.335938 4.617188 L 129.730469 13.269531 L 135.335938 4.617188 L 166.90625 25.101562 C 178.941406 32.890625 182.445312 48.964844 174.695312 61.039062 L 166 55.476562 L 174.695312 61.039062 M 157.34375 49.953125 C 158.949219 47.398438 158.25 44.019531 155.695312 42.371094 L 161.300781 33.714844 L 155.695312 42.371094 L 124.125 21.886719 C 121.609375 20.238281 118.1875 20.9375 116.539062 23.453125 L 107.96875 17.847656 L 116.582031 23.535156 L 57.972656 112.269531 L 57.890625 112.394531 L 57.808594 112.515625 C 45.195312 130.570312 35.882812 146.3125 29.742188 159.832031 C 25.621094 168.898438 22.859375 178.542969 21.582031 188.394531 L 11.359375 187.074219 L 21.582031 188.394531 C 18.035156 215.71875 25.414062 237.851562 43.464844 255.90625 L 36.171875 263.199219 L 43.464844 255.90625 C 58.632812 271.070312 77.097656 278.65625 99.519531 278.65625 C 121.941406 278.65625 140.402344 271.070312 155.570312 255.90625 C 170.820312 240.65625 178.320312 222.644531 178.320312 201.253906 C 178.320312 182.171875 172.59375 166.550781 161.382812 153.773438 C 149.71875 140.421875 136.902344 133.042969 122.929688 130.734375 L 107.515625 128.179688 L 115.921875 115.03125 Z M 157.34375 49.953125 " clip-rule="nonzero"/></clipPath><clipPath id="74db73f92b"><rect x="0" width="199" y="0" height="300"/></clipPath></defs><g clip-path="url(#65fb1958b7)"><g clip-path="url(#867e614294)"><g transform="matrix(1, 0, 0, 1, 253, 297)"><g clip-path="url(#11778a20b6)"><g clip-path="url(#5811e8b77e)"><g clip-path="url(#c97a795e6a)"><rect x="-451" width="1296" fill="#34a853" height="1166.399991" y="-475.199999" fill-opacity="1"/></g></g></g></g></g></g><g clip-path="url(#d33993afca)"><g clip-path="url(#fa829929cc)"><g transform="matrix(1, 0, 0, 1, 243, 287)"><g clip-path="url(#42670fe605)"><g clip-path="url(#9294aa579f)"><g clip-path="url(#ed9609f08e)"><rect x="-441" width="1296" fill="#1e1e1e" height="1166.399991" y="-465.199999" fill-opacity="1"/></g></g></g></g></g></g><g clip-path="url(#fb8ee2af22)"><g clip-path="url(#ba74cdc4df)"><g transform="matrix(1, 0, 0, 1, 471, 297)"><g clip-path="url(#ecdf33aaba)"><g clip-path="url(#3c64ab35f5)"><g clip-path="url(#8b24f4af87)"><rect x="-669" width="1296" fill="#34a853" height="1166.399991" y="-475.199999" fill-opacity="1"/></g></g></g></g></g></g><g clip-path="url(#821f5f4388)"><g clip-path="url(#3ad35f0db4)"><g transform="matrix(1, 0, 0, 1, 461, 287)"><g clip-path="url(#74db73f92b)"><g clip-path="url(#fec85af3ee)"><g clip-path="url(#4f9e4120f4)"><rect x="-659" width="1296" fill="#1e1e1e" height="1166.399991" y="-465.199999" fill-opacity="1"/></g></g></g></g></g></g></svg>