<?xml version="1.0" standalone="no"?>
<!DOCTYPE svg PUBLIC "-//W3C//DTD SVG 1.1//EN" "http://www.w3.org/Graphics/SVG/1.1/DTD/svg11.dtd">
<svg xmlns="http://www.w3.org/2000/svg" xmlns:xlink="http://www.w3.org/1999/xlink" width="900" zoomAndPan="magnify" viewBox="0 0 900 809.999994" height="810" preserveAspectRatio="xMidYMid meet" version="1.0"><defs><clipPath id="21aa30cdaa"><path d="M 487 268.816406 L 694.875 268.816406 L 694.875 593 L 487 593 Z M 487 268.816406 " clip-rule="nonzero"/></clipPath><clipPath id="66dbe4fb3e"><path d="M 513.457031 540.691406 L 561.839844 464.992188 C 542.398438 461.777344 525.070312 451.503906 509.953125 434.175781 C 494.832031 416.847656 487.246094 395.824219 487.246094 370.960938 C 487.246094 342.878906 497.230469 318.832031 517.246094 298.816406 C 537.265625 278.796875 561.839844 268.863281 591.023438 268.863281 C 620.210938 268.863281 644.785156 278.847656 664.753906 298.863281 C 688.5625 322.671875 698.210938 352.238281 693.648438 387.519531 C 692.019531 400.238281 688.464844 412.578125 683.136719 424.191406 C 675.554688 440.847656 664.320312 459.808594 649.34375 481.21875 L 581.136719 584.609375 C 575.570312 593.058594 564.238281 595.410156 555.742188 589.890625 L 518.976562 566.035156 C 510.480469 560.515625 508.03125 549.1875 513.457031 540.691406 " clip-rule="nonzero"/></clipPath><clipPath id="8a06ff3265"><path d="M 0.199219 0.816406 L 207.875 0.816406 L 207.875 325 L 0.199219 325 Z M 0.199219 0.816406 " clip-rule="nonzero"/></clipPath><clipPath id="ef1bbf7bd8"><path d="M 26.457031 272.691406 L 74.839844 196.992188 C 55.398438 193.777344 38.070312 183.503906 22.953125 166.175781 C 7.832031 148.847656 0.246094 127.824219 0.246094 102.960938 C 0.246094 74.878906 10.230469 50.832031 30.246094 30.816406 C 50.265625 10.796875 74.839844 0.863281 104.023438 0.863281 C 133.210938 0.863281 157.785156 10.847656 177.753906 30.863281 C 201.5625 54.671875 211.210938 84.238281 206.648438 119.519531 C 205.019531 132.238281 201.464844 144.578125 196.136719 156.191406 C 188.554688 172.847656 177.320312 191.808594 162.34375 213.21875 L 94.136719 316.609375 C 88.570312 325.058594 77.238281 327.410156 68.742188 321.890625 L 31.976562 298.035156 C 23.480469 292.515625 21.03125 281.1875 26.457031 272.691406 " clip-rule="nonzero"/></clipPath><clipPath id="eebddab6e3"><rect x="0" width="208" y="0" height="325"/></clipPath><clipPath id="4d88c966c4"><path d="M 475 256.3125 L 707 256.3125 L 707 604.917969 L 475 604.917969 Z M 475 256.3125 " clip-rule="nonzero"/></clipPath><clipPath id="0679a7e954"><path d="M 503.375 534.257812 L 551.710938 458.511719 L 561.839844 464.992188 L 559.871094 476.847656 C 537.265625 473.105469 517.582031 461.152344 500.925781 442.097656 L 509.953125 434.175781 L 500.925781 442.097656 C 483.695312 422.464844 475.246094 398.464844 475.246094 370.960938 L 487.246094 370.960938 L 475.246094 370.960938 C 475.246094 339.664062 486.527344 312.589844 508.75 290.367188 L 517.246094 298.863281 L 508.75 290.367188 C 531.070312 268.046875 558.769531 256.863281 591.023438 256.863281 L 591.023438 268.863281 L 591.023438 256.863281 C 623.28125 256.863281 650.929688 268.046875 673.25 290.367188 C 699.84375 317.007812 710.546875 350.320312 705.554688 389.054688 C 703.777344 402.976562 699.890625 416.464844 694.082031 429.183594 L 683.136719 424.191406 L 694.082031 429.183594 C 686.113281 446.703125 674.402344 466.386719 659.183594 488.082031 L 649.34375 481.21875 L 659.378906 487.839844 L 591.121094 591.1875 C 581.90625 605.105469 563.230469 609.042969 549.214844 599.921875 L 555.742188 589.84375 L 549.214844 599.921875 L 512.449219 576.066406 C 498.429688 566.996094 494.351562 548.273438 503.375 534.210938 L 513.503906 540.691406 L 503.375 534.210938 M 523.582031 547.121094 C 521.710938 550.097656 522.527344 554.035156 525.503906 555.953125 L 518.976562 566.035156 L 525.503906 555.953125 L 562.273438 579.8125 C 565.199219 581.730469 569.183594 580.914062 571.105469 577.988281 L 581.136719 584.609375 L 571.105469 577.988281 L 639.359375 474.59375 L 639.554688 474.304688 C 654.242188 453.28125 665.089844 434.945312 672.242188 419.199219 C 677.042969 408.640625 680.257812 397.40625 681.746094 385.9375 L 693.648438 387.472656 L 681.746094 385.9375 C 685.875 354.113281 677.28125 328.335938 656.257812 307.3125 L 664.753906 298.816406 L 656.257812 307.3125 C 638.59375 289.695312 617.089844 280.863281 591.023438 280.863281 C 564.960938 280.863281 543.40625 289.695312 525.742188 307.359375 C 507.984375 325.117188 499.246094 346.09375 499.246094 371.007812 C 499.246094 393.230469 505.917969 411.425781 518.976562 426.304688 C 532.558594 441.855469 547.488281 450.449219 563.761719 453.136719 L 581.710938 456.113281 L 571.921875 471.425781 L 523.582031 547.171875 Z M 523.582031 547.121094 " clip-rule="nonzero"/></clipPath><clipPath id="860eb1ac95"><path d="M 0.199219 0.800781 L 232 0.800781 L 232 348.917969 L 0.199219 348.917969 Z M 0.199219 0.800781 " clip-rule="nonzero"/></clipPath><clipPath id="61d5f4e878"><path d="M 28.375 278.257812 L 76.710938 202.511719 L 86.839844 208.992188 L 84.871094 220.847656 C 62.265625 217.105469 42.582031 205.152344 25.925781 186.097656 L 34.953125 178.175781 L 25.925781 186.097656 C 8.695312 166.464844 0.246094 142.464844 0.246094 114.960938 L 12.246094 114.960938 L 0.246094 114.960938 C 0.246094 83.664062 11.527344 56.589844 33.75 34.367188 L 42.246094 42.863281 L 33.75 34.367188 C 56.070312 12.046875 83.769531 0.863281 116.023438 0.863281 L 116.023438 12.863281 L 116.023438 0.863281 C 148.28125 0.863281 175.929688 12.046875 198.25 34.367188 C 224.84375 61.007812 235.546875 94.320312 230.554688 133.054688 C 228.777344 146.976562 224.890625 160.464844 219.082031 173.183594 L 208.136719 168.191406 L 219.082031 173.183594 C 211.113281 190.703125 199.402344 210.386719 184.183594 232.082031 L 174.34375 225.21875 L 184.378906 231.839844 L 116.121094 335.1875 C 106.90625 349.105469 88.230469 353.042969 74.214844 343.921875 L 80.742188 333.84375 L 74.214844 343.921875 L 37.449219 320.066406 C 23.429688 310.996094 19.351562 292.273438 28.375 278.210938 L 38.503906 284.691406 L 28.375 278.210938 M 48.582031 291.121094 C 46.710938 294.097656 47.527344 298.035156 50.503906 299.953125 L 43.976562 310.035156 L 50.503906 299.953125 L 87.273438 323.8125 C 90.199219 325.730469 94.183594 324.914062 96.105469 321.988281 L 106.136719 328.609375 L 96.105469 321.988281 L 164.359375 218.59375 L 164.554688 218.304688 C 179.242188 197.28125 190.089844 178.945312 197.242188 163.199219 C 202.042969 152.640625 205.257812 141.40625 206.746094 129.9375 L 218.648438 131.472656 L 206.746094 129.9375 C 210.875 98.113281 202.28125 72.335938 181.257812 51.3125 L 189.753906 42.816406 L 181.257812 51.3125 C 163.59375 33.695312 142.089844 24.863281 116.023438 24.863281 C 89.960938 24.863281 68.40625 33.695312 50.742188 51.359375 C 32.984375 69.117188 24.246094 90.09375 24.246094 115.007812 C 24.246094 137.230469 30.917969 155.425781 43.976562 170.304688 C 57.558594 185.855469 72.488281 194.449219 88.761719 197.136719 L 106.710938 200.113281 L 96.921875 215.425781 L 48.582031 291.171875 Z M 48.582031 291.121094 " clip-rule="nonzero"/></clipPath><clipPath id="7a3e010f1c"><rect x="0" width="232" y="0" height="349"/></clipPath><clipPath id="e9a96be1fe"><path d="M 233.710938 268.816406 L 441.625 268.816406 L 441.625 593 L 233.710938 593 Z M 233.710938 268.816406 " clip-rule="nonzero"/></clipPath><clipPath id="02b503a38a"><path d="M 259.964844 540.691406 L 308.300781 464.992188 C 288.859375 461.777344 271.53125 451.503906 256.410156 434.175781 C 241.292969 416.847656 233.753906 395.871094 233.753906 370.960938 C 233.753906 342.878906 243.738281 318.832031 263.757812 298.816406 C 283.773438 278.796875 308.300781 268.863281 337.484375 268.863281 C 366.667969 268.863281 391.246094 278.847656 411.214844 298.863281 C 435.023438 322.671875 444.671875 352.238281 440.109375 387.519531 C 438.476562 400.238281 434.925781 412.578125 429.597656 424.191406 C 422.015625 440.847656 410.78125 459.808594 395.804688 481.21875 L 327.597656 584.609375 C 322.027344 593.058594 310.699219 595.410156 302.203125 589.890625 L 265.4375 566.035156 C 256.941406 560.515625 254.492188 549.1875 259.914062 540.691406 " clip-rule="nonzero"/></clipPath><clipPath id="d1489eb076"><path d="M 0.710938 0.816406 L 208.625 0.816406 L 208.625 325 L 0.710938 325 Z M 0.710938 0.816406 " clip-rule="nonzero"/></clipPath><clipPath id="afa31b50e0"><path d="M 26.964844 272.691406 L 75.300781 196.992188 C 55.859375 193.777344 38.53125 183.503906 23.410156 166.175781 C 8.292969 148.847656 0.753906 127.871094 0.753906 102.960938 C 0.753906 74.878906 10.738281 50.832031 30.757812 30.816406 C 50.773438 10.796875 75.300781 0.863281 104.484375 0.863281 C 133.667969 0.863281 158.246094 10.847656 178.214844 30.863281 C 202.023438 54.671875 211.671875 84.238281 207.109375 119.519531 C 205.476562 132.238281 201.925781 144.578125 196.597656 156.191406 C 189.015625 172.847656 177.78125 191.808594 162.804688 213.21875 L 94.597656 316.609375 C 89.027344 325.058594 77.699219 327.410156 69.203125 321.890625 L 32.4375 298.035156 C 23.941406 292.515625 21.492188 281.1875 26.914062 272.691406 " clip-rule="nonzero"/></clipPath><clipPath id="d11a8ffec7"><rect x="0" width="209" y="0" height="325"/></clipPath><clipPath id="5f542deee9"><path d="M 221.203125 256.3125 L 454 256.3125 L 454 604.917969 L 221.203125 604.917969 Z M 221.203125 256.3125 " clip-rule="nonzero"/></clipPath><clipPath id="1041394260"><path d="M 249.835938 534.257812 L 298.21875 458.511719 L 308.347656 464.992188 L 306.378906 476.847656 C 283.773438 473.105469 264.09375 461.152344 247.4375 442.097656 L 256.460938 434.175781 L 247.4375 442.097656 C 230.203125 422.464844 221.753906 398.511719 221.753906 370.960938 L 233.753906 370.960938 L 221.753906 370.960938 C 221.753906 339.664062 233.035156 312.589844 255.261719 290.367188 L 263.757812 298.863281 L 255.261719 290.367188 C 277.582031 268.046875 305.226562 256.863281 337.484375 256.863281 L 337.484375 268.863281 L 337.484375 256.863281 C 369.742188 256.863281 397.390625 268.046875 419.710938 290.367188 C 446.300781 317.007812 457.007812 350.320312 452.015625 389.054688 C 450.238281 402.976562 446.351562 416.464844 440.542969 429.183594 L 429.597656 424.191406 L 440.542969 429.183594 C 432.574219 446.703125 420.863281 466.386719 405.644531 488.082031 L 395.804688 481.21875 L 405.839844 487.839844 L 337.628906 591.1875 C 328.414062 605.105469 309.742188 609.042969 295.722656 599.921875 L 302.253906 589.84375 L 295.722656 599.921875 L 258.957031 576.066406 C 244.941406 566.996094 240.859375 548.273438 249.882812 534.210938 L 260.011719 540.691406 L 249.882812 534.210938 M 270.09375 547.121094 C 268.21875 550.097656 269.035156 554.035156 272.011719 555.953125 L 265.484375 566.035156 L 272.011719 555.953125 L 308.78125 579.8125 C 311.707031 581.730469 315.691406 580.914062 317.613281 577.988281 L 327.644531 584.609375 L 317.613281 577.988281 L 385.820312 474.59375 L 385.917969 474.449219 L 386.011719 474.304688 C 400.703125 453.28125 411.550781 434.945312 418.703125 419.199219 C 423.503906 408.640625 426.71875 397.40625 428.207031 385.9375 L 440.109375 387.472656 L 428.207031 385.9375 C 432.335938 354.113281 423.742188 328.335938 402.71875 307.3125 L 411.214844 298.816406 L 402.71875 307.3125 C 385.101562 289.695312 363.597656 280.863281 337.484375 280.863281 C 311.371094 280.863281 289.867188 289.695312 272.203125 307.359375 C 254.445312 325.117188 245.753906 346.09375 245.753906 370.960938 C 245.753906 393.183594 252.425781 411.375 265.484375 426.257812 C 279.066406 441.808594 293.996094 450.402344 310.269531 453.089844 L 328.222656 456.066406 L 318.429688 471.378906 L 270.09375 547.171875 Z M 270.09375 547.121094 " clip-rule="nonzero"/></clipPath><clipPath id="b83392c32f"><path d="M 0.519531 0.800781 L 233 0.800781 L 233 348.917969 L 0.519531 348.917969 Z M 0.519531 0.800781 " clip-rule="nonzero"/></clipPath><clipPath id="2a4a97a101"><path d="M 28.835938 278.257812 L 77.21875 202.511719 L 87.347656 208.992188 L 85.378906 220.847656 C 62.773438 217.105469 43.09375 205.152344 26.4375 186.097656 L 35.460938 178.175781 L 26.4375 186.097656 C 9.203125 166.464844 0.753906 142.511719 0.753906 114.960938 L 12.753906 114.960938 L 0.753906 114.960938 C 0.753906 83.664062 12.035156 56.589844 34.261719 34.367188 L 42.757812 42.863281 L 34.261719 34.367188 C 56.582031 12.046875 84.226562 0.863281 116.484375 0.863281 L 116.484375 12.863281 L 116.484375 0.863281 C 148.742188 0.863281 176.390625 12.046875 198.710938 34.367188 C 225.300781 61.007812 236.007812 94.320312 231.015625 133.054688 C 229.238281 146.976562 225.351562 160.464844 219.542969 173.183594 L 208.597656 168.191406 L 219.542969 173.183594 C 211.574219 190.703125 199.863281 210.386719 184.644531 232.082031 L 174.804688 225.21875 L 184.839844 231.839844 L 116.628906 335.1875 C 107.414062 349.105469 88.742188 353.042969 74.722656 343.921875 L 81.253906 333.84375 L 74.722656 343.921875 L 37.957031 320.066406 C 23.941406 310.996094 19.859375 292.273438 28.882812 278.210938 L 39.011719 284.691406 L 28.882812 278.210938 M 49.09375 291.121094 C 47.21875 294.097656 48.035156 298.035156 51.011719 299.953125 L 44.484375 310.035156 L 51.011719 299.953125 L 87.78125 323.8125 C 90.707031 325.730469 94.691406 324.914062 96.613281 321.988281 L 106.644531 328.609375 L 96.613281 321.988281 L 164.820312 218.59375 L 164.917969 218.449219 L 165.011719 218.304688 C 179.703125 197.28125 190.550781 178.945312 197.703125 163.199219 C 202.503906 152.640625 205.71875 141.40625 207.207031 129.9375 L 219.109375 131.472656 L 207.207031 129.9375 C 211.335938 98.113281 202.742188 72.335938 181.71875 51.3125 L 190.214844 42.816406 L 181.71875 51.3125 C 164.101562 33.695312 142.597656 24.863281 116.484375 24.863281 C 90.371094 24.863281 68.867188 33.695312 51.203125 51.359375 C 33.445312 69.117188 24.753906 90.09375 24.753906 114.960938 C 24.753906 137.183594 31.425781 155.375 44.484375 170.257812 C 58.066406 185.808594 72.996094 194.402344 89.269531 197.089844 L 107.222656 200.066406 L 97.429688 215.378906 L 49.09375 291.171875 Z M 49.09375 291.121094 " clip-rule="nonzero"/></clipPath><clipPath id="29196c3145"><rect x="0" width="233" y="0" height="349"/></clipPath></defs><g clip-path="url(#21aa30cdaa)"><g clip-path="url(#66dbe4fb3e)"><g transform="matrix(1, 0, 0, 1, 487, 268)"><g clip-path="url(#eebddab6e3)"><g clip-path="url(#8a06ff3265)"><g clip-path="url(#ef1bbf7bd8)"><rect x="-685" width="1296" fill="#34a853" height="1166.399991" y="-446.199999" fill-opacity="1"/></g></g></g></g></g></g><g clip-path="url(#4d88c966c4)"><g clip-path="url(#0679a7e954)"><g transform="matrix(1, 0, 0, 1, 475, 256)"><g clip-path="url(#7a3e010f1c)"><g clip-path="url(#860eb1ac95)"><g clip-path="url(#61d5f4e878)"><rect x="-673" width="1296" fill="#1e1e1e" height="1166.399991" y="-434.199999" fill-opacity="1"/></g></g></g></g></g></g><g clip-path="url(#e9a96be1fe)"><g clip-path="url(#02b503a38a)"><g transform="matrix(1, 0, 0, 1, 233, 268)"><g clip-path="url(#d11a8ffec7)"><g clip-path="url(#d1489eb076)"><g clip-path="url(#afa31b50e0)"><rect x="-431" width="1296" fill="#34a853" height="1166.399991" y="-446.199999" fill-opacity="1"/></g></g></g></g></g></g><g clip-path="url(#5f542deee9)"><g clip-path="url(#1041394260)"><g transform="matrix(1, 0, 0, 1, 221, 256)"><g clip-path="url(#29196c3145)"><g clip-path="url(#b83392c32f)"><g clip-path="url(#2a4a97a101)"><rect x="-419" width="1296" fill="#1e1e1e" height="1166.399991" y="-434.199999" fill-opacity="1"/></g></g></g></g></g></g></svg>