<?xml version="1.0" standalone="no"?>
<!DOCTYPE svg PUBLIC "-//W3C//DTD SVG 1.1//EN" "http://www.w3.org/Graphics/SVG/1.1/DTD/svg11.dtd">
<svg xmlns="http://www.w3.org/2000/svg" xmlns:xlink="http://www.w3.org/1999/xlink" width="900" zoomAndPan="magnify" viewBox="0 0 900 809.999994" height="810" preserveAspectRatio="xMidYMid meet" version="1.0"><defs><clipPath id="6a7e167b33"><path d="M 252.4375 377.558594 L 689.394531 377.558594 L 689.394531 500.726562 L 252.4375 500.726562 Z M 252.4375 377.558594 " clip-rule="nonzero"/></clipPath><clipPath id="2e673f60ae"><path d="M 682.003906 500.566406 C 686.082031 500.566406 689.394531 497.128906 689.394531 492.90625 L 689.394531 385.378906 C 689.394531 381.140625 686.082031 377.71875 682.003906 377.71875 L 259.984375 377.71875 C 255.910156 377.71875 252.597656 381.15625 252.597656 385.378906 L 252.597656 492.90625 C 252.597656 497.128906 255.910156 500.566406 259.984375 500.566406 Z M 682.003906 500.566406 " clip-rule="nonzero"/></clipPath><clipPath id="b3fc12639b"><path d="M 0.480469 0.558594 L 437.394531 0.558594 L 437.394531 123.640625 L 0.480469 123.640625 Z M 0.480469 0.558594 " clip-rule="nonzero"/></clipPath><clipPath id="363e5a7d14"><path d="M 430.003906 123.566406 C 434.082031 123.566406 437.394531 120.128906 437.394531 115.90625 L 437.394531 8.378906 C 437.394531 4.140625 434.082031 0.71875 430.003906 0.71875 L 7.984375 0.71875 C 3.910156 0.71875 0.597656 4.15625 0.597656 8.378906 L 0.597656 115.90625 C 0.597656 120.128906 3.910156 123.566406 7.984375 123.566406 Z M 430.003906 123.566406 " clip-rule="nonzero"/></clipPath><clipPath id="2f6137b8bb"><rect x="0" width="438" y="0" height="124"/></clipPath><clipPath id="c45352ddbb"><path d="M 248 373 L 694 373 L 694 505.417969 L 248 505.417969 Z M 248 373 " clip-rule="nonzero"/></clipPath><clipPath id="d9213f54cf"><path d="M 682.003906 496.015625 C 683.40625 496.015625 684.84375 494.78125 684.84375 492.90625 L 689.394531 492.90625 L 684.84375 492.90625 L 684.84375 385.378906 L 689.394531 385.378906 L 684.84375 385.378906 C 684.84375 383.503906 683.425781 382.265625 682.003906 382.265625 L 682.003906 377.71875 L 682.003906 382.265625 L 259.984375 382.265625 L 259.984375 377.71875 L 259.984375 382.265625 C 258.585938 382.265625 257.144531 383.503906 257.144531 385.378906 L 252.597656 385.378906 L 257.144531 385.378906 L 257.144531 492.90625 L 252.597656 492.90625 L 257.144531 492.90625 C 257.144531 494.78125 258.566406 496.015625 259.984375 496.015625 L 259.984375 500.566406 L 259.984375 496.015625 L 682.003906 496.015625 L 682.003906 500.566406 L 682.003906 496.015625 M 682.003906 505.117188 L 259.984375 505.117188 C 253.234375 505.117188 248.046875 499.492188 248.046875 492.90625 L 248.046875 385.378906 C 248.046875 378.792969 253.234375 373.167969 259.984375 373.167969 L 682.003906 373.167969 C 688.757812 373.167969 693.945312 378.792969 693.945312 385.378906 L 693.945312 492.90625 C 693.945312 499.492188 688.757812 505.117188 682.003906 505.117188 Z M 682.003906 505.117188 " clip-rule="nonzero"/></clipPath><clipPath id="cb6dc89734"><path d="M 0 0 L 446 0 L 446 132.199219 L 0 132.199219 Z M 0 0 " clip-rule="nonzero"/></clipPath><clipPath id="37e7b4671a"><path d="M 434.003906 123.015625 C 435.40625 123.015625 436.84375 121.78125 436.84375 119.90625 L 441.394531 119.90625 L 436.84375 119.90625 L 436.84375 12.378906 L 441.394531 12.378906 L 436.84375 12.378906 C 436.84375 10.503906 435.425781 9.265625 434.003906 9.265625 L 434.003906 4.71875 L 434.003906 9.265625 L 11.984375 9.265625 L 11.984375 4.71875 L 11.984375 9.265625 C 10.585938 9.265625 9.144531 10.503906 9.144531 12.378906 L 4.597656 12.378906 L 9.144531 12.378906 L 9.144531 119.90625 L 4.597656 119.90625 L 9.144531 119.90625 C 9.144531 121.78125 10.566406 123.015625 11.984375 123.015625 L 11.984375 127.566406 L 11.984375 123.015625 L 434.003906 123.015625 L 434.003906 127.566406 L 434.003906 123.015625 M 434.003906 132.117188 L 11.984375 132.117188 C 5.234375 132.117188 0.046875 126.492188 0.046875 119.90625 L 0.046875 12.378906 C 0.046875 5.792969 5.234375 0.167969 11.984375 0.167969 L 434.003906 0.167969 C 440.757812 0.167969 445.945312 5.792969 445.945312 12.378906 L 445.945312 119.90625 C 445.945312 126.492188 440.757812 132.117188 434.003906 132.117188 Z M 434.003906 132.117188 " clip-rule="nonzero"/></clipPath><clipPath id="dea4c7aba7"><rect x="0" width="446" y="0" height="133"/></clipPath></defs><g clip-path="url(#6a7e167b33)"><g clip-path="url(#2e673f60ae)"><g transform="matrix(1, 0, 0, 1, 252, 377)"><g clip-path="url(#2f6137b8bb)"><g clip-path="url(#b3fc12639b)"><g clip-path="url(#363e5a7d14)"><rect x="-450" width="1296" fill="#c3ecf6" height="1166.399991" y="-555.199999" fill-opacity="1"/></g></g></g></g></g></g><g clip-path="url(#c45352ddbb)"><g clip-path="url(#d9213f54cf)"><g transform="matrix(1, 0, 0, 1, 248, 373)"><g clip-path="url(#dea4c7aba7)"><g clip-path="url(#cb6dc89734)"><g clip-path="url(#37e7b4671a)"><rect x="-446" width="1296" fill="#1e1e1e" height="1166.399991" y="-551.199999" fill-opacity="1"/></g></g></g></g></g></g></svg>