<?xml version="1.0" standalone="no"?>
<!DOCTYPE svg PUBLIC "-//W3C//DTD SVG 1.1//EN" "http://www.w3.org/Graphics/SVG/1.1/DTD/svg11.dtd">
<svg xmlns="http://www.w3.org/2000/svg" xmlns:xlink="http://www.w3.org/1999/xlink" width="900" zoomAndPan="magnify" viewBox="0 0 900 809.999994" height="810" preserveAspectRatio="xMidYMid meet" version="1.0"><defs><clipPath id="283abf4795"><path d="M 243.09375 228 L 673 228 L 673 631 L 243.09375 631 Z M 243.09375 228 " clip-rule="nonzero"/></clipPath><clipPath id="6e95eb7df1"><path d="M 663.203125 355.566406 L 536.195312 355.566406 L 536.195312 238.089844 C 536.195312 232.820312 531.929688 228.558594 526.660156 228.558594 L 389.933594 228.558594 C 384.664062 228.558594 380.398438 232.820312 380.398438 238.089844 L 380.398438 355.566406 L 253.390625 355.566406 C 248.125 355.566406 243.859375 359.832031 243.859375 365.097656 L 243.859375 496.535156 C 243.859375 501.804688 248.125 506.066406 253.390625 506.066406 L 380.398438 506.066406 L 380.398438 621.160156 C 380.398438 626.429688 384.664062 630.695312 389.933594 630.695312 L 526.6875 630.695312 C 531.953125 630.695312 536.21875 626.429688 536.21875 621.160156 L 536.21875 506.066406 L 663.226562 506.066406 C 668.492188 506.066406 672.757812 501.804688 672.757812 496.535156 L 672.757812 365.097656 C 672.757812 359.832031 668.492188 355.566406 663.226562 355.566406 " clip-rule="nonzero"/></clipPath><clipPath id="43b437f280"><path d="M 0.839844 0.480469 L 429.960938 0.480469 L 429.960938 402.71875 L 0.839844 402.71875 Z M 0.839844 0.480469 " clip-rule="nonzero"/></clipPath><clipPath id="a5dfdebf37"><path d="M 420.203125 127.566406 L 293.195312 127.566406 L 293.195312 10.089844 C 293.195312 4.820312 288.929688 0.558594 283.660156 0.558594 L 146.933594 0.558594 C 141.664062 0.558594 137.398438 4.820312 137.398438 10.089844 L 137.398438 127.566406 L 10.390625 127.566406 C 5.125 127.566406 0.859375 131.832031 0.859375 137.097656 L 0.859375 268.535156 C 0.859375 273.804688 5.125 278.066406 10.390625 278.066406 L 137.398438 278.066406 L 137.398438 393.160156 C 137.398438 398.429688 141.664062 402.695312 146.933594 402.695312 L 283.6875 402.695312 C 288.953125 402.695312 293.21875 398.429688 293.21875 393.160156 L 293.21875 278.066406 L 420.226562 278.066406 C 425.492188 278.066406 429.757812 273.804688 429.757812 268.535156 L 429.757812 137.097656 C 429.757812 131.832031 425.492188 127.566406 420.226562 127.566406 " clip-rule="nonzero"/></clipPath><clipPath id="21afc8d8a4"><rect x="0" width="430" y="0" height="403"/></clipPath><clipPath id="8cc86c38f4"><path d="M 237 222 L 679 222 L 679 637 L 237 637 Z M 237 222 " clip-rule="nonzero"/></clipPath><clipPath id="77b5cff995"><path d="M 663.203125 361.523438 L 536.195312 361.523438 C 532.90625 361.523438 530.234375 358.851562 530.234375 355.566406 L 530.234375 238.089844 L 536.195312 238.089844 L 530.234375 238.089844 C 530.234375 236.109375 528.640625 234.515625 526.660156 234.515625 L 526.660156 228.558594 L 526.660156 234.515625 L 389.933594 234.515625 L 389.933594 228.558594 L 389.933594 234.515625 C 387.953125 234.515625 386.355469 236.109375 386.355469 238.089844 L 380.398438 238.089844 L 386.355469 238.089844 L 386.355469 355.566406 C 386.355469 358.851562 383.6875 361.523438 380.398438 361.523438 L 253.390625 361.523438 L 253.390625 355.566406 L 253.390625 361.523438 C 251.414062 361.523438 249.816406 363.117188 249.816406 365.097656 L 243.859375 365.097656 L 249.816406 365.097656 L 249.816406 496.535156 L 243.859375 496.535156 L 249.816406 496.535156 C 249.816406 498.515625 251.414062 500.109375 253.390625 500.109375 L 253.390625 506.066406 L 253.390625 500.109375 L 380.398438 500.109375 C 383.6875 500.109375 386.355469 502.78125 386.355469 506.066406 L 386.355469 621.160156 L 380.398438 621.160156 L 386.355469 621.160156 C 386.355469 623.140625 387.953125 624.734375 389.933594 624.734375 L 389.933594 630.695312 L 389.933594 624.734375 L 526.6875 624.734375 L 526.6875 630.695312 L 526.6875 624.734375 C 528.664062 624.734375 530.261719 623.140625 530.261719 621.160156 L 536.21875 621.160156 L 530.261719 621.160156 L 530.261719 506.066406 C 530.261719 502.78125 532.929688 500.109375 536.21875 500.109375 L 663.226562 500.109375 L 663.226562 506.066406 L 663.226562 500.109375 C 665.203125 500.109375 666.800781 498.515625 666.800781 496.535156 L 672.757812 496.535156 L 666.800781 496.535156 L 666.800781 365.097656 L 672.757812 365.097656 L 666.800781 365.097656 C 666.800781 363.117188 665.203125 361.523438 663.226562 361.523438 L 663.226562 355.566406 L 663.226562 361.523438 M 663.226562 349.609375 C 671.78125 349.609375 678.714844 356.542969 678.714844 365.097656 L 678.714844 496.535156 C 678.714844 505.089844 671.78125 512.027344 663.226562 512.027344 L 536.21875 512.027344 L 536.21875 506.066406 L 542.175781 506.066406 L 542.175781 621.160156 C 542.175781 629.714844 535.242188 636.652344 526.6875 636.652344 L 389.933594 636.652344 C 381.378906 636.652344 374.441406 629.714844 374.441406 621.160156 L 374.441406 506.066406 L 380.398438 506.066406 L 380.398438 512.027344 L 253.390625 512.027344 C 244.835938 512.027344 237.902344 505.089844 237.902344 496.535156 L 237.902344 365.097656 C 237.902344 356.542969 244.835938 349.609375 253.390625 349.609375 L 380.398438 349.609375 L 380.398438 355.566406 L 374.441406 355.566406 L 374.441406 238.089844 C 374.441406 229.535156 381.378906 222.597656 389.933594 222.597656 L 526.6875 222.597656 C 535.242188 222.597656 542.175781 229.535156 542.175781 238.089844 L 542.175781 355.566406 L 536.21875 355.566406 L 536.21875 349.609375 Z M 663.226562 349.609375 " clip-rule="nonzero"/></clipPath><clipPath id="4904336691"><path d="M 0.839844 0.480469 L 441.71875 0.480469 L 441.71875 414.71875 L 0.839844 414.71875 Z M 0.839844 0.480469 " clip-rule="nonzero"/></clipPath><clipPath id="22b0261e68"><path d="M 426.203125 139.523438 L 299.195312 139.523438 C 295.90625 139.523438 293.234375 136.851562 293.234375 133.566406 L 293.234375 16.089844 L 299.195312 16.089844 L 293.234375 16.089844 C 293.234375 14.109375 291.640625 12.515625 289.660156 12.515625 L 289.660156 6.558594 L 289.660156 12.515625 L 152.933594 12.515625 L 152.933594 6.558594 L 152.933594 12.515625 C 150.953125 12.515625 149.355469 14.109375 149.355469 16.089844 L 143.398438 16.089844 L 149.355469 16.089844 L 149.355469 133.566406 C 149.355469 136.851562 146.6875 139.523438 143.398438 139.523438 L 16.390625 139.523438 L 16.390625 133.566406 L 16.390625 139.523438 C 14.414062 139.523438 12.816406 141.117188 12.816406 143.097656 L 6.859375 143.097656 L 12.816406 143.097656 L 12.816406 274.535156 L 6.859375 274.535156 L 12.816406 274.535156 C 12.816406 276.515625 14.414062 278.109375 16.390625 278.109375 L 16.390625 284.066406 L 16.390625 278.109375 L 143.398438 278.109375 C 146.6875 278.109375 149.355469 280.78125 149.355469 284.066406 L 149.355469 399.160156 L 143.398438 399.160156 L 149.355469 399.160156 C 149.355469 401.140625 150.953125 402.734375 152.933594 402.734375 L 152.933594 408.695312 L 152.933594 402.734375 L 289.6875 402.734375 L 289.6875 408.695312 L 289.6875 402.734375 C 291.664062 402.734375 293.261719 401.140625 293.261719 399.160156 L 299.21875 399.160156 L 293.261719 399.160156 L 293.261719 284.066406 C 293.261719 280.78125 295.929688 278.109375 299.21875 278.109375 L 426.226562 278.109375 L 426.226562 284.066406 L 426.226562 278.109375 C 428.203125 278.109375 429.800781 276.515625 429.800781 274.535156 L 435.757812 274.535156 L 429.800781 274.535156 L 429.800781 143.097656 L 435.757812 143.097656 L 429.800781 143.097656 C 429.800781 141.117188 428.203125 139.523438 426.226562 139.523438 L 426.226562 133.566406 L 426.226562 139.523438 M 426.226562 127.609375 C 434.78125 127.609375 441.714844 134.542969 441.714844 143.097656 L 441.714844 274.535156 C 441.714844 283.089844 434.78125 290.027344 426.226562 290.027344 L 299.21875 290.027344 L 299.21875 284.066406 L 305.175781 284.066406 L 305.175781 399.160156 C 305.175781 407.714844 298.242188 414.652344 289.6875 414.652344 L 152.933594 414.652344 C 144.378906 414.652344 137.441406 407.714844 137.441406 399.160156 L 137.441406 284.066406 L 143.398438 284.066406 L 143.398438 290.027344 L 16.390625 290.027344 C 7.835938 290.027344 0.902344 283.089844 0.902344 274.535156 L 0.902344 143.097656 C 0.902344 134.542969 7.835938 127.609375 16.390625 127.609375 L 143.398438 127.609375 L 143.398438 133.566406 L 137.441406 133.566406 L 137.441406 16.089844 C 137.441406 7.535156 144.378906 0.597656 152.933594 0.597656 L 289.6875 0.597656 C 298.242188 0.597656 305.175781 7.535156 305.175781 16.089844 L 305.175781 133.566406 L 299.21875 133.566406 L 299.21875 127.609375 Z M 426.226562 127.609375 " clip-rule="nonzero"/></clipPath><clipPath id="1a368507a1"><rect x="0" width="442" y="0" height="415"/></clipPath></defs><g clip-path="url(#283abf4795)"><g clip-path="url(#6e95eb7df1)"><g transform="matrix(1, 0, 0, 1, 243, 228)"><g clip-path="url(#21afc8d8a4)"><g clip-path="url(#43b437f280)"><g clip-path="url(#a5dfdebf37)"><rect x="-441" width="1296" fill="#4285f4" height="1166.399991" y="-406.199999" fill-opacity="1"/></g></g></g></g></g></g><g clip-path="url(#8cc86c38f4)"><g clip-path="url(#77b5cff995)"><g transform="matrix(1, 0, 0, 1, 237, 222)"><g clip-path="url(#1a368507a1)"><g clip-path="url(#4904336691)"><g clip-path="url(#22b0261e68)"><rect x="-435" width="1296" fill="#1e1e1e" height="1166.399991" y="-400.199999" fill-opacity="1"/></g></g></g></g></g></g></svg>