<?xml version="1.0" standalone="no"?>
<!DOCTYPE svg PUBLIC "-//W3C//DTD SVG 1.1//EN" "http://www.w3.org/Graphics/SVG/1.1/DTD/svg11.dtd">
<svg xmlns="http://www.w3.org/2000/svg" xmlns:xlink="http://www.w3.org/1999/xlink" width="900" zoomAndPan="magnify" viewBox="0 0 900 809.999994" height="810" preserveAspectRatio="xMidYMid meet" version="1.0"><defs><clipPath id="e6ae3b8b23"><path d="M 213 167 L 742 167 L 742 688 L 213 688 Z M 213 167 " clip-rule="nonzero"/></clipPath><clipPath id="b5b88069ec"><path d="M 514.949219 464.773438 L 440.496094 464.773438 L 440.496094 390.324219 L 514.949219 390.324219 Z M 741.929688 381.519531 L 741.929688 250.625 C 741.929688 245.761719 737.992188 241.820312 733.125 241.820312 L 663.472656 241.820312 L 663.472656 176.308594 C 663.472656 171.441406 659.535156 167.5 654.667969 167.5 L 523.753906 167.5 C 518.886719 167.5 514.949219 171.441406 514.949219 176.308594 L 514.949219 241.820312 L 440.496094 241.820312 L 440.496094 176.308594 C 440.496094 171.441406 436.554688 167.5 431.691406 167.5 L 300.777344 167.5 C 295.910156 167.5 291.96875 171.441406 291.96875 176.308594 L 291.96875 241.820312 L 222.320312 241.820312 C 217.453125 241.820312 213.511719 245.761719 213.511719 250.625 L 213.511719 381.519531 C 213.511719 386.382812 217.453125 390.324219 222.320312 390.324219 L 291.96875 390.324219 L 291.96875 464.773438 L 222.320312 464.773438 C 217.453125 464.773438 213.511719 468.714844 213.511719 473.582031 L 213.511719 604.472656 C 213.511719 609.339844 217.453125 613.28125 222.320312 613.28125 L 291.96875 613.28125 L 291.96875 678.792969 C 291.96875 683.65625 295.910156 687.597656 300.777344 687.597656 L 431.667969 687.597656 C 436.535156 687.597656 440.476562 683.65625 440.476562 678.792969 L 440.476562 613.300781 L 514.925781 613.300781 L 514.925781 678.8125 C 514.925781 683.679688 518.867188 687.621094 523.730469 687.621094 L 654.667969 687.621094 C 659.535156 687.621094 663.472656 683.679688 663.472656 678.8125 L 663.472656 613.300781 L 733.148438 613.300781 C 738.011719 613.300781 741.953125 609.359375 741.953125 604.496094 L 741.953125 473.582031 C 741.953125 468.714844 738.011719 464.773438 733.148438 464.773438 L 663.472656 464.773438 L 663.472656 390.324219 L 733.148438 390.324219 C 738.011719 390.324219 741.953125 386.382812 741.953125 381.519531 " clip-rule="nonzero"/></clipPath><clipPath id="b4be47e301"><path d="M 0.359375 0.28125 L 529 0.28125 L 529 520.839844 L 0.359375 520.839844 Z M 0.359375 0.28125 " clip-rule="nonzero"/></clipPath><clipPath id="e7180092b1"><path d="M 301.949219 297.773438 L 227.496094 297.773438 L 227.496094 223.324219 L 301.949219 223.324219 Z M 528.929688 214.519531 L 528.929688 83.625 C 528.929688 78.761719 524.992188 74.820312 520.125 74.820312 L 450.472656 74.820312 L 450.472656 9.308594 C 450.472656 4.441406 446.535156 0.5 441.667969 0.5 L 310.753906 0.5 C 305.886719 0.5 301.949219 4.441406 301.949219 9.308594 L 301.949219 74.820312 L 227.496094 74.820312 L 227.496094 9.308594 C 227.496094 4.441406 223.554688 0.5 218.691406 0.5 L 87.777344 0.5 C 82.910156 0.5 78.96875 4.441406 78.96875 9.308594 L 78.96875 74.820312 L 9.320312 74.820312 C 4.453125 74.820312 0.511719 78.761719 0.511719 83.625 L 0.511719 214.519531 C 0.511719 219.382812 4.453125 223.324219 9.320312 223.324219 L 78.96875 223.324219 L 78.96875 297.773438 L 9.320312 297.773438 C 4.453125 297.773438 0.511719 301.714844 0.511719 306.582031 L 0.511719 437.472656 C 0.511719 442.339844 4.453125 446.28125 9.320312 446.28125 L 78.96875 446.28125 L 78.96875 511.792969 C 78.96875 516.65625 82.910156 520.597656 87.777344 520.597656 L 218.667969 520.597656 C 223.535156 520.597656 227.476562 516.65625 227.476562 511.792969 L 227.476562 446.300781 L 301.925781 446.300781 L 301.925781 511.8125 C 301.925781 516.679688 305.867188 520.621094 310.730469 520.621094 L 441.667969 520.621094 C 446.535156 520.621094 450.472656 516.679688 450.472656 511.8125 L 450.472656 446.300781 L 520.148438 446.300781 C 525.011719 446.300781 528.953125 442.359375 528.953125 437.496094 L 528.953125 306.582031 C 528.953125 301.714844 525.011719 297.773438 520.148438 297.773438 L 450.472656 297.773438 L 450.472656 223.324219 L 520.148438 223.324219 C 525.011719 223.324219 528.953125 219.382812 528.953125 214.519531 " clip-rule="nonzero"/></clipPath><clipPath id="2c11628150"><rect x="0" width="529" y="0" height="521"/></clipPath><clipPath id="46e0b5f8aa"><path d="M 208 162 L 747.964844 162 L 747.964844 693.3125 L 208 693.3125 Z M 208 162 " clip-rule="nonzero"/></clipPath><clipPath id="2ea5e4a348"><path d="M 514.949219 470.277344 L 440.496094 470.277344 C 437.457031 470.277344 434.992188 467.8125 434.992188 464.773438 L 434.992188 390.324219 C 434.992188 387.285156 437.457031 384.820312 440.496094 384.820312 L 514.949219 384.820312 C 517.984375 384.820312 520.449219 387.285156 520.449219 390.324219 L 520.449219 464.773438 C 520.449219 467.8125 517.984375 470.277344 514.949219 470.277344 M 514.949219 459.273438 L 514.949219 464.773438 L 509.445312 464.773438 L 509.445312 390.324219 L 514.949219 390.324219 L 514.949219 395.828125 L 440.496094 395.828125 L 440.496094 390.324219 L 446 390.324219 L 446 464.773438 L 440.496094 464.773438 L 440.496094 459.273438 Z M 736.425781 381.519531 L 736.425781 250.625 L 741.929688 250.625 L 736.425781 250.625 C 736.425781 248.796875 734.953125 247.324219 733.125 247.324219 L 733.125 241.820312 L 733.125 247.324219 L 663.472656 247.324219 C 660.4375 247.324219 657.96875 244.859375 657.96875 241.820312 L 657.96875 176.308594 L 663.472656 176.308594 L 657.96875 176.308594 C 657.96875 174.480469 656.496094 173.003906 654.667969 173.003906 L 654.667969 167.5 L 654.667969 173.003906 L 523.753906 173.003906 L 523.753906 167.5 L 523.753906 173.003906 C 521.925781 173.003906 520.449219 174.480469 520.449219 176.308594 L 514.949219 176.308594 L 520.449219 176.308594 L 520.449219 241.820312 C 520.449219 244.859375 517.984375 247.324219 514.949219 247.324219 L 440.496094 247.324219 C 437.457031 247.324219 434.992188 244.859375 434.992188 241.820312 L 434.992188 176.308594 L 440.496094 176.308594 L 434.992188 176.308594 C 434.992188 174.480469 433.519531 173.003906 431.691406 173.003906 L 431.691406 167.5 L 431.691406 173.003906 L 300.777344 173.003906 L 300.777344 167.5 L 300.777344 173.003906 C 298.949219 173.003906 297.472656 174.480469 297.472656 176.308594 L 291.96875 176.308594 L 297.472656 176.308594 L 297.472656 241.820312 C 297.472656 244.859375 295.007812 247.324219 291.96875 247.324219 L 222.320312 247.324219 L 222.320312 241.820312 L 222.320312 247.324219 C 220.492188 247.324219 219.015625 248.796875 219.015625 250.625 L 213.511719 250.625 L 219.015625 250.625 L 219.015625 381.519531 L 213.511719 381.519531 L 219.015625 381.519531 C 219.015625 383.347656 220.492188 384.820312 222.320312 384.820312 L 222.320312 390.324219 L 222.320312 384.820312 L 291.96875 384.820312 C 295.007812 384.820312 297.472656 387.285156 297.472656 390.324219 L 297.472656 464.773438 C 297.472656 467.8125 295.007812 470.277344 291.96875 470.277344 L 222.320312 470.277344 L 222.320312 464.773438 L 222.320312 470.277344 C 220.492188 470.277344 219.015625 471.753906 219.015625 473.582031 L 213.511719 473.582031 L 219.015625 473.582031 L 219.015625 604.472656 L 213.511719 604.472656 L 219.015625 604.472656 C 219.015625 606.300781 220.492188 607.777344 222.320312 607.777344 L 222.320312 613.28125 L 222.320312 607.777344 L 291.96875 607.777344 C 295.007812 607.777344 297.472656 610.242188 297.472656 613.28125 L 297.472656 678.792969 L 291.96875 678.792969 L 297.472656 678.792969 C 297.472656 680.621094 298.949219 682.09375 300.777344 682.09375 L 300.777344 687.597656 L 300.777344 682.09375 L 431.667969 682.09375 L 431.667969 687.597656 L 431.667969 682.09375 C 433.496094 682.09375 434.972656 680.621094 434.972656 678.792969 L 440.476562 678.792969 L 434.972656 678.792969 L 434.972656 613.300781 C 434.972656 610.265625 437.4375 607.796875 440.476562 607.796875 L 514.925781 607.796875 C 517.964844 607.796875 520.429688 610.265625 520.429688 613.300781 L 520.429688 678.8125 L 514.925781 678.8125 L 520.429688 678.8125 C 520.429688 680.640625 521.902344 682.117188 523.730469 682.117188 L 523.730469 687.621094 L 523.730469 682.117188 L 654.667969 682.117188 L 654.667969 687.621094 L 654.667969 682.117188 C 656.496094 682.117188 657.96875 680.640625 657.96875 678.8125 L 663.472656 678.8125 L 657.96875 678.8125 L 657.96875 613.300781 C 657.96875 610.265625 660.4375 607.796875 663.472656 607.796875 L 733.148438 607.796875 L 733.148438 613.300781 L 733.148438 607.796875 C 734.972656 607.796875 736.449219 606.324219 736.449219 604.496094 L 741.953125 604.496094 L 736.449219 604.496094 L 736.449219 473.582031 L 741.953125 473.582031 L 736.449219 473.582031 C 736.449219 471.753906 734.972656 470.277344 733.148438 470.277344 L 733.148438 464.773438 L 733.148438 470.277344 L 663.472656 470.277344 C 660.4375 470.277344 657.96875 467.8125 657.96875 464.773438 L 657.96875 390.324219 C 657.96875 387.285156 660.4375 384.820312 663.472656 384.820312 L 733.148438 384.820312 L 733.148438 390.324219 L 733.148438 384.820312 C 734.972656 384.820312 736.449219 383.347656 736.449219 381.519531 L 741.953125 381.519531 L 736.449219 381.519531 M 747.457031 381.519531 C 747.457031 389.421875 741.050781 395.828125 733.148438 395.828125 L 663.472656 395.828125 L 663.472656 390.324219 L 668.976562 390.324219 L 668.976562 464.773438 L 663.472656 464.773438 L 663.472656 459.273438 L 733.148438 459.273438 C 741.050781 459.273438 747.457031 465.675781 747.457031 473.582031 L 747.457031 604.472656 C 747.457031 612.378906 741.050781 618.78125 733.148438 618.78125 L 663.472656 618.78125 L 663.472656 613.28125 L 668.976562 613.28125 L 668.976562 678.792969 C 668.976562 686.695312 662.570312 693.101562 654.667969 693.101562 L 523.753906 693.101562 C 515.851562 693.101562 509.445312 686.695312 509.445312 678.792969 L 509.445312 613.300781 L 514.949219 613.300781 L 514.949219 618.804688 L 440.496094 618.804688 L 440.496094 613.300781 L 446 613.300781 L 446 678.8125 C 446 686.71875 439.59375 693.125 431.691406 693.125 L 300.777344 693.125 C 292.871094 693.125 286.464844 686.71875 286.464844 678.8125 L 286.464844 613.300781 L 291.96875 613.300781 L 291.96875 618.804688 L 222.320312 618.804688 C 214.414062 618.804688 208.011719 612.398438 208.011719 604.496094 L 208.011719 473.582031 C 208.011719 465.675781 214.414062 459.273438 222.320312 459.273438 L 291.96875 459.273438 L 291.96875 464.773438 L 286.464844 464.773438 L 286.464844 390.324219 L 291.96875 390.324219 L 291.96875 395.828125 L 222.320312 395.828125 C 214.414062 395.828125 208.011719 389.421875 208.011719 381.519531 L 208.011719 250.625 C 208.011719 242.722656 214.414062 236.316406 222.320312 236.316406 L 291.96875 236.316406 L 291.96875 241.820312 L 286.464844 241.820312 L 286.464844 176.308594 C 286.464844 168.402344 292.871094 162 300.777344 162 L 431.667969 162 C 439.570312 162 445.976562 168.402344 445.976562 176.308594 L 445.976562 241.820312 L 440.476562 241.820312 L 440.476562 236.316406 L 514.925781 236.316406 L 514.925781 241.820312 L 509.421875 241.820312 L 509.421875 176.308594 C 509.421875 168.402344 515.828125 162 523.730469 162 L 654.667969 162 C 662.570312 162 668.976562 168.402344 668.976562 176.308594 L 668.976562 241.820312 L 663.472656 241.820312 L 663.472656 236.316406 L 733.148438 236.316406 C 741.050781 236.316406 747.457031 242.722656 747.457031 250.625 Z M 747.457031 381.519531 " clip-rule="nonzero"/></clipPath><clipPath id="baf92e58d0"><path d="M 0 0 L 539.601562 0 L 539.601562 531.3125 L 0 531.3125 Z M 0 0 " clip-rule="nonzero"/></clipPath><clipPath id="ef7369821f"><path d="M 306.949219 308.277344 L 232.496094 308.277344 C 229.457031 308.277344 226.992188 305.8125 226.992188 302.773438 L 226.992188 228.324219 C 226.992188 225.285156 229.457031 222.820312 232.496094 222.820312 L 306.949219 222.820312 C 309.984375 222.820312 312.449219 225.285156 312.449219 228.324219 L 312.449219 302.773438 C 312.449219 305.8125 309.984375 308.277344 306.949219 308.277344 M 306.949219 297.273438 L 306.949219 302.773438 L 301.445312 302.773438 L 301.445312 228.324219 L 306.949219 228.324219 L 306.949219 233.828125 L 232.496094 233.828125 L 232.496094 228.324219 L 238 228.324219 L 238 302.773438 L 232.496094 302.773438 L 232.496094 297.273438 Z M 528.425781 219.519531 L 528.425781 88.625 L 533.929688 88.625 L 528.425781 88.625 C 528.425781 86.796875 526.953125 85.324219 525.125 85.324219 L 525.125 79.820312 L 525.125 85.324219 L 455.472656 85.324219 C 452.4375 85.324219 449.96875 82.859375 449.96875 79.820312 L 449.96875 14.308594 L 455.472656 14.308594 L 449.96875 14.308594 C 449.96875 12.480469 448.496094 11.003906 446.667969 11.003906 L 446.667969 5.5 L 446.667969 11.003906 L 315.753906 11.003906 L 315.753906 5.5 L 315.753906 11.003906 C 313.925781 11.003906 312.449219 12.480469 312.449219 14.308594 L 306.949219 14.308594 L 312.449219 14.308594 L 312.449219 79.820312 C 312.449219 82.859375 309.984375 85.324219 306.949219 85.324219 L 232.496094 85.324219 C 229.457031 85.324219 226.992188 82.859375 226.992188 79.820312 L 226.992188 14.308594 L 232.496094 14.308594 L 226.992188 14.308594 C 226.992188 12.480469 225.519531 11.003906 223.691406 11.003906 L 223.691406 5.5 L 223.691406 11.003906 L 92.777344 11.003906 L 92.777344 5.5 L 92.777344 11.003906 C 90.949219 11.003906 89.472656 12.480469 89.472656 14.308594 L 83.96875 14.308594 L 89.472656 14.308594 L 89.472656 79.820312 C 89.472656 82.859375 87.007812 85.324219 83.96875 85.324219 L 14.320312 85.324219 L 14.320312 79.820312 L 14.320312 85.324219 C 12.492188 85.324219 11.015625 86.796875 11.015625 88.625 L 5.511719 88.625 L 11.015625 88.625 L 11.015625 219.519531 L 5.511719 219.519531 L 11.015625 219.519531 C 11.015625 221.347656 12.492188 222.820312 14.320312 222.820312 L 14.320312 228.324219 L 14.320312 222.820312 L 83.96875 222.820312 C 87.007812 222.820312 89.472656 225.285156 89.472656 228.324219 L 89.472656 302.773438 C 89.472656 305.8125 87.007812 308.277344 83.96875 308.277344 L 14.320312 308.277344 L 14.320312 302.773438 L 14.320312 308.277344 C 12.492188 308.277344 11.015625 309.753906 11.015625 311.582031 L 5.511719 311.582031 L 11.015625 311.582031 L 11.015625 442.472656 L 5.511719 442.472656 L 11.015625 442.472656 C 11.015625 444.300781 12.492188 445.777344 14.320312 445.777344 L 14.320312 451.28125 L 14.320312 445.777344 L 83.96875 445.777344 C 87.007812 445.777344 89.472656 448.242188 89.472656 451.28125 L 89.472656 516.792969 L 83.96875 516.792969 L 89.472656 516.792969 C 89.472656 518.621094 90.949219 520.09375 92.777344 520.09375 L 92.777344 525.597656 L 92.777344 520.09375 L 223.667969 520.09375 L 223.667969 525.597656 L 223.667969 520.09375 C 225.496094 520.09375 226.972656 518.621094 226.972656 516.792969 L 232.476562 516.792969 L 226.972656 516.792969 L 226.972656 451.300781 C 226.972656 448.265625 229.4375 445.796875 232.476562 445.796875 L 306.925781 445.796875 C 309.964844 445.796875 312.429688 448.265625 312.429688 451.300781 L 312.429688 516.8125 L 306.925781 516.8125 L 312.429688 516.8125 C 312.429688 518.640625 313.902344 520.117188 315.730469 520.117188 L 315.730469 525.621094 L 315.730469 520.117188 L 446.667969 520.117188 L 446.667969 525.621094 L 446.667969 520.117188 C 448.496094 520.117188 449.96875 518.640625 449.96875 516.8125 L 455.472656 516.8125 L 449.96875 516.8125 L 449.96875 451.300781 C 449.96875 448.265625 452.4375 445.796875 455.472656 445.796875 L 525.148438 445.796875 L 525.148438 451.300781 L 525.148438 445.796875 C 526.972656 445.796875 528.449219 444.324219 528.449219 442.496094 L 533.953125 442.496094 L 528.449219 442.496094 L 528.449219 311.582031 L 533.953125 311.582031 L 528.449219 311.582031 C 528.449219 309.753906 526.972656 308.277344 525.148438 308.277344 L 525.148438 302.773438 L 525.148438 308.277344 L 455.472656 308.277344 C 452.4375 308.277344 449.96875 305.8125 449.96875 302.773438 L 449.96875 228.324219 C 449.96875 225.285156 452.4375 222.820312 455.472656 222.820312 L 525.148438 222.820312 L 525.148438 228.324219 L 525.148438 222.820312 C 526.972656 222.820312 528.449219 221.347656 528.449219 219.519531 L 533.953125 219.519531 L 528.449219 219.519531 M 539.457031 219.519531 C 539.457031 227.421875 533.050781 233.828125 525.148438 233.828125 L 455.472656 233.828125 L 455.472656 228.324219 L 460.976562 228.324219 L 460.976562 302.773438 L 455.472656 302.773438 L 455.472656 297.273438 L 525.148438 297.273438 C 533.050781 297.273438 539.457031 303.675781 539.457031 311.582031 L 539.457031 442.472656 C 539.457031 450.378906 533.050781 456.78125 525.148438 456.78125 L 455.472656 456.78125 L 455.472656 451.28125 L 460.976562 451.28125 L 460.976562 516.792969 C 460.976562 524.695312 454.570312 531.101562 446.667969 531.101562 L 315.753906 531.101562 C 307.851562 531.101562 301.445312 524.695312 301.445312 516.792969 L 301.445312 451.300781 L 306.949219 451.300781 L 306.949219 456.804688 L 232.496094 456.804688 L 232.496094 451.300781 L 238 451.300781 L 238 516.8125 C 238 524.71875 231.59375 531.125 223.691406 531.125 L 92.777344 531.125 C 84.871094 531.125 78.464844 524.71875 78.464844 516.8125 L 78.464844 451.300781 L 83.96875 451.300781 L 83.96875 456.804688 L 14.320312 456.804688 C 6.414062 456.804688 0.0117188 450.398438 0.0117188 442.496094 L 0.0117188 311.582031 C 0.0117188 303.675781 6.414062 297.273438 14.320312 297.273438 L 83.96875 297.273438 L 83.96875 302.773438 L 78.464844 302.773438 L 78.464844 228.324219 L 83.96875 228.324219 L 83.96875 233.828125 L 14.320312 233.828125 C 6.414062 233.828125 0.0117188 227.421875 0.0117188 219.519531 L 0.0117188 88.625 C 0.0117188 80.722656 6.414062 74.316406 14.320312 74.316406 L 83.96875 74.316406 L 83.96875 79.820312 L 78.464844 79.820312 L 78.464844 14.308594 C 78.464844 6.402344 84.871094 0 92.777344 0 L 223.667969 0 C 231.570312 0 237.976562 6.402344 237.976562 14.308594 L 237.976562 79.820312 L 232.476562 79.820312 L 232.476562 74.316406 L 306.925781 74.316406 L 306.925781 79.820312 L 301.421875 79.820312 L 301.421875 14.308594 C 301.421875 6.402344 307.828125 0 315.730469 0 L 446.667969 0 C 454.570312 0 460.976562 6.402344 460.976562 14.308594 L 460.976562 79.820312 L 455.472656 79.820312 L 455.472656 74.316406 L 525.148438 74.316406 C 533.050781 74.316406 539.457031 80.722656 539.457031 88.625 Z M 539.457031 219.519531 " clip-rule="nonzero"/></clipPath><clipPath id="63bf48920f"><rect x="0" width="540" y="0" height="532"/></clipPath></defs><g clip-path="url(#e6ae3b8b23)"><g clip-path="url(#b5b88069ec)"><g transform="matrix(1, 0, 0, 1, 213, 167)"><g clip-path="url(#2c11628150)"><g clip-path="url(#b4be47e301)"><g clip-path="url(#e7180092b1)"><rect x="-411" width="1296" fill="#34a853" height="1166.399991" y="-345.199999" fill-opacity="1"/></g></g></g></g></g></g><g clip-path="url(#46e0b5f8aa)"><g clip-path="url(#2ea5e4a348)"><g transform="matrix(1, 0, 0, 1, 208, 162)"><g clip-path="url(#63bf48920f)"><g clip-path="url(#baf92e58d0)"><g clip-path="url(#ef7369821f)"><rect x="-406" width="1296" fill="#1e1e1e" height="1166.399991" y="-340.199999" fill-opacity="1"/></g></g></g></g></g></g></svg>