<?xml version="1.0" standalone="no"?>
<!DOCTYPE svg PUBLIC "-//W3C//DTD SVG 1.1//EN" "http://www.w3.org/Graphics/SVG/1.1/DTD/svg11.dtd">
<svg xmlns="http://www.w3.org/2000/svg" xmlns:xlink="http://www.w3.org/1999/xlink" width="900" zoomAndPan="magnify" viewBox="0 0 900 809.999994" height="810" preserveAspectRatio="xMidYMid meet" version="1.0"><defs><clipPath id="f8b74df98e"><path d="M 22.007812 21.195312 L 277.878906 21.195312 L 277.878906 277 L 22.007812 277 Z M 22.007812 21.195312 " clip-rule="nonzero"/></clipPath><clipPath id="e5b25542b2"><path d="M 149.949219 276.757812 C 79.460938 276.757812 22.304688 219.628906 22.304688 149.140625 C 22.304688 78.648438 79.460938 21.492188 149.949219 21.492188 C 220.441406 21.492188 277.570312 78.648438 277.570312 149.140625 C 277.570312 219.628906 220.441406 276.757812 149.949219 276.757812 " clip-rule="nonzero"/></clipPath><clipPath id="6283f952b2"><path d="M 0.199219 0.359375 L 255.800781 0.359375 L 255.800781 255.960938 L 0.199219 255.960938 Z M 0.199219 0.359375 " clip-rule="nonzero"/></clipPath><clipPath id="2f10ca6df5"><path d="M 127.949219 255.757812 C 57.460938 255.757812 0.304688 198.628906 0.304688 128.140625 C 0.304688 57.648438 57.460938 0.492188 127.949219 0.492188 C 198.441406 0.492188 255.570312 57.648438 255.570312 128.140625 C 255.570312 198.628906 198.441406 255.757812 127.949219 255.757812 " clip-rule="nonzero"/></clipPath><clipPath id="3ad73d365e"><rect x="0" width="256" y="0" height="256"/></clipPath><clipPath id="f7110d6af3"><path d="M 15.027344 14.21875 L 284.855469 14.21875 L 284.855469 284 L 15.027344 284 Z M 15.027344 14.21875 " clip-rule="nonzero"/></clipPath><clipPath id="7d932272a6"><path d="M 149.949219 283.835938 C 75.554688 283.835938 15.226562 223.535156 15.226562 149.140625 L 22.304688 149.140625 L 15.226562 149.140625 C 15.226562 74.742188 75.554688 14.414062 149.949219 14.414062 L 149.949219 21.492188 L 149.949219 14.414062 C 224.347656 14.414062 284.675781 74.742188 284.675781 149.140625 L 277.597656 149.140625 L 284.675781 149.140625 C 284.675781 223.535156 224.347656 283.863281 149.949219 283.863281 L 149.949219 276.785156 L 149.949219 283.863281 M 149.949219 269.710938 C 216.535156 269.710938 270.519531 215.722656 270.519531 149.140625 C 270.519531 82.554688 216.535156 28.570312 149.949219 28.570312 C 83.367188 28.570312 29.382812 82.554688 29.382812 149.140625 C 29.382812 215.722656 83.367188 269.679688 149.949219 269.679688 Z M 149.949219 269.710938 " clip-rule="nonzero"/></clipPath><clipPath id="6e86a85b8e"><path d="M 0.0273438 0.398438 L 269.761719 0.398438 L 269.761719 269.921875 L 0.0273438 269.921875 Z M 0.0273438 0.398438 " clip-rule="nonzero"/></clipPath><clipPath id="28c4929d55"><path d="M 134.949219 269.835938 C 60.554688 269.835938 0.226562 209.535156 0.226562 135.140625 L 7.304688 135.140625 L 0.226562 135.140625 C 0.226562 60.742188 60.554688 0.414062 134.949219 0.414062 L 134.949219 7.492188 L 134.949219 0.414062 C 209.347656 0.414062 269.675781 60.742188 269.675781 135.140625 L 262.597656 135.140625 L 269.675781 135.140625 C 269.675781 209.535156 209.347656 269.863281 134.949219 269.863281 L 134.949219 262.785156 L 134.949219 269.863281 M 134.949219 255.710938 C 201.535156 255.710938 255.519531 201.722656 255.519531 135.140625 C 255.519531 68.554688 201.535156 14.570312 134.949219 14.570312 C 68.367188 14.570312 14.382812 68.554688 14.382812 135.140625 C 14.382812 201.722656 68.367188 255.679688 134.949219 255.679688 Z M 134.949219 255.710938 " clip-rule="nonzero"/></clipPath><clipPath id="03f106144f"><rect x="0" width="270" y="0" height="270"/></clipPath><clipPath id="63861ff93a"><path d="M 22.007812 339.179688 L 277.878906 339.179688 L 277.878906 595 L 22.007812 595 Z M 22.007812 339.179688 " clip-rule="nonzero"/></clipPath><clipPath id="4bafdfbec1"><path d="M 149.949219 594.742188 C 79.460938 594.742188 22.304688 537.613281 22.304688 467.125 C 22.304688 396.632812 79.460938 339.476562 149.949219 339.476562 C 220.441406 339.476562 277.570312 396.632812 277.570312 467.125 C 277.570312 537.613281 220.441406 594.742188 149.949219 594.742188 " clip-rule="nonzero"/></clipPath><clipPath id="e4c40bcf0f"><path d="M 0.199219 0.359375 L 255.800781 0.359375 L 255.800781 255.960938 L 0.199219 255.960938 Z M 0.199219 0.359375 " clip-rule="nonzero"/></clipPath><clipPath id="cd16829544"><path d="M 127.949219 255.742188 C 57.460938 255.742188 0.304688 198.613281 0.304688 128.125 C 0.304688 57.632812 57.460938 0.476562 127.949219 0.476562 C 198.441406 0.476562 255.570312 57.632812 255.570312 128.125 C 255.570312 198.613281 198.441406 255.742188 127.949219 255.742188 " clip-rule="nonzero"/></clipPath><clipPath id="e83ac2b4c8"><rect x="0" width="256" y="0" height="256"/></clipPath><clipPath id="78a70e7386"><path d="M 15.027344 332.203125 L 284.855469 332.203125 L 284.855469 602 L 15.027344 602 Z M 15.027344 332.203125 " clip-rule="nonzero"/></clipPath><clipPath id="e884e9de6b"><path d="M 149.949219 601.820312 C 75.554688 601.820312 15.226562 541.523438 15.226562 467.125 L 22.304688 467.125 L 15.226562 467.125 C 15.226562 392.726562 75.554688 332.402344 149.949219 332.402344 L 149.949219 339.476562 L 149.949219 332.402344 C 224.347656 332.402344 284.675781 392.726562 284.675781 467.125 L 277.597656 467.125 L 284.675781 467.125 C 284.675781 541.523438 224.347656 601.847656 149.949219 601.847656 L 149.949219 594.769531 L 149.949219 601.847656 M 149.949219 587.695312 C 216.535156 587.695312 270.519531 533.707031 270.519531 467.125 C 270.519531 400.542969 216.535156 346.554688 149.949219 346.554688 C 83.367188 346.554688 29.382812 400.542969 29.382812 467.125 C 29.382812 533.707031 83.367188 587.664062 149.949219 587.664062 Z M 149.949219 587.695312 " clip-rule="nonzero"/></clipPath><clipPath id="3ddfadc34e"><path d="M 0.0273438 0.398438 L 269.761719 0.398438 L 269.761719 269.921875 L 0.0273438 269.921875 Z M 0.0273438 0.398438 " clip-rule="nonzero"/></clipPath><clipPath id="2ebbd684e7"><path d="M 134.949219 269.820312 C 60.554688 269.820312 0.226562 209.523438 0.226562 135.125 L 7.304688 135.125 L 0.226562 135.125 C 0.226562 60.726562 60.554688 0.402344 134.949219 0.402344 L 134.949219 7.476562 L 134.949219 0.402344 C 209.347656 0.402344 269.675781 60.726562 269.675781 135.125 L 262.597656 135.125 L 269.675781 135.125 C 269.675781 209.523438 209.347656 269.847656 134.949219 269.847656 L 134.949219 262.769531 L 134.949219 269.847656 M 134.949219 255.695312 C 201.535156 255.695312 255.519531 201.707031 255.519531 135.125 C 255.519531 68.542969 201.535156 14.554688 134.949219 14.554688 C 68.367188 14.554688 14.382812 68.542969 14.382812 135.125 C 14.382812 201.707031 68.367188 255.664062 134.949219 255.664062 Z M 134.949219 255.695312 " clip-rule="nonzero"/></clipPath><clipPath id="1aca233d1b"><rect x="0" width="270" y="0" height="270"/></clipPath><clipPath id="7ab8c9ea22"><rect x="0" width="299" y="0" height="617"/></clipPath></defs><g transform="matrix(1, 0, 0, 1, 327, 132)"><g clip-path="url(#7ab8c9ea22)"><g clip-path="url(#f8b74df98e)"><g clip-path="url(#e5b25542b2)"><g transform="matrix(1, 0, 0, 1, 22, 21)"><g clip-path="url(#3ad73d365e)"><g clip-path="url(#6283f952b2)"><g clip-path="url(#2f10ca6df5)"><rect x="-676.6" width="1555.2" fill="#4285f4" y="-447.839998" height="1399.67999" fill-opacity="1"/></g></g></g></g></g></g><g clip-path="url(#f7110d6af3)"><g clip-path="url(#7d932272a6)"><g transform="matrix(1, 0, 0, 1, 15, 14)"><g clip-path="url(#03f106144f)"><g clip-path="url(#6e86a85b8e)"><g clip-path="url(#28c4929d55)"><rect x="-669.6" width="1555.2" fill="#1e1e1e" y="-440.839998" height="1399.67999" fill-opacity="1"/></g></g></g></g></g></g><g clip-path="url(#63861ff93a)"><g clip-path="url(#4bafdfbec1)"><g transform="matrix(1, 0, 0, 1, 22, 339)"><g clip-path="url(#e83ac2b4c8)"><g clip-path="url(#e4c40bcf0f)"><g clip-path="url(#cd16829544)"><rect x="-676.6" width="1555.2" fill="#4285f4" y="-765.839998" height="1399.67999" fill-opacity="1"/></g></g></g></g></g></g><g clip-path="url(#78a70e7386)"><g clip-path="url(#e884e9de6b)"><g transform="matrix(1, 0, 0, 1, 15, 332)"><g clip-path="url(#1aca233d1b)"><g clip-path="url(#3ddfadc34e)"><g clip-path="url(#2ebbd684e7)"><rect x="-669.6" width="1555.2" fill="#1e1e1e" y="-758.839998" height="1399.67999" fill-opacity="1"/></g></g></g></g></g></g></g></g></svg>