<?xml version="1.0" standalone="no"?>
<!DOCTYPE svg PUBLIC "-//W3C//DTD SVG 1.1//EN" "http://www.w3.org/Graphics/SVG/1.1/DTD/svg11.dtd">
<svg xmlns="http://www.w3.org/2000/svg" xmlns:xlink="http://www.w3.org/1999/xlink" width="900" zoomAndPan="magnify" viewBox="0 0 900 809.999994" height="810" preserveAspectRatio="xMidYMid meet" version="1.0"><defs><clipPath id="8913cdc1e6"><path d="M 68 80.011719 L 867 80.011719 L 867 569.3125 L 68 569.3125 Z M 68 80.011719 " clip-rule="nonzero"/></clipPath><clipPath id="4e9c5e7ab7"><path d="M 859.523438 308.007812 L 634.386719 83.015625 C 630.832031 79.464844 625.054688 79.464844 621.503906 83.015625 L 531.195312 173.324219 C 527.644531 176.875 527.644531 182.652344 531.195312 186.207031 L 596.171875 251.179688 L 68.59375 251.179688 L 68.59375 397.105469 L 596.242188 397.105469 L 530.011719 463.339844 C 526.457031 466.890625 526.457031 472.667969 530.011719 476.222656 L 624.621094 566.527344 C 628.175781 570.082031 633.949219 570.082031 637.503906 566.527344 L 859.476562 340.304688 C 860.613281 339.167969 861.578125 337.957031 862.425781 336.675781 C 868.273438 327.832031 867.308594 315.816406 859.523438 308.035156 " clip-rule="nonzero"/></clipPath><clipPath id="e753640a9d"><path d="M 0.398438 0.0117188 L 799 0.0117188 L 799 489.3125 L 0.398438 489.3125 Z M 0.398438 0.0117188 " clip-rule="nonzero"/></clipPath><clipPath id="1b60d6be93"><path d="M 791.523438 228.007812 L 566.386719 3.015625 C 562.832031 -0.535156 557.054688 -0.535156 553.503906 3.015625 L 463.195312 93.324219 C 459.644531 96.875 459.644531 102.652344 463.195312 106.207031 L 528.171875 171.179688 L 0.59375 171.179688 L 0.59375 317.105469 L 528.242188 317.105469 L 462.011719 383.339844 C 458.457031 386.890625 458.457031 392.667969 462.011719 396.222656 L 556.621094 486.527344 C 560.175781 490.082031 565.949219 490.082031 569.503906 486.527344 L 791.476562 260.304688 C 792.613281 259.167969 793.578125 257.957031 794.425781 256.675781 C 800.273438 247.832031 799.308594 235.816406 791.523438 228.035156 " clip-rule="nonzero"/></clipPath><clipPath id="a94a402965"><rect x="0" width="799" y="0" height="490"/></clipPath><clipPath id="3d7827cc73"><path d="M 62.515625 74 L 872.390625 74 L 872.390625 576 L 62.515625 576 Z M 62.515625 74 " clip-rule="nonzero"/></clipPath><clipPath id="55f18367f9"><path d="M 855.246094 312.261719 L 630.109375 87.269531 L 634.386719 82.992188 L 630.109375 87.269531 C 628.898438 86.0625 626.964844 86.085938 625.78125 87.269531 L 535.472656 177.578125 C 534.289062 178.761719 534.289062 180.71875 535.472656 181.902344 L 600.449219 246.878906 C 602.164062 248.59375 602.695312 251.203125 601.753906 253.453125 C 600.8125 255.699219 598.613281 257.175781 596.171875 257.175781 L 68.59375 257.175781 L 68.59375 251.132812 L 74.636719 251.132812 L 74.636719 397.058594 L 68.59375 397.058594 L 68.59375 391.015625 L 596.242188 391.015625 C 598.683594 391.015625 600.882812 392.488281 601.828125 394.738281 C 602.769531 396.984375 602.238281 399.597656 600.519531 401.3125 L 534.289062 467.542969 L 530.011719 463.265625 L 534.289062 467.542969 C 533.105469 468.726562 533.105469 470.6875 534.289062 471.871094 L 530.011719 476.148438 L 534.195312 471.773438 L 628.800781 562.082031 L 628.898438 562.175781 C 630.109375 563.386719 632.042969 563.363281 633.226562 562.175781 L 637.503906 566.457031 L 633.203125 562.226562 L 855.148438 336.046875 L 855.195312 336 C 856.019531 335.179688 856.742188 334.285156 857.371094 333.339844 L 857.398438 333.316406 C 861.699219 326.839844 860.972656 317.992188 855.269531 312.289062 L 859.546875 308.007812 L 855.269531 312.289062 M 863.800781 303.730469 C 873.664062 313.59375 874.871094 328.820312 867.453125 339.988281 L 862.425781 336.652344 L 867.476562 339.964844 C 866.414062 341.582031 865.179688 343.132812 863.753906 344.558594 L 859.476562 340.277344 L 863.777344 344.507812 L 641.808594 570.757812 L 641.757812 570.804688 C 635.835938 576.730469 626.242188 576.730469 620.34375 570.804688 L 624.621094 566.527344 L 620.4375 570.902344 L 525.828125 480.597656 L 525.734375 480.5 C 519.8125 474.578125 519.8125 464.980469 525.734375 459.082031 L 591.964844 392.851562 L 596.242188 397.132812 L 596.242188 403.175781 L 68.59375 403.175781 C 65.257812 403.175781 62.550781 400.46875 62.550781 397.132812 L 62.550781 251.179688 C 62.550781 247.84375 65.257812 245.136719 68.59375 245.136719 L 596.171875 245.136719 L 596.171875 251.179688 L 591.917969 255.460938 L 526.917969 190.460938 L 531.195312 186.183594 L 526.917969 190.460938 C 520.996094 184.539062 521.019531 174.941406 526.917969 169.042969 L 531.195312 173.324219 L 526.917969 169.042969 L 617.222656 78.738281 L 621.503906 83.015625 L 617.222656 78.738281 C 623.144531 72.816406 632.742188 72.816406 638.640625 78.738281 L 863.777344 303.730469 Z M 863.800781 303.730469 " clip-rule="nonzero"/></clipPath><clipPath id="140663b663"><path d="M 0.515625 0 L 810.390625 0 L 810.390625 502 L 0.515625 502 Z M 0.515625 0 " clip-rule="nonzero"/></clipPath><clipPath id="adc59f082d"><path d="M 793.246094 238.261719 L 568.109375 13.269531 L 572.386719 8.992188 L 568.109375 13.269531 C 566.898438 12.0625 564.964844 12.085938 563.78125 13.269531 L 473.472656 103.578125 C 472.289062 104.761719 472.289062 106.71875 473.472656 107.902344 L 538.449219 172.878906 C 540.164062 174.59375 540.695312 177.203125 539.753906 179.453125 C 538.8125 181.699219 536.613281 183.175781 534.171875 183.175781 L 6.59375 183.175781 L 6.59375 177.132812 L 12.636719 177.132812 L 12.636719 323.058594 L 6.59375 323.058594 L 6.59375 317.015625 L 534.242188 317.015625 C 536.683594 317.015625 538.882812 318.488281 539.828125 320.738281 C 540.769531 322.984375 540.238281 325.597656 538.519531 327.3125 L 472.289062 393.542969 L 468.011719 389.265625 L 472.289062 393.542969 C 471.105469 394.726562 471.105469 396.6875 472.289062 397.871094 L 468.011719 402.148438 L 472.195312 397.773438 L 566.800781 488.082031 L 566.898438 488.175781 C 568.109375 489.386719 570.042969 489.363281 571.226562 488.175781 L 575.503906 492.457031 L 571.203125 488.226562 L 793.148438 262.046875 L 793.195312 262 C 794.019531 261.179688 794.742188 260.285156 795.371094 259.339844 L 795.398438 259.316406 C 799.699219 252.839844 798.972656 243.992188 793.269531 238.289062 L 797.546875 234.007812 L 793.269531 238.289062 M 801.800781 229.730469 C 811.664062 239.59375 812.871094 254.820312 805.453125 265.988281 L 800.425781 262.652344 L 805.476562 265.964844 C 804.414062 267.582031 803.179688 269.132812 801.753906 270.558594 L 797.476562 266.277344 L 801.777344 270.507812 L 579.808594 496.757812 L 579.757812 496.804688 C 573.835938 502.730469 564.242188 502.730469 558.34375 496.804688 L 562.621094 492.527344 L 558.4375 496.902344 L 463.828125 406.597656 L 463.734375 406.5 C 457.8125 400.578125 457.8125 390.980469 463.734375 385.082031 L 529.964844 318.851562 L 534.242188 323.132812 L 534.242188 329.175781 L 6.59375 329.175781 C 3.257812 329.175781 0.550781 326.46875 0.550781 323.132812 L 0.550781 177.179688 C 0.550781 173.84375 3.257812 171.136719 6.59375 171.136719 L 534.171875 171.136719 L 534.171875 177.179688 L 529.917969 181.460938 L 464.917969 116.460938 L 469.195312 112.183594 L 464.917969 116.460938 C 458.996094 110.539062 459.019531 100.941406 464.917969 95.042969 L 469.195312 99.324219 L 464.917969 95.042969 L 555.222656 4.738281 L 559.503906 9.015625 L 555.222656 4.738281 C 561.144531 -1.183594 570.742188 -1.183594 576.640625 4.738281 L 801.777344 229.730469 Z M 801.800781 229.730469 " clip-rule="nonzero"/></clipPath><clipPath id="f239a556db"><rect x="0" width="811" y="0" height="502"/></clipPath><clipPath id="7ea13d67ee"><path d="M 68 603.054688 L 286.679688 603.054688 L 286.679688 810 L 68 810 Z M 68 603.054688 " clip-rule="nonzero"/></clipPath><clipPath id="574a8a4fb6"><path d="M 177.367188 821.132812 C 117.300781 821.132812 68.59375 772.425781 68.59375 712.359375 C 68.59375 652.289062 117.300781 603.582031 177.367188 603.582031 C 237.433594 603.582031 286.140625 652.289062 286.140625 712.359375 C 286.140625 772.425781 237.433594 821.132812 177.367188 821.132812 " clip-rule="nonzero"/></clipPath><clipPath id="8d1494ad3d"><path d="M 0.398438 0.359375 L 218.320312 0.359375 L 218.320312 207 L 0.398438 207 Z M 0.398438 0.359375 " clip-rule="nonzero"/></clipPath><clipPath id="d899fa140e"><path d="M 109.367188 218.132812 C 49.300781 218.132812 0.59375 169.425781 0.59375 109.359375 C 0.59375 49.289062 49.300781 0.582031 109.367188 0.582031 C 169.433594 0.582031 218.140625 49.289062 218.140625 109.359375 C 218.140625 169.425781 169.433594 218.132812 109.367188 218.132812 " clip-rule="nonzero"/></clipPath><clipPath id="6d9b28c7f5"><rect x="0" width="219" y="0" height="207"/></clipPath><clipPath id="bbd183dd8b"><path d="M 62.515625 597 L 293 597 L 293 810 L 62.515625 810 Z M 62.515625 597 " clip-rule="nonzero"/></clipPath><clipPath id="ab9f332840"><path d="M 177.367188 827.175781 C 113.964844 827.175781 62.550781 775.761719 62.550781 712.359375 L 68.59375 712.359375 L 62.550781 712.359375 C 62.550781 648.953125 113.964844 597.539062 177.367188 597.539062 L 177.367188 603.582031 L 177.367188 597.539062 C 240.769531 597.539062 292.183594 648.953125 292.183594 712.359375 L 286.140625 712.359375 L 292.183594 712.359375 C 292.183594 775.761719 240.769531 827.175781 177.367188 827.175781 L 177.367188 821.132812 L 177.367188 827.175781 M 177.367188 815.089844 C 234.097656 815.089844 280.097656 769.089844 280.097656 712.359375 C 280.097656 655.625 234.097656 609.625 177.367188 609.625 C 120.636719 609.625 74.636719 655.625 74.636719 712.359375 C 74.636719 769.089844 120.636719 815.089844 177.367188 815.089844 Z M 177.367188 815.089844 " clip-rule="nonzero"/></clipPath><clipPath id="8c24138f24"><path d="M 0.515625 0.359375 L 230.320312 0.359375 L 230.320312 213 L 0.515625 213 Z M 0.515625 0.359375 " clip-rule="nonzero"/></clipPath><clipPath id="bb31d021e3"><path d="M 115.367188 230.175781 C 51.964844 230.175781 0.550781 178.761719 0.550781 115.359375 L 6.59375 115.359375 L 0.550781 115.359375 C 0.550781 51.953125 51.964844 0.539062 115.367188 0.539062 L 115.367188 6.582031 L 115.367188 0.539062 C 178.769531 0.539062 230.183594 51.953125 230.183594 115.359375 L 224.140625 115.359375 L 230.183594 115.359375 C 230.183594 178.761719 178.769531 230.175781 115.367188 230.175781 L 115.367188 224.132812 L 115.367188 230.175781 M 115.367188 218.089844 C 172.097656 218.089844 218.097656 172.089844 218.097656 115.359375 C 218.097656 58.625 172.097656 12.625 115.367188 12.625 C 58.636719 12.625 12.636719 58.625 12.636719 115.359375 C 12.636719 172.089844 58.636719 218.089844 115.367188 218.089844 Z M 115.367188 218.089844 " clip-rule="nonzero"/></clipPath><clipPath id="8a6817f9ac"><rect x="0" width="231" y="0" height="213"/></clipPath></defs><g clip-path="url(#8913cdc1e6)"><g clip-path="url(#4e9c5e7ab7)"><g transform="matrix(1, 0, 0, 1, 68, 80)"><g clip-path="url(#a94a402965)"><g clip-path="url(#e753640a9d)"><g clip-path="url(#1b60d6be93)"><rect x="-266" width="1296" fill="#fbbc04" height="1166.399991" y="-258.199999" fill-opacity="1"/></g></g></g></g></g></g><g clip-path="url(#3d7827cc73)"><g clip-path="url(#55f18367f9)"><g transform="matrix(1, 0, 0, 1, 62, 74)"><g clip-path="url(#f239a556db)"><g clip-path="url(#140663b663)"><g clip-path="url(#adc59f082d)"><rect x="-260" width="1296" fill="#1e1e1e" height="1166.399991" y="-252.199999" fill-opacity="1"/></g></g></g></g></g></g><g clip-path="url(#7ea13d67ee)"><g clip-path="url(#574a8a4fb6)"><g transform="matrix(1, 0, 0, 1, 68, 603)"><g clip-path="url(#6d9b28c7f5)"><g clip-path="url(#8d1494ad3d)"><g clip-path="url(#d899fa140e)"><rect x="-266" width="1296" fill="#ea4335" height="1166.399991" y="-781.199999" fill-opacity="1"/></g></g></g></g></g></g><g clip-path="url(#bbd183dd8b)"><g clip-path="url(#ab9f332840)"><g transform="matrix(1, 0, 0, 1, 62, 597)"><g clip-path="url(#8a6817f9ac)"><g clip-path="url(#8c24138f24)"><g clip-path="url(#bb31d021e3)"><rect x="-260" width="1296" fill="#1e1e1e" height="1166.399991" y="-775.199999" fill-opacity="1"/></g></g></g></g></g></g></svg>