<?xml version="1.0" standalone="no"?>
<!DOCTYPE svg PUBLIC "-//W3C//DTD SVG 1.1//EN" "http://www.w3.org/Graphics/SVG/1.1/DTD/svg11.dtd">
<svg xmlns="http://www.w3.org/2000/svg" xmlns:xlink="http://www.w3.org/1999/xlink" width="900" zoomAndPan="magnify" viewBox="0 0 900 809.999994" height="810" preserveAspectRatio="xMidYMid meet" version="1.0"><defs><clipPath id="a678233b1d"><path d="M 395.472656 276.761719 L 504.527344 276.761719 L 504.527344 456.449219 L 395.472656 456.449219 Z M 395.472656 276.761719 " clip-rule="nonzero"/></clipPath><clipPath id="84878e2ae6"><path d="M 504.175781 456.144531 C 445.5625 456.144531 395.835938 417.125 395.835938 366.511719 L 401.988281 366.511719 L 395.835938 366.511719 C 395.835938 315.898438 445.5625 276.882812 504.175781 276.882812 L 504.175781 289.191406 C 449.917969 289.191406 408.144531 324.910156 408.144531 366.511719 C 408.144531 408.117188 449.917969 443.835938 504.175781 443.835938 Z M 504.175781 456.144531 " clip-rule="nonzero"/></clipPath><clipPath id="16108aafd0"><path d="M 0.761719 0.761719 L 109.238281 0.761719 L 109.238281 180.238281 L 0.761719 180.238281 Z M 0.761719 0.761719 " clip-rule="nonzero"/></clipPath><clipPath id="0a1a40771a"><path d="M 109.175781 180.144531 C 50.5625 180.144531 0.835938 141.125 0.835938 90.511719 L 6.988281 90.511719 L 0.835938 90.511719 C 0.835938 39.898438 50.5625 0.882812 109.175781 0.882812 L 109.175781 13.191406 C 54.917969 13.191406 13.144531 48.910156 13.144531 90.511719 C 13.144531 132.117188 54.917969 167.835938 109.175781 167.835938 Z M 109.175781 180.144531 " clip-rule="nonzero"/></clipPath><clipPath id="61e2c08e14"><rect x="0" width="110" y="0" height="181"/></clipPath><clipPath id="dd89cf60d8"><path d="M 395.472656 109.539062 L 504.527344 109.539062 L 504.527344 289.226562 L 395.472656 289.226562 Z M 395.472656 109.539062 " clip-rule="nonzero"/></clipPath><clipPath id="64a46989d6"><path d="M 504.175781 289.191406 C 445.5625 289.191406 395.835938 250.148438 395.835938 199.535156 L 401.988281 199.535156 L 395.835938 199.535156 C 395.835938 148.921875 445.5625 109.902344 504.175781 109.902344 L 504.175781 122.210938 C 449.917969 122.210938 408.144531 157.933594 408.144531 199.535156 C 408.144531 241.136719 449.917969 276.882812 504.175781 276.882812 Z M 504.175781 289.191406 " clip-rule="nonzero"/></clipPath><clipPath id="092918741f"><path d="M 0.761719 0.679688 L 109.238281 0.679688 L 109.238281 180.199219 L 0.761719 180.199219 Z M 0.761719 0.679688 " clip-rule="nonzero"/></clipPath><clipPath id="41c906ae17"><path d="M 109.175781 180.191406 C 50.5625 180.191406 0.835938 141.148438 0.835938 90.535156 L 6.988281 90.535156 L 0.835938 90.535156 C 0.835938 39.921875 50.5625 0.902344 109.175781 0.902344 L 109.175781 13.210938 C 54.917969 13.210938 13.144531 48.933594 13.144531 90.535156 C 13.144531 132.136719 54.917969 167.882812 109.175781 167.882812 Z M 109.175781 180.191406 " clip-rule="nonzero"/></clipPath><clipPath id="9c1f94a1b4"><rect x="0" width="110" y="0" height="181"/></clipPath><clipPath id="10def86821"><path d="M 395.472656 443.464844 L 504.527344 443.464844 L 504.527344 623.152344 L 395.472656 623.152344 Z M 395.472656 443.464844 " clip-rule="nonzero"/></clipPath><clipPath id="e6d108b94f"><path d="M 504.175781 623.121094 C 445.5625 623.121094 395.835938 584.101562 395.835938 533.488281 L 401.988281 533.488281 L 395.835938 533.488281 C 395.835938 482.878906 445.5625 443.859375 504.175781 443.859375 L 504.175781 456.167969 C 449.917969 456.144531 408.144531 491.886719 408.144531 533.488281 C 408.144531 575.09375 449.917969 610.8125 504.175781 610.8125 Z M 504.175781 623.121094 " clip-rule="nonzero"/></clipPath><clipPath id="323177e595"><path d="M 0.761719 0.761719 L 109.238281 0.761719 L 109.238281 180.152344 L 0.761719 180.152344 Z M 0.761719 0.761719 " clip-rule="nonzero"/></clipPath><clipPath id="9144f58cce"><path d="M 109.175781 180.121094 C 50.5625 180.121094 0.835938 141.101562 0.835938 90.488281 L 6.988281 90.488281 L 0.835938 90.488281 C 0.835938 39.878906 50.5625 0.859375 109.175781 0.859375 L 109.175781 13.167969 C 54.917969 13.144531 13.144531 48.886719 13.144531 90.488281 C 13.144531 132.09375 54.917969 167.8125 109.175781 167.8125 Z M 109.175781 180.121094 " clip-rule="nonzero"/></clipPath><clipPath id="61cf696319"><rect x="0" width="110" y="0" height="181"/></clipPath><clipPath id="9b98fe8974"><path d="M 395.472656 610.6875 L 504.527344 610.6875 L 504.527344 790.375 L 395.472656 790.375 Z M 395.472656 610.6875 " clip-rule="nonzero"/></clipPath><clipPath id="5c3c545fd8"><path d="M 504.175781 790.097656 C 445.5625 790.097656 395.835938 751.054688 395.835938 700.441406 L 401.988281 700.441406 L 395.835938 700.441406 C 395.835938 649.832031 445.5625 610.8125 504.175781 610.8125 L 504.175781 623.121094 C 449.917969 623.121094 408.144531 658.839844 408.144531 700.441406 C 408.144531 742.046875 449.917969 777.765625 504.175781 777.765625 Z M 504.175781 790.097656 " clip-rule="nonzero"/></clipPath><clipPath id="523c7b50f0"><path d="M 0.761719 0.800781 L 109.238281 0.800781 L 109.238281 180.320312 L 0.761719 180.320312 Z M 0.761719 0.800781 " clip-rule="nonzero"/></clipPath><clipPath id="83a524b33e"><path d="M 109.175781 180.097656 C 50.5625 180.097656 0.835938 141.054688 0.835938 90.441406 L 6.988281 90.441406 L 0.835938 90.441406 C 0.835938 39.832031 50.5625 0.8125 109.175781 0.8125 L 109.175781 13.121094 C 54.917969 13.121094 13.144531 48.839844 13.144531 90.441406 C 13.144531 132.046875 54.917969 167.765625 109.175781 167.765625 Z M 109.175781 180.097656 " clip-rule="nonzero"/></clipPath><clipPath id="62042eaf5c"><rect x="0" width="110" y="0" height="181"/></clipPath></defs><g clip-path="url(#a678233b1d)"><g clip-path="url(#84878e2ae6)"><g transform="matrix(1, 0, 0, 1, 395, 276)"><g clip-path="url(#61e2c08e14)"><g clip-path="url(#16108aafd0)"><g clip-path="url(#0a1a40771a)"><rect x="-593" width="1296" fill="#1e1e1e" height="1166.399991" y="-454.199999" fill-opacity="1"/></g></g></g></g></g></g><g clip-path="url(#dd89cf60d8)"><g clip-path="url(#64a46989d6)"><g transform="matrix(1, 0, 0, 1, 395, 109)"><g clip-path="url(#9c1f94a1b4)"><g clip-path="url(#092918741f)"><g clip-path="url(#41c906ae17)"><rect x="-593" width="1296" fill="#1e1e1e" height="1166.399991" y="-287.199999" fill-opacity="1"/></g></g></g></g></g></g><g clip-path="url(#10def86821)"><g clip-path="url(#e6d108b94f)"><g transform="matrix(1, 0, 0, 1, 395, 443)"><g clip-path="url(#61cf696319)"><g clip-path="url(#323177e595)"><g clip-path="url(#9144f58cce)"><rect x="-593" width="1296" fill="#1e1e1e" height="1166.399991" y="-621.199999" fill-opacity="1"/></g></g></g></g></g></g><g clip-path="url(#9b98fe8974)"><g clip-path="url(#5c3c545fd8)"><g transform="matrix(1, 0, 0, 1, 395, 610)"><g clip-path="url(#62042eaf5c)"><g clip-path="url(#523c7b50f0)"><g clip-path="url(#83a524b33e)"><rect x="-593" width="1296" fill="#1e1e1e" height="1166.399991" y="-788.199999" fill-opacity="1"/></g></g></g></g></g></g></svg>