<?xml version="1.0" standalone="no"?>
<!DOCTYPE svg PUBLIC "-//W3C//DTD SVG 1.1//EN" "http://www.w3.org/Graphics/SVG/1.1/DTD/svg11.dtd">
<svg xmlns="http://www.w3.org/2000/svg" xmlns:xlink="http://www.w3.org/1999/xlink" width="900" zoomAndPan="magnify" viewBox="0 0 900 809.999994" height="810" preserveAspectRatio="xMidYMid meet" version="1.0"><defs><clipPath id="e24ad11484"><path d="M 394.34375 443.019531 L 505.65625 443.019531 L 505.65625 626.417969 L 394.34375 626.417969 Z M 394.34375 443.019531 " clip-rule="nonzero"/></clipPath><clipPath id="1017017cbf"><path d="M 394.714844 443.394531 C 454.539062 443.394531 505.292969 483.222656 505.292969 534.878906 L 499.011719 534.878906 L 505.292969 534.878906 C 505.292969 586.539062 454.539062 626.363281 394.714844 626.363281 L 394.714844 613.800781 C 450.09375 613.800781 492.730469 577.34375 492.730469 534.878906 C 492.730469 492.417969 450.09375 455.960938 394.714844 455.960938 Z M 394.714844 443.394531 " clip-rule="nonzero"/></clipPath><clipPath id="ab9916d7de"><path d="M 0.558594 0.28125 L 111.441406 0.28125 L 111.441406 183.398438 L 0.558594 183.398438 Z M 0.558594 0.28125 " clip-rule="nonzero"/></clipPath><clipPath id="3fbe1769f0"><path d="M 0.714844 0.394531 C 60.539062 0.394531 111.292969 40.222656 111.292969 91.878906 L 105.011719 91.878906 L 111.292969 91.878906 C 111.292969 143.539062 60.539062 183.363281 0.714844 183.363281 L 0.714844 170.800781 C 56.09375 170.800781 98.730469 134.34375 98.730469 91.878906 C 98.730469 49.417969 56.09375 12.960938 0.714844 12.960938 Z M 0.714844 0.394531 " clip-rule="nonzero"/></clipPath><clipPath id="1f10e6230d"><rect x="0" width="112" y="0" height="184"/></clipPath><clipPath id="a7e86b9416"><path d="M 394.34375 613.699219 L 505.65625 613.699219 L 505.65625 797 L 394.34375 797 Z M 394.34375 613.699219 " clip-rule="nonzero"/></clipPath><clipPath id="c16f7093eb"><path d="M 394.714844 613.824219 C 454.539062 613.824219 505.292969 653.648438 505.292969 705.308594 L 499.011719 705.308594 L 505.292969 705.308594 C 505.292969 756.96875 454.539062 796.792969 394.714844 796.792969 L 394.714844 784.230469 C 450.09375 784.230469 492.730469 747.773438 492.730469 705.308594 C 492.730469 662.847656 450.09375 626.386719 394.714844 626.386719 Z M 394.714844 613.824219 " clip-rule="nonzero"/></clipPath><clipPath id="9363fc9243"><path d="M 0.558594 0.699219 L 111.441406 0.699219 L 111.441406 183.800781 L 0.558594 183.800781 Z M 0.558594 0.699219 " clip-rule="nonzero"/></clipPath><clipPath id="7c77673e0c"><path d="M 0.714844 0.824219 C 60.539062 0.824219 111.292969 40.648438 111.292969 92.308594 L 105.011719 92.308594 L 111.292969 92.308594 C 111.292969 143.96875 60.539062 183.792969 0.714844 183.792969 L 0.714844 171.230469 C 56.09375 171.230469 98.730469 134.773438 98.730469 92.308594 C 98.730469 49.847656 56.09375 13.386719 0.714844 13.386719 Z M 0.714844 0.824219 " clip-rule="nonzero"/></clipPath><clipPath id="eb1e0aec84"><rect x="0" width="112" y="0" height="184"/></clipPath><clipPath id="3582f070c2"><path d="M 394.34375 272.871094 L 505.65625 272.871094 L 505.65625 456 L 394.34375 456 Z M 394.34375 272.871094 " clip-rule="nonzero"/></clipPath><clipPath id="ec3610e408"><path d="M 394.714844 272.992188 C 454.539062 272.992188 505.292969 312.816406 505.292969 364.476562 L 499.011719 364.476562 L 505.292969 364.476562 C 505.292969 416.132812 454.539062 455.960938 394.714844 455.960938 L 394.714844 443.394531 C 450.09375 443.394531 492.730469 406.9375 492.730469 364.476562 C 492.730469 322.011719 450.09375 285.554688 394.714844 285.554688 Z M 394.714844 272.992188 " clip-rule="nonzero"/></clipPath><clipPath id="404916a716"><path d="M 0.558594 0.878906 L 111.441406 0.878906 L 111.441406 184 L 0.558594 184 Z M 0.558594 0.878906 " clip-rule="nonzero"/></clipPath><clipPath id="0c006468a4"><path d="M 0.714844 0.992188 C 60.539062 0.992188 111.292969 40.816406 111.292969 92.476562 L 105.011719 92.476562 L 111.292969 92.476562 C 111.292969 144.132812 60.539062 183.960938 0.714844 183.960938 L 0.714844 171.394531 C 56.09375 171.394531 98.730469 134.9375 98.730469 92.476562 C 98.730469 50.011719 56.09375 13.554688 0.714844 13.554688 Z M 0.714844 0.992188 " clip-rule="nonzero"/></clipPath><clipPath id="57ac1fe822"><rect x="0" width="112" y="0" height="184"/></clipPath><clipPath id="7dfa5be17f"><path d="M 394.34375 102.191406 L 505.65625 102.191406 L 505.65625 285.589844 L 394.34375 285.589844 Z M 394.34375 102.191406 " clip-rule="nonzero"/></clipPath><clipPath id="7fa644efbe"><path d="M 394.714844 102.5625 C 454.539062 102.5625 505.292969 142.386719 505.292969 194.046875 L 499.011719 194.046875 L 505.292969 194.046875 C 505.292969 245.707031 454.539062 285.53125 394.714844 285.53125 L 394.714844 272.96875 C 450.09375 272.96875 492.730469 236.507812 492.730469 194.046875 C 492.730469 151.582031 450.09375 115.125 394.714844 115.125 Z M 394.714844 102.5625 " clip-rule="nonzero"/></clipPath><clipPath id="b51369ef0b"><path d="M 0.558594 0.480469 L 111.441406 0.480469 L 111.441406 183.589844 L 0.558594 183.589844 Z M 0.558594 0.480469 " clip-rule="nonzero"/></clipPath><clipPath id="a68b28d582"><path d="M 0.714844 0.5625 C 60.539062 0.5625 111.292969 40.386719 111.292969 92.046875 L 105.011719 92.046875 L 111.292969 92.046875 C 111.292969 143.707031 60.539062 183.53125 0.714844 183.53125 L 0.714844 170.96875 C 56.09375 170.96875 98.730469 134.507812 98.730469 92.046875 C 98.730469 49.582031 56.09375 13.125 0.714844 13.125 Z M 0.714844 0.5625 " clip-rule="nonzero"/></clipPath><clipPath id="8cc176bc30"><rect x="0" width="112" y="0" height="184"/></clipPath></defs><g clip-path="url(#e24ad11484)"><g clip-path="url(#1017017cbf)"><g transform="matrix(1, 0, 0, 1, 394, 443)"><g clip-path="url(#1f10e6230d)"><g clip-path="url(#ab9916d7de)"><g clip-path="url(#3fbe1769f0)"><rect x="-592" width="1296" fill="#1e1e1e" height="1166.399991" y="-621.199999" fill-opacity="1"/></g></g></g></g></g></g><g clip-path="url(#a7e86b9416)"><g clip-path="url(#c16f7093eb)"><g transform="matrix(1, 0, 0, 1, 394, 613)"><g clip-path="url(#eb1e0aec84)"><g clip-path="url(#9363fc9243)"><g clip-path="url(#7c77673e0c)"><rect x="-592" width="1296" fill="#1e1e1e" height="1166.399991" y="-791.199999" fill-opacity="1"/></g></g></g></g></g></g><g clip-path="url(#3582f070c2)"><g clip-path="url(#ec3610e408)"><g transform="matrix(1, 0, 0, 1, 394, 272)"><g clip-path="url(#57ac1fe822)"><g clip-path="url(#404916a716)"><g clip-path="url(#0c006468a4)"><rect x="-592" width="1296" fill="#1e1e1e" height="1166.399991" y="-450.199999" fill-opacity="1"/></g></g></g></g></g></g><g clip-path="url(#7dfa5be17f)"><g clip-path="url(#7fa644efbe)"><g transform="matrix(1, 0, 0, 1, 394, 102)"><g clip-path="url(#8cc176bc30)"><g clip-path="url(#b51369ef0b)"><g clip-path="url(#a68b28d582)"><rect x="-592" width="1296" fill="#1e1e1e" height="1166.399991" y="-280.199999" fill-opacity="1"/></g></g></g></g></g></g></svg>