<?xml version="1.0" standalone="no"?>
<!DOCTYPE svg PUBLIC "-//W3C//DTD SVG 1.1//EN" "http://www.w3.org/Graphics/SVG/1.1/DTD/svg11.dtd">
<svg xmlns="http://www.w3.org/2000/svg" xmlns:xlink="http://www.w3.org/1999/xlink" width="900" zoomAndPan="magnify" viewBox="0 0 900 809.999994" height="810" preserveAspectRatio="xMidYMid meet" version="1.0"><defs><clipPath id="55e6a1de25"><path d="M 569.914062 244.144531 L 821 244.144531 L 821 656 L 569.914062 656 Z M 569.914062 244.144531 " clip-rule="nonzero"/></clipPath><clipPath id="75175e9409"><path d="M 582.578125 244.144531 L 817 442.109375 C 819.195312 443.953125 820.488281 446.695312 820.488281 449.597656 C 820.488281 452.496094 819.234375 455.203125 817.039062 457.082031 L 582.578125 655.871094 L 569.914062 640.898438 L 804.335938 442.148438 L 810.6875 449.636719 L 804.375 457.121094 L 569.914062 259.117188 Z M 582.578125 244.144531 " clip-rule="nonzero"/></clipPath><clipPath id="036ccacdd6"><path d="M 0.914062 0.144531 L 251.558594 0.144531 L 251.558594 411.921875 L 0.914062 411.921875 Z M 0.914062 0.144531 " clip-rule="nonzero"/></clipPath><clipPath id="cf732dd5bc"><path d="M 13.578125 0.144531 L 248 198.109375 C 250.195312 199.953125 251.488281 202.695312 251.488281 205.597656 C 251.488281 208.496094 250.234375 211.203125 248.039062 213.082031 L 13.578125 411.871094 L 0.914062 396.898438 L 235.335938 198.148438 L 241.6875 205.636719 L 235.375 213.121094 L 0.914062 15.117188 Z M 13.578125 0.144531 " clip-rule="nonzero"/></clipPath><clipPath id="fb7ef1a98f"><rect x="0" width="252" y="0" height="412"/></clipPath></defs><g clip-path="url(#55e6a1de25)"><g clip-path="url(#75175e9409)"><g transform="matrix(1, 0, 0, 1, 569, 244)"><g clip-path="url(#fb7ef1a98f)"><g clip-path="url(#036ccacdd6)"><g clip-path="url(#cf732dd5bc)"><path fill="#1e1e1e" d="M 0.914062 0.144531 L 251.460938 0.144531 L 251.460938 412.171875 L 0.914062 412.171875 Z M 0.914062 0.144531 " fill-opacity="1" fill-rule="nonzero"/></g></g></g></g></g></g></svg>