<?xml version="1.0" standalone="no"?>
<!DOCTYPE svg PUBLIC "-//W3C//DTD SVG 1.1//EN" "http://www.w3.org/Graphics/SVG/1.1/DTD/svg11.dtd">
<svg xmlns="http://www.w3.org/2000/svg" xmlns:xlink="http://www.w3.org/1999/xlink" width="900" zoomAndPan="magnify" viewBox="0 0 900 809.999994" height="810" preserveAspectRatio="xMidYMid meet" version="1.0"><defs><clipPath id="b274e96167"><path d="M 206 206 L 695 206 L 695 695 L 206 695 Z M 206 206 " clip-rule="nonzero"/></clipPath><clipPath id="8836600b10"><path d="M 675.34375 694.929688 L 206.039062 225.625 L 225.625 206.039062 L 694.929688 675.34375 Z M 675.34375 694.929688 " clip-rule="nonzero"/></clipPath><clipPath id="9133ed5185"><path d="M 0 0 L 489 0 L 489 489 L 0 489 Z M 0 0 " clip-rule="nonzero"/></clipPath><clipPath id="529b709a28"><path d="M 469.34375 488.929688 L 0.0390625 19.625 L 19.625 0.0390625 L 488.929688 469.34375 Z M 469.34375 488.929688 " clip-rule="nonzero"/></clipPath><clipPath id="472a5a050b"><rect x="0" width="489" y="0" height="489"/></clipPath><clipPath id="fd03831e56"><path d="M 206 206 L 695 206 L 695 695 L 206 695 Z M 206 206 " clip-rule="nonzero"/></clipPath><clipPath id="5177e834e7"><path d="M 206.039062 675.34375 L 675.34375 206.039062 L 694.929688 225.625 L 225.625 694.929688 Z M 206.039062 675.34375 " clip-rule="nonzero"/></clipPath><clipPath id="717ee1f594"><path d="M 0 0 L 489 0 L 489 489 L 0 489 Z M 0 0 " clip-rule="nonzero"/></clipPath><clipPath id="4af8451984"><path d="M 0.0390625 469.34375 L 469.34375 0.0390625 L 488.929688 19.625 L 19.625 488.929688 Z M 0.0390625 469.34375 " clip-rule="nonzero"/></clipPath><clipPath id="5a89126cc5"><rect x="0" width="489" y="0" height="489"/></clipPath><clipPath id="ef2af5432b"><path d="M 436.679688 118.628906 L 464.34375 118.628906 L 464.34375 782.339844 L 436.679688 782.339844 Z M 436.679688 118.628906 " clip-rule="nonzero"/></clipPath><clipPath id="3e713c6484"><path d="M 0.679688 0.628906 L 28.34375 0.628906 L 28.34375 664.339844 L 0.679688 664.339844 Z M 0.679688 0.628906 " clip-rule="nonzero"/></clipPath><clipPath id="4df57e1f94"><rect x="0" width="29" y="0" height="665"/></clipPath><clipPath id="82652d22f9"><path d="M 118.628906 436.625 L 782.339844 436.625 L 782.339844 464.285156 L 118.628906 464.285156 Z M 118.628906 436.625 " clip-rule="nonzero"/></clipPath><clipPath id="4b19cf2047"><path d="M 0.628906 0.625 L 664.339844 0.625 L 664.339844 28.285156 L 0.628906 28.285156 Z M 0.628906 0.625 " clip-rule="nonzero"/></clipPath><clipPath id="c46813d3ef"><rect x="0" width="665" y="0" height="29"/></clipPath></defs><g clip-path="url(#b274e96167)"><g clip-path="url(#8836600b10)"><g transform="matrix(1, 0, 0, 1, 206, 206)"><g clip-path="url(#472a5a050b)"><g clip-path="url(#9133ed5185)"><g clip-path="url(#529b709a28)"><rect x="-404" width="1296" fill="#1e1e1e" height="1166.399991" y="-384.199999" fill-opacity="1"/></g></g></g></g></g></g><g clip-path="url(#fd03831e56)"><g clip-path="url(#5177e834e7)"><g transform="matrix(1, 0, 0, 1, 206, 206)"><g clip-path="url(#5a89126cc5)"><g clip-path="url(#717ee1f594)"><g clip-path="url(#4af8451984)"><rect x="-404" width="1296" fill="#1e1e1e" height="1166.399991" y="-384.199999" fill-opacity="1"/></g></g></g></g></g></g><g clip-path="url(#ef2af5432b)"><g transform="matrix(1, 0, 0, 1, 436, 118)"><g clip-path="url(#4df57e1f94)"><g clip-path="url(#3e713c6484)"><rect x="-634" width="1296" fill="#1e1e1e" height="1166.399991" y="-296.199999" fill-opacity="1"/></g></g></g></g><g clip-path="url(#82652d22f9)"><g transform="matrix(1, 0, 0, 1, 118, 436)"><g clip-path="url(#c46813d3ef)"><g clip-path="url(#4b19cf2047)"><rect x="-316" width="1296" fill="#1e1e1e" height="1166.399991" y="-614.199999" fill-opacity="1"/></g></g></g></g></svg>