<?xml version="1.0" standalone="no"?>
<!DOCTYPE svg PUBLIC "-//W3C//DTD SVG 1.1//EN" "http://www.w3.org/Graphics/SVG/1.1/DTD/svg11.dtd">
<svg xmlns="http://www.w3.org/2000/svg" xmlns:xlink="http://www.w3.org/1999/xlink" width="900" zoomAndPan="magnify" viewBox="0 0 900 809.999994" height="810" preserveAspectRatio="xMidYMid meet" version="1.0"><defs><clipPath id="c35bd68fb6"><path d="M 420 157 L 755 157 L 755 774.796875 L 420 774.796875 Z M 420 157 " clip-rule="nonzero"/></clipPath><clipPath id="07b3810a12"><path d="M 754.601562 157.949219 L 562.3125 774.78125 L 420.183594 774.78125 L 612.492188 157.949219 Z M 754.601562 157.949219 " clip-rule="nonzero"/></clipPath><clipPath id="7d16923e25"><path d="M 0 0.921875 L 334.800781 0.921875 L 334.800781 617.796875 L 0 617.796875 Z M 0 0.921875 " clip-rule="nonzero"/></clipPath><clipPath id="519249b170"><path d="M 334.601562 0.949219 L 142.3125 617.78125 L 0.183594 617.78125 L 192.492188 0.949219 Z M 334.601562 0.949219 " clip-rule="nonzero"/></clipPath><clipPath id="186b5a882b"><rect x="0" width="335" y="0" height="618"/></clipPath><clipPath id="00d9edbefe"><path d="M 415 152.847656 L 759.960938 152.847656 L 759.960938 780 L 415 780 Z M 415 152.847656 " clip-rule="nonzero"/></clipPath><clipPath id="72a023f32a"><path d="M 759.453125 159.453125 L 567.164062 776.285156 C 566.496094 778.394531 564.546875 779.859375 562.3125 779.859375 L 420.183594 779.859375 C 418.578125 779.859375 417.054688 779.085938 416.101562 777.789062 C 415.144531 776.488281 414.863281 774.800781 415.347656 773.257812 L 607.636719 156.449219 C 608.308594 154.335938 610.257812 152.875 612.492188 152.875 L 754.621094 152.875 C 756.226562 152.875 757.75 153.644531 758.703125 154.945312 C 759.65625 156.246094 759.941406 157.929688 759.453125 159.472656 M 749.769531 156.449219 L 754.621094 157.949219 L 754.621094 163.027344 L 612.492188 163.027344 L 612.492188 157.949219 L 617.34375 159.453125 L 425.054688 776.285156 L 420.203125 774.78125 L 420.203125 769.703125 L 562.332031 769.703125 L 562.332031 774.78125 L 557.480469 773.277344 Z M 749.769531 156.449219 " clip-rule="nonzero"/></clipPath><clipPath id="4a114dfd5b"><path d="M 0 0.847656 L 344.960938 0.847656 L 344.960938 628 L 0 628 Z M 0 0.847656 " clip-rule="nonzero"/></clipPath><clipPath id="03ab0d35b3"><path d="M 344.453125 7.453125 L 152.164062 624.285156 C 151.496094 626.394531 149.546875 627.859375 147.3125 627.859375 L 5.183594 627.859375 C 3.578125 627.859375 2.054688 627.085938 1.101562 625.789062 C 0.144531 624.488281 -0.136719 622.800781 0.347656 621.257812 L 192.636719 4.449219 C 193.308594 2.335938 195.257812 0.875 197.492188 0.875 L 339.621094 0.875 C 341.226562 0.875 342.75 1.644531 343.703125 2.945312 C 344.65625 4.246094 344.941406 5.929688 344.453125 7.472656 M 334.769531 4.449219 L 339.621094 5.949219 L 339.621094 11.027344 L 197.492188 11.027344 L 197.492188 5.949219 L 202.34375 7.453125 L 10.054688 624.285156 L 5.203125 622.78125 L 5.203125 617.703125 L 147.332031 617.703125 L 147.332031 622.78125 L 142.480469 621.277344 Z M 334.769531 4.449219 " clip-rule="nonzero"/></clipPath><clipPath id="63b0930d4c"><rect x="0" width="345" y="0" height="628"/></clipPath><clipPath id="38d9e6e10a"><path d="M 145 157 L 480 157 L 480 774.796875 L 145 774.796875 Z M 145 157 " clip-rule="nonzero"/></clipPath><clipPath id="fceaac072e"><path d="M 479.804688 157.949219 L 287.515625 774.78125 L 145.386719 774.78125 L 337.695312 157.949219 Z M 479.804688 157.949219 " clip-rule="nonzero"/></clipPath><clipPath id="6d37efdb15"><path d="M 0.199219 0.921875 L 335 0.921875 L 335 617.796875 L 0.199219 617.796875 Z M 0.199219 0.921875 " clip-rule="nonzero"/></clipPath><clipPath id="88cf66b1ca"><path d="M 334.804688 0.949219 L 142.515625 617.78125 L 0.386719 617.78125 L 192.695312 0.949219 Z M 334.804688 0.949219 " clip-rule="nonzero"/></clipPath><clipPath id="bc86395d4a"><rect x="0" width="335" y="0" height="618"/></clipPath><clipPath id="5e683b7abc"><path d="M 140.039062 152.847656 L 485 152.847656 L 485 780 L 140.039062 780 Z M 140.039062 152.847656 " clip-rule="nonzero"/></clipPath><clipPath id="71172ae677"><path d="M 484.65625 159.453125 L 292.367188 776.285156 C 291.699219 778.394531 289.75 779.859375 287.515625 779.859375 L 145.386719 779.859375 C 143.78125 779.859375 142.257812 779.085938 141.304688 777.789062 C 140.347656 776.488281 140.0625 774.800781 140.550781 773.257812 L 332.839844 156.449219 C 333.511719 154.335938 335.460938 152.875 337.695312 152.875 L 479.804688 152.875 C 481.40625 152.875 482.929688 153.644531 483.886719 154.945312 C 484.839844 156.246094 485.125 157.929688 484.636719 159.472656 M 474.949219 156.449219 L 479.804688 157.949219 L 479.804688 163.027344 L 337.695312 163.027344 L 337.695312 157.949219 L 342.546875 159.453125 L 150.238281 776.285156 L 145.386719 774.78125 L 145.386719 769.703125 L 287.515625 769.703125 L 287.515625 774.78125 L 282.660156 773.277344 L 474.972656 156.449219 Z M 474.949219 156.449219 " clip-rule="nonzero"/></clipPath><clipPath id="480259347d"><path d="M 0.0390625 0.847656 L 345 0.847656 L 345 628 L 0.0390625 628 Z M 0.0390625 0.847656 " clip-rule="nonzero"/></clipPath><clipPath id="26ddbdb167"><path d="M 344.65625 7.453125 L 152.367188 624.285156 C 151.699219 626.394531 149.75 627.859375 147.515625 627.859375 L 5.386719 627.859375 C 3.78125 627.859375 2.257812 627.085938 1.304688 625.789062 C 0.347656 624.488281 0.0625 622.800781 0.550781 621.257812 L 192.839844 4.449219 C 193.511719 2.335938 195.460938 0.875 197.695312 0.875 L 339.804688 0.875 C 341.40625 0.875 342.929688 1.644531 343.886719 2.945312 C 344.839844 4.246094 345.125 5.929688 344.636719 7.472656 M 334.949219 4.449219 L 339.804688 5.949219 L 339.804688 11.027344 L 197.695312 11.027344 L 197.695312 5.949219 L 202.546875 7.453125 L 10.238281 624.285156 L 5.386719 622.78125 L 5.386719 617.703125 L 147.515625 617.703125 L 147.515625 622.78125 L 142.660156 621.277344 L 334.972656 4.449219 Z M 334.949219 4.449219 " clip-rule="nonzero"/></clipPath><clipPath id="89574cff9f"><rect x="0" width="345" y="0" height="628"/></clipPath></defs><g clip-path="url(#c35bd68fb6)"><g clip-path="url(#07b3810a12)"><g transform="matrix(1, 0, 0, 1, 420, 157)"><g clip-path="url(#186b5a882b)"><g clip-path="url(#7d16923e25)"><g clip-path="url(#519249b170)"><rect x="-618" width="1296" fill="#4285f4" height="1166.399991" y="-335.199999" fill-opacity="1"/></g></g></g></g></g></g><g clip-path="url(#00d9edbefe)"><g clip-path="url(#72a023f32a)"><g transform="matrix(1, 0, 0, 1, 415, 152)"><g clip-path="url(#63b0930d4c)"><g clip-path="url(#4a114dfd5b)"><g clip-path="url(#03ab0d35b3)"><rect x="-613" width="1296" fill="#1e1e1e" height="1166.399991" y="-330.199999" fill-opacity="1"/></g></g></g></g></g></g><g clip-path="url(#38d9e6e10a)"><g clip-path="url(#fceaac072e)"><g transform="matrix(1, 0, 0, 1, 145, 157)"><g clip-path="url(#bc86395d4a)"><g clip-path="url(#6d37efdb15)"><g clip-path="url(#88cf66b1ca)"><rect x="-343" width="1296" fill="#4285f4" height="1166.399991" y="-335.199999" fill-opacity="1"/></g></g></g></g></g></g><g clip-path="url(#5e683b7abc)"><g clip-path="url(#71172ae677)"><g transform="matrix(1, 0, 0, 1, 140, 152)"><g clip-path="url(#89574cff9f)"><g clip-path="url(#480259347d)"><g clip-path="url(#26ddbdb167)"><rect x="-338" width="1296" fill="#1e1e1e" height="1166.399991" y="-330.199999" fill-opacity="1"/></g></g></g></g></g></g></svg>