<?xml version="1.0" standalone="no"?>
<!DOCTYPE svg PUBLIC "-//W3C//DTD SVG 1.1//EN" "http://www.w3.org/Graphics/SVG/1.1/DTD/svg11.dtd">
<svg xmlns="http://www.w3.org/2000/svg" xmlns:xlink="http://www.w3.org/1999/xlink" width="900" zoomAndPan="magnify" viewBox="0 0 900 809.999994" height="810" preserveAspectRatio="xMidYMid meet" version="1.0"><defs><clipPath id="5205381917"><path d="M 570.285156 171.980469 L 697.484375 171.980469 L 697.484375 728.460938 L 570.285156 728.460938 Z M 570.285156 171.980469 " clip-rule="nonzero"/></clipPath><clipPath id="f11bd654cd"><path d="M 570.285156 171.980469 L 692.390625 171.980469 C 695.199219 171.980469 697.480469 174.257812 697.480469 177.066406 L 697.480469 722.925781 C 697.480469 725.734375 695.199219 728.011719 692.390625 728.011719 L 570.285156 728.011719 L 570.285156 717.839844 L 692.390625 717.839844 L 692.390625 722.925781 L 687.304688 722.925781 L 687.304688 177.066406 L 692.390625 177.066406 L 692.390625 182.152344 L 570.285156 182.152344 Z M 570.285156 171.980469 " clip-rule="nonzero"/></clipPath><clipPath id="5830fafc4f"><path d="M 0.285156 0.980469 L 127.484375 0.980469 L 127.484375 557 L 0.285156 557 Z M 0.285156 0.980469 " clip-rule="nonzero"/></clipPath><clipPath id="ff8d2fd9a6"><path d="M 0.285156 0.980469 L 122.390625 0.980469 C 125.199219 0.980469 127.480469 3.257812 127.480469 6.066406 L 127.480469 551.925781 C 127.480469 554.734375 125.199219 557.011719 122.390625 557.011719 L 0.285156 557.011719 L 0.285156 546.839844 L 122.390625 546.839844 L 122.390625 551.925781 L 117.304688 551.925781 L 117.304688 6.066406 L 122.390625 6.066406 L 122.390625 11.152344 L 0.285156 11.152344 Z M 0.285156 0.980469 " clip-rule="nonzero"/></clipPath><clipPath id="18cf58ea84"><rect x="0" width="128" y="0" height="558"/></clipPath></defs><g clip-path="url(#5205381917)"><g clip-path="url(#f11bd654cd)"><g transform="matrix(1, 0, 0, 1, 570, 171)"><g clip-path="url(#18cf58ea84)"><g clip-path="url(#5830fafc4f)"><g clip-path="url(#ff8d2fd9a6)"><path fill="#1e1e1e" d="M 0.285156 0.980469 L 127.484375 0.980469 L 127.484375 556.964844 L 0.285156 556.964844 Z M 0.285156 0.980469 " fill-opacity="1" fill-rule="nonzero"/></g></g></g></g></g></g></svg>