<?xml version="1.0" standalone="no"?>
<!DOCTYPE svg PUBLIC "-//W3C//DTD SVG 1.1//EN" "http://www.w3.org/Graphics/SVG/1.1/DTD/svg11.dtd">
<svg xmlns="http://www.w3.org/2000/svg" xmlns:xlink="http://www.w3.org/1999/xlink" width="900" zoomAndPan="magnify" viewBox="0 0 900 809.999994" height="810" preserveAspectRatio="xMidYMid meet" version="1.0"><defs><clipPath id="871e3c5161"><path d="M 129 162 L 755 162 L 755 738 L 129 738 Z M 129 162 " clip-rule="nonzero"/></clipPath><clipPath id="166e990222"><path d="M 740.707031 450.003906 C 740.707031 299.671875 607.660156 176.792969 442.261719 176.792969 L 442.261719 169.867188 L 442.261719 176.792969 C 276.832031 176.792969 143.789062 299.671875 143.789062 450.003906 L 136.863281 450.003906 L 143.789062 450.003906 C 143.789062 600.332031 276.832031 723.214844 442.261719 723.214844 L 442.261719 730.136719 L 442.261719 723.214844 C 607.660156 723.214844 740.734375 600.332031 740.734375 450.003906 L 747.660156 450.003906 L 740.734375 450.003906 M 754.585938 450.003906 C 754.585938 609.085938 614.171875 737.0625 442.261719 737.0625 C 270.351562 737.0625 129.9375 609.085938 129.9375 450.003906 C 129.9375 290.917969 270.351562 162.941406 442.261719 162.941406 C 614.171875 162.941406 754.554688 290.917969 754.554688 450.003906 Z M 754.585938 450.003906 " clip-rule="nonzero"/></clipPath><clipPath id="4a9cf7778a"><path d="M 0.839844 0.71875 L 625.800781 0.71875 L 625.800781 575.28125 L 0.839844 575.28125 Z M 0.839844 0.71875 " clip-rule="nonzero"/></clipPath><clipPath id="44607ef0ab"><path d="M 611.707031 288.003906 C 611.707031 137.671875 478.660156 14.792969 313.261719 14.792969 L 313.261719 7.867188 L 313.261719 14.792969 C 147.832031 14.792969 14.789062 137.671875 14.789062 288.003906 L 7.863281 288.003906 L 14.789062 288.003906 C 14.789062 438.332031 147.832031 561.214844 313.261719 561.214844 L 313.261719 568.136719 L 313.261719 561.214844 C 478.660156 561.214844 611.734375 438.332031 611.734375 288.003906 L 618.660156 288.003906 L 611.734375 288.003906 M 625.585938 288.003906 C 625.585938 447.085938 485.171875 575.0625 313.261719 575.0625 C 141.351562 575.0625 0.9375 447.085938 0.9375 288.003906 C 0.9375 128.917969 141.351562 0.941406 313.261719 0.941406 C 485.171875 0.941406 625.554688 128.917969 625.554688 288.003906 Z M 625.585938 288.003906 " clip-rule="nonzero"/></clipPath><clipPath id="79ec1ce394"><rect x="0" width="626" y="0" height="576"/></clipPath><clipPath id="6836168136"><path d="M 303 162 L 581.554688 162 L 581.554688 738 L 303 738 Z M 303 162 " clip-rule="nonzero"/></clipPath><clipPath id="3759d68128"><path d="M 567.164062 450.003906 C 567.164062 293.910156 507.578125 176.792969 442.261719 176.792969 L 442.261719 169.867188 L 442.261719 176.792969 C 376.914062 176.792969 317.359375 293.910156 317.359375 450.003906 L 310.433594 450.003906 L 317.359375 450.003906 C 317.359375 606.09375 376.941406 723.214844 442.261719 723.214844 L 442.261719 730.136719 L 442.261719 723.214844 C 507.605469 723.214844 567.164062 606.09375 567.164062 450.003906 L 574.085938 450.003906 L 567.164062 450.003906 M 581.011719 450.003906 C 581.011719 603.351562 522.535156 737.0625 442.261719 737.0625 C 361.984375 737.0625 303.480469 603.351562 303.480469 450.003906 C 303.480469 296.652344 361.957031 162.941406 442.261719 162.941406 C 522.566406 162.941406 581.011719 296.652344 581.011719 450.003906 Z M 581.011719 450.003906 " clip-rule="nonzero"/></clipPath><clipPath id="6c6ecb0f68"><path d="M 0.359375 0.71875 L 278.039062 0.71875 L 278.039062 575.28125 L 0.359375 575.28125 Z M 0.359375 0.71875 " clip-rule="nonzero"/></clipPath><clipPath id="60e8c00f78"><path d="M 264.164062 288.003906 C 264.164062 131.910156 204.578125 14.792969 139.261719 14.792969 L 139.261719 7.867188 L 139.261719 14.792969 C 73.914062 14.792969 14.359375 131.910156 14.359375 288.003906 L 7.433594 288.003906 L 14.359375 288.003906 C 14.359375 444.09375 73.941406 561.214844 139.261719 561.214844 L 139.261719 568.136719 L 139.261719 561.214844 C 204.605469 561.214844 264.164062 444.09375 264.164062 288.003906 L 271.085938 288.003906 L 264.164062 288.003906 M 278.011719 288.003906 C 278.011719 441.351562 219.535156 575.0625 139.261719 575.0625 C 58.984375 575.0625 0.480469 441.351562 0.480469 288.003906 C 0.480469 134.652344 58.957031 0.941406 139.261719 0.941406 C 219.566406 0.941406 278.011719 134.652344 278.011719 288.003906 Z M 278.011719 288.003906 " clip-rule="nonzero"/></clipPath><clipPath id="7541452a93"><rect x="0" width="279" y="0" height="576"/></clipPath><clipPath id="329b657483"><path d="M 158.304688 339.285156 L 725.996094 339.285156 L 725.996094 353.132812 L 158.304688 353.132812 Z M 158.304688 339.285156 " clip-rule="nonzero"/></clipPath><clipPath id="ec447398a0"><path d="M 0.304688 0.285156 L 567.996094 0.285156 L 567.996094 14.132812 L 0.304688 14.132812 Z M 0.304688 0.285156 " clip-rule="nonzero"/></clipPath><clipPath id="7f2853abaa"><rect x="0" width="568" y="0" height="15"/></clipPath><clipPath id="7bac1afe23"><path d="M 158.304688 546.402344 L 725.996094 546.402344 L 725.996094 560.25 L 158.304688 560.25 Z M 158.304688 546.402344 " clip-rule="nonzero"/></clipPath><clipPath id="c3912b6b98"><path d="M 0.304688 0.402344 L 567.996094 0.402344 L 567.996094 14.25 L 0.304688 14.25 Z M 0.304688 0.402344 " clip-rule="nonzero"/></clipPath><clipPath id="ef2765bc51"><rect x="0" width="568" y="0" height="15"/></clipPath></defs><g clip-path="url(#871e3c5161)"><g clip-path="url(#166e990222)"><g transform="matrix(1, 0, 0, 1, 129, 162)"><g clip-path="url(#79ec1ce394)"><g clip-path="url(#4a9cf7778a)"><g clip-path="url(#44607ef0ab)"><rect x="-327" width="1296" fill="#1e1e1e" height="1166.399991" y="-340.199999" fill-opacity="1"/></g></g></g></g></g></g><g clip-path="url(#6836168136)"><g clip-path="url(#3759d68128)"><g transform="matrix(1, 0, 0, 1, 303, 162)"><g clip-path="url(#7541452a93)"><g clip-path="url(#6c6ecb0f68)"><g clip-path="url(#60e8c00f78)"><rect x="-501" width="1296" fill="#1e1e1e" height="1166.399991" y="-340.199999" fill-opacity="1"/></g></g></g></g></g></g><g clip-path="url(#329b657483)"><g transform="matrix(1, 0, 0, 1, 158, 339)"><g clip-path="url(#7f2853abaa)"><g clip-path="url(#ec447398a0)"><rect x="-356" width="1296" fill="#1e1e1e" height="1166.399991" y="-517.199999" fill-opacity="1"/></g></g></g></g><g clip-path="url(#7bac1afe23)"><g transform="matrix(1, 0, 0, 1, 158, 546)"><g clip-path="url(#ef2765bc51)"><g clip-path="url(#c3912b6b98)"><rect x="-356" width="1296" fill="#1e1e1e" height="1166.399991" y="-724.199999" fill-opacity="1"/></g></g></g></g></svg>