<?xml version="1.0" standalone="no"?>
<!DOCTYPE svg PUBLIC "-//W3C//DTD SVG 1.1//EN" "http://www.w3.org/Graphics/SVG/1.1/DTD/svg11.dtd">
<svg xmlns="http://www.w3.org/2000/svg" xmlns:xlink="http://www.w3.org/1999/xlink" width="900" zoomAndPan="magnify" viewBox="0 0 900 809.999994" height="810" preserveAspectRatio="xMidYMid meet" version="1.0"><defs><clipPath id="0f28b96031"><path d="M 23 21.054688 L 276 21.054688 L 276 274 L 23 274 Z M 23 21.054688 " clip-rule="nonzero"/></clipPath><clipPath id="fcd6fb1df8"><path d="M 275.230469 147.976562 C 275.230469 217.574219 218.808594 273.996094 149.210938 273.996094 C 79.613281 273.996094 23.21875 217.574219 23.21875 147.976562 C 23.21875 78.378906 79.644531 21.957031 149.242188 21.957031 C 218.839844 21.957031 275.230469 78.378906 275.230469 147.976562 " clip-rule="nonzero"/></clipPath><clipPath id="93f5bc6a16"><path d="M 0.160156 0.800781 L 252.398438 0.800781 L 252.398438 253 L 0.160156 253 Z M 0.160156 0.800781 " clip-rule="nonzero"/></clipPath><clipPath id="ba02f3d040"><path d="M 252.230469 126.976562 C 252.230469 196.574219 195.808594 252.996094 126.210938 252.996094 C 56.613281 252.996094 0.21875 196.574219 0.21875 126.976562 C 0.21875 57.378906 56.644531 0.957031 126.242188 0.957031 C 195.839844 0.957031 252.230469 57.378906 252.230469 126.976562 " clip-rule="nonzero"/></clipPath><clipPath id="ed7240e757"><rect x="0" width="253" y="0" height="253"/></clipPath><clipPath id="e3d935ee79"><path d="M 15.398438 14.132812 L 283 14.132812 L 283 281.800781 L 15.398438 281.800781 Z M 15.398438 14.132812 " clip-rule="nonzero"/></clipPath><clipPath id="d942f150ff"><path d="M 282.453125 147.976562 C 282.453125 221.558594 222.796875 281.21875 149.210938 281.21875 L 149.210938 273.996094 L 149.210938 281.21875 C 75.65625 281.191406 15.996094 221.558594 15.996094 147.976562 L 23.21875 147.976562 L 15.996094 147.976562 C 15.996094 74.390625 75.65625 14.734375 149.242188 14.734375 L 149.242188 21.957031 L 149.242188 14.734375 C 222.824219 14.734375 282.453125 74.390625 282.453125 147.976562 L 275.230469 147.976562 L 282.453125 147.976562 M 268.007812 147.976562 C 268.007812 82.367188 214.824219 29.179688 149.242188 29.179688 C 83.660156 29.179688 30.441406 82.367188 30.441406 147.976562 C 30.441406 213.585938 83.628906 266.746094 149.242188 266.746094 C 214.851562 266.746094 268.007812 213.585938 268.007812 147.976562 Z M 268.007812 147.976562 " clip-rule="nonzero"/></clipPath><clipPath id="8bcd18f440"><path d="M 0.960938 0.601562 L 267.601562 0.601562 L 267.601562 267.238281 L 0.960938 267.238281 Z M 0.960938 0.601562 " clip-rule="nonzero"/></clipPath><clipPath id="5cc1e4cdb5"><path d="M 267.453125 133.976562 C 267.453125 207.558594 207.796875 267.21875 134.210938 267.21875 L 134.210938 259.996094 L 134.210938 267.21875 C 60.65625 267.191406 0.996094 207.558594 0.996094 133.976562 L 8.21875 133.976562 L 0.996094 133.976562 C 0.996094 60.390625 60.65625 0.734375 134.242188 0.734375 L 134.242188 7.957031 L 134.242188 0.734375 C 207.824219 0.734375 267.453125 60.390625 267.453125 133.976562 L 260.230469 133.976562 L 267.453125 133.976562 M 253.007812 133.976562 C 253.007812 68.367188 199.824219 15.179688 134.242188 15.179688 C 68.660156 15.179688 15.441406 68.367188 15.441406 133.976562 C 15.441406 199.585938 68.628906 252.746094 134.242188 252.746094 C 199.851562 252.746094 253.007812 199.585938 253.007812 133.976562 Z M 253.007812 133.976562 " clip-rule="nonzero"/></clipPath><clipPath id="0e5b17eca0"><rect x="0" width="268" y="0" height="268"/></clipPath><clipPath id="b04c3e8b8e"><path d="M 23 326 L 276 326 L 276 773 L 23 773 Z M 23 326 " clip-rule="nonzero"/></clipPath><clipPath id="1a2497193e"><path d="M 275.226562 452.757812 C 275.226562 383.160156 218.832031 326.738281 149.234375 326.738281 C 79.636719 326.738281 23.214844 383.160156 23.214844 452.757812 C 23.214844 504.90625 54.878906 549.628906 100.035156 568.8125 C 108.671875 572.886719 113.382812 581.175781 105.640625 593.339844 L 25.902344 737.621094 C 23.332031 741.664062 24.457031 747.039062 28.472656 749.667969 L 101.246094 800.371094 C 105.292969 803.027344 110.722656 801.929688 113.410156 797.886719 C 113.410156 797.886719 250.292969 540.09375 259.855469 518.890625 C 264.449219 508.664062 267.945312 498.203125 270.34375 487.515625 C 273.492188 476.476562 275.226562 464.804688 275.226562 452.757812 " clip-rule="nonzero"/></clipPath><clipPath id="6c2b32e3fd"><path d="M 0.160156 0.601562 L 252.398438 0.601562 L 252.398438 447 L 0.160156 447 Z M 0.160156 0.601562 " clip-rule="nonzero"/></clipPath><clipPath id="9d326420fc"><path d="M 252.226562 126.757812 C 252.226562 57.160156 195.832031 0.738281 126.234375 0.738281 C 56.636719 0.738281 0.214844 57.160156 0.214844 126.757812 C 0.214844 178.90625 31.878906 223.628906 77.035156 242.8125 C 85.671875 246.886719 90.382812 255.175781 82.640625 267.339844 L 2.902344 411.621094 C 0.332031 415.664062 1.457031 421.039062 5.472656 423.667969 L 78.246094 474.371094 C 82.292969 477.027344 87.722656 475.929688 90.410156 471.886719 C 90.410156 471.886719 227.292969 214.09375 236.855469 192.890625 C 241.449219 182.664062 244.945312 172.203125 247.34375 161.515625 C 250.492188 150.476562 252.226562 138.804688 252.226562 126.757812 " clip-rule="nonzero"/></clipPath><clipPath id="ffb0a58d69"><rect x="0" width="253" y="0" height="447"/></clipPath><clipPath id="04a4c4b0cf"><path d="M 15.695312 319 L 283 319 L 283 773 L 15.695312 773 Z M 15.695312 319 " clip-rule="nonzero"/></clipPath><clipPath id="050194ed6b"><path d="M 268.003906 452.757812 C 268.003906 387.148438 214.84375 333.960938 149.234375 333.960938 L 149.234375 326.738281 L 149.234375 333.960938 C 83.625 333.960938 30.4375 387.148438 30.4375 452.757812 L 23.214844 452.757812 L 30.4375 452.757812 C 30.4375 501.902344 60.28125 544.082031 102.835938 562.136719 L 102.953125 562.195312 L 103.066406 562.253906 C 113.699219 567.253906 120.953125 578.289062 114.074219 592.90625 C 113.410156 594.324219 112.601562 595.765625 111.707031 597.183594 L 105.609375 593.3125 L 111.9375 596.808594 L 32.199219 741.085938 L 32.085938 741.289062 L 31.96875 741.492188 C 31.507812 742.214844 31.707031 743.136719 32.429688 743.628906 L 32.515625 743.6875 L 32.605469 743.746094 L 105.378906 794.445312 L 101.246094 800.371094 L 105.234375 794.332031 C 105.957031 794.792969 106.910156 794.621094 107.402344 793.898438 L 113.441406 797.886719 L 107.054688 794.503906 C 107.171875 794.273438 243.851562 536.832031 253.296875 515.914062 L 259.886719 518.890625 L 253.296875 515.914062 C 257.71875 506.148438 261.042969 496.152344 263.324219 485.925781 L 263.382812 485.722656 L 263.4375 485.519531 C 266.414062 475.089844 268.0625 464.113281 268.0625 452.757812 L 275.285156 452.757812 L 268.0625 452.757812 M 282.507812 452.757812 C 282.507812 465.527344 280.6875 477.835938 277.335938 489.507812 L 270.402344 487.515625 L 277.449219 489.101562 C 274.9375 500.285156 271.296875 511.203125 266.5 521.867188 C 256.792969 543.332031 119.738281 801.496094 119.851562 801.265625 L 119.679688 801.582031 L 119.476562 801.871094 C 114.625 809.238281 104.714844 811.261719 97.320312 806.40625 L 97.230469 806.351562 L 97.144531 806.292969 L 24.339844 755.589844 L 28.472656 749.667969 L 24.484375 755.703125 C 17.175781 750.878906 15.097656 741.117188 19.804688 733.75 L 25.902344 737.648438 L 19.574219 734.152344 L 99.3125 589.875 L 99.429688 589.671875 L 99.542969 589.46875 C 100.148438 588.515625 100.640625 587.589844 101.046875 586.78125 C 103.847656 580.859375 101.941406 577.683594 96.972656 575.339844 L 100.0625 568.8125 L 97.230469 575.457031 C 49.476562 555.175781 15.992188 507.882812 15.992188 452.757812 C 15.992188 379.175781 75.652344 319.515625 149.234375 319.515625 C 222.820312 319.515625 282.449219 379.175781 282.449219 452.757812 Z M 282.507812 452.757812 " clip-rule="nonzero"/></clipPath><clipPath id="b399cc10fb"><path d="M 0.695312 0.398438 L 267.601562 0.398438 L 267.601562 454 L 0.695312 454 Z M 0.695312 0.398438 " clip-rule="nonzero"/></clipPath><clipPath id="c15ee8356e"><path d="M 253.003906 133.757812 C 253.003906 68.148438 199.84375 14.960938 134.234375 14.960938 L 134.234375 7.738281 L 134.234375 14.960938 C 68.625 14.960938 15.4375 68.148438 15.4375 133.757812 L 8.214844 133.757812 L 15.4375 133.757812 C 15.4375 182.902344 45.28125 225.082031 87.835938 243.136719 L 87.953125 243.195312 L 88.066406 243.253906 C 98.699219 248.253906 105.953125 259.289062 99.074219 273.90625 C 98.410156 275.324219 97.601562 276.765625 96.707031 278.183594 L 90.609375 274.3125 L 96.9375 277.808594 L 17.199219 422.085938 L 17.085938 422.289062 L 16.96875 422.492188 C 16.507812 423.214844 16.707031 424.136719 17.429688 424.628906 L 17.515625 424.6875 L 17.605469 424.746094 L 90.378906 475.445312 L 86.246094 481.371094 L 90.234375 475.332031 C 90.957031 475.792969 91.910156 475.621094 92.402344 474.898438 L 98.441406 478.886719 L 92.054688 475.503906 C 92.171875 475.273438 228.851562 217.832031 238.296875 196.914062 L 244.886719 199.890625 L 238.296875 196.914062 C 242.71875 187.148438 246.042969 177.152344 248.324219 166.925781 L 248.382812 166.722656 L 248.4375 166.519531 C 251.414062 156.089844 253.0625 145.113281 253.0625 133.757812 L 260.285156 133.757812 L 253.0625 133.757812 M 267.507812 133.757812 C 267.507812 146.527344 265.6875 158.835938 262.335938 170.507812 L 255.402344 168.515625 L 262.449219 170.101562 C 259.9375 181.285156 256.296875 192.203125 251.5 202.867188 C 241.792969 224.332031 104.738281 482.496094 104.851562 482.265625 L 104.679688 482.582031 L 104.476562 482.871094 C 99.625 490.238281 89.714844 492.261719 82.320312 487.40625 L 82.230469 487.351562 L 82.144531 487.292969 L 9.339844 436.589844 L 13.472656 430.667969 L 9.484375 436.703125 C 2.175781 431.878906 0.0976562 422.117188 4.804688 414.75 L 10.902344 418.648438 L 4.574219 415.152344 L 84.3125 270.875 L 84.429688 270.671875 L 84.542969 270.46875 C 85.148438 269.515625 85.640625 268.589844 86.046875 267.78125 C 88.847656 261.859375 86.941406 258.683594 81.972656 256.339844 L 85.0625 249.8125 L 82.230469 256.457031 C 34.476562 236.175781 0.992188 188.882812 0.992188 133.757812 C 0.992188 60.175781 60.652344 0.515625 134.234375 0.515625 C 207.820312 0.515625 267.449219 60.175781 267.449219 133.757812 Z M 267.507812 133.757812 " clip-rule="nonzero"/></clipPath><clipPath id="ec57ed9d15"><rect x="0" width="268" y="0" height="454"/></clipPath><clipPath id="d4e4cc99cd"><rect x="0" width="297" y="0" height="773"/></clipPath></defs><g transform="matrix(1, 0, 0, 1, 291, 37)"><g clip-path="url(#d4e4cc99cd)"><g clip-path="url(#0f28b96031)"><g clip-path="url(#fcd6fb1df8)"><g transform="matrix(1, 0, 0, 1, 23, 21)"><g clip-path="url(#ed7240e757)"><g clip-path="url(#93f5bc6a16)"><g clip-path="url(#ba02f3d040)"><rect x="-641.6" width="1555.2" fill="#ffd427" y="-352.839998" height="1399.67999" fill-opacity="1"/></g></g></g></g></g></g><g clip-path="url(#e3d935ee79)"><g clip-path="url(#d942f150ff)"><g transform="matrix(1, 0, 0, 1, 15, 14)"><g clip-path="url(#0e5b17eca0)"><g clip-path="url(#8bcd18f440)"><g clip-path="url(#5cc1e4cdb5)"><rect x="-633.6" width="1555.2" fill="#1e1e1e" y="-345.839998" height="1399.67999" fill-opacity="1"/></g></g></g></g></g></g><g clip-path="url(#b04c3e8b8e)"><g clip-path="url(#1a2497193e)"><g transform="matrix(1, 0, 0, 1, 23, 326)"><g clip-path="url(#ffb0a58d69)"><g clip-path="url(#6c2b32e3fd)"><g clip-path="url(#9d326420fc)"><rect x="-641.6" width="1555.2" fill="#ffd427" y="-657.839998" height="1399.67999" fill-opacity="1"/></g></g></g></g></g></g><g clip-path="url(#04a4c4b0cf)"><g clip-path="url(#050194ed6b)"><g transform="matrix(1, 0, 0, 1, 15, 319)"><g clip-path="url(#ec57ed9d15)"><g clip-path="url(#b399cc10fb)"><g clip-path="url(#c15ee8356e)"><rect x="-633.6" width="1555.2" fill="#1e1e1e" y="-650.839998" height="1399.67999" fill-opacity="1"/></g></g></g></g></g></g></g></g></svg>