<?xml version="1.0" standalone="no"?>
<!DOCTYPE svg PUBLIC "-//W3C//DTD SVG 1.1//EN" "http://www.w3.org/Graphics/SVG/1.1/DTD/svg11.dtd">
<svg xmlns="http://www.w3.org/2000/svg" xmlns:xlink="http://www.w3.org/1999/xlink" width="900" zoomAndPan="magnify" viewBox="0 0 900 809.999994" height="810" preserveAspectRatio="xMidYMid meet" version="1.0"><defs><clipPath id="7b2e6e611b"><path d="M 238.085938 387 L 557 387 L 557 660 L 238.085938 660 Z M 238.085938 387 " clip-rule="nonzero"/></clipPath><clipPath id="0237e3f749"><path d="M 556.085938 545.242188 C 504.914062 640.472656 398.867188 686.832031 317.378906 643.0625 C 317.132812 642.941406 316.929688 642.816406 316.679688 642.691406 C 235.191406 598.308594 215.449219 483.292969 266.703125 387.863281 L 284.800781 397.609375 C 236.921875 486.707031 258.226562 587.449219 326.511719 624.632812 L 321.578125 633.683594 L 326.511719 624.632812 C 326.71875 624.757812 326.882812 624.839844 327.089844 624.964844 C 395.289062 661.613281 490.1875 624.429688 537.90625 535.578125 Z M 556.085938 545.242188 " clip-rule="nonzero"/></clipPath><clipPath id="b7cabe8db0"><path d="M 0.0859375 0.839844 L 318.320312 0.839844 L 318.320312 273 L 0.0859375 273 Z M 0.0859375 0.839844 " clip-rule="nonzero"/></clipPath><clipPath id="473ebd3091"><path d="M 318.085938 158.242188 C 266.914062 253.472656 160.867188 299.832031 79.378906 256.0625 C 79.132812 255.941406 78.929688 255.816406 78.679688 255.691406 C -2.808594 211.308594 -22.550781 96.292969 28.703125 0.863281 L 46.800781 10.609375 C -1.078125 99.707031 20.226562 200.449219 88.511719 237.632812 L 83.578125 246.683594 L 88.511719 237.632812 C 88.71875 237.757812 88.882812 237.839844 89.089844 237.964844 C 157.289062 274.613281 252.1875 237.429688 299.90625 148.578125 Z M 318.085938 158.242188 " clip-rule="nonzero"/></clipPath><clipPath id="0e1d0b2863"><rect x="0" width="319" y="0" height="273"/></clipPath><clipPath id="55fcb8b22b"><path d="M 266 273 L 584.703125 273 L 584.703125 545.347656 L 266 545.347656 Z M 266 273 " clip-rule="nonzero"/></clipPath><clipPath id="140c4fbb0a"><path d="M 266.703125 387.863281 C 317.875 292.632812 423.921875 246.273438 505.410156 290.042969 C 505.65625 290.164062 505.863281 290.289062 506.109375 290.414062 L 501.171875 299.460938 L 506.109375 290.414062 C 587.597656 334.796875 607.382812 449.8125 556.085938 545.242188 L 537.988281 535.496094 C 585.867188 446.398438 564.5625 345.65625 496.277344 308.472656 C 496.070312 308.347656 495.90625 308.265625 495.699219 308.140625 C 427.539062 271.53125 332.601562 308.71875 284.882812 397.527344 Z M 266.703125 387.863281 " clip-rule="nonzero"/></clipPath><clipPath id="77c59e9cdd"><path d="M 0.640625 0 L 318.703125 0 L 318.703125 272.28125 L 0.640625 272.28125 Z M 0.640625 0 " clip-rule="nonzero"/></clipPath><clipPath id="bde1d08030"><path d="M 0.703125 114.863281 C 51.875 19.632812 157.921875 -26.726562 239.410156 17.042969 C 239.65625 17.164062 239.863281 17.289062 240.109375 17.414062 L 235.171875 26.460938 L 240.109375 17.414062 C 321.597656 61.796875 341.382812 176.8125 290.085938 272.242188 L 271.988281 262.496094 C 319.867188 173.398438 298.5625 72.65625 230.277344 35.472656 C 230.070312 35.347656 229.90625 35.265625 229.699219 35.140625 C 161.539062 -1.46875 66.601562 35.71875 18.882812 124.527344 Z M 0.703125 114.863281 " clip-rule="nonzero"/></clipPath><clipPath id="258cdce647"><rect x="0" width="319" y="0" height="273"/></clipPath><clipPath id="4a00c61513"><path d="M 530 533.140625 L 628 533.140625 L 628 616 L 530 616 Z M 530 533.140625 " clip-rule="nonzero"/></clipPath><clipPath id="b481c17047"><path d="M 627.128906 581.648438 C 612.648438 608.632812 581.097656 624.019531 555.101562 610.03125 C 555.019531 609.992188 554.933594 609.949219 554.894531 609.910156 L 559.832031 600.859375 L 554.894531 609.910156 C 528.9375 595.757812 524.371094 560.753906 538.894531 533.726562 L 556.992188 543.476562 C 545.886719 564.167969 551.933594 584.898438 564.683594 591.851562 C 564.726562 591.890625 564.765625 591.890625 564.808594 591.933594 C 577.519531 598.761719 597.921875 592.550781 608.988281 571.941406 Z M 627.128906 581.648438 " clip-rule="nonzero"/></clipPath><clipPath id="488450fc72"><path d="M 0 0.519531 L 97.359375 0.519531 L 97.359375 83 L 0 83 Z M 0 0.519531 " clip-rule="nonzero"/></clipPath><clipPath id="0534720c1e"><path d="M 97.128906 48.648438 C 82.648438 75.632812 51.097656 91.019531 25.101562 77.03125 C 25.019531 76.992188 24.933594 76.949219 24.894531 76.910156 L 29.832031 67.859375 L 24.894531 76.910156 C -1.0625 62.757812 -5.628906 27.753906 8.894531 0.726562 L 26.992188 10.476562 C 15.886719 31.167969 21.933594 51.898438 34.683594 58.851562 C 34.726562 58.890625 34.765625 58.890625 34.808594 58.933594 C 47.519531 65.761719 67.921875 59.550781 78.988281 38.941406 Z M 97.128906 48.648438 " clip-rule="nonzero"/></clipPath><clipPath id="18a4121512"><rect x="0" width="98" y="0" height="83"/></clipPath><clipPath id="296ae50652"><path d="M 154 349 L 460.214844 349 L 460.214844 755 L 154 755 Z M 154 349 " clip-rule="nonzero"/></clipPath><clipPath id="c84c3c719c"><path d="M 460.121094 736.441406 C 397.058594 761.246094 328.855469 761.160156 270.199219 729.242188 C 149.917969 663.714844 119.519531 492.839844 196.484375 349.605469 L 214.585938 359.355469 C 141.035156 496.253906 172.957031 652.851562 280.03125 711.183594 L 275.09375 720.234375 L 280.03125 711.183594 C 332.476562 739.730469 394.222656 740.304688 452.550781 717.3125 Z M 460.121094 736.441406 " clip-rule="nonzero"/></clipPath><clipPath id="f3566f0ef6"><path d="M 0 0.441406 L 306.214844 0.441406 L 306.214844 406 L 0 406 Z M 0 0.441406 " clip-rule="nonzero"/></clipPath><clipPath id="3c3e489322"><path d="M 306.121094 387.441406 C 243.058594 412.246094 174.855469 412.160156 116.199219 380.242188 C -4.082031 314.714844 -34.480469 143.839844 42.484375 0.605469 L 60.585938 10.355469 C -12.964844 147.253906 18.957031 303.851562 126.03125 362.183594 L 121.09375 371.234375 L 126.03125 362.183594 C 178.476562 390.730469 240.222656 391.304688 298.550781 368.3125 Z M 306.121094 387.441406 " clip-rule="nonzero"/></clipPath><clipPath id="dabe0d45bd"><rect x="0" width="307" y="0" height="406"/></clipPath><clipPath id="cc2e427062"><path d="M 196 178 L 669 178 L 669 584 L 196 584 Z M 196 178 " clip-rule="nonzero"/></clipPath><clipPath id="4168d746f8"><path d="M 196.484375 349.605469 C 273.242188 206.742188 431.324219 138.746094 551.5625 203.371094 C 551.890625 203.535156 552.21875 203.742188 552.550781 203.90625 C 672.828125 269.390625 703.226562 440.265625 626.304688 583.5 L 608.207031 573.75 C 681.753906 436.851562 649.835938 280.253906 542.757812 221.921875 L 547.695312 212.871094 L 542.757812 221.921875 C 542.472656 221.757812 542.140625 221.59375 541.855469 221.429688 C 434.902344 163.964844 287.96875 222.785156 214.625 359.3125 Z M 196.484375 349.605469 " clip-rule="nonzero"/></clipPath><clipPath id="b51f6a1e2d"><path d="M 0.320312 0 L 473 0 L 473 405.679688 L 0.320312 405.679688 Z M 0.320312 0 " clip-rule="nonzero"/></clipPath><clipPath id="84f1b8320f"><path d="M 0.484375 171.605469 C 77.242188 28.742188 235.324219 -39.253906 355.5625 25.371094 C 355.890625 25.535156 356.21875 25.742188 356.550781 25.90625 C 476.828125 91.390625 507.226562 262.265625 430.304688 405.5 L 412.207031 395.75 C 485.753906 258.851562 453.835938 102.253906 346.757812 43.921875 L 351.695312 34.871094 L 346.757812 43.921875 C 346.472656 43.757812 346.140625 43.59375 345.855469 43.429688 C 238.902344 -14.035156 91.96875 44.785156 18.625 181.3125 Z M 0.484375 171.605469 " clip-rule="nonzero"/></clipPath><clipPath id="afe372ca1b"><rect x="0" width="473" y="0" height="406"/></clipPath></defs><g clip-path="url(#7b2e6e611b)"><g clip-path="url(#0237e3f749)"><g transform="matrix(1, 0, 0, 1, 238, 387)"><g clip-path="url(#0e1d0b2863)"><g clip-path="url(#b7cabe8db0)"><g clip-path="url(#473ebd3091)"><rect x="-436" width="1296" fill="#1e1e1e" height="1166.399991" y="-565.199999" fill-opacity="1"/></g></g></g></g></g></g><g clip-path="url(#55fcb8b22b)"><g clip-path="url(#140c4fbb0a)"><g transform="matrix(1, 0, 0, 1, 266, 273)"><g clip-path="url(#258cdce647)"><g clip-path="url(#77c59e9cdd)"><g clip-path="url(#bde1d08030)"><rect x="-464" width="1296" fill="#1e1e1e" height="1166.399991" y="-451.199999" fill-opacity="1"/></g></g></g></g></g></g><g clip-path="url(#4a00c61513)"><g clip-path="url(#b481c17047)"><g transform="matrix(1, 0, 0, 1, 530, 533)"><g clip-path="url(#18a4121512)"><g clip-path="url(#488450fc72)"><g clip-path="url(#0534720c1e)"><rect x="-728" width="1296" fill="#1e1e1e" height="1166.399991" y="-711.199999" fill-opacity="1"/></g></g></g></g></g></g><g clip-path="url(#296ae50652)"><g clip-path="url(#c84c3c719c)"><g transform="matrix(1, 0, 0, 1, 154, 349)"><g clip-path="url(#dabe0d45bd)"><g clip-path="url(#f3566f0ef6)"><g clip-path="url(#3c3e489322)"><rect x="-352" width="1296" fill="#1e1e1e" height="1166.399991" y="-527.199999" fill-opacity="1"/></g></g></g></g></g></g><g clip-path="url(#cc2e427062)"><g clip-path="url(#4168d746f8)"><g transform="matrix(1, 0, 0, 1, 196, 178)"><g clip-path="url(#afe372ca1b)"><g clip-path="url(#b51f6a1e2d)"><g clip-path="url(#84f1b8320f)"><rect x="-394" width="1296" fill="#1e1e1e" height="1166.399991" y="-356.199999" fill-opacity="1"/></g></g></g></g></g></g></svg>