<?xml version="1.0" standalone="no"?>
<!DOCTYPE svg PUBLIC "-//W3C//DTD SVG 1.1//EN" "http://www.w3.org/Graphics/SVG/1.1/DTD/svg11.dtd">
<svg xmlns="http://www.w3.org/2000/svg" xmlns:xlink="http://www.w3.org/1999/xlink" width="900" zoomAndPan="magnify" viewBox="0 0 900 809.999994" height="810" preserveAspectRatio="xMidYMid meet" version="1.0"><defs><clipPath id="25c9a8f104"><path d="M 387.035156 518 L 514 518 L 514 734.839844 L 387.035156 734.839844 Z M 387.035156 518 " clip-rule="nonzero"/></clipPath><clipPath id="559569d68b"><path d="M 387.640625 709.117188 L 437.289062 631.4375 C 426.058594 629.578125 416.09375 623.667969 407.3125 613.621094 C 398.53125 603.574219 394.226562 591.5 394.226562 577.144531 C 394.226562 560.933594 399.96875 547.085938 411.535156 535.519531 C 423.101562 523.953125 437.203125 518.210938 454.089844 518.210938 C 470.976562 518.210938 485.164062 523.953125 496.644531 535.519531 C 508.128906 547.085938 513.953125 560.933594 513.953125 577.144531 C 513.953125 587.785156 511.757812 597.917969 507.367188 607.542969 C 502.976562 617.167969 496.476562 628.3125 487.695312 640.808594 L 425.972656 734.445312 Z M 387.640625 709.117188 " clip-rule="nonzero"/></clipPath><clipPath id="f9a0f53f4a"><path d="M 0.601562 0.160156 L 127 0.160156 L 127 216.640625 L 0.601562 216.640625 Z M 0.601562 0.160156 " clip-rule="nonzero"/></clipPath><clipPath id="20d316db7d"><path d="M 0.640625 191.117188 L 50.289062 113.4375 C 39.058594 111.578125 29.09375 105.667969 20.3125 95.621094 C 11.53125 85.574219 7.226562 73.5 7.226562 59.144531 C 7.226562 42.933594 12.96875 29.085938 24.535156 17.519531 C 36.101562 5.953125 50.203125 0.210938 67.089844 0.210938 C 83.976562 0.210938 98.164062 5.953125 109.644531 17.519531 C 121.128906 29.085938 126.953125 42.933594 126.953125 59.144531 C 126.953125 69.785156 124.757812 79.917969 120.367188 89.542969 C 115.976562 99.167969 109.476562 110.3125 100.695312 122.808594 L 38.972656 216.445312 Z M 0.640625 191.117188 " clip-rule="nonzero"/></clipPath><clipPath id="f4e8cc103b"><rect x="0" width="127" y="0" height="217"/></clipPath><clipPath id="4f1dbe96d4"><path d="M 381 513.171875 L 519 513.171875 L 519 740.875 L 381 740.875 Z M 381 513.171875 " clip-rule="nonzero"/></clipPath><clipPath id="eb55c3d757"><path d="M 384.09375 706.835938 L 433.742188 629.15625 L 437.289062 631.4375 L 436.613281 635.574219 C 424.285156 633.546875 413.476562 626.960938 404.191406 616.40625 L 407.398438 613.621094 L 404.191406 616.40625 C 394.734375 605.601562 390.003906 592.429688 390.003906 577.144531 L 394.226562 577.144531 L 390.003906 577.144531 C 390.003906 559.835938 396.253906 544.890625 408.582031 532.480469 L 411.535156 535.433594 L 408.582031 532.480469 C 420.824219 520.152344 436.105469 513.988281 454.089844 513.988281 L 454.089844 518.210938 L 454.089844 513.988281 C 471.992188 513.988281 487.273438 520.152344 499.683594 532.5625 C 512.011719 544.890625 518.261719 559.835938 518.261719 577.230469 L 514.039062 577.230469 L 518.261719 577.230469 C 518.261719 588.460938 515.898438 599.183594 511.335938 609.398438 C 506.863281 619.363281 500.109375 630.675781 491.328125 643.34375 L 487.863281 640.894531 L 491.410156 643.257812 L 429.6875 736.8125 L 427.324219 740.355469 L 423.777344 738.078125 L 385.359375 712.832031 L 381.816406 710.382812 L 384.09375 706.835938 M 391.1875 711.394531 L 387.640625 709.117188 L 389.921875 705.570312 L 428.339844 730.816406 L 426.058594 734.363281 L 422.511719 732 L 484.234375 638.445312 L 484.234375 638.277344 C 492.847656 625.949219 499.261719 615.140625 503.484375 605.769531 L 507.367188 607.542969 L 503.484375 605.769531 C 507.621094 596.648438 509.648438 587.109375 509.648438 577.0625 C 509.648438 561.949219 504.328125 549.199219 493.605469 538.390625 L 496.5625 535.433594 L 493.605469 538.390625 C 482.96875 527.75 469.796875 522.433594 454.089844 522.433594 C 438.386719 522.433594 425.214844 527.75 414.492188 538.472656 C 403.683594 549.199219 398.449219 562.03125 398.449219 577.144531 C 398.449219 590.570312 402.5 601.714844 410.523438 610.835938 C 418.710938 620.207031 427.917969 625.527344 437.964844 627.214844 L 444.296875 628.226562 L 440.835938 633.632812 L 391.1875 711.3125 Z M 391.1875 711.394531 " clip-rule="nonzero"/></clipPath><clipPath id="2c836fe76a"><path d="M 0.601562 0.839844 L 137.398438 0.839844 L 137.398438 227.398438 L 0.601562 227.398438 Z M 0.601562 0.839844 " clip-rule="nonzero"/></clipPath><clipPath id="690bca4496"><path d="M 3.09375 193.835938 L 52.742188 116.15625 L 56.289062 118.4375 L 55.613281 122.574219 C 43.285156 120.546875 32.476562 113.960938 23.191406 103.40625 L 26.398438 100.621094 L 23.191406 103.40625 C 13.734375 92.601562 9.003906 79.429688 9.003906 64.144531 L 13.226562 64.144531 L 9.003906 64.144531 C 9.003906 46.835938 15.253906 31.890625 27.582031 19.480469 L 30.535156 22.433594 L 27.582031 19.480469 C 39.824219 7.152344 55.105469 0.988281 73.089844 0.988281 L 73.089844 5.210938 L 73.089844 0.988281 C 90.992188 0.988281 106.273438 7.152344 118.683594 19.5625 C 131.011719 31.890625 137.261719 46.835938 137.261719 64.230469 L 133.039062 64.230469 L 137.261719 64.230469 C 137.261719 75.460938 134.898438 86.183594 130.335938 96.398438 C 125.863281 106.363281 119.109375 117.675781 110.328125 130.34375 L 106.863281 127.894531 L 110.410156 130.257812 L 48.6875 223.8125 L 46.324219 227.355469 L 42.777344 225.078125 L 4.359375 199.832031 L 0.816406 197.382812 L 3.09375 193.835938 M 10.1875 198.394531 L 6.640625 196.117188 L 8.921875 192.570312 L 47.339844 217.816406 L 45.058594 221.363281 L 41.511719 219 L 103.234375 125.445312 L 103.234375 125.277344 C 111.847656 112.949219 118.261719 102.140625 122.484375 92.769531 L 126.367188 94.542969 L 122.484375 92.769531 C 126.621094 83.648438 128.648438 74.109375 128.648438 64.0625 C 128.648438 48.949219 123.328125 36.199219 112.605469 25.390625 L 115.5625 22.433594 L 112.605469 25.390625 C 101.96875 14.75 88.796875 9.433594 73.089844 9.433594 C 57.386719 9.433594 44.214844 14.75 33.492188 25.472656 C 22.683594 36.199219 17.449219 49.03125 17.449219 64.144531 C 17.449219 77.570312 21.5 88.714844 29.523438 97.835938 C 37.710938 107.207031 46.917969 112.527344 56.964844 114.214844 L 63.296875 115.226562 L 59.835938 120.632812 L 10.1875 198.3125 Z M 10.1875 198.394531 " clip-rule="nonzero"/></clipPath><clipPath id="129c68b781"><rect x="0" width="138" y="0" height="228"/></clipPath><clipPath id="21a2c2bc3e"><path d="M 392.171875 163.847656 L 511.28125 163.847656 L 511.28125 283.78125 L 392.171875 283.78125 Z M 392.171875 163.847656 " clip-rule="nonzero"/></clipPath><clipPath id="9ebe5d44b4"><path d="M 409.601562 266.46875 C 398.035156 254.902344 392.292969 240.714844 392.292969 223.914062 C 392.292969 207.113281 398.035156 192.84375 409.601562 181.359375 C 421.167969 169.875 435.355469 163.964844 452.15625 163.964844 C 468.367188 163.964844 482.300781 169.707031 493.785156 181.273438 C 505.265625 192.84375 511.09375 207.027344 511.09375 223.828125 C 511.09375 240.632812 505.351562 254.902344 493.785156 266.382812 C 482.214844 277.867188 468.367188 283.695312 452.15625 283.695312 C 435.355469 283.695312 421.085938 277.953125 409.601562 266.382812 " clip-rule="nonzero"/></clipPath><clipPath id="0a71bf280f"><path d="M 0.171875 0.921875 L 119.199219 0.921875 L 119.199219 120.78125 L 0.171875 120.78125 Z M 0.171875 0.921875 " clip-rule="nonzero"/></clipPath><clipPath id="dd7ae01431"><path d="M 17.601562 103.46875 C 6.035156 91.902344 0.292969 77.714844 0.292969 60.914062 C 0.292969 44.113281 6.035156 29.84375 17.601562 18.359375 C 29.167969 6.875 43.355469 0.964844 60.15625 0.964844 C 76.367188 0.964844 90.300781 6.707031 101.785156 18.273438 C 113.265625 29.84375 119.09375 44.027344 119.09375 60.828125 C 119.09375 77.632812 113.351562 91.902344 101.785156 103.382812 C 90.214844 114.867188 76.367188 120.695312 60.15625 120.695312 C 43.355469 120.695312 29.085938 114.953125 17.601562 103.382812 " clip-rule="nonzero"/></clipPath><clipPath id="11faa9e98d"><rect x="0" width="120" y="0" height="121"/></clipPath><clipPath id="d730207aa9"><path d="M 388.039062 159.710938 L 515.414062 159.710938 L 515.414062 288.742188 L 388.039062 288.742188 Z M 388.039062 159.710938 " clip-rule="nonzero"/></clipPath><clipPath id="43c8e6b7a0"><path d="M 406.648438 269.425781 C 394.234375 257.097656 388.070312 241.8125 388.070312 223.914062 L 392.292969 223.914062 L 388.070312 223.914062 C 388.070312 206.015625 394.234375 190.730469 406.648438 178.320312 L 409.601562 181.273438 L 406.648438 178.320312 C 418.972656 165.90625 434.257812 159.742188 452.15625 159.742188 L 452.15625 163.964844 L 452.15625 159.742188 C 469.464844 159.742188 484.496094 165.992188 496.824219 178.320312 C 509.152344 190.648438 515.398438 205.929688 515.398438 223.914062 L 511.175781 223.914062 L 515.398438 223.914062 C 515.398438 241.8125 509.234375 257.097656 496.824219 269.507812 L 493.867188 266.554688 L 496.824219 269.507812 C 484.496094 281.835938 469.550781 288.085938 452.15625 288.085938 L 452.15625 283.863281 L 452.15625 288.085938 C 434.257812 288.085938 418.972656 281.921875 406.5625 269.507812 L 409.519531 266.554688 L 406.5625 269.507812 M 412.558594 263.515625 C 423.28125 274.238281 436.367188 279.554688 452.15625 279.554688 C 467.269531 279.554688 480.019531 274.238281 490.828125 263.515625 C 501.550781 252.789062 506.871094 239.703125 506.871094 223.914062 C 506.871094 208.125 501.550781 195.039062 490.828125 184.3125 L 493.785156 181.359375 L 490.828125 184.3125 C 480.105469 173.507812 467.269531 168.1875 452.15625 168.1875 C 436.367188 168.1875 423.28125 173.507812 412.558594 184.230469 C 401.835938 195.039062 396.515625 208.125 396.515625 223.914062 C 396.515625 239.703125 401.835938 252.789062 412.558594 263.515625 Z M 412.558594 263.515625 " clip-rule="nonzero"/></clipPath><clipPath id="f11ade1e0e"><path d="M 0.0390625 0.710938 L 127.414062 0.710938 L 127.414062 129.238281 L 0.0390625 129.238281 Z M 0.0390625 0.710938 " clip-rule="nonzero"/></clipPath><clipPath id="7a82a14048"><path d="M 18.648438 110.425781 C 6.234375 98.097656 0.0703125 82.8125 0.0703125 64.914062 L 4.292969 64.914062 L 0.0703125 64.914062 C 0.0703125 47.015625 6.234375 31.730469 18.648438 19.320312 L 21.601562 22.273438 L 18.648438 19.320312 C 30.972656 6.90625 46.257812 0.742188 64.15625 0.742188 L 64.15625 4.964844 L 64.15625 0.742188 C 81.464844 0.742188 96.496094 6.992188 108.824219 19.320312 C 121.152344 31.648438 127.398438 46.929688 127.398438 64.914062 L 123.175781 64.914062 L 127.398438 64.914062 C 127.398438 82.8125 121.234375 98.097656 108.824219 110.507812 L 105.867188 107.554688 L 108.824219 110.507812 C 96.496094 122.835938 81.550781 129.085938 64.15625 129.085938 L 64.15625 124.863281 L 64.15625 129.085938 C 46.257812 129.085938 30.972656 122.921875 18.5625 110.507812 L 21.519531 107.554688 L 18.5625 110.507812 M 24.558594 104.515625 C 35.28125 115.238281 48.367188 120.554688 64.15625 120.554688 C 79.269531 120.554688 92.019531 115.238281 102.828125 104.515625 C 113.550781 93.789062 118.871094 80.703125 118.871094 64.914062 C 118.871094 49.125 113.550781 36.039062 102.828125 25.3125 L 105.785156 22.359375 L 102.828125 25.3125 C 92.105469 14.507812 79.269531 9.1875 64.15625 9.1875 C 48.367188 9.1875 35.28125 14.507812 24.558594 25.230469 C 13.835938 36.039062 8.515625 49.125 8.515625 64.914062 C 8.515625 80.703125 13.835938 93.789062 24.558594 104.515625 Z M 24.558594 104.515625 " clip-rule="nonzero"/></clipPath><clipPath id="66c4aa9af4"><rect x="0" width="128" y="0" height="130"/></clipPath></defs><g clip-path="url(#25c9a8f104)"><g clip-path="url(#559569d68b)"><g transform="matrix(1, 0, 0, 1, 387, 518)"><g clip-path="url(#f4e8cc103b)"><g clip-path="url(#f9a0f53f4a)"><g clip-path="url(#20d316db7d)"><rect x="-585" width="1296" fill="#000000" height="1166.399991" y="-696.199999" fill-opacity="1"/></g></g></g></g></g></g><g clip-path="url(#4f1dbe96d4)"><g clip-path="url(#eb55c3d757)"><g transform="matrix(1, 0, 0, 1, 381, 513)"><g clip-path="url(#129c68b781)"><g clip-path="url(#2c836fe76a)"><g clip-path="url(#690bca4496)"><rect x="-579" width="1296" fill="#1e1e1e" height="1166.399991" y="-691.199999" fill-opacity="1"/></g></g></g></g></g></g><g clip-path="url(#21a2c2bc3e)"><g clip-path="url(#9ebe5d44b4)"><g transform="matrix(1, 0, 0, 1, 392, 163)"><g clip-path="url(#11faa9e98d)"><g clip-path="url(#0a71bf280f)"><g clip-path="url(#dd7ae01431)"><rect x="-590" width="1296" fill="#000000" height="1166.399991" y="-341.199999" fill-opacity="1"/></g></g></g></g></g></g><g clip-path="url(#d730207aa9)"><g clip-path="url(#43c8e6b7a0)"><g transform="matrix(1, 0, 0, 1, 388, 159)"><g clip-path="url(#66c4aa9af4)"><g clip-path="url(#f11ade1e0e)"><g clip-path="url(#7a82a14048)"><rect x="-586" width="1296" fill="#1e1e1e" height="1166.399991" y="-337.199999" fill-opacity="1"/></g></g></g></g></g></g></svg>