<?xml version="1.0" standalone="no"?>
<!DOCTYPE svg PUBLIC "-//W3C//DTD SVG 1.1//EN" "http://www.w3.org/Graphics/SVG/1.1/DTD/svg11.dtd">
<svg xmlns="http://www.w3.org/2000/svg" xmlns:xlink="http://www.w3.org/1999/xlink" width="900" zoomAndPan="magnify" viewBox="0 0 900 809.999994" height="810" preserveAspectRatio="xMidYMid meet" version="1.0"><defs><clipPath id="812c3baf83"><path d="M 373.148438 47.292969 L 526.851562 47.292969 L 526.851562 202 L 373.148438 202 Z M 373.148438 47.292969 " clip-rule="nonzero"/></clipPath><clipPath id="5d5f58fb39"><path d="M 395.640625 179.726562 C 380.710938 164.800781 373.300781 146.496094 373.300781 124.8125 C 373.300781 103.128906 380.710938 84.714844 395.640625 69.894531 C 410.566406 55.078125 428.871094 47.449219 450.554688 47.449219 C 471.476562 47.449219 489.453125 54.859375 504.273438 69.785156 C 519.09375 84.714844 526.609375 103.019531 526.609375 124.703125 C 526.609375 146.386719 519.199219 164.800781 504.273438 179.617188 C 489.347656 194.4375 471.476562 201.957031 450.554688 201.957031 C 428.871094 201.957031 410.457031 194.546875 395.640625 179.617188 " clip-rule="nonzero"/></clipPath><clipPath id="5aff0cef51"><path d="M 0.199219 0.292969 L 153.800781 0.292969 L 153.800781 155 L 0.199219 155 Z M 0.199219 0.292969 " clip-rule="nonzero"/></clipPath><clipPath id="36faf9384b"><path d="M 22.640625 132.726562 C 7.710938 117.800781 0.300781 99.496094 0.300781 77.8125 C 0.300781 56.128906 7.710938 37.714844 22.640625 22.894531 C 37.566406 8.078125 55.871094 0.449219 77.554688 0.449219 C 98.476562 0.449219 116.453125 7.859375 131.273438 22.785156 C 146.09375 37.714844 153.609375 56.019531 153.609375 77.703125 C 153.609375 99.386719 146.199219 117.800781 131.273438 132.617188 C 116.347656 147.4375 98.476562 154.957031 77.554688 154.957031 C 55.871094 154.957031 37.457031 147.546875 22.640625 132.617188 " clip-rule="nonzero"/></clipPath><clipPath id="35c1d39fc3"><rect x="0" width="154" y="0" height="155"/></clipPath><clipPath id="1e093fde36"><path d="M 367.8125 42 L 532.1875 42 L 532.1875 208 L 367.8125 208 Z M 367.8125 42 " clip-rule="nonzero"/></clipPath><clipPath id="50c63aff86"><path d="M 391.824219 183.542969 C 375.808594 167.632812 367.855469 147.910156 367.855469 124.8125 L 373.300781 124.8125 L 367.855469 124.8125 C 367.855469 101.710938 375.808594 81.988281 391.824219 65.972656 L 395.640625 69.785156 L 391.824219 65.972656 C 407.734375 49.957031 427.457031 42 450.554688 42 L 450.554688 47.449219 L 450.554688 42 C 472.894531 42 492.289062 50.0625 508.195312 65.972656 C 524.105469 81.878906 532.167969 101.601562 532.167969 124.8125 L 526.71875 124.8125 L 532.167969 124.8125 C 532.167969 147.910156 524.214844 167.632812 508.195312 183.648438 L 504.382812 179.835938 L 508.195312 183.648438 C 492.289062 199.558594 473 207.621094 450.554688 207.621094 L 450.554688 202.171875 L 450.554688 207.621094 C 427.457031 207.621094 407.734375 199.667969 391.71875 183.648438 L 395.53125 179.835938 L 391.71875 183.648438 M 399.453125 175.914062 C 413.292969 189.75 430.179688 196.617188 450.554688 196.617188 C 470.058594 196.617188 486.511719 189.75 500.460938 175.914062 C 514.296875 162.074219 521.164062 145.1875 521.164062 124.8125 C 521.164062 104.4375 514.296875 87.546875 500.460938 73.707031 L 504.273438 69.894531 L 500.460938 73.707031 C 486.621094 59.761719 470.058594 52.898438 450.554688 52.898438 C 430.179688 52.898438 413.292969 59.761719 399.453125 73.601562 C 385.613281 87.546875 378.75 104.4375 378.75 124.8125 C 378.75 145.1875 385.613281 162.074219 399.453125 175.914062 Z M 399.453125 175.914062 " clip-rule="nonzero"/></clipPath><clipPath id="125e28db55"><path d="M 0.8125 0 L 165.1875 0 L 165.1875 165.839844 L 0.8125 165.839844 Z M 0.8125 0 " clip-rule="nonzero"/></clipPath><clipPath id="0bc99281f3"><path d="M 24.824219 141.542969 C 8.808594 125.632812 0.855469 105.910156 0.855469 82.8125 L 6.300781 82.8125 L 0.855469 82.8125 C 0.855469 59.710938 8.808594 39.988281 24.824219 23.972656 L 28.640625 27.785156 L 24.824219 23.972656 C 40.734375 7.957031 60.457031 0 83.554688 0 L 83.554688 5.449219 L 83.554688 0 C 105.894531 0 125.289062 8.0625 141.195312 23.972656 C 157.105469 39.878906 165.167969 59.601562 165.167969 82.8125 L 159.71875 82.8125 L 165.167969 82.8125 C 165.167969 105.910156 157.214844 125.632812 141.195312 141.648438 L 137.382812 137.835938 L 141.195312 141.648438 C 125.289062 157.558594 106 165.621094 83.554688 165.621094 L 83.554688 160.171875 L 83.554688 165.621094 C 60.457031 165.621094 40.734375 157.667969 24.71875 141.648438 L 28.53125 137.835938 L 24.71875 141.648438 M 32.453125 133.914062 C 46.292969 147.75 63.179688 154.617188 83.554688 154.617188 C 103.058594 154.617188 119.511719 147.75 133.460938 133.914062 C 147.296875 120.074219 154.164062 103.1875 154.164062 82.8125 C 154.164062 62.4375 147.296875 45.546875 133.460938 31.707031 L 137.273438 27.894531 L 133.460938 31.707031 C 119.621094 17.761719 103.058594 10.898438 83.554688 10.898438 C 63.179688 10.898438 46.292969 17.761719 32.453125 31.601562 C 18.613281 45.546875 11.75 62.4375 11.75 82.8125 C 11.75 103.1875 18.613281 120.074219 32.453125 133.914062 Z M 32.453125 133.914062 " clip-rule="nonzero"/></clipPath><clipPath id="7954cd8a92"><rect x="0" width="166" y="0" height="166"/></clipPath><clipPath id="04f99a25a0"><path d="M 373.148438 627.054688 L 526.851562 627.054688 L 526.851562 781.824219 L 373.148438 781.824219 Z M 373.148438 627.054688 " clip-rule="nonzero"/></clipPath><clipPath id="7728b09eca"><path d="M 395.640625 759.484375 C 380.710938 744.558594 373.300781 726.253906 373.300781 704.570312 C 373.300781 682.886719 380.710938 664.472656 395.640625 649.652344 C 410.566406 634.835938 428.871094 627.207031 450.554688 627.207031 C 471.476562 627.207031 489.453125 634.617188 504.273438 649.542969 C 519.09375 664.472656 526.609375 682.777344 526.609375 704.460938 C 526.609375 726.144531 519.199219 744.558594 504.273438 759.375 C 489.347656 774.195312 471.476562 781.714844 450.554688 781.714844 C 428.871094 781.714844 410.457031 774.304688 395.640625 759.375 " clip-rule="nonzero"/></clipPath><clipPath id="8b19d1db94"><path d="M 0.199219 0.121094 L 153.800781 0.121094 L 153.800781 154.824219 L 0.199219 154.824219 Z M 0.199219 0.121094 " clip-rule="nonzero"/></clipPath><clipPath id="569b45957d"><path d="M 22.640625 132.484375 C 7.710938 117.558594 0.300781 99.253906 0.300781 77.570312 C 0.300781 55.886719 7.710938 37.472656 22.640625 22.652344 C 37.566406 7.835938 55.871094 0.207031 77.554688 0.207031 C 98.476562 0.207031 116.453125 7.617188 131.273438 22.542969 C 146.09375 37.472656 153.609375 55.777344 153.609375 77.460938 C 153.609375 99.144531 146.199219 117.558594 131.273438 132.375 C 116.347656 147.195312 98.476562 154.714844 77.554688 154.714844 C 55.871094 154.714844 37.457031 147.304688 22.640625 132.375 " clip-rule="nonzero"/></clipPath><clipPath id="1731651c6c"><rect x="0" width="154" y="0" height="155"/></clipPath><clipPath id="efc27bcdcf"><path d="M 367.8125 621.714844 L 532.1875 621.714844 L 532.1875 788 L 367.8125 788 Z M 367.8125 621.714844 " clip-rule="nonzero"/></clipPath><clipPath id="10a0fa744a"><path d="M 391.824219 763.300781 C 375.808594 747.390625 367.855469 727.667969 367.855469 704.570312 L 373.300781 704.570312 L 367.855469 704.570312 C 367.855469 681.46875 375.808594 661.75 391.824219 645.730469 L 395.640625 649.542969 L 391.824219 645.730469 C 407.734375 629.714844 427.457031 621.757812 450.554688 621.757812 L 450.554688 627.207031 L 450.554688 621.757812 C 472.894531 621.757812 492.289062 629.824219 508.195312 645.730469 C 524.105469 661.640625 532.167969 681.359375 532.167969 704.570312 L 526.71875 704.570312 L 532.167969 704.570312 C 532.167969 727.667969 524.214844 747.390625 508.195312 763.410156 L 504.382812 759.59375 L 508.195312 763.410156 C 492.289062 779.316406 473 787.378906 450.554688 787.378906 L 450.554688 781.933594 L 450.554688 787.378906 C 427.457031 787.378906 407.734375 779.425781 391.71875 763.410156 L 395.53125 759.59375 L 391.71875 763.410156 M 399.453125 755.671875 C 413.292969 769.511719 430.179688 776.375 450.554688 776.375 C 470.058594 776.375 486.511719 769.511719 500.460938 755.671875 C 514.296875 741.835938 521.164062 724.945312 521.164062 704.570312 C 521.164062 684.195312 514.296875 667.304688 500.460938 653.46875 L 504.273438 649.652344 L 500.460938 653.46875 C 486.621094 639.519531 470.058594 632.65625 450.554688 632.65625 C 430.179688 632.65625 413.292969 639.519531 399.453125 653.359375 C 385.613281 667.304688 378.75 684.195312 378.75 704.570312 C 378.75 724.945312 385.613281 741.835938 399.453125 755.671875 Z M 399.453125 755.671875 " clip-rule="nonzero"/></clipPath><clipPath id="b37f7ed4fb"><path d="M 0.8125 0.714844 L 165.1875 0.714844 L 165.1875 166.441406 L 0.8125 166.441406 Z M 0.8125 0.714844 " clip-rule="nonzero"/></clipPath><clipPath id="4cabb2d434"><path d="M 24.824219 142.300781 C 8.808594 126.390625 0.855469 106.667969 0.855469 83.570312 L 6.300781 83.570312 L 0.855469 83.570312 C 0.855469 60.46875 8.808594 40.75 24.824219 24.730469 L 28.640625 28.542969 L 24.824219 24.730469 C 40.734375 8.714844 60.457031 0.757812 83.554688 0.757812 L 83.554688 6.207031 L 83.554688 0.757812 C 105.894531 0.757812 125.289062 8.824219 141.195312 24.730469 C 157.105469 40.640625 165.167969 60.359375 165.167969 83.570312 L 159.71875 83.570312 L 165.167969 83.570312 C 165.167969 106.667969 157.214844 126.390625 141.195312 142.410156 L 137.382812 138.59375 L 141.195312 142.410156 C 125.289062 158.316406 106 166.378906 83.554688 166.378906 L 83.554688 160.933594 L 83.554688 166.378906 C 60.457031 166.378906 40.734375 158.425781 24.71875 142.410156 L 28.53125 138.59375 L 24.71875 142.410156 M 32.453125 134.671875 C 46.292969 148.511719 63.179688 155.375 83.554688 155.375 C 103.058594 155.375 119.511719 148.511719 133.460938 134.671875 C 147.296875 120.835938 154.164062 103.945312 154.164062 83.570312 C 154.164062 63.195312 147.296875 46.304688 133.460938 32.46875 L 137.273438 28.652344 L 133.460938 32.46875 C 119.621094 18.519531 103.058594 11.65625 83.554688 11.65625 C 63.179688 11.65625 46.292969 18.519531 32.453125 32.359375 C 18.613281 46.304688 11.75 63.195312 11.75 83.570312 C 11.75 103.945312 18.613281 120.835938 32.453125 134.671875 Z M 32.453125 134.671875 " clip-rule="nonzero"/></clipPath><clipPath id="752b485fcb"><rect x="0" width="166" y="0" height="167"/></clipPath></defs><g clip-path="url(#812c3baf83)"><g clip-path="url(#5d5f58fb39)"><g transform="matrix(1, 0, 0, 1, 373, 47)"><g clip-path="url(#35c1d39fc3)"><g clip-path="url(#5aff0cef51)"><g clip-path="url(#36faf9384b)"><rect x="-571" width="1296" fill="#000000" height="1166.399991" y="-225.199999" fill-opacity="1"/></g></g></g></g></g></g><g clip-path="url(#1e093fde36)"><g clip-path="url(#50c63aff86)"><g transform="matrix(1, 0, 0, 1, 367, 42)"><g clip-path="url(#7954cd8a92)"><g clip-path="url(#125e28db55)"><g clip-path="url(#0bc99281f3)"><rect x="-565" width="1296" fill="#1e1e1e" height="1166.399991" y="-220.199999" fill-opacity="1"/></g></g></g></g></g></g><g clip-path="url(#04f99a25a0)"><g clip-path="url(#7728b09eca)"><g transform="matrix(1, 0, 0, 1, 373, 627)"><g clip-path="url(#1731651c6c)"><g clip-path="url(#8b19d1db94)"><g clip-path="url(#569b45957d)"><rect x="-571" width="1296" fill="#000000" height="1166.399991" y="-805.199999" fill-opacity="1"/></g></g></g></g></g></g><g clip-path="url(#efc27bcdcf)"><g clip-path="url(#10a0fa744a)"><g transform="matrix(1, 0, 0, 1, 367, 621)"><g clip-path="url(#752b485fcb)"><g clip-path="url(#b37f7ed4fb)"><g clip-path="url(#4cabb2d434)"><rect x="-565" width="1296" fill="#1e1e1e" height="1166.399991" y="-799.199999" fill-opacity="1"/></g></g></g></g></g></g></svg>