<?xml version="1.0" standalone="no"?>
<!DOCTYPE svg PUBLIC "-//W3C//DTD SVG 1.1//EN" "http://www.w3.org/Graphics/SVG/1.1/DTD/svg11.dtd">
<svg xmlns="http://www.w3.org/2000/svg" xmlns:xlink="http://www.w3.org/1999/xlink" width="900" zoomAndPan="magnify" viewBox="0 0 900 809.999994" height="810" preserveAspectRatio="xMidYMid meet" version="1.0"><defs><clipPath id="8aa3e866dc"><path d="M 116.136719 107.675781 L 387 107.675781 L 387 793.628906 L 116.136719 793.628906 Z M 116.136719 107.675781 " clip-rule="nonzero"/></clipPath><clipPath id="65185c1f5e"><path d="M 125.542969 529.449219 L 160.933594 529.449219 C 173.542969 529.449219 183.78125 539.667969 183.78125 552.296875 L 183.78125 678.859375 C 183.78125 741.949219 234.917969 793.082031 298.007812 793.082031 L 377.765625 793.082031 C 382.816406 793.082031 386.898438 789 386.898438 783.949219 L 386.898438 655.785156 C 386.898438 650.734375 382.816406 646.648438 377.765625 646.648438 L 319.253906 646.648438 C 306.644531 646.648438 296.40625 636.433594 296.40625 623.800781 L 296.40625 277.230469 C 296.40625 264.621094 306.621094 254.378906 319.253906 254.378906 L 377.785156 254.378906 C 382.839844 254.378906 386.921875 250.296875 386.921875 245.246094 L 386.921875 117.082031 C 386.921875 112.03125 382.839844 107.949219 377.785156 107.949219 L 298.007812 107.949219 C 234.917969 107.949219 183.78125 159.082031 183.78125 222.171875 L 183.78125 354.4375 C 183.78125 367.046875 173.542969 377.289062 160.933594 377.289062 L 125.542969 377.289062 C 120.492188 377.289062 116.410156 381.371094 116.410156 386.421875 L 116.410156 520.292969 C 116.410156 525.34375 120.492188 529.425781 125.542969 529.425781 " clip-rule="nonzero"/></clipPath><clipPath id="3172323cc5"><path d="M 0.398438 0.761719 L 271 0.761719 L 271 686.199219 L 0.398438 686.199219 Z M 0.398438 0.761719 " clip-rule="nonzero"/></clipPath><clipPath id="5718578595"><path d="M 9.542969 422.449219 L 44.933594 422.449219 C 57.542969 422.449219 67.78125 432.667969 67.78125 445.296875 L 67.78125 571.859375 C 67.78125 634.949219 118.917969 686.082031 182.007812 686.082031 L 261.765625 686.082031 C 266.816406 686.082031 270.898438 682 270.898438 676.949219 L 270.898438 548.785156 C 270.898438 543.734375 266.816406 539.648438 261.765625 539.648438 L 203.253906 539.648438 C 190.644531 539.648438 180.40625 529.433594 180.40625 516.800781 L 180.40625 170.230469 C 180.40625 157.621094 190.621094 147.378906 203.253906 147.378906 L 261.785156 147.378906 C 266.839844 147.378906 270.921875 143.296875 270.921875 138.246094 L 270.921875 10.082031 C 270.921875 5.03125 266.839844 0.949219 261.785156 0.949219 L 182.007812 0.949219 C 118.917969 0.949219 67.78125 52.082031 67.78125 115.171875 L 67.78125 247.4375 C 67.78125 260.046875 57.542969 270.289062 44.933594 270.289062 L 9.542969 270.289062 C 4.492188 270.289062 0.410156 274.371094 0.410156 279.421875 L 0.410156 413.292969 C 0.410156 418.34375 4.492188 422.425781 9.542969 422.425781 " clip-rule="nonzero"/></clipPath><clipPath id="b3320c642a"><rect x="0" width="271" y="0" height="687"/></clipPath><clipPath id="0a90a61ef6"><path d="M 110.191406 102 L 393 102 L 393 799 L 110.191406 799 Z M 110.191406 102 " clip-rule="nonzero"/></clipPath><clipPath id="bbd3f795b8"><path d="M 125.542969 523.8125 L 160.933594 523.8125 L 160.933594 529.449219 L 160.933594 523.8125 C 176.65625 523.8125 189.421875 536.554688 189.421875 552.296875 L 183.78125 552.296875 L 189.421875 552.296875 L 189.421875 678.859375 L 183.78125 678.859375 L 189.421875 678.859375 C 189.421875 738.835938 238.03125 787.445312 298.007812 787.445312 L 298.007812 793.082031 L 298.007812 787.445312 L 377.765625 787.445312 L 377.765625 793.082031 L 377.765625 787.445312 C 379.703125 787.445312 381.261719 785.886719 381.261719 783.949219 L 386.898438 783.949219 L 381.261719 783.949219 L 381.261719 655.785156 L 386.898438 655.785156 L 381.261719 655.785156 C 381.261719 653.84375 379.679688 652.289062 377.765625 652.289062 L 377.765625 646.648438 L 377.765625 652.289062 L 319.253906 652.289062 L 319.253906 646.648438 L 319.253906 652.289062 C 303.53125 652.289062 290.765625 639.542969 290.765625 623.800781 L 296.40625 623.800781 L 290.765625 623.800781 L 290.765625 277.230469 L 296.40625 277.230469 L 290.765625 277.230469 C 290.765625 261.507812 303.507812 248.742188 319.253906 248.742188 L 319.253906 254.378906 L 319.253906 248.742188 L 377.785156 248.742188 L 377.785156 254.378906 L 377.785156 248.742188 C 379.726562 248.742188 381.28125 247.183594 381.28125 245.246094 L 386.921875 245.246094 L 381.28125 245.246094 L 381.28125 117.082031 L 386.921875 117.082031 L 381.28125 117.082031 C 381.28125 115.144531 379.726562 113.585938 377.785156 113.585938 L 377.785156 107.949219 L 377.785156 113.585938 L 298.007812 113.585938 L 298.007812 107.949219 L 298.007812 113.585938 C 238.050781 113.585938 189.421875 162.195312 189.421875 222.171875 L 183.78125 222.171875 L 189.421875 222.171875 L 189.421875 354.4375 L 183.78125 354.4375 L 189.421875 354.4375 C 189.421875 370.160156 176.679688 382.925781 160.933594 382.925781 L 160.933594 377.289062 L 160.933594 382.925781 L 125.542969 382.925781 L 125.542969 377.289062 L 125.542969 382.925781 C 123.605469 382.925781 122.046875 384.484375 122.046875 386.421875 L 116.410156 386.421875 L 122.046875 386.421875 L 122.046875 520.292969 L 116.410156 520.292969 L 122.046875 520.292969 C 122.046875 522.230469 123.605469 523.789062 125.542969 523.789062 L 125.542969 529.425781 L 125.542969 523.789062 M 125.542969 535.066406 C 117.378906 535.066406 110.769531 528.457031 110.769531 520.292969 L 110.769531 386.421875 C 110.769531 378.257812 117.378906 371.648438 125.542969 371.648438 L 160.933594 371.648438 C 170.429688 371.648438 178.144531 363.933594 178.144531 354.4375 L 178.144531 222.171875 C 178.144531 155.96875 231.828125 102.308594 298.007812 102.308594 L 377.765625 102.308594 C 385.929688 102.308594 392.539062 108.917969 392.539062 117.082031 L 392.539062 245.246094 C 392.539062 253.410156 385.929688 260.019531 377.765625 260.019531 L 319.253906 260.019531 C 309.757812 260.019531 302.042969 267.734375 302.042969 277.230469 L 302.042969 623.800781 C 302.042969 633.296875 309.757812 641.011719 319.253906 641.011719 L 377.785156 641.011719 C 385.953125 641.011719 392.558594 647.621094 392.558594 655.785156 L 392.558594 783.949219 C 392.558594 792.113281 385.953125 798.722656 377.785156 798.722656 L 298.007812 798.722656 C 231.804688 798.722656 178.144531 745.0625 178.144531 678.859375 L 178.144531 552.296875 C 178.144531 542.800781 170.429688 535.089844 160.933594 535.089844 L 125.542969 535.089844 Z M 125.542969 535.066406 " clip-rule="nonzero"/></clipPath><clipPath id="b1d5f82664"><path d="M 0.640625 0.238281 L 282.640625 0.238281 L 282.640625 696.960938 L 0.640625 696.960938 Z M 0.640625 0.238281 " clip-rule="nonzero"/></clipPath><clipPath id="e7382fbf33"><path d="M 15.542969 421.8125 L 50.933594 421.8125 L 50.933594 427.449219 L 50.933594 421.8125 C 66.65625 421.8125 79.421875 434.554688 79.421875 450.296875 L 73.78125 450.296875 L 79.421875 450.296875 L 79.421875 576.859375 L 73.78125 576.859375 L 79.421875 576.859375 C 79.421875 636.835938 128.03125 685.445312 188.007812 685.445312 L 188.007812 691.082031 L 188.007812 685.445312 L 267.765625 685.445312 L 267.765625 691.082031 L 267.765625 685.445312 C 269.703125 685.445312 271.261719 683.886719 271.261719 681.949219 L 276.898438 681.949219 L 271.261719 681.949219 L 271.261719 553.785156 L 276.898438 553.785156 L 271.261719 553.785156 C 271.261719 551.84375 269.679688 550.289062 267.765625 550.289062 L 267.765625 544.648438 L 267.765625 550.289062 L 209.253906 550.289062 L 209.253906 544.648438 L 209.253906 550.289062 C 193.53125 550.289062 180.765625 537.542969 180.765625 521.800781 L 186.40625 521.800781 L 180.765625 521.800781 L 180.765625 175.230469 L 186.40625 175.230469 L 180.765625 175.230469 C 180.765625 159.507812 193.507812 146.742188 209.253906 146.742188 L 209.253906 152.378906 L 209.253906 146.742188 L 267.785156 146.742188 L 267.785156 152.378906 L 267.785156 146.742188 C 269.726562 146.742188 271.28125 145.183594 271.28125 143.246094 L 276.921875 143.246094 L 271.28125 143.246094 L 271.28125 15.082031 L 276.921875 15.082031 L 271.28125 15.082031 C 271.28125 13.144531 269.726562 11.585938 267.785156 11.585938 L 267.785156 5.949219 L 267.785156 11.585938 L 188.007812 11.585938 L 188.007812 5.949219 L 188.007812 11.585938 C 128.050781 11.585938 79.421875 60.195312 79.421875 120.171875 L 73.78125 120.171875 L 79.421875 120.171875 L 79.421875 252.4375 L 73.78125 252.4375 L 79.421875 252.4375 C 79.421875 268.160156 66.679688 280.925781 50.933594 280.925781 L 50.933594 275.289062 L 50.933594 280.925781 L 15.542969 280.925781 L 15.542969 275.289062 L 15.542969 280.925781 C 13.605469 280.925781 12.046875 282.484375 12.046875 284.421875 L 6.410156 284.421875 L 12.046875 284.421875 L 12.046875 418.292969 L 6.410156 418.292969 L 12.046875 418.292969 C 12.046875 420.230469 13.605469 421.789062 15.542969 421.789062 L 15.542969 427.425781 L 15.542969 421.789062 M 15.542969 433.066406 C 7.378906 433.066406 0.769531 426.457031 0.769531 418.292969 L 0.769531 284.421875 C 0.769531 276.257812 7.378906 269.648438 15.542969 269.648438 L 50.933594 269.648438 C 60.429688 269.648438 68.144531 261.933594 68.144531 252.4375 L 68.144531 120.171875 C 68.144531 53.96875 121.828125 0.308594 188.007812 0.308594 L 267.765625 0.308594 C 275.929688 0.308594 282.539062 6.917969 282.539062 15.082031 L 282.539062 143.246094 C 282.539062 151.410156 275.929688 158.019531 267.765625 158.019531 L 209.253906 158.019531 C 199.757812 158.019531 192.042969 165.734375 192.042969 175.230469 L 192.042969 521.800781 C 192.042969 531.296875 199.757812 539.011719 209.253906 539.011719 L 267.785156 539.011719 C 275.953125 539.011719 282.558594 545.621094 282.558594 553.785156 L 282.558594 681.949219 C 282.558594 690.113281 275.953125 696.722656 267.785156 696.722656 L 188.007812 696.722656 C 121.804688 696.722656 68.144531 643.0625 68.144531 576.859375 L 68.144531 450.296875 C 68.144531 440.800781 60.429688 433.089844 50.933594 433.089844 L 15.542969 433.089844 Z M 15.542969 433.066406 " clip-rule="nonzero"/></clipPath><clipPath id="2260aab864"><rect x="0" width="283" y="0" height="697"/></clipPath><clipPath id="0a2d14b885"><path d="M 522.304688 107.675781 L 793.355469 107.675781 L 793.355469 793.628906 L 522.304688 793.628906 Z M 522.304688 107.675781 " clip-rule="nonzero"/></clipPath><clipPath id="9068e45e24"><path d="M 783.953125 371.582031 L 748.542969 371.582031 C 735.933594 371.582031 725.691406 361.363281 725.691406 348.730469 L 725.691406 222.171875 C 725.691406 159.082031 674.558594 107.949219 611.46875 107.949219 L 531.710938 107.949219 C 526.660156 107.949219 522.578125 112.03125 522.578125 117.082031 L 522.578125 245.246094 C 522.578125 250.296875 526.660156 254.378906 531.710938 254.378906 L 590.246094 254.378906 C 602.851562 254.378906 613.09375 264.597656 613.09375 277.230469 L 613.09375 623.800781 C 613.09375 636.410156 602.875 646.648438 590.246094 646.648438 L 531.710938 646.648438 C 526.660156 646.648438 522.578125 650.734375 522.578125 655.785156 L 522.578125 783.949219 C 522.578125 789 526.660156 793.082031 531.710938 793.082031 L 611.46875 793.082031 C 674.558594 793.082031 725.691406 741.949219 725.691406 678.859375 L 725.691406 546.59375 C 725.691406 533.984375 735.933594 523.742188 748.542969 523.742188 L 783.933594 523.742188 C 788.984375 523.742188 793.066406 519.660156 793.066406 514.609375 L 793.066406 380.714844 C 793.066406 375.664062 788.984375 371.582031 783.933594 371.582031 " clip-rule="nonzero"/></clipPath><clipPath id="831be2cae3"><path d="M 0.480469 0.761719 L 271.199219 0.761719 L 271.199219 686.199219 L 0.480469 686.199219 Z M 0.480469 0.761719 " clip-rule="nonzero"/></clipPath><clipPath id="f81cd39cbd"><path d="M 261.953125 264.582031 L 226.542969 264.582031 C 213.933594 264.582031 203.691406 254.363281 203.691406 241.730469 L 203.691406 115.171875 C 203.691406 52.082031 152.558594 0.949219 89.46875 0.949219 L 9.710938 0.949219 C 4.660156 0.949219 0.578125 5.03125 0.578125 10.082031 L 0.578125 138.246094 C 0.578125 143.296875 4.660156 147.378906 9.710938 147.378906 L 68.246094 147.378906 C 80.851562 147.378906 91.09375 157.597656 91.09375 170.230469 L 91.09375 516.800781 C 91.09375 529.410156 80.875 539.648438 68.246094 539.648438 L 9.710938 539.648438 C 4.660156 539.648438 0.578125 543.734375 0.578125 548.785156 L 0.578125 676.949219 C 0.578125 682 4.660156 686.082031 9.710938 686.082031 L 89.46875 686.082031 C 152.558594 686.082031 203.691406 634.949219 203.691406 571.859375 L 203.691406 439.59375 C 203.691406 426.984375 213.933594 416.742188 226.542969 416.742188 L 261.933594 416.742188 C 266.984375 416.742188 271.066406 412.660156 271.066406 407.609375 L 271.066406 273.714844 C 271.066406 268.664062 266.984375 264.582031 261.933594 264.582031 " clip-rule="nonzero"/></clipPath><clipPath id="1c464f4750"><rect x="0" width="272" y="0" height="687"/></clipPath><clipPath id="139f3c22ec"><path d="M 516.359375 102 L 799 102 L 799 799 L 516.359375 799 Z M 516.359375 102 " clip-rule="nonzero"/></clipPath><clipPath id="485e958f09"><path d="M 783.953125 377.21875 L 748.542969 377.21875 L 748.542969 371.582031 L 748.542969 377.21875 C 732.820312 377.21875 720.054688 364.476562 720.054688 348.730469 L 725.691406 348.730469 L 720.054688 348.730469 L 720.054688 222.171875 L 725.691406 222.171875 L 720.054688 222.171875 C 720.054688 162.195312 671.445312 113.585938 611.46875 113.585938 L 611.46875 107.949219 L 611.46875 113.585938 L 531.710938 113.585938 L 531.710938 107.949219 L 531.710938 113.585938 C 529.773438 113.585938 528.214844 115.144531 528.214844 117.082031 L 522.578125 117.082031 L 528.214844 117.082031 L 528.214844 245.246094 L 522.578125 245.246094 L 528.214844 245.246094 C 528.214844 247.183594 529.796875 248.742188 531.710938 248.742188 L 531.710938 254.378906 L 531.710938 248.742188 L 590.246094 248.742188 L 590.246094 254.378906 L 590.246094 248.742188 C 605.964844 248.742188 618.734375 261.484375 618.734375 277.230469 L 613.09375 277.230469 L 618.734375 277.230469 L 618.734375 623.800781 L 613.09375 623.800781 L 618.734375 623.800781 C 618.734375 639.523438 605.988281 652.289062 590.246094 652.289062 L 590.246094 646.648438 L 590.246094 652.289062 L 531.710938 652.289062 L 531.710938 646.648438 L 531.710938 652.289062 C 529.773438 652.289062 528.214844 653.84375 528.214844 655.785156 L 522.578125 655.785156 L 528.214844 655.785156 L 528.214844 783.949219 L 522.578125 783.949219 L 528.214844 783.949219 C 528.214844 785.886719 529.773438 787.445312 531.710938 787.445312 L 531.710938 793.082031 L 531.710938 787.445312 L 611.46875 787.445312 L 611.46875 793.082031 L 611.46875 787.445312 C 671.445312 787.445312 720.054688 738.835938 720.054688 678.859375 L 725.691406 678.859375 L 720.054688 678.859375 L 720.054688 546.59375 L 725.691406 546.59375 L 720.054688 546.59375 C 720.054688 530.871094 732.796875 518.105469 748.542969 518.105469 L 748.542969 523.742188 L 748.542969 518.105469 L 783.933594 518.105469 L 783.933594 523.742188 L 783.933594 518.105469 C 785.871094 518.105469 787.429688 516.546875 787.429688 514.609375 L 793.066406 514.609375 L 787.429688 514.609375 L 787.429688 380.714844 L 793.066406 380.714844 L 787.429688 380.714844 C 787.429688 378.777344 785.871094 377.21875 783.933594 377.21875 L 783.933594 371.582031 L 783.933594 377.21875 M 783.933594 365.941406 C 792.097656 365.941406 798.707031 372.550781 798.707031 380.714844 L 798.707031 514.585938 C 798.707031 522.75 792.097656 529.359375 783.933594 529.359375 L 748.542969 529.359375 C 739.046875 529.359375 731.332031 537.074219 731.332031 546.570312 L 731.332031 678.835938 C 731.332031 745.039062 677.671875 798.699219 611.46875 798.699219 L 531.710938 798.699219 C 523.546875 798.699219 516.9375 792.089844 516.9375 783.925781 L 516.9375 655.785156 C 516.9375 647.621094 523.546875 641.011719 531.710938 641.011719 L 590.246094 641.011719 C 599.742188 641.011719 607.453125 633.296875 607.453125 623.800781 L 607.453125 277.230469 C 607.453125 267.734375 599.742188 260.019531 590.246094 260.019531 L 531.710938 260.019531 C 523.546875 260.019531 516.9375 253.410156 516.9375 245.246094 L 516.9375 117.082031 C 516.9375 108.917969 523.546875 102.308594 531.710938 102.308594 L 611.46875 102.308594 C 677.671875 102.308594 731.332031 155.96875 731.332031 222.171875 L 731.332031 348.730469 C 731.332031 358.226562 739.046875 365.941406 748.542969 365.941406 Z M 783.933594 365.941406 " clip-rule="nonzero"/></clipPath><clipPath id="399eddbb43"><path d="M 0.71875 0.238281 L 282.71875 0.238281 L 282.71875 696.71875 L 0.71875 696.71875 Z M 0.71875 0.238281 " clip-rule="nonzero"/></clipPath><clipPath id="52c2e3340c"><path d="M 267.953125 275.21875 L 232.542969 275.21875 L 232.542969 269.582031 L 232.542969 275.21875 C 216.820312 275.21875 204.054688 262.476562 204.054688 246.730469 L 209.691406 246.730469 L 204.054688 246.730469 L 204.054688 120.171875 L 209.691406 120.171875 L 204.054688 120.171875 C 204.054688 60.195312 155.445312 11.585938 95.46875 11.585938 L 95.46875 5.949219 L 95.46875 11.585938 L 15.710938 11.585938 L 15.710938 5.949219 L 15.710938 11.585938 C 13.773438 11.585938 12.214844 13.144531 12.214844 15.082031 L 6.578125 15.082031 L 12.214844 15.082031 L 12.214844 143.246094 L 6.578125 143.246094 L 12.214844 143.246094 C 12.214844 145.183594 13.796875 146.742188 15.710938 146.742188 L 15.710938 152.378906 L 15.710938 146.742188 L 74.246094 146.742188 L 74.246094 152.378906 L 74.246094 146.742188 C 89.964844 146.742188 102.734375 159.484375 102.734375 175.230469 L 97.09375 175.230469 L 102.734375 175.230469 L 102.734375 521.800781 L 97.09375 521.800781 L 102.734375 521.800781 C 102.734375 537.523438 89.988281 550.289062 74.246094 550.289062 L 74.246094 544.648438 L 74.246094 550.289062 L 15.710938 550.289062 L 15.710938 544.648438 L 15.710938 550.289062 C 13.773438 550.289062 12.214844 551.84375 12.214844 553.785156 L 6.578125 553.785156 L 12.214844 553.785156 L 12.214844 681.949219 L 6.578125 681.949219 L 12.214844 681.949219 C 12.214844 683.886719 13.773438 685.445312 15.710938 685.445312 L 15.710938 691.082031 L 15.710938 685.445312 L 95.46875 685.445312 L 95.46875 691.082031 L 95.46875 685.445312 C 155.445312 685.445312 204.054688 636.835938 204.054688 576.859375 L 209.691406 576.859375 L 204.054688 576.859375 L 204.054688 444.59375 L 209.691406 444.59375 L 204.054688 444.59375 C 204.054688 428.871094 216.796875 416.105469 232.542969 416.105469 L 232.542969 421.742188 L 232.542969 416.105469 L 267.933594 416.105469 L 267.933594 421.742188 L 267.933594 416.105469 C 269.871094 416.105469 271.429688 414.546875 271.429688 412.609375 L 277.066406 412.609375 L 271.429688 412.609375 L 271.429688 278.714844 L 277.066406 278.714844 L 271.429688 278.714844 C 271.429688 276.777344 269.871094 275.21875 267.933594 275.21875 L 267.933594 269.582031 L 267.933594 275.21875 M 267.933594 263.941406 C 276.097656 263.941406 282.707031 270.550781 282.707031 278.714844 L 282.707031 412.585938 C 282.707031 420.75 276.097656 427.359375 267.933594 427.359375 L 232.542969 427.359375 C 223.046875 427.359375 215.332031 435.074219 215.332031 444.570312 L 215.332031 576.835938 C 215.332031 643.039062 161.671875 696.699219 95.46875 696.699219 L 15.710938 696.699219 C 7.546875 696.699219 0.9375 690.089844 0.9375 681.925781 L 0.9375 553.785156 C 0.9375 545.621094 7.546875 539.011719 15.710938 539.011719 L 74.246094 539.011719 C 83.742188 539.011719 91.453125 531.296875 91.453125 521.800781 L 91.453125 175.230469 C 91.453125 165.734375 83.742188 158.019531 74.246094 158.019531 L 15.710938 158.019531 C 7.546875 158.019531 0.9375 151.410156 0.9375 143.246094 L 0.9375 15.082031 C 0.9375 6.917969 7.546875 0.308594 15.710938 0.308594 L 95.46875 0.308594 C 161.671875 0.308594 215.332031 53.96875 215.332031 120.171875 L 215.332031 246.730469 C 215.332031 256.226562 223.046875 263.941406 232.542969 263.941406 Z M 267.933594 263.941406 " clip-rule="nonzero"/></clipPath><clipPath id="9fdb047a72"><rect x="0" width="283" y="0" height="697"/></clipPath></defs><g clip-path="url(#8aa3e866dc)"><g clip-path="url(#65185c1f5e)"><g transform="matrix(1, 0, 0, 1, 116, 107)"><g clip-path="url(#b3320c642a)"><g clip-path="url(#3172323cc5)"><g clip-path="url(#5718578595)"><rect x="-314" width="1296" fill="#34a853" height="1166.399991" y="-285.199999" fill-opacity="1"/></g></g></g></g></g></g><g clip-path="url(#0a90a61ef6)"><g clip-path="url(#bbd3f795b8)"><g transform="matrix(1, 0, 0, 1, 110, 102)"><g clip-path="url(#2260aab864)"><g clip-path="url(#b1d5f82664)"><g clip-path="url(#e7382fbf33)"><rect x="-308" width="1296" fill="#1e1e1e" height="1166.399991" y="-280.199999" fill-opacity="1"/></g></g></g></g></g></g><g clip-path="url(#0a2d14b885)"><g clip-path="url(#9068e45e24)"><g transform="matrix(1, 0, 0, 1, 522, 107)"><g clip-path="url(#1c464f4750)"><g clip-path="url(#831be2cae3)"><g clip-path="url(#f81cd39cbd)"><rect x="-720" width="1296" fill="#34a853" height="1166.399991" y="-285.199999" fill-opacity="1"/></g></g></g></g></g></g><g clip-path="url(#139f3c22ec)"><g clip-path="url(#485e958f09)"><g transform="matrix(1, 0, 0, 1, 516, 102)"><g clip-path="url(#9fdb047a72)"><g clip-path="url(#399eddbb43)"><g clip-path="url(#52c2e3340c)"><rect x="-714" width="1296" fill="#1e1e1e" height="1166.399991" y="-280.199999" fill-opacity="1"/></g></g></g></g></g></g></svg>