<?xml version="1.0" standalone="no"?>
<!DOCTYPE svg PUBLIC "-//W3C//DTD SVG 1.1//EN" "http://www.w3.org/Graphics/SVG/1.1/DTD/svg11.dtd">
<svg xmlns="http://www.w3.org/2000/svg" xmlns:xlink="http://www.w3.org/1999/xlink" width="900" zoomAndPan="magnify" viewBox="0 0 900 809.999994" height="810" preserveAspectRatio="xMidYMid meet" version="1.0"><defs><clipPath id="f56b18b6c3"><path d="M 88.789062 218.644531 L 424 218.644531 L 424 629.644531 L 88.789062 629.644531 Z M 88.789062 218.644531 " clip-rule="nonzero"/></clipPath><clipPath id="71acbba8a0"><path d="M 122.660156 365.457031 L 204.113281 423.996094 L 122.660156 482.53125 C 86.371094 508.621094 78.09375 559.1875 104.160156 595.476562 C 130.222656 631.761719 180.816406 640.042969 217.101562 613.976562 L 389.988281 489.71875 C 390.234375 489.539062 390.457031 489.359375 390.683594 489.183594 C 391.261719 488.757812 391.820312 488.332031 392.378906 487.886719 C 392.9375 487.441406 393.472656 487.015625 394.007812 486.59375 C 394.453125 486.234375 394.878906 485.855469 395.300781 485.5 C 395.972656 484.941406 396.617188 484.363281 397.265625 483.78125 C 397.535156 483.558594 397.777344 483.3125 398.023438 483.066406 C 398.828125 482.308594 399.632812 481.527344 400.410156 480.746094 C 400.480469 480.679688 400.546875 480.613281 400.613281 480.546875 C 406.394531 474.632812 411.125 467.980469 414.785156 460.863281 C 414.851562 460.726562 414.917969 460.617188 414.984375 460.484375 C 415.453125 459.523438 415.921875 458.5625 416.367188 457.605469 C 416.523438 457.269531 416.679688 456.914062 416.835938 456.578125 C 417.171875 455.839844 417.460938 455.105469 417.773438 454.347656 C 417.996094 453.789062 418.222656 453.207031 418.445312 452.648438 C 418.644531 452.113281 418.824219 451.578125 419.023438 451.042969 C 419.292969 450.285156 419.558594 449.503906 419.804688 448.746094 C 419.917969 448.386719 420.027344 448.03125 420.140625 447.671875 C 420.429688 446.734375 420.699219 445.796875 420.945312 444.859375 C 421.011719 444.636719 421.054688 444.414062 421.121094 444.191406 C 421.390625 443.121094 421.65625 442.070312 421.878906 441 C 421.902344 440.84375 421.949219 440.6875 421.96875 440.53125 C 422.191406 439.414062 422.417969 438.300781 422.59375 437.183594 C 422.617188 437.003906 422.640625 436.847656 422.683594 436.671875 C 422.863281 435.578125 423.019531 434.484375 423.152344 433.390625 C 423.175781 433.144531 423.199219 432.878906 423.21875 432.609375 C 423.332031 431.605469 423.421875 430.601562 423.488281 429.597656 C 423.511719 429.171875 423.53125 428.75 423.554688 428.324219 C 423.597656 427.5 423.644531 426.652344 423.664062 425.824219 C 423.6875 425.199219 423.664062 424.574219 423.664062 423.949219 C 423.664062 423.324219 423.664062 422.699219 423.664062 422.074219 C 423.644531 421.25 423.597656 420.402344 423.554688 419.578125 C 423.53125 419.152344 423.511719 418.726562 423.488281 418.304688 C 423.421875 417.300781 423.332031 416.296875 423.21875 415.292969 C 423.199219 415.046875 423.175781 414.777344 423.152344 414.53125 C 423.019531 413.4375 422.863281 412.347656 422.683594 411.253906 C 422.660156 411.074219 422.640625 410.917969 422.59375 410.738281 C 422.417969 409.625 422.191406 408.507812 421.96875 407.390625 C 421.949219 407.234375 421.902344 407.078125 421.878906 406.921875 C 421.65625 405.851562 421.390625 404.804688 421.121094 403.730469 C 421.054688 403.507812 421.011719 403.285156 420.945312 403.0625 C 420.699219 402.125 420.40625 401.1875 420.140625 400.25 C 420.027344 399.894531 419.917969 399.535156 419.804688 399.179688 C 419.558594 398.398438 419.292969 397.640625 419.023438 396.878906 C 418.84375 396.34375 418.644531 395.808594 418.445312 395.273438 C 418.222656 394.691406 417.996094 394.136719 417.773438 393.578125 C 417.484375 392.839844 417.171875 392.082031 416.835938 391.347656 C 416.679688 391.011719 416.523438 390.652344 416.367188 390.320312 C 415.921875 389.359375 415.476562 388.398438 414.984375 387.441406 C 414.917969 387.304688 414.851562 387.195312 414.785156 387.0625 C 411.144531 379.941406 406.414062 373.292969 400.613281 367.378906 C 400.546875 367.3125 400.480469 367.242188 400.410156 367.175781 C 399.632812 366.394531 398.851562 365.613281 398.023438 364.855469 C 397.777344 364.609375 397.511719 364.386719 397.265625 364.140625 C 396.617188 363.5625 395.972656 362.980469 395.300781 362.421875 C 394.878906 362.042969 394.429688 361.6875 394.007812 361.328125 C 393.472656 360.882812 392.914062 360.460938 392.378906 360.035156 C 391.84375 359.613281 391.261719 359.164062 390.683594 358.742188 C 390.4375 358.5625 390.214844 358.382812 389.988281 358.207031 L 217.125 234.011719 C 180.816406 207.949219 130.246094 216.203125 104.160156 252.515625 C 78.070312 288.824219 86.351562 339.371094 122.660156 365.457031 " clip-rule="nonzero"/></clipPath><clipPath id="d96c858ad4"><path d="M 0.789062 0.644531 L 335.839844 0.644531 L 335.839844 411.644531 L 0.789062 411.644531 Z M 0.789062 0.644531 " clip-rule="nonzero"/></clipPath><clipPath id="3854846abb"><path d="M 34.660156 147.457031 L 116.113281 205.996094 L 34.660156 264.53125 C -1.628906 290.621094 -9.90625 341.1875 16.160156 377.476562 C 42.222656 413.761719 92.816406 422.042969 129.101562 395.976562 L 301.988281 271.71875 C 302.234375 271.539062 302.457031 271.359375 302.683594 271.183594 C 303.261719 270.757812 303.820312 270.332031 304.378906 269.886719 C 304.9375 269.441406 305.472656 269.015625 306.007812 268.59375 C 306.453125 268.234375 306.878906 267.855469 307.300781 267.5 C 307.972656 266.941406 308.617188 266.363281 309.265625 265.78125 C 309.535156 265.558594 309.777344 265.3125 310.023438 265.066406 C 310.828125 264.308594 311.632812 263.527344 312.410156 262.746094 C 312.480469 262.679688 312.546875 262.613281 312.613281 262.546875 C 318.394531 256.632812 323.125 249.980469 326.785156 242.863281 C 326.851562 242.726562 326.917969 242.617188 326.984375 242.484375 C 327.453125 241.523438 327.921875 240.5625 328.367188 239.605469 C 328.523438 239.269531 328.679688 238.914062 328.835938 238.578125 C 329.171875 237.839844 329.460938 237.105469 329.773438 236.347656 C 329.996094 235.789062 330.222656 235.207031 330.445312 234.648438 C 330.644531 234.113281 330.824219 233.578125 331.023438 233.042969 C 331.292969 232.285156 331.558594 231.503906 331.804688 230.746094 C 331.917969 230.386719 332.027344 230.03125 332.140625 229.671875 C 332.429688 228.734375 332.699219 227.796875 332.945312 226.859375 C 333.011719 226.636719 333.054688 226.414062 333.121094 226.191406 C 333.390625 225.121094 333.65625 224.070312 333.878906 223 C 333.902344 222.84375 333.949219 222.6875 333.96875 222.53125 C 334.191406 221.414062 334.417969 220.300781 334.59375 219.183594 C 334.617188 219.003906 334.640625 218.847656 334.683594 218.671875 C 334.863281 217.578125 335.019531 216.484375 335.152344 215.390625 C 335.175781 215.144531 335.199219 214.878906 335.21875 214.609375 C 335.332031 213.605469 335.421875 212.601562 335.488281 211.597656 C 335.511719 211.171875 335.53125 210.75 335.554688 210.324219 C 335.597656 209.5 335.644531 208.652344 335.664062 207.824219 C 335.6875 207.199219 335.664062 206.574219 335.664062 205.949219 C 335.664062 205.324219 335.664062 204.699219 335.664062 204.074219 C 335.644531 203.25 335.597656 202.402344 335.554688 201.578125 C 335.53125 201.152344 335.511719 200.726562 335.488281 200.304688 C 335.421875 199.300781 335.332031 198.296875 335.21875 197.292969 C 335.199219 197.046875 335.175781 196.777344 335.152344 196.53125 C 335.019531 195.4375 334.863281 194.347656 334.683594 193.253906 C 334.660156 193.074219 334.640625 192.917969 334.59375 192.738281 C 334.417969 191.625 334.191406 190.507812 333.96875 189.390625 C 333.949219 189.234375 333.902344 189.078125 333.878906 188.921875 C 333.65625 187.851562 333.390625 186.804688 333.121094 185.730469 C 333.054688 185.507812 333.011719 185.285156 332.945312 185.0625 C 332.699219 184.125 332.40625 183.1875 332.140625 182.25 C 332.027344 181.894531 331.917969 181.535156 331.804688 181.179688 C 331.558594 180.398438 331.292969 179.640625 331.023438 178.878906 C 330.84375 178.34375 330.644531 177.808594 330.445312 177.273438 C 330.222656 176.691406 329.996094 176.136719 329.773438 175.578125 C 329.484375 174.839844 329.171875 174.082031 328.835938 173.347656 C 328.679688 173.011719 328.523438 172.652344 328.367188 172.320312 C 327.921875 171.359375 327.476562 170.398438 326.984375 169.441406 C 326.917969 169.304688 326.851562 169.195312 326.785156 169.0625 C 323.144531 161.941406 318.414062 155.292969 312.613281 149.378906 C 312.546875 149.3125 312.480469 149.242188 312.410156 149.175781 C 311.632812 148.394531 310.851562 147.613281 310.023438 146.855469 C 309.777344 146.609375 309.511719 146.386719 309.265625 146.140625 C 308.617188 145.5625 307.972656 144.980469 307.300781 144.421875 C 306.878906 144.042969 306.429688 143.6875 306.007812 143.328125 C 305.472656 142.882812 304.914062 142.460938 304.378906 142.035156 C 303.84375 141.613281 303.261719 141.164062 302.683594 140.742188 C 302.4375 140.5625 302.214844 140.382812 301.988281 140.207031 L 129.125 16.011719 C 92.816406 -10.050781 42.246094 -1.796875 16.160156 34.515625 C -9.929688 70.824219 -1.648438 121.371094 34.660156 147.457031 " clip-rule="nonzero"/></clipPath><clipPath id="dd4b3bc168"><rect x="0" width="336" y="0" height="412"/></clipPath><clipPath id="6be97d716b"><path d="M 83 213 L 430 213 L 430 635 L 83 635 Z M 83 213 " clip-rule="nonzero"/></clipPath><clipPath id="f018d49406"><path d="M 125.917969 360.929688 L 213.6875 424.015625 L 125.917969 487.085938 L 122.660156 482.554688 L 125.917969 487.085938 C 92.128906 511.363281 84.410156 558.453125 108.710938 592.238281 L 104.179688 595.5 L 108.710938 592.238281 C 132.992188 626.027344 180.078125 633.75 213.867188 609.445312 L 386.777344 485.1875 C 386.820312 485.164062 386.867188 485.121094 387 485.007812 L 387.246094 484.808594 L 387.421875 484.675781 L 388.472656 483.894531 L 392.421875 487.886719 L 389.007812 483.492188 C 389.542969 483.066406 390.058594 482.664062 390.546875 482.285156 L 394.074219 486.617188 L 390.527344 482.308594 C 390.925781 481.972656 391.328125 481.640625 391.753906 481.28125 L 393.003906 480.210938 L 393.605469 479.675781 L 393.960938 479.363281 L 394.253906 479.074219 L 394.296875 479.027344 L 395.816406 477.601562 L 400.5 480.789062 L 396.484375 476.90625 C 396.484375 476.90625 396.507812 476.886719 396.527344 476.863281 L 396.683594 476.707031 L 396.730469 476.664062 L 400.703125 480.589844 L 396.707031 476.683594 C 402.085938 471.195312 406.503906 464.992188 409.898438 458.363281 L 414.875 460.90625 L 409.898438 458.386719 C 409.941406 458.316406 409.964844 458.25 410.007812 458.183594 L 415.074219 460.550781 L 410.097656 458.027344 C 410.542969 457.15625 410.96875 456.265625 411.371094 455.351562 L 411.683594 454.679688 L 411.816406 454.390625 L 412.394531 453.027344 L 417.863281 454.414062 L 412.6875 452.316406 C 412.707031 452.292969 412.707031 452.246094 412.730469 452.226562 L 413.15625 451.175781 L 418.53125 452.714844 L 413.3125 450.753906 C 413.46875 450.328125 413.625 449.90625 413.800781 449.414062 L 414.359375 447.808594 L 419.894531 448.832031 L 414.582031 447.160156 C 414.648438 446.957031 414.71875 446.734375 414.785156 446.46875 L 414.875 446.132812 L 415.410156 444.371094 L 415.699219 443.230469 L 415.765625 442.988281 L 421.1875 444.28125 L 415.789062 442.898438 C 416.054688 441.894531 416.277344 440.890625 416.503906 439.929688 L 421.949219 441.113281 L 416.480469 440.019531 C 416.480469 439.972656 416.503906 439.953125 416.503906 439.882812 L 416.570312 439.550781 L 422.035156 440.644531 L 416.570312 439.503906 C 416.792969 438.457031 416.992188 437.40625 417.148438 436.402344 L 417.527344 433.859375 L 423.175781 433.503906 L 417.640625 432.878906 C 417.640625 432.789062 417.664062 432.675781 417.683594 432.496094 L 417.730469 432.140625 L 417.929688 430.265625 L 417.996094 429.351562 L 418.019531 428.925781 L 418.042969 428.347656 L 418.042969 428.191406 L 418.132812 426.605469 L 418.152344 425.871094 L 418.152344 424.308594 L 423.734375 424.128906 L 418.152344 424.152344 C 418.152344 423.949219 418.152344 423.773438 418.152344 423.59375 L 418.152344 422.386719 L 418.109375 420.914062 L 418.066406 420.066406 L 418.019531 418.996094 L 418.019531 418.90625 L 417.863281 417.078125 L 417.753906 416.117188 L 417.730469 415.871094 L 417.730469 415.78125 L 417.707031 415.582031 L 417.707031 415.425781 L 423.242188 414.777344 L 417.707031 415.425781 C 417.597656 414.421875 417.441406 413.417969 417.285156 412.367188 L 422.796875 411.496094 L 417.285156 412.367188 C 417.261719 412.257812 417.261719 412.167969 417.238281 412.101562 L 416.835938 409.824219 L 422.082031 407.636719 L 416.613281 408.796875 C 416.589844 408.640625 416.546875 408.484375 416.523438 408.394531 L 421.96875 407.167969 L 416.523438 408.351562 C 416.324219 407.371094 416.078125 406.386719 415.8125 405.382812 L 421.210938 404 L 415.8125 405.40625 C 415.765625 405.269531 415.742188 405.136719 415.722656 405.046875 L 415.65625 404.824219 L 415.65625 404.757812 L 415.1875 403.039062 L 414.851562 401.96875 L 414.828125 401.902344 L 414.761719 401.699219 L 414.648438 401.320312 L 419.917969 399.445312 L 414.605469 401.144531 C 414.382812 400.449219 414.136719 399.757812 413.867188 399 L 413.511719 397.972656 L 418.554688 395.542969 L 413.332031 397.527344 C 413.15625 397.058594 412.953125 396.566406 412.730469 396.03125 L 417.863281 393.84375 L 412.6875 395.941406 C 412.394531 395.230469 412.105469 394.539062 411.816406 393.867188 L 411.570312 393.332031 L 411.390625 392.953125 L 411.371094 392.90625 L 410.523438 391.101562 L 415.050781 387.707031 L 410.074219 390.230469 C 410.054688 390.183594 410.03125 390.117188 409.984375 390.050781 L 414.851562 387.304688 L 409.875 389.851562 C 406.480469 383.222656 402.085938 377.019531 396.683594 371.527344 L 400.679688 367.625 L 396.730469 371.574219 C 396.707031 371.550781 396.707031 371.550781 396.683594 371.527344 L 396.527344 371.371094 L 396.527344 371.351562 L 396.507812 371.328125 L 395.054688 369.878906 L 393.738281 368.648438 L 393.5625 368.492188 L 392.378906 367.445312 L 391.730469 366.886719 L 390.90625 366.171875 L 394.050781 361.53125 L 390.527344 365.859375 C 390.035156 365.457031 389.542969 365.078125 388.984375 364.65625 L 392.402344 360.257812 L 388.984375 364.65625 C 388.449219 364.230469 387.9375 363.851562 387.402344 363.472656 L 386.976562 363.160156 L 386.820312 363.046875 L 386.777344 363.027344 L 386.753906 363.003906 L 386.730469 363.003906 L 213.867188 238.542969 L 217.125 234.011719 L 213.867188 238.542969 C 180.078125 214.261719 132.992188 221.960938 108.710938 255.75 L 104.179688 252.492188 L 108.710938 255.75 C 84.429688 289.539062 92.128906 336.625 125.917969 360.929688 L 122.660156 365.457031 L 125.917969 360.929688 M 119.402344 369.988281 C 80.613281 342.117188 71.753906 288.066406 99.652344 249.253906 C 127.546875 210.445312 181.574219 201.609375 220.382812 229.484375 L 393.269531 353.742188 L 390.011719 358.273438 L 393.25 353.71875 C 393.316406 353.765625 393.359375 353.808594 393.40625 353.832031 L 393.804688 354.144531 L 393.960938 354.253906 L 390.703125 358.785156 L 394.007812 354.277344 C 394.632812 354.746094 395.234375 355.191406 395.816406 355.660156 L 396.976562 356.554688 L 397.578125 357.046875 L 398.539062 357.847656 L 395.347656 362.492188 L 398.960938 358.25 C 399.652344 358.832031 400.367188 359.457031 401.082031 360.101562 L 397.308594 364.207031 L 401.035156 360.058594 C 401.28125 360.28125 401.503906 360.480469 401.683594 360.660156 L 401.863281 360.816406 L 398.070312 364.921875 L 401.886719 360.839844 C 402.753906 361.640625 403.601562 362.46875 404.429688 363.316406 L 400.457031 367.242188 L 404.40625 363.292969 C 404.429688 363.316406 404.429688 363.316406 404.453125 363.339844 L 404.652344 363.539062 C 410.832031 369.855469 415.898438 376.972656 419.78125 384.582031 L 419.9375 384.894531 L 419.984375 384.984375 L 420.988281 387.039062 L 416.367188 390.386719 L 421.433594 388.066406 C 421.457031 388.109375 421.457031 388.132812 421.480469 388.175781 L 421.769531 388.824219 L 416.816406 391.433594 L 421.925781 389.179688 C 422.28125 389.984375 422.617188 390.789062 422.929688 391.570312 L 423.421875 392.773438 L 423.644531 393.375 L 424.066406 394.558594 L 419 396.949219 L 424.246094 395.074219 C 424.515625 395.855469 424.804688 396.679688 425.09375 397.527344 L 425.25 398.039062 L 425.316406 398.265625 L 425.363281 398.421875 L 425.382812 398.488281 L 425.429688 398.621094 L 420.117188 400.292969 L 425.453125 398.644531 C 425.742188 399.625 426.054688 400.628906 426.320312 401.679688 L 420.921875 403.105469 L 426.300781 401.632812 C 426.320312 401.679688 426.320312 401.722656 426.34375 401.789062 L 426.433594 402.148438 L 426.5 402.371094 L 426.5 402.390625 L 427.058594 404.625 L 427.347656 405.984375 L 427.347656 406.03125 L 427.394531 406.1875 L 427.414062 406.253906 L 427.414062 406.277344 L 427.882812 408.640625 L 422.574219 410.761719 L 428.0625 409.824219 C 428.085938 409.890625 428.085938 409.9375 428.085938 410.003906 L 428.152344 410.382812 L 428.152344 410.425781 L 428.507812 412.746094 L 428.664062 414.132812 L 428.6875 414.398438 L 428.6875 414.511719 L 428.710938 414.710938 L 423.175781 415.382812 L 428.730469 414.777344 C 428.84375 415.804688 428.953125 416.898438 429.023438 417.992188 L 423.464844 418.371094 L 429.023438 417.992188 C 429.023438 418.171875 429.042969 418.328125 429.042969 418.484375 L 429.089844 419.21875 L 423.53125 419.644531 L 429.109375 419.351562 L 429.199219 421.09375 L 423.644531 422.144531 L 429.222656 422.007812 C 429.222656 422.34375 429.222656 422.65625 429.222656 422.945312 L 429.222656 425.511719 L 423.644531 425.890625 L 429.222656 426.003906 C 429.199219 426.941406 429.15625 427.855469 429.109375 428.660156 L 423.53125 428.371094 L 429.109375 428.660156 C 429.109375 428.792969 429.109375 428.90625 429.089844 429.0625 L 429.066406 429.664062 L 423.488281 429.617188 L 429.042969 430 C 428.976562 431.089844 428.867188 432.164062 428.753906 433.210938 L 423.199219 432.609375 L 428.753906 433.191406 C 428.753906 433.257812 428.730469 433.347656 428.730469 433.457031 L 428.710938 433.8125 L 428.6875 434.039062 L 428.375 436.425781 L 422.683594 436.691406 L 428.195312 437.542969 C 428.195312 437.585938 428.195312 437.609375 428.175781 437.699219 L 428.128906 437.964844 L 422.59375 437.207031 L 428.105469 438.097656 C 427.90625 439.328125 427.683594 440.507812 427.4375 441.691406 L 427.394531 441.9375 L 427.371094 442.050781 L 427.347656 442.160156 L 427.347656 442.207031 L 426.835938 444.480469 L 426.410156 446.132812 L 420.964844 444.859375 L 426.367188 446.289062 C 426.097656 447.339844 425.785156 448.34375 425.496094 449.324219 L 420.164062 447.695312 L 425.496094 449.324219 C 425.472656 449.414062 425.429688 449.503906 425.40625 449.613281 L 425.25 450.148438 L 425.160156 450.460938 L 425.160156 450.484375 L 424.601562 452.160156 L 419.070312 451.066406 L 424.335938 452.917969 C 424.3125 452.960938 424.289062 453.007812 424.289062 453.074219 L 423.933594 454.101562 L 423.734375 454.65625 L 423.308594 455.773438 L 423.0625 456.375 L 423.042969 456.445312 L 423.019531 456.464844 L 422.371094 458.027344 L 416.902344 456.601562 L 422.015625 458.832031 C 421.835938 459.234375 421.65625 459.636719 421.5 459.945312 L 416.433594 457.605469 L 421.523438 459.902344 C 421.054688 460.929688 420.5625 461.957031 420.050781 462.980469 L 419.9375 463.207031 L 419.871094 463.316406 L 419.851562 463.382812 C 415.964844 471.015625 410.902344 478.113281 404.71875 484.429688 L 404.496094 484.652344 L 402.820312 486.324219 L 398.15625 483.046875 L 401.972656 487.105469 C 401.929688 487.152344 401.90625 487.171875 401.863281 487.21875 L 401.394531 487.640625 L 397.378906 483.738281 L 401.125 487.867188 C 400.433594 488.488281 399.71875 489.113281 399.027344 489.695312 L 395.414062 485.457031 L 399.027344 489.695312 C 398.582031 490.074219 398.113281 490.476562 397.644531 490.855469 L 396.441406 491.816406 L 395.882812 492.238281 L 394.699219 493.15625 L 390.769531 489.113281 L 394.074219 493.601562 C 394.03125 493.621094 393.984375 493.667969 393.875 493.757812 L 393.539062 494.023438 L 390.058594 489.652344 L 393.316406 494.179688 L 220.382812 618.527344 L 217.125 614 L 220.382812 618.527344 C 181.574219 646.402344 127.523438 637.566406 99.652344 598.757812 C 71.777344 559.949219 80.613281 505.898438 119.421875 478.023438 L 200.878906 419.488281 L 204.136719 424.015625 L 200.878906 428.546875 L 119.421875 370.011719 Z M 119.402344 369.988281 " clip-rule="nonzero"/></clipPath><clipPath id="4afc1860ba"><path d="M 0 0 L 346.359375 0 L 346.359375 422 L 0 422 Z M 0 0 " clip-rule="nonzero"/></clipPath><clipPath id="b8c5129ac8"><path d="M 42.917969 147.929688 L 130.6875 211.015625 L 42.917969 274.085938 L 39.660156 269.554688 L 42.917969 274.085938 C 9.128906 298.363281 1.410156 345.453125 25.710938 379.238281 L 21.179688 382.5 L 25.710938 379.238281 C 49.992188 413.027344 97.078125 420.75 130.867188 396.445312 L 303.777344 272.1875 C 303.820312 272.164062 303.867188 272.121094 304 272.007812 L 304.246094 271.808594 L 304.421875 271.675781 L 305.472656 270.894531 L 309.421875 274.886719 L 306.007812 270.492188 C 306.542969 270.066406 307.058594 269.664062 307.546875 269.285156 L 311.074219 273.617188 L 307.527344 269.308594 C 307.925781 268.972656 308.328125 268.640625 308.753906 268.28125 L 310.003906 267.210938 L 310.605469 266.675781 L 310.960938 266.363281 L 311.253906 266.074219 L 311.296875 266.027344 L 312.816406 264.601562 L 317.5 267.789062 L 313.484375 263.90625 C 313.484375 263.90625 313.507812 263.886719 313.527344 263.863281 L 313.683594 263.707031 L 313.730469 263.664062 L 317.703125 267.589844 L 313.707031 263.683594 C 319.085938 258.195312 323.503906 251.992188 326.898438 245.363281 L 331.875 247.90625 L 326.898438 245.386719 C 326.941406 245.316406 326.964844 245.25 327.007812 245.183594 L 332.074219 247.550781 L 327.097656 245.027344 C 327.542969 244.15625 327.96875 243.265625 328.371094 242.351562 L 328.683594 241.679688 L 328.816406 241.390625 L 329.394531 240.027344 L 334.863281 241.414062 L 329.6875 239.316406 C 329.707031 239.292969 329.707031 239.246094 329.730469 239.226562 L 330.15625 238.175781 L 335.53125 239.714844 L 330.3125 237.753906 C 330.46875 237.328125 330.625 236.90625 330.800781 236.414062 L 331.359375 234.808594 L 336.894531 235.832031 L 331.582031 234.160156 C 331.648438 233.957031 331.71875 233.734375 331.785156 233.46875 L 331.875 233.132812 L 332.410156 231.371094 L 332.699219 230.230469 L 332.765625 229.988281 L 338.1875 231.28125 L 332.789062 229.898438 C 333.054688 228.894531 333.277344 227.890625 333.503906 226.929688 L 338.949219 228.113281 L 333.480469 227.019531 C 333.480469 226.972656 333.503906 226.953125 333.503906 226.882812 L 333.570312 226.550781 L 339.035156 227.644531 L 333.570312 226.503906 C 333.792969 225.457031 333.992188 224.40625 334.148438 223.402344 L 334.527344 220.859375 L 340.175781 220.503906 L 334.640625 219.878906 C 334.640625 219.789062 334.664062 219.675781 334.683594 219.496094 L 334.730469 219.140625 L 334.929688 217.265625 L 334.996094 216.351562 L 335.019531 215.925781 L 335.042969 215.347656 L 335.042969 215.191406 L 335.132812 213.605469 L 335.152344 212.871094 L 335.152344 211.308594 L 340.734375 211.128906 L 335.152344 211.152344 C 335.152344 210.949219 335.152344 210.773438 335.152344 210.59375 L 335.152344 209.386719 L 335.109375 207.914062 L 335.066406 207.066406 L 335.019531 205.996094 L 335.019531 205.90625 L 334.863281 204.078125 L 334.753906 203.117188 L 334.730469 202.871094 L 334.730469 202.78125 L 334.707031 202.582031 L 334.707031 202.425781 L 340.242188 201.777344 L 334.707031 202.425781 C 334.597656 201.421875 334.441406 200.417969 334.285156 199.367188 L 339.796875 198.496094 L 334.285156 199.367188 C 334.261719 199.257812 334.261719 199.167969 334.238281 199.101562 L 333.835938 196.824219 L 339.082031 194.636719 L 333.613281 195.796875 C 333.589844 195.640625 333.546875 195.484375 333.523438 195.394531 L 338.96875 194.167969 L 333.523438 195.351562 C 333.324219 194.371094 333.078125 193.386719 332.8125 192.382812 L 338.210938 191 L 332.8125 192.40625 C 332.765625 192.269531 332.742188 192.136719 332.722656 192.046875 L 332.65625 191.824219 L 332.65625 191.757812 L 332.1875 190.039062 L 331.851562 188.96875 L 331.828125 188.902344 L 331.761719 188.699219 L 331.648438 188.320312 L 336.917969 186.445312 L 331.605469 188.144531 C 331.382812 187.449219 331.136719 186.757812 330.867188 186 L 330.511719 184.972656 L 335.554688 182.542969 L 330.332031 184.527344 C 330.15625 184.058594 329.953125 183.566406 329.730469 183.03125 L 334.863281 180.84375 L 329.6875 182.941406 C 329.394531 182.230469 329.105469 181.539062 328.816406 180.867188 L 328.570312 180.332031 L 328.390625 179.953125 L 328.371094 179.90625 L 327.523438 178.101562 L 332.050781 174.707031 L 327.074219 177.230469 C 327.054688 177.183594 327.03125 177.117188 326.984375 177.050781 L 331.851562 174.304688 L 326.875 176.851562 C 323.480469 170.222656 319.085938 164.019531 313.683594 158.527344 L 317.679688 154.625 L 313.730469 158.574219 C 313.707031 158.550781 313.707031 158.550781 313.683594 158.527344 L 313.527344 158.371094 L 313.527344 158.351562 L 313.507812 158.328125 L 312.054688 156.878906 L 310.738281 155.648438 L 310.5625 155.492188 L 309.378906 154.445312 L 308.730469 153.886719 L 307.90625 153.171875 L 311.050781 148.53125 L 307.527344 152.859375 C 307.035156 152.457031 306.542969 152.078125 305.984375 151.65625 L 309.402344 147.257812 L 305.984375 151.65625 C 305.449219 151.230469 304.9375 150.851562 304.402344 150.472656 L 303.976562 150.160156 L 303.820312 150.046875 L 303.777344 150.027344 L 303.753906 150.003906 L 303.730469 150.003906 L 130.867188 25.542969 L 134.125 21.011719 L 130.867188 25.542969 C 97.078125 1.261719 49.992188 8.960938 25.710938 42.75 L 21.179688 39.492188 L 25.710938 42.75 C 1.429688 76.539062 9.128906 123.625 42.917969 147.929688 L 39.660156 152.457031 L 42.917969 147.929688 M 36.402344 156.988281 C -2.386719 129.117188 -11.246094 75.066406 16.652344 36.253906 C 44.546875 -2.554688 98.574219 -11.390625 137.382812 16.484375 L 310.269531 140.742188 L 307.011719 145.273438 L 310.25 140.71875 C 310.316406 140.765625 310.359375 140.808594 310.40625 140.832031 L 310.804688 141.144531 L 310.960938 141.253906 L 307.703125 145.785156 L 311.007812 141.277344 C 311.632812 141.746094 312.234375 142.191406 312.816406 142.660156 L 313.976562 143.554688 L 314.578125 144.046875 L 315.539062 144.847656 L 312.347656 149.492188 L 315.960938 145.25 C 316.652344 145.832031 317.367188 146.457031 318.082031 147.101562 L 314.308594 151.207031 L 318.035156 147.058594 C 318.28125 147.28125 318.503906 147.480469 318.683594 147.660156 L 318.863281 147.816406 L 315.070312 151.921875 L 318.886719 147.839844 C 319.753906 148.640625 320.601562 149.46875 321.429688 150.316406 L 317.457031 154.242188 L 321.40625 150.292969 C 321.429688 150.316406 321.429688 150.316406 321.453125 150.339844 L 321.652344 150.539062 C 327.832031 156.855469 332.898438 163.972656 336.78125 171.582031 L 336.9375 171.894531 L 336.984375 171.984375 L 337.988281 174.039062 L 333.367188 177.386719 L 338.433594 175.066406 C 338.457031 175.109375 338.457031 175.132812 338.480469 175.175781 L 338.769531 175.824219 L 333.816406 178.433594 L 338.925781 176.179688 C 339.28125 176.984375 339.617188 177.789062 339.929688 178.570312 L 340.421875 179.773438 L 340.644531 180.375 L 341.066406 181.558594 L 336 183.949219 L 341.246094 182.074219 C 341.515625 182.855469 341.804688 183.679688 342.09375 184.527344 L 342.25 185.039062 L 342.316406 185.265625 L 342.363281 185.421875 L 342.382812 185.488281 L 342.429688 185.621094 L 337.117188 187.292969 L 342.453125 185.644531 C 342.742188 186.625 343.054688 187.628906 343.320312 188.679688 L 337.921875 190.105469 L 343.300781 188.632812 C 343.320312 188.679688 343.320312 188.722656 343.34375 188.789062 L 343.433594 189.148438 L 343.5 189.371094 L 343.5 189.390625 L 344.058594 191.625 L 344.347656 192.984375 L 344.347656 193.03125 L 344.394531 193.1875 L 344.414062 193.253906 L 344.414062 193.277344 L 344.882812 195.640625 L 339.574219 197.761719 L 345.0625 196.824219 C 345.085938 196.890625 345.085938 196.9375 345.085938 197.003906 L 345.152344 197.382812 L 345.152344 197.425781 L 345.507812 199.746094 L 345.664062 201.132812 L 345.6875 201.398438 L 345.6875 201.511719 L 345.710938 201.710938 L 340.175781 202.382812 L 345.730469 201.777344 C 345.84375 202.804688 345.953125 203.898438 346.023438 204.992188 L 340.464844 205.371094 L 346.023438 204.992188 C 346.023438 205.171875 346.042969 205.328125 346.042969 205.484375 L 346.089844 206.21875 L 340.53125 206.644531 L 346.109375 206.351562 L 346.199219 208.09375 L 340.644531 209.144531 L 346.222656 209.007812 C 346.222656 209.34375 346.222656 209.65625 346.222656 209.945312 L 346.222656 212.511719 L 340.644531 212.890625 L 346.222656 213.003906 C 346.199219 213.941406 346.15625 214.855469 346.109375 215.660156 L 340.53125 215.371094 L 346.109375 215.660156 C 346.109375 215.792969 346.109375 215.90625 346.089844 216.0625 L 346.066406 216.664062 L 340.488281 216.617188 L 346.042969 217 C 345.976562 218.089844 345.867188 219.164062 345.753906 220.210938 L 340.199219 219.609375 L 345.753906 220.191406 C 345.753906 220.257812 345.730469 220.347656 345.730469 220.457031 L 345.710938 220.8125 L 345.6875 221.039062 L 345.375 223.425781 L 339.683594 223.691406 L 345.195312 224.542969 C 345.195312 224.585938 345.195312 224.609375 345.175781 224.699219 L 345.128906 224.964844 L 339.59375 224.207031 L 345.105469 225.097656 C 344.90625 226.328125 344.683594 227.507812 344.4375 228.691406 L 344.394531 228.9375 L 344.371094 229.050781 L 344.347656 229.160156 L 344.347656 229.207031 L 343.835938 231.480469 L 343.410156 233.132812 L 337.964844 231.859375 L 343.367188 233.289062 C 343.097656 234.339844 342.785156 235.34375 342.496094 236.324219 L 337.164062 234.695312 L 342.496094 236.324219 C 342.472656 236.414062 342.429688 236.503906 342.40625 236.613281 L 342.25 237.148438 L 342.160156 237.460938 L 342.160156 237.484375 L 341.601562 239.160156 L 336.070312 238.066406 L 341.335938 239.917969 C 341.3125 239.960938 341.289062 240.007812 341.289062 240.074219 L 340.933594 241.101562 L 340.734375 241.65625 L 340.308594 242.773438 L 340.0625 243.375 L 340.042969 243.445312 L 340.019531 243.464844 L 339.371094 245.027344 L 333.902344 243.601562 L 339.015625 245.832031 C 338.835938 246.234375 338.65625 246.636719 338.5 246.945312 L 333.433594 244.605469 L 338.523438 246.902344 C 338.054688 247.929688 337.5625 248.957031 337.050781 249.980469 L 336.9375 250.207031 L 336.871094 250.316406 L 336.851562 250.382812 C 332.964844 258.015625 327.902344 265.113281 321.71875 271.429688 L 321.496094 271.652344 L 319.820312 273.324219 L 315.15625 270.046875 L 318.972656 274.105469 C 318.929688 274.152344 318.90625 274.171875 318.863281 274.21875 L 318.394531 274.640625 L 314.378906 270.738281 L 318.125 274.867188 C 317.433594 275.488281 316.71875 276.113281 316.027344 276.695312 L 312.414062 272.457031 L 316.027344 276.695312 C 315.582031 277.074219 315.113281 277.476562 314.644531 277.855469 L 313.441406 278.816406 L 312.882812 279.238281 L 311.699219 280.15625 L 307.769531 276.113281 L 311.074219 280.601562 C 311.03125 280.621094 310.984375 280.667969 310.875 280.757812 L 310.539062 281.023438 L 307.058594 276.652344 L 310.316406 281.179688 L 137.382812 405.527344 L 134.125 401 L 137.382812 405.527344 C 98.574219 433.402344 44.523438 424.566406 16.652344 385.757812 C -11.222656 346.949219 -2.386719 292.898438 36.421875 265.023438 L 117.878906 206.488281 L 121.136719 211.015625 L 117.878906 215.546875 L 36.421875 157.011719 Z M 36.402344 156.988281 " clip-rule="nonzero"/></clipPath><clipPath id="b2be570ddb"><rect x="0" width="347" y="0" height="422"/></clipPath><clipPath id="16d312f5e8"><path d="M 490.234375 218.644531 L 825.5625 218.644531 L 825.5625 629.644531 L 490.234375 629.644531 Z M 490.234375 218.644531 " clip-rule="nonzero"/></clipPath><clipPath id="048b985cea"><path d="M 791.699219 365.457031 L 710.246094 423.996094 L 791.699219 482.53125 C 827.988281 508.621094 836.265625 559.1875 810.203125 595.476562 C 784.136719 631.761719 733.542969 640.042969 697.257812 613.976562 L 524.347656 489.738281 C 524.101562 489.5625 523.878906 489.382812 523.632812 489.203125 C 523.054688 488.78125 522.496094 488.355469 521.9375 487.910156 C 521.378906 487.464844 520.84375 487.039062 520.308594 486.617188 C 519.863281 486.257812 519.4375 485.878906 519.015625 485.523438 C 518.34375 484.964844 517.695312 484.382812 517.050781 483.804688 C 516.78125 483.582031 516.535156 483.335938 516.292969 483.089844 C 515.488281 482.332031 514.683594 481.550781 513.902344 480.769531 C 513.835938 480.703125 513.769531 480.632812 513.703125 480.566406 C 507.921875 474.652344 503.191406 468.003906 499.53125 460.882812 C 499.464844 460.75 499.398438 460.640625 499.332031 460.503906 C 498.839844 459.546875 498.394531 458.585938 497.945312 457.625 C 497.789062 457.292969 497.632812 456.933594 497.476562 456.601562 C 497.164062 455.863281 496.851562 455.125 496.539062 454.367188 C 496.316406 453.808594 496.09375 453.230469 495.871094 452.671875 C 495.671875 452.136719 495.492188 451.601562 495.292969 451.066406 C 495.023438 450.304688 494.753906 449.523438 494.511719 448.765625 C 494.398438 448.410156 494.285156 448.050781 494.175781 447.695312 C 493.886719 446.757812 493.617188 445.820312 493.371094 444.882812 C 493.304688 444.660156 493.261719 444.4375 493.195312 444.214844 C 492.925781 443.144531 492.65625 442.09375 492.433594 441.023438 C 492.414062 440.867188 492.367188 440.710938 492.34375 440.554688 C 492.121094 439.4375 491.898438 438.324219 491.71875 437.207031 C 491.699219 437.027344 491.675781 436.871094 491.632812 436.691406 C 491.453125 435.601562 491.296875 434.507812 491.183594 433.414062 C 491.164062 433.167969 491.140625 432.898438 491.097656 432.632812 C 490.984375 431.628906 490.894531 430.625 490.828125 429.617188 C 490.804688 429.195312 490.785156 428.769531 490.761719 428.347656 C 490.714844 427.519531 490.671875 426.671875 490.648438 425.847656 C 490.628906 425.222656 490.648438 424.597656 490.648438 423.972656 C 490.648438 423.347656 490.648438 422.722656 490.648438 422.097656 C 490.671875 421.273438 490.714844 420.425781 490.761719 419.597656 C 490.785156 419.175781 490.804688 418.75 490.828125 418.328125 C 490.894531 417.324219 490.984375 416.316406 491.097656 415.3125 C 491.117188 415.070312 491.140625 414.800781 491.183594 414.554688 C 491.320312 413.460938 491.476562 412.367188 491.632812 411.273438 C 491.652344 411.097656 491.675781 410.941406 491.71875 410.761719 C 491.898438 409.644531 492.121094 408.53125 492.34375 407.414062 C 492.390625 407.257812 492.414062 407.101562 492.433594 406.945312 C 492.65625 405.875 492.925781 404.824219 493.195312 403.753906 C 493.261719 403.53125 493.304688 403.308594 493.371094 403.085938 C 493.617188 402.148438 493.90625 401.210938 494.175781 400.273438 C 494.285156 399.914062 494.398438 399.558594 494.511719 399.203125 C 494.753906 398.421875 495.023438 397.660156 495.292969 396.902344 C 495.46875 396.367188 495.671875 395.832031 495.871094 395.296875 C 496.09375 394.714844 496.316406 394.15625 496.539062 393.601562 C 496.832031 392.863281 497.144531 392.105469 497.476562 391.367188 C 497.632812 391.035156 497.789062 390.675781 497.945312 390.339844 C 498.394531 389.382812 498.839844 388.421875 499.332031 387.460938 C 499.398438 387.328125 499.464844 387.21875 499.53125 387.082031 C 503.167969 379.964844 507.898438 373.3125 513.703125 367.398438 C 513.769531 367.332031 513.835938 367.265625 513.902344 367.199219 C 514.683594 366.417969 515.488281 365.636719 516.292969 364.878906 C 516.535156 364.632812 516.804688 364.410156 517.050781 364.164062 C 517.695312 363.582031 518.34375 363.003906 519.015625 362.445312 C 519.4375 362.066406 519.882812 361.710938 520.308594 361.351562 C 520.84375 360.90625 521.402344 360.480469 521.9375 360.058594 C 522.472656 359.632812 523.054688 359.1875 523.632812 358.761719 C 523.878906 358.585938 524.101562 358.40625 524.347656 358.226562 L 697.234375 233.96875 C 733.519531 207.878906 784.113281 216.160156 810.179688 252.46875 C 836.246094 288.777344 827.988281 339.324219 791.679688 365.414062 " clip-rule="nonzero"/></clipPath><clipPath id="6f9dd99d97"><path d="M 0.558594 0.644531 L 335.5625 0.644531 L 335.5625 411.644531 L 0.558594 411.644531 Z M 0.558594 0.644531 " clip-rule="nonzero"/></clipPath><clipPath id="06052f085f"><path d="M 301.699219 147.457031 L 220.246094 205.996094 L 301.699219 264.53125 C 337.988281 290.621094 346.265625 341.1875 320.203125 377.476562 C 294.136719 413.761719 243.542969 422.042969 207.257812 395.976562 L 34.347656 271.738281 C 34.101562 271.5625 33.878906 271.382812 33.632812 271.203125 C 33.054688 270.78125 32.496094 270.355469 31.9375 269.910156 C 31.378906 269.464844 30.84375 269.039062 30.308594 268.617188 C 29.863281 268.257812 29.4375 267.878906 29.015625 267.523438 C 28.34375 266.964844 27.695312 266.382812 27.050781 265.804688 C 26.78125 265.582031 26.535156 265.335938 26.292969 265.089844 C 25.488281 264.332031 24.683594 263.550781 23.902344 262.769531 C 23.835938 262.703125 23.769531 262.632812 23.703125 262.566406 C 17.921875 256.652344 13.191406 250.003906 9.53125 242.882812 C 9.464844 242.75 9.398438 242.640625 9.332031 242.503906 C 8.839844 241.546875 8.394531 240.585938 7.945312 239.625 C 7.789062 239.292969 7.632812 238.933594 7.476562 238.601562 C 7.164062 237.863281 6.851562 237.125 6.539062 236.367188 C 6.316406 235.808594 6.09375 235.230469 5.871094 234.671875 C 5.671875 234.136719 5.492188 233.601562 5.292969 233.066406 C 5.023438 232.304688 4.753906 231.523438 4.511719 230.765625 C 4.398438 230.410156 4.285156 230.050781 4.175781 229.695312 C 3.886719 228.757812 3.617188 227.820312 3.371094 226.882812 C 3.304688 226.660156 3.261719 226.4375 3.195312 226.214844 C 2.925781 225.144531 2.65625 224.09375 2.433594 223.023438 C 2.414062 222.867188 2.367188 222.710938 2.34375 222.554688 C 2.121094 221.4375 1.898438 220.324219 1.71875 219.207031 C 1.699219 219.027344 1.675781 218.871094 1.632812 218.691406 C 1.453125 217.601562 1.296875 216.507812 1.183594 215.414062 C 1.164062 215.167969 1.140625 214.898438 1.097656 214.632812 C 0.984375 213.628906 0.894531 212.625 0.828125 211.617188 C 0.804688 211.195312 0.785156 210.769531 0.761719 210.347656 C 0.714844 209.519531 0.671875 208.671875 0.648438 207.847656 C 0.628906 207.222656 0.648438 206.597656 0.648438 205.972656 C 0.648438 205.347656 0.648438 204.722656 0.648438 204.097656 C 0.671875 203.273438 0.714844 202.425781 0.761719 201.597656 C 0.785156 201.175781 0.804688 200.75 0.828125 200.328125 C 0.894531 199.324219 0.984375 198.316406 1.097656 197.3125 C 1.117188 197.070312 1.140625 196.800781 1.183594 196.554688 C 1.320312 195.460938 1.476562 194.367188 1.632812 193.273438 C 1.652344 193.097656 1.675781 192.941406 1.71875 192.761719 C 1.898438 191.644531 2.121094 190.53125 2.34375 189.414062 C 2.390625 189.257812 2.414062 189.101562 2.433594 188.945312 C 2.65625 187.875 2.925781 186.824219 3.195312 185.753906 C 3.261719 185.53125 3.304688 185.308594 3.371094 185.085938 C 3.617188 184.148438 3.90625 183.210938 4.175781 182.273438 C 4.285156 181.914062 4.398438 181.558594 4.511719 181.203125 C 4.753906 180.421875 5.023438 179.660156 5.292969 178.902344 C 5.46875 178.367188 5.671875 177.832031 5.871094 177.296875 C 6.09375 176.714844 6.316406 176.15625 6.539062 175.601562 C 6.832031 174.863281 7.144531 174.105469 7.476562 173.367188 C 7.632812 173.035156 7.789062 172.675781 7.945312 172.339844 C 8.394531 171.382812 8.839844 170.421875 9.332031 169.460938 C 9.398438 169.328125 9.464844 169.21875 9.53125 169.082031 C 13.167969 161.964844 17.898438 155.3125 23.703125 149.398438 C 23.769531 149.332031 23.835938 149.265625 23.902344 149.199219 C 24.683594 148.417969 25.488281 147.636719 26.292969 146.878906 C 26.535156 146.632812 26.804688 146.410156 27.050781 146.164062 C 27.695312 145.582031 28.34375 145.003906 29.015625 144.445312 C 29.4375 144.066406 29.882812 143.710938 30.308594 143.351562 C 30.84375 142.90625 31.402344 142.480469 31.9375 142.058594 C 32.472656 141.632812 33.054688 141.1875 33.632812 140.761719 C 33.878906 140.585938 34.101562 140.40625 34.347656 140.226562 L 207.234375 15.96875 C 243.519531 -10.121094 294.113281 -1.839844 320.179688 34.46875 C 346.246094 70.777344 337.988281 121.324219 301.679688 147.414062 " clip-rule="nonzero"/></clipPath><clipPath id="fb3b28dee3"><rect x="0" width="336" y="0" height="412"/></clipPath><clipPath id="00e9abf8c0"><path d="M 485 213 L 831 213 L 831 635 L 485 635 Z M 485 213 " clip-rule="nonzero"/></clipPath><clipPath id="94c784f8c7"><path d="M 794.960938 369.988281 L 713.503906 428.527344 L 710.246094 423.996094 L 713.503906 419.464844 L 794.960938 478 C 833.746094 505.898438 842.605469 559.949219 814.730469 598.734375 C 786.859375 637.519531 732.785156 646.378906 694 618.507812 L 697.257812 613.976562 L 694 618.507812 L 521.113281 494.246094 L 524.371094 489.71875 L 521.132812 494.246094 C 520.886719 494.070312 520.6875 493.914062 520.574219 493.824219 L 523.679688 489.183594 L 520.375 493.667969 C 519.75 493.199219 519.148438 492.753906 518.566406 492.285156 L 517.40625 491.390625 L 516.78125 490.878906 L 515.84375 490.097656 L 519.015625 485.476562 L 515.398438 489.71875 C 514.707031 489.113281 513.992188 488.511719 513.300781 487.886719 L 517.050781 483.757812 L 513.300781 487.886719 C 513.03125 487.640625 512.789062 487.417969 512.585938 487.21875 L 516.292969 483.046875 L 512.476562 487.128906 C 511.605469 486.324219 510.757812 485.5 509.929688 484.652344 L 509.753906 484.472656 L 509.707031 484.429688 C 503.527344 478.113281 498.460938 470.992188 494.554688 463.382812 L 494.398438 463.070312 L 494.355469 462.980469 L 493.351562 460.929688 L 497.96875 457.605469 L 492.902344 459.945312 C 492.746094 459.613281 492.570312 459.234375 492.390625 458.832031 L 497.5 456.601562 L 492.390625 458.832031 C 492.03125 458.027344 491.699219 457.222656 491.386719 456.445312 L 496.5625 454.367188 L 491.386719 456.464844 C 491.164062 455.90625 490.894531 455.28125 490.671875 454.65625 L 490.269531 453.566406 L 490.070312 452.984375 L 495.3125 451.085938 L 490.046875 452.941406 C 489.777344 452.160156 489.488281 451.332031 489.199219 450.484375 L 488.996094 449.859375 L 488.929688 449.613281 L 488.863281 449.414062 L 494.175781 447.695312 L 488.839844 449.324219 C 488.550781 448.34375 488.238281 447.339844 487.972656 446.289062 L 493.371094 444.859375 L 487.992188 446.335938 C 487.949219 446.132812 487.90625 445.953125 487.859375 445.84375 L 487.792969 445.597656 L 487.792969 445.574219 L 487.234375 443.34375 L 486.96875 442.117188 L 486.945312 441.980469 L 486.945312 441.9375 L 486.921875 441.847656 L 486.921875 441.804688 L 486.898438 441.738281 L 486.898438 441.667969 L 486.429688 439.304688 L 491.742188 437.183594 L 486.230469 438.121094 C 486.207031 437.941406 486.1875 437.765625 486.164062 437.675781 L 491.652344 436.671875 L 486.140625 437.542969 C 485.964844 436.402344 485.785156 435.242188 485.652344 434.039062 L 485.605469 433.613281 L 485.582031 433.457031 L 485.5625 433.277344 L 491.097656 432.632812 L 485.539062 433.234375 C 485.425781 432.183594 485.316406 431.113281 485.25 430.019531 L 490.804688 429.640625 L 485.25 430.019531 C 485.226562 429.664062 485.203125 429.328125 485.203125 429.0625 L 485.183594 428.792969 L 490.738281 428.371094 L 485.160156 428.660156 L 485.070312 426.917969 L 490.628906 425.871094 L 485.046875 426.003906 C 485.027344 425.46875 485.046875 424.953125 485.046875 424.53125 L 485.046875 422.300781 L 490.628906 422.121094 L 485.046875 422.007812 C 485.070312 421.070312 485.113281 420.15625 485.160156 419.332031 L 490.738281 419.621094 L 485.160156 419.332031 C 485.160156 419.195312 485.183594 419.085938 485.183594 418.929688 L 485.203125 418.640625 L 485.226562 418.148438 L 490.804688 418.371094 L 485.25 417.992188 C 485.316406 416.898438 485.425781 415.828125 485.539062 414.777344 L 491.097656 415.382812 L 485.539062 414.800781 C 485.539062 414.710938 485.5625 414.644531 485.5625 414.53125 L 485.605469 414.0625 L 485.605469 413.996094 L 485.917969 411.632812 L 486.1875 409.980469 L 491.699219 410.851562 L 486.1875 409.957031 C 486.386719 408.730469 486.609375 407.546875 486.855469 406.363281 L 486.921875 406.007812 L 486.945312 405.851562 L 487.457031 403.574219 L 487.925781 401.769531 L 493.328125 403.195312 L 487.925781 401.769531 C 488.195312 400.742188 488.507812 399.714844 488.796875 398.734375 L 494.128906 400.382812 L 488.796875 398.777344 C 488.820312 398.710938 488.839844 398.644531 488.863281 398.578125 L 489.066406 397.882812 L 489.152344 397.617188 L 489.710938 395.941406 L 495.246094 397.035156 L 489.980469 395.207031 C 490.160156 394.671875 490.382812 394.070312 490.605469 393.464844 L 491.097656 392.195312 L 496.496094 393.734375 L 491.320312 391.660156 C 491.632812 390.878906 491.964844 390.074219 492.324219 389.269531 L 497.433594 391.523438 L 492.324219 389.292969 C 492.480469 388.9375 492.636719 388.578125 492.769531 388.289062 L 497.902344 390.496094 L 492.882812 388.085938 C 493.351562 387.0625 493.839844 386.035156 494.355469 385.007812 L 494.554688 384.605469 C 498.4375 376.972656 503.503906 369.878906 509.707031 363.5625 L 509.929688 363.339844 L 513.882812 367.265625 L 509.910156 363.339844 C 510.757812 362.492188 511.605469 361.664062 512.453125 360.863281 L 516.269531 364.945312 L 512.453125 360.882812 C 512.476562 360.863281 512.519531 360.816406 512.5625 360.792969 L 513.078125 360.304688 L 517.027344 364.253906 L 513.257812 360.148438 C 513.96875 359.5 514.683594 358.875 515.375 358.296875 L 518.992188 362.535156 L 515.375 358.296875 C 515.800781 357.914062 516.292969 357.515625 516.761719 357.132812 L 517.964844 356.175781 L 518.523438 355.730469 L 519.707031 354.8125 L 523.632812 358.851562 L 520.332031 354.367188 C 520.375 354.34375 520.417969 354.300781 520.53125 354.210938 L 520.777344 354.011719 L 520.933594 353.898438 L 521.042969 353.832031 L 524.347656 358.273438 L 521.089844 353.742188 L 693.976562 229.484375 C 732.761719 201.609375 786.835938 210.445312 814.710938 249.253906 C 842.582031 288.066406 833.746094 342.117188 794.9375 369.988281 M 788.421875 360.929688 L 791.679688 365.457031 L 788.421875 360.929688 C 822.207031 336.648438 829.929688 289.558594 805.625 255.75 L 810.15625 252.492188 L 805.625 255.75 C 781.347656 221.960938 734.257812 214.242188 700.46875 238.542969 L 697.210938 234.011719 L 700.46875 238.542969 L 527.582031 362.824219 C 527.582031 362.824219 527.5625 362.824219 527.5625 362.847656 L 527.359375 363.003906 L 527.113281 363.203125 L 526.957031 363.316406 L 525.910156 364.097656 L 521.960938 360.101562 L 525.375 364.5 C 524.839844 364.921875 524.324219 365.324219 523.835938 365.703125 L 520.308594 361.398438 L 523.855469 365.703125 C 523.453125 366.015625 523.074219 366.375 522.628906 366.730469 L 521.378906 367.800781 L 520.777344 368.359375 L 520.753906 368.382812 L 520.488281 368.628906 L 520.128906 368.960938 L 520.085938 369.007812 L 518.589844 370.433594 L 517.71875 371.328125 L 513.703125 367.46875 L 517.695312 371.371094 C 512.320312 376.863281 507.898438 383.066406 504.53125 389.695312 L 499.554688 387.148438 L 504.53125 389.671875 C 504.484375 389.738281 504.464844 389.828125 504.417969 389.871094 L 499.332031 387.507812 L 504.308594 390.027344 C 503.859375 390.898438 503.4375 391.792969 503.035156 392.707031 L 502.722656 393.421875 L 502.609375 393.6875 L 502.03125 395.050781 L 501.292969 396.859375 L 495.894531 395.386719 L 501.117188 397.347656 C 500.9375 397.816406 500.78125 398.285156 500.582031 398.820312 L 500.066406 400.292969 L 494.53125 399.269531 L 499.84375 400.964844 C 499.800781 401.121094 499.730469 401.300781 499.6875 401.5 L 499.554688 401.945312 L 499.019531 403.710938 L 498.75 404.757812 L 498.726562 404.847656 L 498.683594 405.070312 L 493.261719 403.796875 L 498.660156 405.183594 C 498.394531 406.1875 498.171875 407.167969 497.945312 408.148438 L 492.433594 406.988281 L 497.902344 408.082031 C 497.902344 408.128906 497.878906 408.148438 497.878906 408.21875 L 497.835938 408.460938 L 492.34375 407.457031 L 497.8125 408.597656 C 497.589844 409.644531 497.390625 410.695312 497.234375 411.699219 L 497.164062 412.078125 L 491.632812 411.320312 L 497.144531 412.191406 C 496.988281 413.238281 496.832031 414.265625 496.71875 415.246094 L 491.183594 414.601562 L 496.71875 415.226562 C 496.71875 415.246094 496.71875 415.292969 496.71875 415.3125 L 496.652344 415.960938 L 496.472656 417.859375 L 496.386719 419.085938 L 496.363281 419.332031 L 496.339844 419.777344 L 496.339844 419.933594 L 496.25 421.519531 L 496.230469 422.699219 L 496.230469 423.839844 L 490.648438 424.015625 L 496.230469 423.996094 C 496.230469 424.195312 496.230469 424.375 496.230469 424.554688 L 496.230469 425.757812 L 496.296875 427.230469 L 496.363281 428.414062 L 496.386719 429.0625 L 496.40625 429.261719 L 496.5625 431.089844 L 496.675781 432.074219 L 496.695312 432.320312 L 496.695312 432.410156 L 496.71875 432.675781 L 491.183594 433.414062 L 496.71875 432.765625 C 496.832031 433.769531 496.988281 434.773438 497.144531 435.824219 L 497.1875 436.070312 L 497.210938 436.222656 L 497.210938 436.292969 L 497.566406 438.34375 L 492.324219 440.554688 L 497.769531 439.371094 C 497.789062 439.460938 497.8125 439.550781 497.8125 439.617188 L 497.859375 439.882812 L 492.390625 441.023438 L 497.835938 439.839844 C 498.035156 440.820312 498.28125 441.804688 498.550781 442.808594 L 493.148438 444.191406 L 498.550781 442.761719 C 498.59375 442.917969 498.617188 443.054688 498.640625 443.144531 L 498.707031 443.410156 L 498.707031 443.433594 L 499.195312 445.152344 L 499.488281 446.066406 L 499.554688 446.265625 L 499.574219 446.355469 L 499.710938 446.824219 L 494.464844 448.722656 L 499.777344 447.003906 C 500 447.695312 500.246094 448.410156 500.511719 449.167969 L 500.894531 450.238281 L 495.828125 452.628906 L 501.050781 450.640625 C 501.25 451.15625 501.449219 451.644531 501.671875 452.226562 L 502.253906 453.652344 L 502.542969 454.324219 L 502.8125 454.902344 L 503.816406 457.089844 L 499.285156 460.484375 L 504.261719 457.960938 C 504.285156 458.003906 504.308594 458.074219 504.351562 458.140625 L 499.488281 460.882812 L 504.464844 458.339844 C 507.855469 464.96875 512.25 471.171875 517.628906 476.664062 L 513.679688 480.566406 L 517.628906 476.617188 C 517.652344 476.640625 517.675781 476.664062 517.675781 476.664062 L 517.832031 476.839844 L 517.875 476.886719 L 513.882812 480.789062 L 517.851562 476.863281 C 518.566406 477.601562 519.328125 478.3125 520.085938 479.027344 L 520.621094 479.519531 L 520.800781 479.675781 L 522.003906 480.746094 L 523.476562 481.996094 L 520.332031 486.636719 L 523.855469 482.308594 C 524.347656 482.710938 524.839844 483.113281 525.394531 483.511719 L 521.980469 487.910156 L 525.394531 483.492188 C 525.933594 483.914062 526.445312 484.292969 526.980469 484.675781 L 527.40625 484.988281 L 527.582031 485.144531 L 527.628906 485.164062 L 700.515625 609.425781 C 734.300781 633.703125 781.390625 626.003906 805.671875 592.21875 L 810.203125 595.476562 L 805.671875 592.21875 C 829.953125 558.429688 822.253906 511.34375 788.464844 487.0625 L 791.722656 482.53125 L 788.464844 487.0625 L 700.695312 423.996094 L 788.464844 360.929688 Z M 788.421875 360.929688 " clip-rule="nonzero"/></clipPath><clipPath id="f756e6299f"><path d="M 0 0 L 346 0 L 346 422 L 0 422 Z M 0 0 " clip-rule="nonzero"/></clipPath><clipPath id="8dbeb3b8b2"><path d="M 309.960938 156.988281 L 228.503906 215.527344 L 225.246094 210.996094 L 228.503906 206.464844 L 309.960938 265 C 348.746094 292.898438 357.605469 346.949219 329.730469 385.734375 C 301.859375 424.519531 247.785156 433.378906 209 405.507812 L 212.257812 400.976562 L 209 405.507812 L 36.113281 281.246094 L 39.371094 276.71875 L 36.132812 281.246094 C 35.886719 281.070312 35.6875 280.914062 35.574219 280.824219 L 38.679688 276.183594 L 35.375 280.667969 C 34.75 280.199219 34.148438 279.753906 33.566406 279.285156 L 32.40625 278.390625 L 31.78125 277.878906 L 30.84375 277.097656 L 34.015625 272.476562 L 30.398438 276.71875 C 29.707031 276.113281 28.992188 275.511719 28.300781 274.886719 L 32.050781 270.757812 L 28.300781 274.886719 C 28.03125 274.640625 27.789062 274.417969 27.585938 274.21875 L 31.292969 270.046875 L 27.476562 274.128906 C 26.605469 273.324219 25.757812 272.5 24.929688 271.652344 L 24.753906 271.472656 L 24.707031 271.429688 C 18.527344 265.113281 13.460938 257.992188 9.554688 250.382812 L 9.398438 250.070312 L 9.355469 249.980469 L 8.351562 247.929688 L 12.96875 244.605469 L 7.902344 246.945312 C 7.746094 246.613281 7.570312 246.234375 7.390625 245.832031 L 12.5 243.601562 L 7.390625 245.832031 C 7.03125 245.027344 6.699219 244.222656 6.386719 243.445312 L 11.5625 241.367188 L 6.386719 243.464844 C 6.164062 242.90625 5.894531 242.28125 5.671875 241.65625 L 5.269531 240.566406 L 5.070312 239.984375 L 10.3125 238.085938 L 5.046875 239.941406 C 4.777344 239.160156 4.488281 238.332031 4.199219 237.484375 L 3.996094 236.859375 L 3.929688 236.613281 L 3.863281 236.414062 L 9.175781 234.695312 L 3.839844 236.324219 C 3.550781 235.34375 3.238281 234.339844 2.972656 233.289062 L 8.371094 231.859375 L 2.992188 233.335938 C 2.949219 233.132812 2.90625 232.953125 2.859375 232.84375 L 2.792969 232.597656 L 2.792969 232.574219 L 2.234375 230.34375 L 1.96875 229.117188 L 1.945312 228.980469 L 1.945312 228.9375 L 1.921875 228.847656 L 1.921875 228.804688 L 1.898438 228.738281 L 1.898438 228.667969 L 1.429688 226.304688 L 6.742188 224.183594 L 1.230469 225.121094 C 1.207031 224.941406 1.1875 224.765625 1.164062 224.675781 L 6.652344 223.671875 L 1.140625 224.542969 C 0.964844 223.402344 0.785156 222.242188 0.652344 221.039062 L 0.605469 220.613281 L 0.582031 220.457031 L 0.5625 220.277344 L 6.097656 219.632812 L 0.539062 220.234375 C 0.425781 219.183594 0.316406 218.113281 0.25 217.019531 L 5.804688 216.640625 L 0.25 217.019531 C 0.226562 216.664062 0.203125 216.328125 0.203125 216.0625 L 0.183594 215.792969 L 5.738281 215.371094 L 0.160156 215.660156 L 0.0703125 213.917969 L 5.628906 212.871094 L 0.046875 213.003906 C 0.0273438 212.46875 0.046875 211.953125 0.046875 211.53125 L 0.046875 209.300781 L 5.628906 209.121094 L 0.046875 209.007812 C 0.0703125 208.070312 0.113281 207.15625 0.160156 206.332031 L 5.738281 206.621094 L 0.160156 206.332031 C 0.160156 206.195312 0.183594 206.085938 0.183594 205.929688 L 0.203125 205.640625 L 0.226562 205.148438 L 5.804688 205.371094 L 0.25 204.992188 C 0.316406 203.898438 0.425781 202.828125 0.539062 201.777344 L 6.097656 202.382812 L 0.539062 201.800781 C 0.539062 201.710938 0.5625 201.644531 0.5625 201.53125 L 0.605469 201.0625 L 0.605469 200.996094 L 0.917969 198.632812 L 1.1875 196.980469 L 6.699219 197.851562 L 1.1875 196.957031 C 1.386719 195.730469 1.609375 194.546875 1.855469 193.363281 L 1.921875 193.007812 L 1.945312 192.851562 L 2.457031 190.574219 L 2.925781 188.769531 L 8.328125 190.195312 L 2.925781 188.769531 C 3.195312 187.742188 3.507812 186.714844 3.796875 185.734375 L 9.128906 187.382812 L 3.796875 185.777344 C 3.820312 185.710938 3.839844 185.644531 3.863281 185.578125 L 4.066406 184.882812 L 4.152344 184.617188 L 4.710938 182.941406 L 10.246094 184.035156 L 4.980469 182.207031 C 5.160156 181.671875 5.382812 181.070312 5.605469 180.464844 L 6.097656 179.195312 L 11.496094 180.734375 L 6.320312 178.660156 C 6.632812 177.878906 6.964844 177.074219 7.324219 176.269531 L 12.433594 178.523438 L 7.324219 176.292969 C 7.480469 175.9375 7.636719 175.578125 7.769531 175.289062 L 12.902344 177.496094 L 7.882812 175.085938 C 8.351562 174.0625 8.839844 173.035156 9.355469 172.007812 L 9.554688 171.605469 C 13.4375 163.972656 18.503906 156.878906 24.707031 150.5625 L 24.929688 150.339844 L 28.882812 154.265625 L 24.910156 150.339844 C 25.757812 149.492188 26.605469 148.664062 27.453125 147.863281 L 31.269531 151.945312 L 27.453125 147.882812 C 27.476562 147.863281 27.519531 147.816406 27.5625 147.792969 L 28.078125 147.304688 L 32.027344 151.253906 L 28.257812 147.148438 C 28.96875 146.5 29.683594 145.875 30.375 145.296875 L 33.992188 149.535156 L 30.375 145.296875 C 30.800781 144.914062 31.292969 144.515625 31.761719 144.132812 L 32.964844 143.175781 L 33.523438 142.730469 L 34.707031 141.8125 L 38.632812 145.851562 L 35.332031 141.367188 C 35.375 141.34375 35.417969 141.300781 35.53125 141.210938 L 35.777344 141.011719 L 35.933594 140.898438 L 36.042969 140.832031 L 39.347656 145.273438 L 36.089844 140.742188 L 208.976562 16.484375 C 247.761719 -11.390625 301.835938 -2.554688 329.710938 36.253906 C 357.582031 75.066406 348.746094 129.117188 309.9375 156.988281 M 303.421875 147.929688 L 306.679688 152.457031 L 303.421875 147.929688 C 337.207031 123.648438 344.929688 76.558594 320.625 42.75 L 325.15625 39.492188 L 320.625 42.75 C 296.347656 8.960938 249.257812 1.242188 215.46875 25.542969 L 212.210938 21.011719 L 215.46875 25.542969 L 42.582031 149.824219 C 42.582031 149.824219 42.5625 149.824219 42.5625 149.847656 L 42.359375 150.003906 L 42.113281 150.203125 L 41.957031 150.316406 L 40.910156 151.097656 L 36.960938 147.101562 L 40.375 151.5 C 39.839844 151.921875 39.324219 152.324219 38.835938 152.703125 L 35.308594 148.398438 L 38.855469 152.703125 C 38.453125 153.015625 38.074219 153.375 37.628906 153.730469 L 36.378906 154.800781 L 35.777344 155.359375 L 35.753906 155.382812 L 35.488281 155.628906 L 35.128906 155.960938 L 35.085938 156.007812 L 33.589844 157.433594 L 32.71875 158.328125 L 28.703125 154.46875 L 32.695312 158.371094 C 27.320312 163.863281 22.898438 170.066406 19.53125 176.695312 L 14.554688 174.148438 L 19.53125 176.671875 C 19.484375 176.738281 19.464844 176.828125 19.417969 176.871094 L 14.332031 174.507812 L 19.308594 177.027344 C 18.859375 177.898438 18.4375 178.792969 18.035156 179.707031 L 17.722656 180.421875 L 17.609375 180.6875 L 17.03125 182.050781 L 16.292969 183.859375 L 10.894531 182.386719 L 16.117188 184.347656 C 15.9375 184.816406 15.78125 185.285156 15.582031 185.820312 L 15.066406 187.292969 L 9.53125 186.269531 L 14.84375 187.964844 C 14.800781 188.121094 14.730469 188.300781 14.6875 188.5 L 14.554688 188.945312 L 14.019531 190.710938 L 13.75 191.757812 L 13.726562 191.847656 L 13.683594 192.070312 L 8.261719 190.796875 L 13.660156 192.183594 C 13.394531 193.1875 13.171875 194.167969 12.945312 195.148438 L 7.433594 193.988281 L 12.902344 195.082031 C 12.902344 195.128906 12.878906 195.148438 12.878906 195.21875 L 12.835938 195.460938 L 7.34375 194.457031 L 12.8125 195.597656 C 12.589844 196.644531 12.390625 197.695312 12.234375 198.699219 L 12.164062 199.078125 L 6.632812 198.320312 L 12.144531 199.191406 C 11.988281 200.238281 11.832031 201.265625 11.71875 202.246094 L 6.183594 201.601562 L 11.71875 202.226562 C 11.71875 202.246094 11.71875 202.292969 11.71875 202.3125 L 11.652344 202.960938 L 11.472656 204.859375 L 11.386719 206.085938 L 11.363281 206.332031 L 11.339844 206.777344 L 11.339844 206.933594 L 11.25 208.519531 L 11.230469 209.699219 L 11.230469 210.839844 L 5.648438 211.015625 L 11.230469 210.996094 C 11.230469 211.195312 11.230469 211.375 11.230469 211.554688 L 11.230469 212.757812 L 11.296875 214.230469 L 11.363281 215.414062 L 11.386719 216.0625 L 11.40625 216.261719 L 11.5625 218.089844 L 11.675781 219.074219 L 11.695312 219.320312 L 11.695312 219.410156 L 11.71875 219.675781 L 6.183594 220.414062 L 11.71875 219.765625 C 11.832031 220.769531 11.988281 221.773438 12.144531 222.824219 L 12.1875 223.070312 L 12.210938 223.222656 L 12.210938 223.292969 L 12.566406 225.34375 L 7.324219 227.554688 L 12.769531 226.371094 C 12.789062 226.460938 12.8125 226.550781 12.8125 226.617188 L 12.859375 226.882812 L 7.390625 228.023438 L 12.835938 226.839844 C 13.035156 227.820312 13.28125 228.804688 13.550781 229.808594 L 8.148438 231.191406 L 13.550781 229.761719 C 13.59375 229.917969 13.617188 230.054688 13.640625 230.144531 L 13.707031 230.410156 L 13.707031 230.433594 L 14.195312 232.152344 L 14.488281 233.066406 L 14.554688 233.265625 L 14.574219 233.355469 L 14.710938 233.824219 L 9.464844 235.722656 L 14.777344 234.003906 C 15 234.695312 15.246094 235.410156 15.511719 236.167969 L 15.894531 237.238281 L 10.828125 239.628906 L 16.050781 237.640625 C 16.25 238.15625 16.449219 238.644531 16.671875 239.226562 L 17.253906 240.652344 L 17.542969 241.324219 L 17.8125 241.902344 L 18.816406 244.089844 L 14.285156 247.484375 L 19.261719 244.960938 C 19.285156 245.003906 19.308594 245.074219 19.351562 245.140625 L 14.488281 247.882812 L 19.464844 245.339844 C 22.855469 251.96875 27.25 258.171875 32.628906 263.664062 L 28.679688 267.566406 L 32.628906 263.617188 C 32.652344 263.640625 32.675781 263.664062 32.675781 263.664062 L 32.832031 263.839844 L 32.875 263.886719 L 28.882812 267.789062 L 32.851562 263.863281 C 33.566406 264.601562 34.328125 265.3125 35.085938 266.027344 L 35.621094 266.519531 L 35.800781 266.675781 L 37.003906 267.746094 L 38.476562 268.996094 L 35.332031 273.636719 L 38.855469 269.308594 C 39.347656 269.710938 39.839844 270.113281 40.394531 270.511719 L 36.980469 274.910156 L 40.394531 270.492188 C 40.933594 270.914062 41.445312 271.292969 41.980469 271.675781 L 42.40625 271.988281 L 42.582031 272.144531 L 42.628906 272.164062 L 215.515625 396.425781 C 249.300781 420.703125 296.390625 413.003906 320.671875 379.21875 L 325.203125 382.476562 L 320.671875 379.21875 C 344.953125 345.429688 337.253906 298.34375 303.464844 274.0625 L 306.722656 269.53125 L 303.464844 274.0625 L 215.695312 210.996094 L 303.464844 147.929688 Z M 303.421875 147.929688 " clip-rule="nonzero"/></clipPath><clipPath id="c30e54fe16"><rect x="0" width="346" y="0" height="422"/></clipPath></defs><g clip-path="url(#f56b18b6c3)"><g clip-path="url(#71acbba8a0)"><g transform="matrix(1, 0, 0, 1, 88, 218)"><g clip-path="url(#dd4b3bc168)"><g clip-path="url(#d96c858ad4)"><g clip-path="url(#3854846abb)"><rect x="-286" width="1296" fill="#ff7daf" height="1166.399991" y="-396.199999" fill-opacity="1"/></g></g></g></g></g></g><g clip-path="url(#6be97d716b)"><g clip-path="url(#f018d49406)"><g transform="matrix(1, 0, 0, 1, 83, 213)"><g clip-path="url(#b2be570ddb)"><g clip-path="url(#4afc1860ba)"><g clip-path="url(#b8c5129ac8)"><rect x="-281" width="1296" fill="#1e1e1e" height="1166.399991" y="-391.199999" fill-opacity="1"/></g></g></g></g></g></g><g clip-path="url(#16d312f5e8)"><g clip-path="url(#048b985cea)"><g transform="matrix(1, 0, 0, 1, 490, 218)"><g clip-path="url(#fb3b28dee3)"><g clip-path="url(#6f9dd99d97)"><g clip-path="url(#06052f085f)"><rect x="-688" width="1296" fill="#ff7daf" height="1166.399991" y="-396.199999" fill-opacity="1"/></g></g></g></g></g></g><g clip-path="url(#00e9abf8c0)"><g clip-path="url(#94c784f8c7)"><g transform="matrix(1, 0, 0, 1, 485, 213)"><g clip-path="url(#c30e54fe16)"><g clip-path="url(#f756e6299f)"><g clip-path="url(#8dbeb3b8b2)"><rect x="-683" width="1296" fill="#1e1e1e" height="1166.399991" y="-391.199999" fill-opacity="1"/></g></g></g></g></g></g></svg>