<?xml version="1.0" standalone="no"?>
<!DOCTYPE svg PUBLIC "-//W3C//DTD SVG 1.1//EN" "http://www.w3.org/Graphics/SVG/1.1/DTD/svg11.dtd">
<svg xmlns="http://www.w3.org/2000/svg" xmlns:xlink="http://www.w3.org/1999/xlink" width="900" zoomAndPan="magnify" viewBox="0 0 900 809.999994" height="810" preserveAspectRatio="xMidYMid meet" version="1.0"><defs><clipPath id="435fd47767"><path d="M 49 304 L 869 304 L 869 597 L 49 597 Z M 49 304 " clip-rule="nonzero"/></clipPath><clipPath id="feebb00e1c"><path d="M 725.546875 304.835938 C 670.253906 303.488281 621.683594 332.511719 595.515625 376.3125 C 593.273438 380.0625 587.816406 380.164062 585.574219 376.414062 C 559.996094 333.546875 512.964844 304.792969 459.179688 304.792969 C 405.394531 304.792969 358.347656 333.535156 332.769531 376.414062 C 330.527344 380.164062 325.066406 380.0625 322.828125 376.3125 C 296.644531 332.511719 248.078125 303.488281 192.78125 304.835938 C 116.019531 306.707031 50.710938 372.316406 49.648438 448.589844 C 48.511719 530.109375 114.683594 596.539062 196.476562 596.539062 C 250.273438 596.539062 297.304688 567.800781 322.882812 524.921875 C 325.097656 521.214844 330.558594 521.214844 332.769531 524.921875 C 358.347656 567.785156 405.378906 596.539062 459.179688 596.539062 C 512.976562 596.539062 560.011719 567.800781 585.574219 524.921875 C 587.785156 521.214844 593.246094 521.214844 595.460938 524.921875 C 621.039062 567.785156 668.070312 596.539062 721.867188 596.539062 C 803.660156 596.539062 869.832031 530.109375 868.695312 448.589844 C 867.617188 372.316406 802.324219 306.707031 725.5625 304.835938 " clip-rule="nonzero"/></clipPath><clipPath id="f2a1859bac"><path d="M 0 0 L 820 0 L 820 292.640625 L 0 292.640625 Z M 0 0 " clip-rule="nonzero"/></clipPath><clipPath id="cc2096e639"><path d="M 676.546875 0.835938 C 621.253906 -0.511719 572.683594 28.511719 546.515625 72.3125 C 544.273438 76.0625 538.816406 76.164062 536.574219 72.414062 C 510.996094 29.546875 463.964844 0.792969 410.179688 0.792969 C 356.394531 0.792969 309.347656 29.535156 283.769531 72.414062 C 281.527344 76.164062 276.066406 76.0625 273.828125 72.3125 C 247.644531 28.511719 199.078125 -0.511719 143.78125 0.835938 C 67.019531 2.707031 1.710938 68.316406 0.648438 144.589844 C -0.488281 226.109375 65.683594 292.539062 147.476562 292.539062 C 201.273438 292.539062 248.304688 263.800781 273.882812 220.921875 C 276.097656 217.214844 281.558594 217.214844 283.769531 220.921875 C 309.347656 263.785156 356.378906 292.539062 410.179688 292.539062 C 463.976562 292.539062 511.011719 263.800781 536.574219 220.921875 C 538.785156 217.214844 544.246094 217.214844 546.460938 220.921875 C 572.039062 263.785156 619.070312 292.539062 672.867188 292.539062 C 754.660156 292.539062 820.832031 226.109375 819.695312 144.589844 C 818.617188 68.316406 753.324219 2.707031 676.5625 0.835938 " clip-rule="nonzero"/></clipPath><clipPath id="d317774551"><rect x="0" width="820" y="0" height="293"/></clipPath><clipPath id="80ae83af07"><path d="M 46 301 L 873 301 L 873 601 L 46 601 Z M 46 301 " clip-rule="nonzero"/></clipPath><clipPath id="fa80fb06aa"><path d="M 725.445312 308.429688 C 671.503906 307.121094 624.113281 335.429688 598.578125 378.152344 L 595.488281 376.3125 L 598.578125 378.152344 C 595.789062 382.835938 589.882812 383.984375 585.660156 381.457031 C 584.394531 380.695312 583.289062 379.617188 582.46875 378.25 C 557.523438 336.4375 511.640625 308.386719 459.148438 308.386719 L 459.148438 304.792969 L 459.148438 308.386719 C 406.660156 308.386719 360.777344 336.421875 335.832031 378.25 L 332.742188 376.414062 L 335.832031 378.25 C 333 382.992188 327.121094 383.898438 322.984375 381.441406 C 321.691406 380.664062 320.554688 379.574219 319.722656 378.164062 C 294.1875 335.445312 246.8125 307.121094 192.855469 308.445312 L 192.769531 304.851562 L 192.855469 308.445312 C 118.003906 310.269531 54.261719 374.328125 53.226562 448.648438 L 49.632812 448.589844 L 53.226562 448.648438 C 52.117188 527.449219 115.53125 591.839844 194.390625 592.945312 C 195.082031 592.960938 195.769531 592.960938 196.460938 592.960938 L 196.460938 596.554688 L 196.460938 592.960938 C 248.953125 592.960938 294.835938 564.925781 319.78125 523.097656 C 322.582031 518.398438 328.472656 517.40625 332.625 519.878906 C 333.90625 520.640625 335.011719 521.71875 335.832031 523.097656 C 360.777344 564.910156 406.660156 592.960938 459.148438 592.960938 L 459.148438 596.554688 L 459.148438 592.960938 C 511.640625 592.960938 557.523438 564.925781 582.46875 523.097656 L 585.558594 524.9375 L 582.46875 523.097656 C 585.273438 518.398438 591.164062 517.40625 595.316406 519.878906 C 596.59375 520.640625 597.699219 521.71875 598.519531 523.097656 L 595.429688 524.9375 L 598.519531 523.097656 C 623.464844 564.910156 669.347656 592.960938 721.839844 592.960938 L 721.839844 596.554688 L 721.839844 592.960938 C 800.972656 592.960938 865.089844 529.230469 865.089844 450.675781 C 865.089844 450 865.089844 449.324219 865.074219 448.648438 L 868.667969 448.589844 L 865.074219 448.648438 C 864.027344 374.328125 800.296875 310.253906 725.445312 308.445312 L 725.53125 304.851562 L 725.445312 308.445312 M 725.617188 301.257812 C 804.292969 303.171875 871.167969 370.332031 872.257812 448.546875 C 872.273438 449.25 872.273438 449.96875 872.273438 450.675781 C 872.273438 533.242188 804.894531 600.144531 721.839844 600.144531 C 666.730469 600.144531 618.550781 570.703125 592.355469 526.773438 C 592.15625 526.445312 591.910156 526.214844 591.636719 526.042969 C 590.617188 525.425781 589.25 525.753906 588.632812 526.773438 C 562.4375 570.6875 514.257812 600.144531 459.148438 600.144531 C 404.042969 600.144531 355.863281 570.703125 329.667969 526.773438 L 332.757812 524.9375 L 329.667969 526.773438 C 329.464844 526.445312 329.222656 526.214844 328.949219 526.042969 C 327.925781 525.425781 326.546875 525.753906 325.945312 526.773438 L 322.855469 524.9375 L 325.945312 526.773438 C 299.75 570.6875 251.566406 600.144531 196.460938 600.144531 C 195.742188 600.144531 195.023438 600.144531 194.292969 600.132812 C 111.535156 598.953125 44.890625 531.359375 46.054688 448.53125 C 47.148438 370.320312 114.023438 303.15625 192.695312 301.246094 C 249.328125 299.867188 299.089844 329.609375 325.902344 374.472656 L 322.8125 376.3125 L 325.902344 374.472656 C 326.117188 374.832031 326.390625 375.089844 326.675781 375.261719 C 327.742188 375.894531 329.078125 375.5625 329.667969 374.574219 C 355.875 330.644531 404.058594 301.203125 459.164062 301.203125 C 514.273438 301.203125 562.453125 330.644531 588.648438 374.574219 L 585.558594 376.414062 L 588.648438 374.574219 C 588.847656 374.902344 589.09375 375.132812 589.351562 375.292969 C 590.328125 375.878906 591.753906 375.59375 592.414062 374.472656 C 619.226562 329.609375 668.988281 299.867188 725.632812 301.246094 Z M 725.617188 301.257812 " clip-rule="nonzero"/></clipPath><clipPath id="ad2577bcc2"><path d="M 0 0 L 826.398438 0 L 826.398438 299.238281 L 0 299.238281 Z M 0 0 " clip-rule="nonzero"/></clipPath><clipPath id="7efce4ec61"><path d="M 679.445312 7.429688 C 625.503906 6.121094 578.113281 34.429688 552.578125 77.152344 L 549.488281 75.3125 L 552.578125 77.152344 C 549.789062 81.835938 543.882812 82.984375 539.660156 80.457031 C 538.394531 79.695312 537.289062 78.617188 536.46875 77.25 C 511.523438 35.4375 465.640625 7.386719 413.148438 7.386719 L 413.148438 3.792969 L 413.148438 7.386719 C 360.660156 7.386719 314.777344 35.421875 289.832031 77.25 L 286.742188 75.414062 L 289.832031 77.25 C 287 81.992188 281.121094 82.898438 276.984375 80.441406 C 275.691406 79.664062 274.554688 78.574219 273.722656 77.164062 C 248.1875 34.445312 200.8125 6.121094 146.855469 7.445312 L 146.769531 3.851562 L 146.855469 7.445312 C 72.003906 9.269531 8.261719 73.328125 7.226562 147.648438 L 3.632812 147.589844 L 7.226562 147.648438 C 6.117188 226.449219 69.53125 290.839844 148.390625 291.945312 C 149.082031 291.960938 149.769531 291.960938 150.460938 291.960938 L 150.460938 295.554688 L 150.460938 291.960938 C 202.953125 291.960938 248.835938 263.925781 273.78125 222.097656 C 276.582031 217.398438 282.472656 216.40625 286.625 218.878906 C 287.90625 219.640625 289.011719 220.71875 289.832031 222.097656 C 314.777344 263.910156 360.660156 291.960938 413.148438 291.960938 L 413.148438 295.554688 L 413.148438 291.960938 C 465.640625 291.960938 511.523438 263.925781 536.46875 222.097656 L 539.558594 223.9375 L 536.46875 222.097656 C 539.273438 217.398438 545.164062 216.40625 549.316406 218.878906 C 550.59375 219.640625 551.699219 220.71875 552.519531 222.097656 L 549.429688 223.9375 L 552.519531 222.097656 C 577.464844 263.910156 623.347656 291.960938 675.839844 291.960938 L 675.839844 295.554688 L 675.839844 291.960938 C 754.972656 291.960938 819.089844 228.230469 819.089844 149.675781 C 819.089844 149 819.089844 148.324219 819.074219 147.648438 L 822.667969 147.589844 L 819.074219 147.648438 C 818.027344 73.328125 754.296875 9.253906 679.445312 7.445312 L 679.53125 3.851562 L 679.445312 7.445312 M 679.617188 0.257812 C 758.292969 2.171875 825.167969 69.332031 826.257812 147.546875 C 826.273438 148.25 826.273438 148.96875 826.273438 149.675781 C 826.273438 232.242188 758.894531 299.144531 675.839844 299.144531 C 620.730469 299.144531 572.550781 269.703125 546.355469 225.773438 C 546.15625 225.445312 545.910156 225.214844 545.636719 225.042969 C 544.617188 224.425781 543.25 224.753906 542.632812 225.773438 C 516.4375 269.6875 468.257812 299.144531 413.148438 299.144531 C 358.042969 299.144531 309.863281 269.703125 283.667969 225.773438 L 286.757812 223.9375 L 283.667969 225.773438 C 283.464844 225.445312 283.222656 225.214844 282.949219 225.042969 C 281.925781 224.425781 280.546875 224.753906 279.945312 225.773438 L 276.855469 223.9375 L 279.945312 225.773438 C 253.75 269.6875 205.566406 299.144531 150.460938 299.144531 C 149.742188 299.144531 149.023438 299.144531 148.292969 299.132812 C 65.535156 297.953125 -1.109375 230.359375 0.0546875 147.53125 C 1.148438 69.320312 68.023438 2.15625 146.695312 0.246094 C 203.328125 -1.132812 253.089844 28.609375 279.902344 73.472656 L 276.8125 75.3125 L 279.902344 73.472656 C 280.117188 73.832031 280.390625 74.089844 280.675781 74.261719 C 281.742188 74.894531 283.078125 74.5625 283.667969 73.574219 C 309.875 29.644531 358.058594 0.203125 413.164062 0.203125 C 468.273438 0.203125 516.453125 29.644531 542.648438 73.574219 L 539.558594 75.414062 L 542.648438 73.574219 C 542.847656 73.902344 543.09375 74.132812 543.351562 74.292969 C 544.328125 74.878906 545.753906 74.59375 546.414062 73.472656 C 573.226562 28.609375 622.988281 -1.132812 679.632812 0.246094 Z M 679.617188 0.257812 " clip-rule="nonzero"/></clipPath><clipPath id="fbb12a16d1"><rect x="0" width="827" y="0" height="300"/></clipPath></defs><g clip-path="url(#435fd47767)"><g clip-path="url(#feebb00e1c)"><g transform="matrix(1, 0, 0, 1, 49, 304)"><g clip-path="url(#d317774551)"><g clip-path="url(#f2a1859bac)"><g clip-path="url(#cc2096e639)"><rect x="-247" width="1296" fill="#f8d8d8" height="1166.399991" y="-482.199999" fill-opacity="1"/></g></g></g></g></g></g><g clip-path="url(#80ae83af07)"><g clip-path="url(#fa80fb06aa)"><g transform="matrix(1, 0, 0, 1, 46, 301)"><g clip-path="url(#fbb12a16d1)"><g clip-path="url(#ad2577bcc2)"><g clip-path="url(#7efce4ec61)"><rect x="-244" width="1296" fill="#1e1e1e" height="1166.399991" y="-479.199999" fill-opacity="1"/></g></g></g></g></g></g></svg>