<?xml version="1.0" encoding="UTF-8" standalone="no"?>
<svg
   height="32"
   aria-hidden="true"
   viewBox="0 0 24 24"
   version="1.1"
   width="32"
   data-view-component="true"
   class="octicon octicon-mark-github v-align-middle color-fg-default"
   id="svg1"
   sodipodi:docname="github.svg"
   inkscape:version="1.3.2 (091e20ef0f, 2023-11-25)"
   xmlns:inkscape="http://www.inkscape.org/namespaces/inkscape"
   xmlns:sodipodi="http://sodipodi.sourceforge.net/DTD/sodipodi-0.dtd"
   xmlns="http://www.w3.org/2000/svg"
   xmlns:svg="http://www.w3.org/2000/svg">
  <defs
     id="defs1" />
  <sodipodi:namedview
     id="namedview1"
     pagecolor="#ffffff"
     bordercolor="#000000"
     borderopacity="0.25"
     inkscape:showpageshadow="2"
     inkscape:pageopacity="0.0"
     inkscape:pagecheckerboard="0"
     inkscape:deskcolor="#d1d1d1"
     inkscape:zoom="25.15625"
     inkscape:cx="15.980124"
     inkscape:cy="16"
     inkscape:window-width="1920"
     inkscape:window-height="1011"
     inkscape:window-x="1920"
     inkscape:window-y="32"
     inkscape:window-maximized="1"
     inkscape:current-layer="svg1" />
  <path
     d="M12.5.75C6.146.75 1 5.896 1 12.25c0 5.089 3.292 9.387 7.863 10.91.575.101.79-.244.79-.546 0-.273-.014-1.178-.014-2.142-2.889.532-3.636-.704-3.866-1.35-.13-.331-.69-1.352-1.18-1.625-.402-.216-.977-.748-.014-.762.906-.014 1.553.834 1.769 1.179 1.035 1.74 2.688 1.25 3.349.948.1-.747.402-1.25.733-1.538-2.559-.287-5.232-1.279-5.232-5.678 0-1.25.445-2.285 1.178-3.09-.115-.288-.517-1.467.115-3.048 0 0 .963-.302 3.163 1.179.92-.259 1.897-.388 2.875-.388.977 0 1.955.13 2.875.388 2.2-1.495 3.162-1.179 3.162-1.179.633 1.581.23 2.76.115 3.048.733.805 1.179 1.825 1.179 3.09 0 4.413-2.688 5.39-5.247 5.678.417.36.776 1.05.776 2.128 0 1.538-.014 2.774-.014 3.162 0 .302.216.662.79.547C20.709 21.637 24 17.324 24 12.25 24 5.896 18.854.75 12.5.75Z"
     id="path1" />
  <path
     style="fill:#4281ef;stroke-width:0.0397516;fill-opacity:1"
     d="m 21.074125,30.863706 c -0.217985,-0.05244 -0.381122,-0.181887 -0.466704,-0.370332 -0.06953,-0.153105 -0.07406,-0.309284 -0.0751,-2.587784 -0.0012,-2.583027 -0.01756,-2.863636 -0.201856,-3.458385 -0.119292,-0.384966 -0.329139,-0.789043 -0.562547,-1.08323 -0.108415,-0.136646 -0.191106,-0.249234 -0.183758,-0.250196 1.687824,-0.220907 2.970834,-0.605111 3.909013,-1.170576 1.397252,-0.842159 2.271221,-2.062696 2.704344,-3.776743 0.210442,-0.832803 0.273018,-1.409823 0.273745,-2.524224 5.6e-4,-0.85681 -0.0099,-1.022019 -0.08674,-1.373998 -0.204883,-0.938181 -0.556758,-1.715472 -1.102726,-2.435922 l -0.34171,-0.450913 0.08047,-0.244739 c 0.1894,-0.575998 0.257852,-1.5508211 0.160046,-2.2791292 C 25.105195,8.2960262 24.841147,7.3960081 24.730936,7.3248322 24.653029,7.2745187 24.132159,7.291743 23.79448,7.3557995 23.059146,7.49529 22.079067,7.923619 21.068323,8.5472262 20.534096,8.8768326 20.506228,8.8889298 20.372671,8.8492005 19.894232,8.7068788 18.857787,8.5225552 18.086957,8.4427039 c -0.610513,-0.063244 -2.165182,-0.062728 -2.782609,9.234e-4 -0.63094,0.065044 -1.50044,0.2129447 -2.007431,0.3414603 L 12.887383,8.8888988 12.684686,8.7610924 C 11.155958,7.7971888 10.077216,7.3577381 9.1229814,7.3101504 8.8934161,7.2987019 8.6853704,7.3038927 8.6606577,7.3216859 8.5977322,7.3669919 8.388199,8.0393791 8.2836496,8.5314938 c -0.069852,0.3287942 -0.088159,0.5498741 -0.090127,1.088382 -0.00257,0.7027072 0.05183,1.1144842 0.2077579,1.5726562 l 0.073566,0.216164 -0.1881842,0.218633 c -0.2873497,0.333845 -0.5400507,0.730473 -0.7724637,1.212423 -0.4965347,1.029654 -0.6583581,1.973685 -0.5787512,3.376271 0.076576,1.349193 0.31116,2.37039 0.7585136,3.301989 0.9167408,1.909082 2.6542,3.038861 5.344548,3.47528 0.284224,0.04611 0.575686,0.09343 0.647694,0.105158 l 0.130924,0.02133 -0.199904,0.251223 c -0.329541,0.414139 -0.526659,0.884765 -0.694195,1.657415 -0.02767,0.127612 -0.264403,0.238259 -0.800991,0.374376 -0.733139,0.185975 -1.347521,0.166429 -1.976373,-0.06288 C 9.5177584,25.110953 9.0163367,24.673842 8.5077657,23.91209 7.950691,23.077687 7.4040873,22.614141 6.6981366,22.377438 c -0.3048447,-0.102213 -0.9218687,-0.09849 -1.1376369,0.0069 -0.3398372,0.16593 -0.1811844,0.48066 0.4572172,0.907015 0.6538784,0.436691 1.1748309,1.142249 1.6899581,2.288815 0.1129612,0.251429 0.2792487,0.557073 0.3695273,0.679211 0.4269674,0.577639 1.0869486,0.955528 1.9850127,1.13657 0.47227,0.09521 1.720509,0.09499 2.31713,-4.02e-4 0.22777,-0.03642 0.419414,-0.06093 0.425876,-0.05446 0.0065,0.0065 0.01687,0.690663 0.02314,1.520448 0.01275,1.688395 0.01807,1.651828 -0.272378,1.873361 -0.118196,0.09015 -0.194681,0.113208 -0.417267,0.125785 -0.238139,0.01346 -0.324,-0.0034 -0.680163,-0.133782 C 6.2995856,28.838749 2.5267623,24.361202 1.5945451,19.02035 1.415277,17.993289 1.3913043,17.674543 1.3913043,16.318012 c 0,-1.312593 0.018505,-1.571031 0.1835851,-2.563975 C 2.5615799,7.8191841 7.1182811,2.9112176 12.977385,1.4725504 c 1.282046,-0.3147986 2.316648,-0.435673 3.718267,-0.4344117 1.111642,0.001 1.792665,0.059416 2.748367,0.2357429 6.21546,1.1467547 11.140124,6.0664295 12.273958,12.2615224 0.191328,1.045388 0.239688,1.610823 0.239688,2.802484 0,1.189768 -0.04903,1.764593 -0.237795,2.788118 -0.926136,5.021614 -4.360577,9.29791 -9.089773,11.317872 -0.896475,0.382908 -1.279654,0.486296 -1.555972,0.419828 z"
     id="path2"
     transform="scale(0.75)" />
</svg>
