<?xml version="1.0" encoding="utf-8"?>
<!-- Generator: Adobe Illustrator 26.3.1, SVG Export Plug-In . SVG Version: 6.00 Build 0)  -->
<svg version="1.1" id="Livello_1" xmlns="http://www.w3.org/2000/svg" xmlns:xlink="http://www.w3.org/1999/xlink" x="0px" y="0px"
	 viewBox="0 0 1500 600" style="enable-background:new 0 0 1500 600;" xml:space="preserve">
<style type="text/css">
	.st0{fill:#6F6F71;}
	.st1{fill:#2F3490;}
	.st2{fill:#EB212E;}
	.st3{fill:#6F6F6E;}
</style>
<g id="XMLID_171_">
	<g id="XMLID_236_">
		<path id="XMLID_241_" class="st0" d="M743.8,85v157.5c0,33.8-7.9,58.7-23.6,74.9c-15.7,16.2-38.6,24.3-68.6,24.3
			s-52.9-8.1-68.6-24.3c-15.7-16.2-23.6-41.1-23.6-74.9V85h7v157.5c0,30.2,6.9,53.2,20.7,68.9c13.8,15.7,35.3,23.6,64.3,23.6
			s50.5-7.8,64.3-23.6c13.8-15.7,20.7-38.7,20.7-68.9V85H743.8z"/>
		<path id="XMLID_239_" class="st0" d="M965.6,85v251h-7V85H965.6z"/>
		<path id="XMLID_237_" class="st0" d="M1349.6,85l-91.4,122l95.6,129h-8.8l-91.8-123.4L1161.1,336h-8.8l96.3-129l-91.1-122h8.8
			l86.8,116.4L1340.8,85H1349.6z"/>
	</g>
	<g id="XMLID_234_">
		<path id="XMLID_235_" class="st1" d="M187.9,302c-23.6-23.6-37.6-56.1-37.6-90.9c0-70.9,57.7-128.6,128.6-128.6
			c34.4,0,66.6,13.4,90.9,37.7c24.3,24.3,37.7,56.6,37.7,90.9c0,49.6-29,95.4-74,116.5c-2.2,1-4.8,0.1-5.8-2.1
			c-1-2.2-0.1-4.8,2.1-5.8c41.9-19.7,69-62.3,69-108.5c0-32-12.5-62.1-35.1-84.7c-22.6-22.6-52.7-35.1-84.7-35.1
			c-66.1,0-119.8,53.7-119.8,119.8c0,48.3,28.7,91.6,73.2,110.4c2.2,0.9,3.3,3.5,2.3,5.8c-0.9,2.2-3.5,3.3-5.8,2.3
			C213.3,323,199.4,313.5,187.9,302z"/>
	</g>
	<g id="XMLID_232_">
		<path id="XMLID_233_" class="st2" d="M275.8,388.8c-0.8-0.8-1.3-1.9-1.3-3.1l0-195.6c0-2.4,2-4.4,4.4-4.4c2.4,0,4.4,2,4.4,4.4
			l0,195.6c0,2.4-2,4.4-4.4,4.4C277.7,390.1,276.6,389.6,275.8,388.8z"/>
	</g>
	<g id="XMLID_172_">
		<path id="XMLID_230_" class="st3" d="M152.5,439.1l14,54.2h0.2l15.1-54.2h7.4l15.2,54.2h0.2l14.1-54.2h5.9L207.5,501h-6.2
			l-15.7-55.4h-0.2L169.8,501h-6.4l-17.2-61.9H152.5z"/>
		<path id="XMLID_227_" class="st3" d="M234.7,486.2c0.5,2.1,1.4,4,2.6,5.7c1.2,1.7,2.7,3.1,4.6,4.2c1.9,1.1,4.1,1.6,6.7,1.6
			c4,0,7.1-1,9.4-3.1c2.3-2.1,3.8-4.9,4.7-8.3h5.5c-1.2,5.1-3.3,9-6.4,11.8c-3.1,2.8-7.5,4.2-13.1,4.2c-3.5,0-6.6-0.6-9.1-1.9
			c-2.6-1.2-4.7-2.9-6.3-5.1c-1.6-2.2-2.8-4.7-3.6-7.5c-0.8-2.9-1.2-5.9-1.2-9.1c0-2.9,0.4-5.8,1.2-8.7c0.8-2.8,2-5.4,3.6-7.6
			c1.6-2.2,3.7-4,6.3-5.4c2.6-1.4,5.6-2,9.1-2c3.6,0,6.6,0.7,9.2,2.2c2.5,1.4,4.6,3.3,6.2,5.7c1.6,2.3,2.7,5,3.4,8.1
			c0.7,3,1,6.1,0.9,9.2h-34.4C233.9,482.1,234.1,484.1,234.7,486.2z M261.7,469.6c-0.7-1.9-1.6-3.6-2.8-5.1
			c-1.2-1.5-2.7-2.7-4.4-3.6c-1.7-0.9-3.7-1.3-5.9-1.3c-2.3,0-4.3,0.4-6,1.3c-1.7,0.9-3.2,2.1-4.4,3.6c-1.2,1.5-2.2,3.2-2.9,5.1
			c-0.7,1.9-1.2,3.9-1.4,5.9h29C262.8,473.5,262.4,471.5,261.7,469.6z"/>
		<path id="XMLID_224_" class="st3" d="M305.2,463.2c0.9-1.9,2.2-3.5,3.8-4.7c1.6-1.2,3.5-2.1,5.6-2.7c2.1-0.6,4.5-0.9,7.1-0.9
			c2,0,3.9,0.2,5.9,0.6c2,0.4,3.7,1.1,5.3,2.1c1.6,1,2.8,2.5,3.8,4.4c1,1.9,1.5,4.3,1.5,7.3v23.8c0,2.2,1.1,3.3,3.2,3.3
			c0.6,0,1.2-0.1,1.7-0.3v4.6c-0.6,0.1-1.2,0.2-1.7,0.3c-0.5,0.1-1.1,0.1-1.9,0.1c-1.4,0-2.5-0.2-3.3-0.6s-1.5-0.9-1.9-1.6
			c-0.5-0.7-0.8-1.5-0.9-2.5c-0.1-1-0.2-2-0.2-3.2H333c-1,1.4-2,2.7-3,3.9c-1,1.1-2.1,2.1-3.4,2.8c-1.2,0.7-2.7,1.3-4.3,1.7
			c-1.6,0.4-3.5,0.6-5.7,0.6c-2.1,0-4-0.2-5.9-0.7c-1.8-0.5-3.4-1.3-4.8-2.3c-1.4-1.1-2.4-2.4-3.2-4.1c-0.8-1.6-1.2-3.6-1.2-5.9
			c0-3.1,0.7-5.6,2.1-7.3c1.4-1.8,3.2-3.1,5.5-4c2.3-0.9,4.9-1.6,7.7-2c2.9-0.4,5.8-0.7,8.7-1.1c1.2-0.1,2.2-0.3,3-0.4
			s1.6-0.5,2.2-0.9c0.6-0.4,1-1,1.3-1.8c0.3-0.7,0.5-1.7,0.5-2.9c0-1.9-0.3-3.4-0.9-4.6c-0.6-1.2-1.4-2.1-2.5-2.8
			c-1.1-0.7-2.3-1.2-3.7-1.4c-1.4-0.3-2.9-0.4-4.6-0.4c-3.5,0-6.3,0.8-8.5,2.5c-2.2,1.6-3.4,4.3-3.5,7.9h-5.5
			C303.8,467.4,304.3,465.1,305.2,463.2z M332.5,476.6c-0.4,0.6-1,1.1-2,1.4c-1,0.3-1.9,0.5-2.6,0.6c-2.3,0.4-4.7,0.8-7.2,1.1
			c-2.5,0.3-4.7,0.8-6.7,1.4c-2,0.6-3.7,1.6-5,2.7c-1.3,1.2-1.9,2.9-1.9,5.1c0,1.4,0.3,2.6,0.8,3.7c0.5,1.1,1.3,2,2.2,2.8
			c0.9,0.8,2,1.4,3.2,1.8c1.2,0.4,2.5,0.6,3.7,0.6c2.1,0,4.1-0.3,6-1c1.9-0.6,3.6-1.6,5-2.8c1.4-1.2,2.5-2.7,3.4-4.4
			c0.8-1.7,1.3-3.7,1.3-5.9v-7.1H332.5z"/>
		<path id="XMLID_221_" class="st3" d="M385.6,501v-8.5h-0.2c-0.6,1.4-1.4,2.8-2.6,4c-1.1,1.2-2.4,2.2-3.9,3.1
			c-1.4,0.8-3,1.5-4.6,1.9c-1.6,0.5-3.3,0.7-4.9,0.7c-3.4,0-6.4-0.6-8.9-1.9c-2.5-1.2-4.6-2.9-6.3-5.1c-1.7-2.2-2.9-4.7-3.7-7.5
			c-0.8-2.9-1.2-5.9-1.2-9.1c0-3.2,0.4-6.2,1.2-9.1c0.8-2.9,2.1-5.4,3.7-7.5c1.7-2.2,3.8-3.9,6.3-5.2c2.5-1.3,5.5-1.9,8.9-1.9
			c1.7,0,3.3,0.2,4.9,0.6c1.6,0.4,3.1,1,4.5,1.9c1.4,0.8,2.6,1.9,3.7,3.1s1.9,2.6,2.5,4.3h0.2v-25.7h5.5V501H385.6z M355.6,485.6
			c0.6,2.3,1.4,4.3,2.6,6.1c1.2,1.8,2.7,3.3,4.6,4.4c1.9,1.1,4.1,1.7,6.7,1.7c2.9,0,5.3-0.6,7.3-1.7c2-1.1,3.6-2.6,4.9-4.4
			c1.2-1.8,2.1-3.8,2.7-6.1c0.5-2.3,0.8-4.6,0.8-6.9c0-2.3-0.3-4.6-0.8-6.9c-0.6-2.3-1.4-4.3-2.7-6.1c-1.2-1.8-2.9-3.2-4.9-4.4
			c-2-1.1-4.4-1.7-7.3-1.7c-2.6,0-4.8,0.6-6.7,1.7c-1.8,1.1-3.4,2.6-4.6,4.4s-2,3.8-2.6,6.1c-0.5,2.3-0.8,4.6-0.8,6.9
			C354.8,481,355.1,483.3,355.6,485.6z"/>
		<path id="XMLID_218_" class="st3" d="M437.5,501v-8.5h-0.2c-0.6,1.4-1.4,2.8-2.6,4c-1.1,1.2-2.4,2.2-3.9,3.1
			c-1.4,0.8-3,1.5-4.6,1.9c-1.6,0.5-3.3,0.7-4.9,0.7c-3.4,0-6.4-0.6-8.9-1.9c-2.5-1.2-4.6-2.9-6.3-5.1c-1.7-2.2-2.9-4.7-3.7-7.5
			s-1.2-5.9-1.2-9.1c0-3.2,0.4-6.2,1.2-9.1c0.8-2.9,2.1-5.4,3.7-7.5c1.7-2.2,3.8-3.9,6.3-5.2c2.5-1.3,5.5-1.9,8.9-1.9
			c1.7,0,3.3,0.2,4.9,0.6c1.6,0.4,3.1,1,4.5,1.9c1.4,0.8,2.6,1.9,3.7,3.1s1.9,2.6,2.5,4.3h0.2v-25.7h5.5V501H437.5z M407.6,485.6
			c0.6,2.3,1.4,4.3,2.6,6.1c1.2,1.8,2.7,3.3,4.6,4.4c1.9,1.1,4.1,1.7,6.7,1.7c2.9,0,5.3-0.6,7.3-1.7c2-1.1,3.6-2.6,4.9-4.4
			c1.2-1.8,2.1-3.8,2.7-6.1c0.5-2.3,0.8-4.6,0.8-6.9c0-2.3-0.3-4.6-0.8-6.9c-0.6-2.3-1.4-4.3-2.7-6.1c-1.2-1.8-2.9-3.2-4.9-4.4
			c-2-1.1-4.4-1.7-7.3-1.7c-2.6,0-4.8,0.6-6.7,1.7c-1.8,1.1-3.4,2.6-4.6,4.4c-1.2,1.8-2,3.8-2.6,6.1c-0.5,2.3-0.8,4.6-0.8,6.9
			C406.8,481,407,483.3,407.6,485.6z"/>
		<path id="XMLID_216_" class="st3" d="M482.4,456.3l14.1,39.3h0.2l13.9-39.3h5.6L499.4,501h-5.8l-17.3-44.7H482.4z"/>
		<path id="XMLID_213_" class="st3" d="M524.8,463.2c0.9-1.9,2.2-3.5,3.8-4.7s3.5-2.1,5.6-2.7c2.1-0.6,4.5-0.9,7.1-0.9
			c2,0,3.9,0.2,5.9,0.6c2,0.4,3.7,1.1,5.3,2.1c1.6,1,2.8,2.5,3.8,4.4c1,1.9,1.5,4.3,1.5,7.3v23.8c0,2.2,1.1,3.3,3.2,3.3
			c0.6,0,1.2-0.1,1.7-0.3v4.6c-0.6,0.1-1.2,0.2-1.7,0.3c-0.5,0.1-1.1,0.1-1.9,0.1c-1.4,0-2.5-0.2-3.3-0.6s-1.5-0.9-1.9-1.6
			c-0.5-0.7-0.8-1.5-0.9-2.5c-0.1-1-0.2-2-0.2-3.2h-0.2c-1,1.4-2,2.7-3,3.9c-1,1.1-2.1,2.1-3.4,2.8c-1.2,0.7-2.7,1.3-4.3,1.7
			c-1.6,0.4-3.5,0.6-5.7,0.6c-2.1,0-4-0.2-5.9-0.7c-1.8-0.5-3.4-1.3-4.8-2.3c-1.4-1.1-2.4-2.4-3.2-4.1c-0.8-1.6-1.2-3.6-1.2-5.9
			c0-3.1,0.7-5.6,2.1-7.3c1.4-1.8,3.2-3.1,5.5-4c2.3-0.9,4.9-1.6,7.7-2c2.9-0.4,5.8-0.7,8.7-1.1c1.2-0.1,2.2-0.3,3-0.4
			c0.9-0.2,1.6-0.5,2.2-0.9c0.6-0.4,1-1,1.3-1.8c0.3-0.7,0.5-1.7,0.5-2.9c0-1.9-0.3-3.4-0.9-4.6c-0.6-1.2-1.4-2.1-2.5-2.8
			c-1.1-0.7-2.3-1.2-3.7-1.4c-1.4-0.3-2.9-0.4-4.6-0.4c-3.5,0-6.3,0.8-8.5,2.5c-2.2,1.6-3.4,4.3-3.5,7.9h-5.5
			C523.4,467.4,523.9,465.1,524.8,463.2z M552.1,476.6c-0.4,0.6-1,1.1-2,1.4c-1,0.3-1.9,0.5-2.6,0.6c-2.3,0.4-4.7,0.8-7.2,1.1
			c-2.5,0.3-4.7,0.8-6.7,1.4c-2,0.6-3.7,1.6-5,2.7c-1.3,1.2-1.9,2.9-1.9,5.1c0,1.4,0.3,2.6,0.8,3.7c0.5,1.1,1.3,2,2.2,2.8
			c0.9,0.8,2,1.4,3.2,1.8c1.2,0.4,2.5,0.6,3.7,0.6c2.1,0,4.1-0.3,6-1c1.9-0.6,3.6-1.6,5-2.8c1.4-1.2,2.5-2.7,3.4-4.4
			c0.8-1.7,1.3-3.7,1.3-5.9v-7.1H552.1z"/>
		<path id="XMLID_211_" class="st3" d="M576.4,439.1V501H571v-61.9H576.4z"/>
		<path id="XMLID_209_" class="st3" d="M620.3,501V493h-0.2c-1.4,3-3.5,5.3-6.3,6.9c-2.7,1.6-5.8,2.4-9.1,2.4
			c-2.8,0-5.2-0.4-7.2-1.2c-2-0.8-3.6-1.9-4.9-3.3c-1.2-1.4-2.2-3.2-2.7-5.3c-0.6-2.1-0.9-4.4-0.9-7.1v-29h5.5v29.1
			c0.1,4,1.1,7.1,2.8,9.2c1.8,2.1,4.8,3.1,9.1,3.1c2.4,0,4.4-0.5,6.1-1.5c1.7-1,3.1-2.4,4.2-4c1.1-1.7,1.9-3.6,2.4-5.8
			c0.5-2.2,0.8-4.4,0.8-6.6v-23.5h5.5V501H620.3z"/>
		<path id="XMLID_206_" class="st3" d="M641.8,486.2c0.5,2.1,1.4,4,2.6,5.7c1.2,1.7,2.7,3.1,4.6,4.2c1.9,1.1,4.1,1.6,6.7,1.6
			c4,0,7.1-1,9.4-3.1c2.3-2.1,3.8-4.9,4.7-8.3h5.5c-1.2,5.1-3.3,9-6.4,11.8c-3.1,2.8-7.5,4.2-13.1,4.2c-3.5,0-6.6-0.6-9.1-1.9
			c-2.6-1.2-4.7-2.9-6.3-5.1c-1.6-2.2-2.8-4.7-3.6-7.5c-0.8-2.9-1.2-5.9-1.2-9.1c0-2.9,0.4-5.8,1.2-8.7c0.8-2.8,2-5.4,3.6-7.6
			c1.6-2.2,3.7-4,6.3-5.4c2.6-1.4,5.6-2,9.1-2c3.6,0,6.6,0.7,9.2,2.2c2.5,1.4,4.6,3.3,6.2,5.7c1.6,2.3,2.7,5,3.4,8.1
			c0.7,3,1,6.1,0.9,9.2H641C641,482.1,641.3,484.1,641.8,486.2z M668.9,469.6c-0.7-1.9-1.6-3.6-2.8-5.1c-1.2-1.5-2.7-2.7-4.4-3.6
			c-1.7-0.9-3.7-1.3-5.9-1.3c-2.3,0-4.3,0.4-6,1.3c-1.7,0.9-3.2,2.1-4.4,3.6c-1.2,1.5-2.2,3.2-2.9,5.1c-0.7,1.9-1.2,3.9-1.4,5.9h29
			C669.9,473.5,669.6,471.5,668.9,469.6z"/>
		<path id="XMLID_204_" class="st3" d="M729,456.3v4.6h-9.1v30.2c0,1.8,0.2,3.2,0.7,4.2c0.5,1,1.7,1.6,3.7,1.7
			c1.6,0,3.1-0.1,4.7-0.3v4.6c-0.8,0-1.6,0-2.4,0.1c-0.8,0.1-1.6,0.1-2.4,0.1c-3.6,0-6.2-0.7-7.6-2.1c-1.4-1.4-2.1-4-2.1-7.9v-30.6
			h-7.8v-4.6h7.8v-13.4h5.5v13.4H729z"/>
		<path id="XMLID_201_" class="st3" d="M767,456.9c2.6,1.3,4.8,3,6.6,5.1s3.1,4.6,4.1,7.5c0.9,2.9,1.4,5.9,1.4,9.1
			c0,3.2-0.5,6.3-1.4,9.1c-0.9,2.9-2.3,5.4-4.1,7.5c-1.8,2.1-4,3.8-6.6,5.1c-2.6,1.2-5.7,1.9-9.1,1.9s-6.4-0.6-9.1-1.9
			c-2.6-1.2-4.8-2.9-6.6-5.1c-1.8-2.1-3.1-4.6-4.1-7.5c-0.9-2.9-1.4-5.9-1.4-9.1c0-3.2,0.5-6.3,1.4-9.1c0.9-2.9,2.3-5.4,4.1-7.5
			s4-3.8,6.6-5.1c2.6-1.3,5.6-1.9,9.1-1.9S764.4,455.6,767,456.9z M751.1,461.2c-2,1.1-3.6,2.5-4.9,4.3c-1.3,1.8-2.3,3.8-2.9,6.1
			c-0.7,2.3-1,4.6-1,7c0,2.4,0.3,4.7,1,7c0.7,2.3,1.6,4.3,2.9,6.1c1.3,1.8,2.9,3.2,4.9,4.3s4.2,1.6,6.8,1.6c2.6,0,4.9-0.6,6.9-1.6
			c2-1.1,3.6-2.5,4.9-4.3c1.3-1.8,2.3-3.8,2.9-6.1c0.7-2.3,1-4.6,1-7c0-2.4-0.3-4.7-1-7c-0.7-2.3-1.6-4.3-2.9-6.1
			c-1.3-1.8-2.9-3.2-4.9-4.3c-2-1.1-4.3-1.6-6.9-1.6C755.4,459.6,753.1,460.1,751.1,461.2z"/>
		<path id="XMLID_199_" class="st3" d="M816.5,456.3l14.7,38.2l13.8-38.2h5.5l-19.4,51.5c-0.8,1.9-1.6,3.5-2.2,4.7
			c-0.7,1.2-1.5,2.2-2.3,2.9c-0.8,0.7-1.8,1.2-2.9,1.6c-1.1,0.3-2.6,0.5-4.3,0.5c-1.1-0.1-1.9-0.1-2.6-0.1c-0.6,0-1.1-0.1-1.6-0.3
			v-4.6c0.6,0.1,1.3,0.2,1.9,0.3c0.6,0.1,1.2,0.1,1.9,0.1c1.2,0,2.2-0.2,3-0.5c0.8-0.3,1.5-0.8,2-1.4c0.6-0.6,1.1-1.3,1.5-2.2
			c0.4-0.9,0.8-1.8,1.3-2.9l1.9-5l-17.9-44.6H816.5z"/>
		<path id="XMLID_196_" class="st3" d="M886,456.9c2.6,1.3,4.8,3,6.6,5.1s3.2,4.6,4.1,7.5c0.9,2.9,1.4,5.9,1.4,9.1
			c0,3.2-0.5,6.3-1.4,9.1c-0.9,2.9-2.3,5.4-4.1,7.5c-1.8,2.1-4,3.8-6.6,5.1c-2.6,1.2-5.7,1.9-9.1,1.9c-3.4,0-6.4-0.6-9.1-1.9
			c-2.6-1.2-4.8-2.9-6.6-5.1c-1.8-2.1-3.2-4.6-4.1-7.5c-0.9-2.9-1.4-5.9-1.4-9.1c0-3.2,0.5-6.3,1.4-9.1c0.9-2.9,2.3-5.4,4.1-7.5
			c1.8-2.1,4-3.8,6.6-5.1c2.6-1.3,5.7-1.9,9.1-1.9C880.3,455,883.4,455.6,886,456.9z M870.1,461.2c-2,1.1-3.6,2.5-4.9,4.3
			c-1.3,1.8-2.3,3.8-2.9,6.1c-0.7,2.3-1,4.6-1,7c0,2.4,0.3,4.7,1,7c0.7,2.3,1.6,4.3,2.9,6.1c1.3,1.8,2.9,3.2,4.9,4.3
			s4.3,1.6,6.9,1.6c2.6,0,4.9-0.6,6.8-1.6c2-1.1,3.6-2.5,4.9-4.3c1.3-1.8,2.3-3.8,2.9-6.1c0.7-2.3,1-4.6,1-7c0-2.4-0.3-4.7-1-7
			c-0.7-2.3-1.6-4.3-2.9-6.1c-1.3-1.8-2.9-3.2-4.9-4.3c-2-1.1-4.3-1.6-6.8-1.6C874.3,459.6,872,460.1,870.1,461.2z"/>
		<path id="XMLID_194_" class="st3" d="M939.6,501V493h-0.2c-1.4,3-3.5,5.3-6.3,6.9c-2.7,1.6-5.8,2.4-9.1,2.4
			c-2.8,0-5.2-0.4-7.2-1.2c-2-0.8-3.6-1.9-4.9-3.3c-1.2-1.4-2.2-3.2-2.7-5.3c-0.6-2.1-0.9-4.4-0.9-7.1v-29h5.5v29.1
			c0.1,4,1,7.1,2.8,9.2c1.8,2.1,4.8,3.1,9.1,3.1c2.4,0,4.4-0.5,6.1-1.5c1.7-1,3.1-2.4,4.2-4c1.1-1.7,1.9-3.6,2.4-5.8
			c0.5-2.2,0.8-4.4,0.8-6.6v-23.5h5.5V501H939.6z"/>
		<path id="XMLID_192_" class="st3" d="M962.2,456.3v10.5h0.2c1.4-3.6,3.5-6.4,6.5-8.4s6.4-2.9,10.4-2.7v5.5c-2.5-0.1-4.7,0.2-6.8,1
			c-2,0.8-3.8,1.9-5.2,3.3c-1.5,1.4-2.6,3.2-3.4,5.2c-0.8,2-1.2,4.2-1.2,6.5V501h-5.5v-44.7H962.2z"/>
		<path id="XMLID_189_" class="st3" d="M1018.3,439.1v25.7h0.2c0.6-1.6,1.4-3,2.5-4.3c1.1-1.2,2.3-2.2,3.7-3.1
			c1.4-0.8,2.9-1.5,4.5-1.9c1.6-0.4,3.2-0.6,4.9-0.6c3.4,0,6.4,0.6,8.9,1.9c2.5,1.3,4.6,3,6.3,5.2c1.7,2.2,2.9,4.7,3.7,7.5
			c0.8,2.9,1.2,5.9,1.2,9.1c0,3.2-0.4,6.2-1.2,9.1s-2.1,5.4-3.7,7.5c-1.7,2.2-3.8,3.9-6.3,5.1c-2.5,1.2-5.5,1.9-8.9,1.9
			c-3.6,0-6.9-0.8-9.8-2.5c-2.9-1.7-4.9-4.1-6.2-7.2h-0.2v8.5h-5v-61.9H1018.3z M1047.9,471.8c-0.5-2.3-1.4-4.3-2.6-6.1
			s-2.7-3.2-4.6-4.4c-1.9-1.1-4.1-1.7-6.7-1.7c-2.9,0-5.3,0.6-7.3,1.7c-2,1.1-3.6,2.6-4.9,4.4c-1.2,1.8-2.1,3.8-2.7,6.1
			c-0.5,2.3-0.8,4.6-0.8,6.9c0,2.3,0.3,4.6,0.8,6.9c0.5,2.3,1.4,4.3,2.7,6.1c1.2,1.8,2.9,3.3,4.9,4.4c2,1.1,4.4,1.7,7.3,1.7
			c2.6,0,4.8-0.6,6.7-1.7c1.8-1.1,3.4-2.6,4.6-4.4c1.2-1.8,2-3.8,2.6-6.1c0.6-2.3,0.8-4.6,0.8-6.9
			C1048.7,476.3,1048.4,474.1,1047.9,471.8z"/>
		<path id="XMLID_187_" class="st3" d="M1096,501V493h-0.2c-1.4,3-3.5,5.3-6.3,6.9c-2.7,1.6-5.8,2.4-9.1,2.4c-2.8,0-5.2-0.4-7.2-1.2
			c-2-0.8-3.6-1.9-4.9-3.3c-1.2-1.4-2.2-3.2-2.7-5.3c-0.6-2.1-0.9-4.4-0.9-7.1v-29h5.5v29.1c0.1,4,1,7.1,2.8,9.2
			c1.8,2.1,4.8,3.1,9.1,3.1c2.4,0,4.4-0.5,6.1-1.5c1.7-1,3.1-2.4,4.2-4c1.1-1.7,1.9-3.6,2.4-5.8c0.5-2.2,0.8-4.4,0.8-6.6v-23.5h5.5
			V501H1096z"/>
		<path id="XMLID_185_" class="st3" d="M1139.3,465c-0.6-1.2-1.5-2.3-2.6-3.1c-1.1-0.8-2.3-1.4-3.7-1.8c-1.4-0.4-2.9-0.6-4.4-0.6
			c-1.2,0-2.4,0.1-3.7,0.4c-1.2,0.3-2.4,0.7-3.4,1.3c-1,0.6-1.9,1.4-2.5,2.4c-0.6,1-1,2.2-1,3.6c0,1.2,0.3,2.2,0.9,3.1
			c0.6,0.8,1.4,1.6,2.3,2.1c0.9,0.6,1.9,1,3,1.4c1.1,0.4,2.1,0.7,3,0.9l7.3,1.6c1.6,0.2,3.1,0.6,4.6,1.3c1.5,0.6,2.9,1.4,4.1,2.4
			c1.2,1,2.2,2.2,2.9,3.6c0.7,1.4,1.1,3.1,1.1,5.1c0,2.4-0.5,4.5-1.6,6.2c-1.1,1.7-2.5,3.1-4.2,4.2c-1.7,1.1-3.6,1.8-5.8,2.3
			c-2.1,0.5-4.3,0.7-6.3,0.7c-5.3,0-9.5-1.2-12.8-3.7c-3.3-2.5-5.1-6.5-5.6-12h5.5c0.2,3.7,1.6,6.5,4,8.4c2.5,1.9,5.5,2.8,9.1,2.8
			c1.3,0,2.7-0.1,4.1-0.4c1.4-0.3,2.7-0.8,3.9-1.5c1.2-0.7,2.2-1.6,3-2.6c0.8-1.1,1.2-2.4,1.2-4c0-1.3-0.3-2.4-0.8-3.3
			c-0.5-0.9-1.3-1.6-2.2-2.2c-0.9-0.6-2-1.1-3.2-1.5c-1.2-0.4-2.4-0.7-3.6-1l-7-1.6c-1.8-0.5-3.4-1-4.9-1.6c-1.5-0.6-2.8-1.4-4-2.2
			c-1.1-0.9-2-2-2.6-3.3c-0.6-1.3-1-2.9-1-4.8c0-2.3,0.5-4.2,1.5-5.8c1-1.6,2.3-2.9,3.9-3.9s3.4-1.7,5.4-2.2c2-0.5,4-0.7,5.9-0.7
			c2.2,0,4.3,0.3,6.3,0.9c1.9,0.6,3.6,1.5,5.1,2.7c1.5,1.2,2.6,2.7,3.5,4.5c0.9,1.8,1.4,3.9,1.5,6.3h-5.5
			C1140.3,467.7,1139.9,466.2,1139.3,465z"/>
		<path id="XMLID_182_" class="st3" d="M1163,439.1v8.8h-5.5v-8.8H1163z M1163,456.3V501h-5.5v-44.7H1163z"/>
		<path id="XMLID_180_" class="st3" d="M1181,456.3v7.7h0.2c1-2.7,2.9-4.9,5.5-6.5c2.7-1.6,5.6-2.5,8.8-2.5c3.1,0,5.7,0.4,7.8,1.2
			c2.1,0.8,3.8,1.9,5.1,3.4c1.3,1.5,2.2,3.3,2.7,5.4c0.5,2.1,0.8,4.5,0.8,7.2V501h-5.5v-27.9c0-1.9-0.2-3.7-0.5-5.3
			c-0.3-1.6-1-3.1-1.8-4.3c-0.9-1.2-2-2.2-3.5-2.9c-1.5-0.7-3.3-1-5.5-1c-2.2,0-4.1,0.4-5.9,1.2c-1.7,0.8-3.1,1.9-4.3,3.2
			s-2.1,3-2.8,4.9c-0.7,1.9-1,3.9-1.1,6.1V501h-5.5v-44.7H1181z"/>
		<path id="XMLID_177_" class="st3" d="M1228.4,486.2c0.6,2.1,1.4,4,2.6,5.7c1.2,1.7,2.7,3.1,4.6,4.2c1.9,1.1,4.1,1.6,6.7,1.6
			c4,0,7.1-1,9.4-3.1c2.3-2.1,3.8-4.9,4.7-8.3h5.5c-1.2,5.1-3.3,9-6.4,11.8c-3.1,2.8-7.5,4.2-13.1,4.2c-3.5,0-6.6-0.6-9.1-1.9
			c-2.6-1.2-4.7-2.9-6.3-5.1c-1.6-2.2-2.8-4.7-3.6-7.5s-1.2-5.9-1.2-9.1c0-2.9,0.4-5.8,1.2-8.7c0.8-2.8,2-5.4,3.6-7.6
			c1.6-2.2,3.7-4,6.3-5.4c2.6-1.4,5.6-2,9.1-2c3.6,0,6.7,0.7,9.2,2.2c2.5,1.4,4.6,3.3,6.2,5.7c1.6,2.3,2.7,5,3.4,8.1
			c0.7,3,1,6.1,0.9,9.2h-34.4C1227.5,482.1,1227.8,484.1,1228.4,486.2z M1255.4,469.6c-0.7-1.9-1.6-3.6-2.8-5.1
			c-1.2-1.5-2.7-2.7-4.4-3.6c-1.7-0.9-3.7-1.3-5.9-1.3c-2.2,0-4.2,0.4-6,1.3c-1.7,0.9-3.2,2.1-4.4,3.6c-1.2,1.5-2.2,3.2-2.9,5.1
			c-0.7,1.9-1.2,3.9-1.4,5.9h29C1256.4,473.5,1256.1,471.5,1255.4,469.6z"/>
		<path id="XMLID_175_" class="st3" d="M1297.2,465c-0.6-1.2-1.5-2.3-2.6-3.1c-1.1-0.8-2.3-1.4-3.7-1.8c-1.4-0.4-2.9-0.6-4.4-0.6
			c-1.2,0-2.4,0.1-3.7,0.4c-1.2,0.3-2.4,0.7-3.4,1.3c-1,0.6-1.9,1.4-2.5,2.4c-0.6,1-1,2.2-1,3.6c0,1.2,0.3,2.2,0.9,3.1
			c0.6,0.8,1.4,1.6,2.3,2.1c0.9,0.6,1.9,1,3,1.4c1.1,0.4,2.1,0.7,3,0.9l7.3,1.6c1.6,0.2,3.1,0.6,4.6,1.3c1.5,0.6,2.9,1.4,4.1,2.4
			c1.2,1,2.2,2.2,2.9,3.6c0.7,1.4,1.1,3.1,1.1,5.1c0,2.4-0.5,4.5-1.6,6.2c-1.1,1.7-2.5,3.1-4.2,4.2c-1.7,1.1-3.6,1.8-5.8,2.3
			c-2.1,0.5-4.3,0.7-6.3,0.7c-5.3,0-9.5-1.2-12.8-3.7c-3.3-2.5-5.1-6.5-5.6-12h5.5c0.2,3.7,1.6,6.5,4,8.4c2.5,1.9,5.5,2.8,9.1,2.8
			c1.3,0,2.7-0.1,4.1-0.4c1.4-0.3,2.7-0.8,3.9-1.5c1.2-0.7,2.2-1.6,3-2.6c0.8-1.1,1.2-2.4,1.2-4c0-1.3-0.3-2.4-0.8-3.3
			c-0.5-0.9-1.3-1.6-2.2-2.2c-0.9-0.6-2-1.1-3.2-1.5c-1.2-0.4-2.4-0.7-3.6-1l-7-1.6c-1.8-0.5-3.4-1-4.9-1.6c-1.5-0.6-2.8-1.4-4-2.2
			c-1.1-0.9-2-2-2.6-3.3c-0.6-1.3-1-2.9-1-4.8c0-2.3,0.5-4.2,1.5-5.8c1-1.6,2.3-2.9,3.9-3.9s3.4-1.7,5.4-2.2c2-0.5,4-0.7,5.9-0.7
			c2.2,0,4.3,0.3,6.3,0.9c1.9,0.6,3.6,1.5,5.1,2.7c1.5,1.2,2.6,2.7,3.5,4.5c0.9,1.8,1.4,3.9,1.5,6.3h-5.5
			C1298.2,467.7,1297.9,466.2,1297.2,465z"/>
		<path id="XMLID_173_" class="st3" d="M1341.1,465c-0.6-1.2-1.5-2.3-2.6-3.1c-1.1-0.8-2.3-1.4-3.7-1.8c-1.4-0.4-2.9-0.6-4.4-0.6
			c-1.2,0-2.4,0.1-3.7,0.4c-1.2,0.3-2.4,0.7-3.4,1.3c-1,0.6-1.9,1.4-2.5,2.4c-0.6,1-1,2.2-1,3.6c0,1.2,0.3,2.2,0.9,3.1
			c0.6,0.8,1.4,1.6,2.3,2.1c0.9,0.6,1.9,1,3,1.4c1.1,0.4,2.1,0.7,3,0.9l7.3,1.6c1.6,0.2,3.1,0.6,4.6,1.3c1.5,0.6,2.9,1.4,4.1,2.4
			c1.2,1,2.2,2.2,2.9,3.6c0.7,1.4,1.1,3.1,1.1,5.1c0,2.4-0.5,4.5-1.6,6.2c-1.1,1.7-2.5,3.1-4.2,4.2c-1.7,1.1-3.6,1.8-5.8,2.3
			c-2.1,0.5-4.3,0.7-6.3,0.7c-5.3,0-9.5-1.2-12.8-3.7c-3.3-2.5-5.1-6.5-5.6-12h5.5c0.2,3.7,1.6,6.5,4,8.4c2.5,1.9,5.5,2.8,9.1,2.8
			c1.3,0,2.7-0.1,4.1-0.4c1.4-0.3,2.7-0.8,3.9-1.5c1.2-0.7,2.2-1.6,3-2.6c0.8-1.1,1.2-2.4,1.2-4c0-1.3-0.3-2.4-0.8-3.3
			c-0.5-0.9-1.3-1.6-2.2-2.2c-0.9-0.6-2-1.1-3.2-1.5c-1.2-0.4-2.4-0.7-3.6-1l-7-1.6c-1.8-0.5-3.4-1-4.9-1.6c-1.5-0.6-2.8-1.4-4-2.2
			c-1.1-0.9-2-2-2.6-3.3c-0.6-1.3-1-2.9-1-4.8c0-2.3,0.5-4.2,1.5-5.8c1-1.6,2.3-2.9,3.9-3.9s3.4-1.7,5.4-2.2c2-0.5,4-0.7,5.9-0.7
			c2.2,0,4.3,0.3,6.3,0.9c1.9,0.6,3.6,1.5,5.1,2.7c1.5,1.2,2.6,2.7,3.5,4.5c0.9,1.8,1.4,3.9,1.5,6.3h-5.5
			C1342.1,467.7,1341.7,466.2,1341.1,465z"/>
	</g>
</g>
</svg>
